%TF.GenerationSoftware,KiCad,Pcbnew,9.0.7*%
%TF.CreationDate,2026-03-28T21:40:38+01:00*%
%TF.ProjectId,ANE21_PCB,414e4532-315f-4504-9342-2e6b69636164,rev?*%
%TF.SameCoordinates,Original*%
%TF.FileFunction,Legend,Top*%
%TF.FilePolarity,Positive*%
%FSLAX46Y46*%
G04 Gerber Fmt 4.6, Leading zero omitted, Abs format (unit mm)*
G04 Created by KiCad (PCBNEW 9.0.7) date 2026-03-28 21:40:38*
%MOMM*%
%LPD*%
G01*
G04 APERTURE LIST*
%ADD10C,0.150000*%
%ADD11C,0.100000*%
%ADD12C,0.120000*%
%ADD13C,0.127000*%
%ADD14C,0.200000*%
G04 APERTURE END LIST*
D10*
X62999160Y-61584104D02*
X63475350Y-61584104D01*
X62903922Y-61869819D02*
X63237255Y-60869819D01*
X63237255Y-60869819D02*
X63570588Y-61869819D01*
X63903922Y-61869819D02*
X63903922Y-60869819D01*
X63903922Y-60869819D02*
X64475350Y-61869819D01*
X64475350Y-61869819D02*
X64475350Y-60869819D01*
X64951541Y-61346009D02*
X65284874Y-61346009D01*
X65427731Y-61869819D02*
X64951541Y-61869819D01*
X64951541Y-61869819D02*
X64951541Y-60869819D01*
X64951541Y-60869819D02*
X65427731Y-60869819D01*
X65808684Y-60965057D02*
X65856303Y-60917438D01*
X65856303Y-60917438D02*
X65951541Y-60869819D01*
X65951541Y-60869819D02*
X66189636Y-60869819D01*
X66189636Y-60869819D02*
X66284874Y-60917438D01*
X66284874Y-60917438D02*
X66332493Y-60965057D01*
X66332493Y-60965057D02*
X66380112Y-61060295D01*
X66380112Y-61060295D02*
X66380112Y-61155533D01*
X66380112Y-61155533D02*
X66332493Y-61298390D01*
X66332493Y-61298390D02*
X65761065Y-61869819D01*
X65761065Y-61869819D02*
X66380112Y-61869819D01*
X67332493Y-61869819D02*
X66761065Y-61869819D01*
X67046779Y-61869819D02*
X67046779Y-60869819D01*
X67046779Y-60869819D02*
X66951541Y-61012676D01*
X66951541Y-61012676D02*
X66856303Y-61107914D01*
X66856303Y-61107914D02*
X66761065Y-61155533D01*
X68522970Y-61488866D02*
X69284875Y-61488866D01*
X70522970Y-61869819D02*
X70522970Y-60869819D01*
X70522970Y-61346009D02*
X71094398Y-61346009D01*
X71094398Y-61869819D02*
X71094398Y-60869819D01*
X71713446Y-61869819D02*
X71618208Y-61822200D01*
X71618208Y-61822200D02*
X71570589Y-61774580D01*
X71570589Y-61774580D02*
X71522970Y-61679342D01*
X71522970Y-61679342D02*
X71522970Y-61393628D01*
X71522970Y-61393628D02*
X71570589Y-61298390D01*
X71570589Y-61298390D02*
X71618208Y-61250771D01*
X71618208Y-61250771D02*
X71713446Y-61203152D01*
X71713446Y-61203152D02*
X71856303Y-61203152D01*
X71856303Y-61203152D02*
X71951541Y-61250771D01*
X71951541Y-61250771D02*
X71999160Y-61298390D01*
X71999160Y-61298390D02*
X72046779Y-61393628D01*
X72046779Y-61393628D02*
X72046779Y-61679342D01*
X72046779Y-61679342D02*
X71999160Y-61774580D01*
X71999160Y-61774580D02*
X71951541Y-61822200D01*
X71951541Y-61822200D02*
X71856303Y-61869819D01*
X71856303Y-61869819D02*
X71713446Y-61869819D01*
X72903922Y-61203152D02*
X72903922Y-62012676D01*
X72903922Y-62012676D02*
X72856303Y-62107914D01*
X72856303Y-62107914D02*
X72808684Y-62155533D01*
X72808684Y-62155533D02*
X72713446Y-62203152D01*
X72713446Y-62203152D02*
X72570589Y-62203152D01*
X72570589Y-62203152D02*
X72475351Y-62155533D01*
X72903922Y-61822200D02*
X72808684Y-61869819D01*
X72808684Y-61869819D02*
X72618208Y-61869819D01*
X72618208Y-61869819D02*
X72522970Y-61822200D01*
X72522970Y-61822200D02*
X72475351Y-61774580D01*
X72475351Y-61774580D02*
X72427732Y-61679342D01*
X72427732Y-61679342D02*
X72427732Y-61393628D01*
X72427732Y-61393628D02*
X72475351Y-61298390D01*
X72475351Y-61298390D02*
X72522970Y-61250771D01*
X72522970Y-61250771D02*
X72618208Y-61203152D01*
X72618208Y-61203152D02*
X72808684Y-61203152D01*
X72808684Y-61203152D02*
X72903922Y-61250771D01*
X73761065Y-61822200D02*
X73665827Y-61869819D01*
X73665827Y-61869819D02*
X73475351Y-61869819D01*
X73475351Y-61869819D02*
X73380113Y-61822200D01*
X73380113Y-61822200D02*
X73332494Y-61726961D01*
X73332494Y-61726961D02*
X73332494Y-61346009D01*
X73332494Y-61346009D02*
X73380113Y-61250771D01*
X73380113Y-61250771D02*
X73475351Y-61203152D01*
X73475351Y-61203152D02*
X73665827Y-61203152D01*
X73665827Y-61203152D02*
X73761065Y-61250771D01*
X73761065Y-61250771D02*
X73808684Y-61346009D01*
X73808684Y-61346009D02*
X73808684Y-61441247D01*
X73808684Y-61441247D02*
X73332494Y-61536485D01*
X74189637Y-61822200D02*
X74284875Y-61869819D01*
X74284875Y-61869819D02*
X74475351Y-61869819D01*
X74475351Y-61869819D02*
X74570589Y-61822200D01*
X74570589Y-61822200D02*
X74618208Y-61726961D01*
X74618208Y-61726961D02*
X74618208Y-61679342D01*
X74618208Y-61679342D02*
X74570589Y-61584104D01*
X74570589Y-61584104D02*
X74475351Y-61536485D01*
X74475351Y-61536485D02*
X74332494Y-61536485D01*
X74332494Y-61536485D02*
X74237256Y-61488866D01*
X74237256Y-61488866D02*
X74189637Y-61393628D01*
X74189637Y-61393628D02*
X74189637Y-61346009D01*
X74189637Y-61346009D02*
X74237256Y-61250771D01*
X74237256Y-61250771D02*
X74332494Y-61203152D01*
X74332494Y-61203152D02*
X74475351Y-61203152D01*
X74475351Y-61203152D02*
X74570589Y-61250771D01*
X75475351Y-61822200D02*
X75380113Y-61869819D01*
X75380113Y-61869819D02*
X75189637Y-61869819D01*
X75189637Y-61869819D02*
X75094399Y-61822200D01*
X75094399Y-61822200D02*
X75046780Y-61774580D01*
X75046780Y-61774580D02*
X74999161Y-61679342D01*
X74999161Y-61679342D02*
X74999161Y-61393628D01*
X74999161Y-61393628D02*
X75046780Y-61298390D01*
X75046780Y-61298390D02*
X75094399Y-61250771D01*
X75094399Y-61250771D02*
X75189637Y-61203152D01*
X75189637Y-61203152D02*
X75380113Y-61203152D01*
X75380113Y-61203152D02*
X75475351Y-61250771D01*
X75903923Y-61869819D02*
X75903923Y-60869819D01*
X76332494Y-61869819D02*
X76332494Y-61346009D01*
X76332494Y-61346009D02*
X76284875Y-61250771D01*
X76284875Y-61250771D02*
X76189637Y-61203152D01*
X76189637Y-61203152D02*
X76046780Y-61203152D01*
X76046780Y-61203152D02*
X75951542Y-61250771D01*
X75951542Y-61250771D02*
X75903923Y-61298390D01*
X76951542Y-61869819D02*
X76856304Y-61822200D01*
X76856304Y-61822200D02*
X76808685Y-61774580D01*
X76808685Y-61774580D02*
X76761066Y-61679342D01*
X76761066Y-61679342D02*
X76761066Y-61393628D01*
X76761066Y-61393628D02*
X76808685Y-61298390D01*
X76808685Y-61298390D02*
X76856304Y-61250771D01*
X76856304Y-61250771D02*
X76951542Y-61203152D01*
X76951542Y-61203152D02*
X77094399Y-61203152D01*
X77094399Y-61203152D02*
X77189637Y-61250771D01*
X77189637Y-61250771D02*
X77237256Y-61298390D01*
X77237256Y-61298390D02*
X77284875Y-61393628D01*
X77284875Y-61393628D02*
X77284875Y-61679342D01*
X77284875Y-61679342D02*
X77237256Y-61774580D01*
X77237256Y-61774580D02*
X77189637Y-61822200D01*
X77189637Y-61822200D02*
X77094399Y-61869819D01*
X77094399Y-61869819D02*
X76951542Y-61869819D01*
X77856304Y-61869819D02*
X77761066Y-61822200D01*
X77761066Y-61822200D02*
X77713447Y-61774580D01*
X77713447Y-61774580D02*
X77665828Y-61679342D01*
X77665828Y-61679342D02*
X77665828Y-61393628D01*
X77665828Y-61393628D02*
X77713447Y-61298390D01*
X77713447Y-61298390D02*
X77761066Y-61250771D01*
X77761066Y-61250771D02*
X77856304Y-61203152D01*
X77856304Y-61203152D02*
X77999161Y-61203152D01*
X77999161Y-61203152D02*
X78094399Y-61250771D01*
X78094399Y-61250771D02*
X78142018Y-61298390D01*
X78142018Y-61298390D02*
X78189637Y-61393628D01*
X78189637Y-61393628D02*
X78189637Y-61679342D01*
X78189637Y-61679342D02*
X78142018Y-61774580D01*
X78142018Y-61774580D02*
X78094399Y-61822200D01*
X78094399Y-61822200D02*
X77999161Y-61869819D01*
X77999161Y-61869819D02*
X77856304Y-61869819D01*
X78761066Y-61869819D02*
X78665828Y-61822200D01*
X78665828Y-61822200D02*
X78618209Y-61726961D01*
X78618209Y-61726961D02*
X78618209Y-60869819D01*
X80475352Y-61869819D02*
X80142019Y-61393628D01*
X79903924Y-61869819D02*
X79903924Y-60869819D01*
X79903924Y-60869819D02*
X80284876Y-60869819D01*
X80284876Y-60869819D02*
X80380114Y-60917438D01*
X80380114Y-60917438D02*
X80427733Y-60965057D01*
X80427733Y-60965057D02*
X80475352Y-61060295D01*
X80475352Y-61060295D02*
X80475352Y-61203152D01*
X80475352Y-61203152D02*
X80427733Y-61298390D01*
X80427733Y-61298390D02*
X80380114Y-61346009D01*
X80380114Y-61346009D02*
X80284876Y-61393628D01*
X80284876Y-61393628D02*
X79903924Y-61393628D01*
X81046781Y-61869819D02*
X80951543Y-61822200D01*
X80951543Y-61822200D02*
X80903924Y-61774580D01*
X80903924Y-61774580D02*
X80856305Y-61679342D01*
X80856305Y-61679342D02*
X80856305Y-61393628D01*
X80856305Y-61393628D02*
X80903924Y-61298390D01*
X80903924Y-61298390D02*
X80951543Y-61250771D01*
X80951543Y-61250771D02*
X81046781Y-61203152D01*
X81046781Y-61203152D02*
X81189638Y-61203152D01*
X81189638Y-61203152D02*
X81284876Y-61250771D01*
X81284876Y-61250771D02*
X81332495Y-61298390D01*
X81332495Y-61298390D02*
X81380114Y-61393628D01*
X81380114Y-61393628D02*
X81380114Y-61679342D01*
X81380114Y-61679342D02*
X81332495Y-61774580D01*
X81332495Y-61774580D02*
X81284876Y-61822200D01*
X81284876Y-61822200D02*
X81189638Y-61869819D01*
X81189638Y-61869819D02*
X81046781Y-61869819D01*
X81665829Y-61203152D02*
X82046781Y-61203152D01*
X81808686Y-60869819D02*
X81808686Y-61726961D01*
X81808686Y-61726961D02*
X81856305Y-61822200D01*
X81856305Y-61822200D02*
X81951543Y-61869819D01*
X81951543Y-61869819D02*
X82046781Y-61869819D01*
X82237258Y-61203152D02*
X82618210Y-61203152D01*
X82380115Y-60869819D02*
X82380115Y-61726961D01*
X82380115Y-61726961D02*
X82427734Y-61822200D01*
X82427734Y-61822200D02*
X82522972Y-61869819D01*
X82522972Y-61869819D02*
X82618210Y-61869819D01*
X83332496Y-61822200D02*
X83237258Y-61869819D01*
X83237258Y-61869819D02*
X83046782Y-61869819D01*
X83046782Y-61869819D02*
X82951544Y-61822200D01*
X82951544Y-61822200D02*
X82903925Y-61726961D01*
X82903925Y-61726961D02*
X82903925Y-61346009D01*
X82903925Y-61346009D02*
X82951544Y-61250771D01*
X82951544Y-61250771D02*
X83046782Y-61203152D01*
X83046782Y-61203152D02*
X83237258Y-61203152D01*
X83237258Y-61203152D02*
X83332496Y-61250771D01*
X83332496Y-61250771D02*
X83380115Y-61346009D01*
X83380115Y-61346009D02*
X83380115Y-61441247D01*
X83380115Y-61441247D02*
X82903925Y-61536485D01*
X83808687Y-61869819D02*
X83808687Y-61203152D01*
X83808687Y-61393628D02*
X83856306Y-61298390D01*
X83856306Y-61298390D02*
X83903925Y-61250771D01*
X83903925Y-61250771D02*
X83999163Y-61203152D01*
X83999163Y-61203152D02*
X84094401Y-61203152D01*
X84856306Y-61869819D02*
X84856306Y-60869819D01*
X84856306Y-61822200D02*
X84761068Y-61869819D01*
X84761068Y-61869819D02*
X84570592Y-61869819D01*
X84570592Y-61869819D02*
X84475354Y-61822200D01*
X84475354Y-61822200D02*
X84427735Y-61774580D01*
X84427735Y-61774580D02*
X84380116Y-61679342D01*
X84380116Y-61679342D02*
X84380116Y-61393628D01*
X84380116Y-61393628D02*
X84427735Y-61298390D01*
X84427735Y-61298390D02*
X84475354Y-61250771D01*
X84475354Y-61250771D02*
X84570592Y-61203152D01*
X84570592Y-61203152D02*
X84761068Y-61203152D01*
X84761068Y-61203152D02*
X84856306Y-61250771D01*
X85761068Y-61869819D02*
X85761068Y-61346009D01*
X85761068Y-61346009D02*
X85713449Y-61250771D01*
X85713449Y-61250771D02*
X85618211Y-61203152D01*
X85618211Y-61203152D02*
X85427735Y-61203152D01*
X85427735Y-61203152D02*
X85332497Y-61250771D01*
X85761068Y-61822200D02*
X85665830Y-61869819D01*
X85665830Y-61869819D02*
X85427735Y-61869819D01*
X85427735Y-61869819D02*
X85332497Y-61822200D01*
X85332497Y-61822200D02*
X85284878Y-61726961D01*
X85284878Y-61726961D02*
X85284878Y-61631723D01*
X85284878Y-61631723D02*
X85332497Y-61536485D01*
X85332497Y-61536485D02*
X85427735Y-61488866D01*
X85427735Y-61488866D02*
X85665830Y-61488866D01*
X85665830Y-61488866D02*
X85761068Y-61441247D01*
X86237259Y-61869819D02*
X86237259Y-61203152D01*
X86237259Y-61298390D02*
X86284878Y-61250771D01*
X86284878Y-61250771D02*
X86380116Y-61203152D01*
X86380116Y-61203152D02*
X86522973Y-61203152D01*
X86522973Y-61203152D02*
X86618211Y-61250771D01*
X86618211Y-61250771D02*
X86665830Y-61346009D01*
X86665830Y-61346009D02*
X86665830Y-61869819D01*
X86665830Y-61346009D02*
X86713449Y-61250771D01*
X86713449Y-61250771D02*
X86808687Y-61203152D01*
X86808687Y-61203152D02*
X86951544Y-61203152D01*
X86951544Y-61203152D02*
X87046783Y-61250771D01*
X87046783Y-61250771D02*
X87094402Y-61346009D01*
X87094402Y-61346009D02*
X87094402Y-61869819D01*
X88332497Y-61346009D02*
X88665830Y-61346009D01*
X88808687Y-61869819D02*
X88332497Y-61869819D01*
X88332497Y-61869819D02*
X88332497Y-60869819D01*
X88332497Y-60869819D02*
X88808687Y-60869819D01*
X89380116Y-61869819D02*
X89284878Y-61822200D01*
X89284878Y-61822200D02*
X89237259Y-61726961D01*
X89237259Y-61726961D02*
X89237259Y-60869819D01*
X90142021Y-61822200D02*
X90046783Y-61869819D01*
X90046783Y-61869819D02*
X89856307Y-61869819D01*
X89856307Y-61869819D02*
X89761069Y-61822200D01*
X89761069Y-61822200D02*
X89713450Y-61726961D01*
X89713450Y-61726961D02*
X89713450Y-61346009D01*
X89713450Y-61346009D02*
X89761069Y-61250771D01*
X89761069Y-61250771D02*
X89856307Y-61203152D01*
X89856307Y-61203152D02*
X90046783Y-61203152D01*
X90046783Y-61203152D02*
X90142021Y-61250771D01*
X90142021Y-61250771D02*
X90189640Y-61346009D01*
X90189640Y-61346009D02*
X90189640Y-61441247D01*
X90189640Y-61441247D02*
X89713450Y-61536485D01*
X90618212Y-61869819D02*
X90618212Y-60869819D01*
X90713450Y-61488866D02*
X90999164Y-61869819D01*
X90999164Y-61203152D02*
X90618212Y-61584104D01*
X91284879Y-61203152D02*
X91665831Y-61203152D01*
X91427736Y-60869819D02*
X91427736Y-61726961D01*
X91427736Y-61726961D02*
X91475355Y-61822200D01*
X91475355Y-61822200D02*
X91570593Y-61869819D01*
X91570593Y-61869819D02*
X91665831Y-61869819D01*
X91999165Y-61869819D02*
X91999165Y-61203152D01*
X91999165Y-61393628D02*
X92046784Y-61298390D01*
X92046784Y-61298390D02*
X92094403Y-61250771D01*
X92094403Y-61250771D02*
X92189641Y-61203152D01*
X92189641Y-61203152D02*
X92284879Y-61203152D01*
X92761070Y-61869819D02*
X92665832Y-61822200D01*
X92665832Y-61822200D02*
X92618213Y-61774580D01*
X92618213Y-61774580D02*
X92570594Y-61679342D01*
X92570594Y-61679342D02*
X92570594Y-61393628D01*
X92570594Y-61393628D02*
X92618213Y-61298390D01*
X92618213Y-61298390D02*
X92665832Y-61250771D01*
X92665832Y-61250771D02*
X92761070Y-61203152D01*
X92761070Y-61203152D02*
X92903927Y-61203152D01*
X92903927Y-61203152D02*
X92999165Y-61250771D01*
X92999165Y-61250771D02*
X93046784Y-61298390D01*
X93046784Y-61298390D02*
X93094403Y-61393628D01*
X93094403Y-61393628D02*
X93094403Y-61679342D01*
X93094403Y-61679342D02*
X93046784Y-61774580D01*
X93046784Y-61774580D02*
X92999165Y-61822200D01*
X92999165Y-61822200D02*
X92903927Y-61869819D01*
X92903927Y-61869819D02*
X92761070Y-61869819D01*
X93380118Y-61203152D02*
X93761070Y-61203152D01*
X93522975Y-60869819D02*
X93522975Y-61726961D01*
X93522975Y-61726961D02*
X93570594Y-61822200D01*
X93570594Y-61822200D02*
X93665832Y-61869819D01*
X93665832Y-61869819D02*
X93761070Y-61869819D01*
X94475356Y-61822200D02*
X94380118Y-61869819D01*
X94380118Y-61869819D02*
X94189642Y-61869819D01*
X94189642Y-61869819D02*
X94094404Y-61822200D01*
X94094404Y-61822200D02*
X94046785Y-61726961D01*
X94046785Y-61726961D02*
X94046785Y-61346009D01*
X94046785Y-61346009D02*
X94094404Y-61250771D01*
X94094404Y-61250771D02*
X94189642Y-61203152D01*
X94189642Y-61203152D02*
X94380118Y-61203152D01*
X94380118Y-61203152D02*
X94475356Y-61250771D01*
X94475356Y-61250771D02*
X94522975Y-61346009D01*
X94522975Y-61346009D02*
X94522975Y-61441247D01*
X94522975Y-61441247D02*
X94046785Y-61536485D01*
X95380118Y-61822200D02*
X95284880Y-61869819D01*
X95284880Y-61869819D02*
X95094404Y-61869819D01*
X95094404Y-61869819D02*
X94999166Y-61822200D01*
X94999166Y-61822200D02*
X94951547Y-61774580D01*
X94951547Y-61774580D02*
X94903928Y-61679342D01*
X94903928Y-61679342D02*
X94903928Y-61393628D01*
X94903928Y-61393628D02*
X94951547Y-61298390D01*
X94951547Y-61298390D02*
X94999166Y-61250771D01*
X94999166Y-61250771D02*
X95094404Y-61203152D01*
X95094404Y-61203152D02*
X95284880Y-61203152D01*
X95284880Y-61203152D02*
X95380118Y-61250771D01*
X95808690Y-61869819D02*
X95808690Y-60869819D01*
X96237261Y-61869819D02*
X96237261Y-61346009D01*
X96237261Y-61346009D02*
X96189642Y-61250771D01*
X96189642Y-61250771D02*
X96094404Y-61203152D01*
X96094404Y-61203152D02*
X95951547Y-61203152D01*
X95951547Y-61203152D02*
X95856309Y-61250771D01*
X95856309Y-61250771D02*
X95808690Y-61298390D01*
X96713452Y-61203152D02*
X96713452Y-61869819D01*
X96713452Y-61298390D02*
X96761071Y-61250771D01*
X96761071Y-61250771D02*
X96856309Y-61203152D01*
X96856309Y-61203152D02*
X96999166Y-61203152D01*
X96999166Y-61203152D02*
X97094404Y-61250771D01*
X97094404Y-61250771D02*
X97142023Y-61346009D01*
X97142023Y-61346009D02*
X97142023Y-61869819D01*
X97618214Y-61869819D02*
X97618214Y-61203152D01*
X97618214Y-60869819D02*
X97570595Y-60917438D01*
X97570595Y-60917438D02*
X97618214Y-60965057D01*
X97618214Y-60965057D02*
X97665833Y-60917438D01*
X97665833Y-60917438D02*
X97618214Y-60869819D01*
X97618214Y-60869819D02*
X97618214Y-60965057D01*
X98475356Y-61822200D02*
X98380118Y-61869819D01*
X98380118Y-61869819D02*
X98189642Y-61869819D01*
X98189642Y-61869819D02*
X98094404Y-61822200D01*
X98094404Y-61822200D02*
X98046785Y-61726961D01*
X98046785Y-61726961D02*
X98046785Y-61346009D01*
X98046785Y-61346009D02*
X98094404Y-61250771D01*
X98094404Y-61250771D02*
X98189642Y-61203152D01*
X98189642Y-61203152D02*
X98380118Y-61203152D01*
X98380118Y-61203152D02*
X98475356Y-61250771D01*
X98475356Y-61250771D02*
X98522975Y-61346009D01*
X98522975Y-61346009D02*
X98522975Y-61441247D01*
X98522975Y-61441247D02*
X98046785Y-61536485D01*
X98951547Y-61869819D02*
X98951547Y-60869819D01*
X99046785Y-61488866D02*
X99332499Y-61869819D01*
X99332499Y-61203152D02*
X98951547Y-61584104D01*
X101142023Y-61393628D02*
X101094404Y-61346009D01*
X101094404Y-61346009D02*
X100999166Y-61298390D01*
X100999166Y-61298390D02*
X100903928Y-61298390D01*
X100903928Y-61298390D02*
X100808690Y-61346009D01*
X100808690Y-61346009D02*
X100761071Y-61393628D01*
X100761071Y-61393628D02*
X100713452Y-61488866D01*
X100713452Y-61488866D02*
X100713452Y-61584104D01*
X100713452Y-61584104D02*
X100761071Y-61679342D01*
X100761071Y-61679342D02*
X100808690Y-61726961D01*
X100808690Y-61726961D02*
X100903928Y-61774580D01*
X100903928Y-61774580D02*
X100999166Y-61774580D01*
X100999166Y-61774580D02*
X101094404Y-61726961D01*
X101094404Y-61726961D02*
X101142023Y-61679342D01*
X101142023Y-61298390D02*
X101142023Y-61679342D01*
X101142023Y-61679342D02*
X101189642Y-61726961D01*
X101189642Y-61726961D02*
X101237261Y-61726961D01*
X101237261Y-61726961D02*
X101332500Y-61679342D01*
X101332500Y-61679342D02*
X101380119Y-61584104D01*
X101380119Y-61584104D02*
X101380119Y-61346009D01*
X101380119Y-61346009D02*
X101284881Y-61203152D01*
X101284881Y-61203152D02*
X101142023Y-61107914D01*
X101142023Y-61107914D02*
X100951547Y-61060295D01*
X100951547Y-61060295D02*
X100761071Y-61107914D01*
X100761071Y-61107914D02*
X100618214Y-61203152D01*
X100618214Y-61203152D02*
X100522976Y-61346009D01*
X100522976Y-61346009D02*
X100475357Y-61536485D01*
X100475357Y-61536485D02*
X100522976Y-61726961D01*
X100522976Y-61726961D02*
X100618214Y-61869819D01*
X100618214Y-61869819D02*
X100761071Y-61965057D01*
X100761071Y-61965057D02*
X100951547Y-62012676D01*
X100951547Y-62012676D02*
X101142023Y-61965057D01*
X101142023Y-61965057D02*
X101284881Y-61869819D01*
X101761071Y-60965057D02*
X101808690Y-60917438D01*
X101808690Y-60917438D02*
X101903928Y-60869819D01*
X101903928Y-60869819D02*
X102142023Y-60869819D01*
X102142023Y-60869819D02*
X102237261Y-60917438D01*
X102237261Y-60917438D02*
X102284880Y-60965057D01*
X102284880Y-60965057D02*
X102332499Y-61060295D01*
X102332499Y-61060295D02*
X102332499Y-61155533D01*
X102332499Y-61155533D02*
X102284880Y-61298390D01*
X102284880Y-61298390D02*
X101713452Y-61869819D01*
X101713452Y-61869819D02*
X102332499Y-61869819D01*
X102951547Y-60869819D02*
X103046785Y-60869819D01*
X103046785Y-60869819D02*
X103142023Y-60917438D01*
X103142023Y-60917438D02*
X103189642Y-60965057D01*
X103189642Y-60965057D02*
X103237261Y-61060295D01*
X103237261Y-61060295D02*
X103284880Y-61250771D01*
X103284880Y-61250771D02*
X103284880Y-61488866D01*
X103284880Y-61488866D02*
X103237261Y-61679342D01*
X103237261Y-61679342D02*
X103189642Y-61774580D01*
X103189642Y-61774580D02*
X103142023Y-61822200D01*
X103142023Y-61822200D02*
X103046785Y-61869819D01*
X103046785Y-61869819D02*
X102951547Y-61869819D01*
X102951547Y-61869819D02*
X102856309Y-61822200D01*
X102856309Y-61822200D02*
X102808690Y-61774580D01*
X102808690Y-61774580D02*
X102761071Y-61679342D01*
X102761071Y-61679342D02*
X102713452Y-61488866D01*
X102713452Y-61488866D02*
X102713452Y-61250771D01*
X102713452Y-61250771D02*
X102761071Y-61060295D01*
X102761071Y-61060295D02*
X102808690Y-60965057D01*
X102808690Y-60965057D02*
X102856309Y-60917438D01*
X102856309Y-60917438D02*
X102951547Y-60869819D01*
X103665833Y-60965057D02*
X103713452Y-60917438D01*
X103713452Y-60917438D02*
X103808690Y-60869819D01*
X103808690Y-60869819D02*
X104046785Y-60869819D01*
X104046785Y-60869819D02*
X104142023Y-60917438D01*
X104142023Y-60917438D02*
X104189642Y-60965057D01*
X104189642Y-60965057D02*
X104237261Y-61060295D01*
X104237261Y-61060295D02*
X104237261Y-61155533D01*
X104237261Y-61155533D02*
X104189642Y-61298390D01*
X104189642Y-61298390D02*
X103618214Y-61869819D01*
X103618214Y-61869819D02*
X104237261Y-61869819D01*
X105094404Y-60869819D02*
X104903928Y-60869819D01*
X104903928Y-60869819D02*
X104808690Y-60917438D01*
X104808690Y-60917438D02*
X104761071Y-60965057D01*
X104761071Y-60965057D02*
X104665833Y-61107914D01*
X104665833Y-61107914D02*
X104618214Y-61298390D01*
X104618214Y-61298390D02*
X104618214Y-61679342D01*
X104618214Y-61679342D02*
X104665833Y-61774580D01*
X104665833Y-61774580D02*
X104713452Y-61822200D01*
X104713452Y-61822200D02*
X104808690Y-61869819D01*
X104808690Y-61869819D02*
X104999166Y-61869819D01*
X104999166Y-61869819D02*
X105094404Y-61822200D01*
X105094404Y-61822200D02*
X105142023Y-61774580D01*
X105142023Y-61774580D02*
X105189642Y-61679342D01*
X105189642Y-61679342D02*
X105189642Y-61441247D01*
X105189642Y-61441247D02*
X105142023Y-61346009D01*
X105142023Y-61346009D02*
X105094404Y-61298390D01*
X105094404Y-61298390D02*
X104999166Y-61250771D01*
X104999166Y-61250771D02*
X104808690Y-61250771D01*
X104808690Y-61250771D02*
X104713452Y-61298390D01*
X104713452Y-61298390D02*
X104665833Y-61346009D01*
X104665833Y-61346009D02*
X104618214Y-61441247D01*
X65562493Y-93100771D02*
X65514874Y-93053152D01*
X65514874Y-93053152D02*
X65419636Y-92910295D01*
X65419636Y-92910295D02*
X65372017Y-92815057D01*
X65372017Y-92815057D02*
X65324398Y-92672200D01*
X65324398Y-92672200D02*
X65276779Y-92434104D01*
X65276779Y-92434104D02*
X65276779Y-92243628D01*
X65276779Y-92243628D02*
X65324398Y-92005533D01*
X65324398Y-92005533D02*
X65372017Y-91862676D01*
X65372017Y-91862676D02*
X65419636Y-91767438D01*
X65419636Y-91767438D02*
X65514874Y-91624580D01*
X65514874Y-91624580D02*
X65562493Y-91576961D01*
X65943446Y-92624580D02*
X65991065Y-92672200D01*
X65991065Y-92672200D02*
X65943446Y-92719819D01*
X65943446Y-92719819D02*
X65895827Y-92672200D01*
X65895827Y-92672200D02*
X65943446Y-92624580D01*
X65943446Y-92624580D02*
X65943446Y-92719819D01*
X65943446Y-92100771D02*
X65991065Y-92148390D01*
X65991065Y-92148390D02*
X65943446Y-92196009D01*
X65943446Y-92196009D02*
X65895827Y-92148390D01*
X65895827Y-92148390D02*
X65943446Y-92100771D01*
X65943446Y-92100771D02*
X65943446Y-92196009D01*
D11*
X107845714Y-107894895D02*
X107579047Y-107513942D01*
X107388571Y-107894895D02*
X107388571Y-107094895D01*
X107388571Y-107094895D02*
X107693333Y-107094895D01*
X107693333Y-107094895D02*
X107769523Y-107132990D01*
X107769523Y-107132990D02*
X107807618Y-107171085D01*
X107807618Y-107171085D02*
X107845714Y-107247276D01*
X107845714Y-107247276D02*
X107845714Y-107361561D01*
X107845714Y-107361561D02*
X107807618Y-107437752D01*
X107807618Y-107437752D02*
X107769523Y-107475847D01*
X107769523Y-107475847D02*
X107693333Y-107513942D01*
X107693333Y-107513942D02*
X107388571Y-107513942D01*
X108607618Y-107894895D02*
X108150475Y-107894895D01*
X108379047Y-107894895D02*
X108379047Y-107094895D01*
X108379047Y-107094895D02*
X108302856Y-107209180D01*
X108302856Y-107209180D02*
X108226666Y-107285371D01*
X108226666Y-107285371D02*
X108150475Y-107323466D01*
X108874285Y-107094895D02*
X109369523Y-107094895D01*
X109369523Y-107094895D02*
X109102857Y-107399657D01*
X109102857Y-107399657D02*
X109217142Y-107399657D01*
X109217142Y-107399657D02*
X109293333Y-107437752D01*
X109293333Y-107437752D02*
X109331428Y-107475847D01*
X109331428Y-107475847D02*
X109369523Y-107552038D01*
X109369523Y-107552038D02*
X109369523Y-107742514D01*
X109369523Y-107742514D02*
X109331428Y-107818704D01*
X109331428Y-107818704D02*
X109293333Y-107856800D01*
X109293333Y-107856800D02*
X109217142Y-107894895D01*
X109217142Y-107894895D02*
X108988571Y-107894895D01*
X108988571Y-107894895D02*
X108912380Y-107856800D01*
X108912380Y-107856800D02*
X108874285Y-107818704D01*
D10*
X107409524Y-106482295D02*
X107409524Y-105682295D01*
X107409524Y-105682295D02*
X107600000Y-105682295D01*
X107600000Y-105682295D02*
X107714286Y-105720390D01*
X107714286Y-105720390D02*
X107790476Y-105796580D01*
X107790476Y-105796580D02*
X107828571Y-105872771D01*
X107828571Y-105872771D02*
X107866667Y-106025152D01*
X107866667Y-106025152D02*
X107866667Y-106139438D01*
X107866667Y-106139438D02*
X107828571Y-106291819D01*
X107828571Y-106291819D02*
X107790476Y-106368009D01*
X107790476Y-106368009D02*
X107714286Y-106444200D01*
X107714286Y-106444200D02*
X107600000Y-106482295D01*
X107600000Y-106482295D02*
X107409524Y-106482295D01*
X108552381Y-105948961D02*
X108552381Y-106482295D01*
X108361905Y-105644200D02*
X108171428Y-106215628D01*
X108171428Y-106215628D02*
X108666667Y-106215628D01*
D11*
X86848095Y-94007419D02*
X86848095Y-94816942D01*
X86848095Y-94816942D02*
X86895714Y-94912180D01*
X86895714Y-94912180D02*
X86943333Y-94959800D01*
X86943333Y-94959800D02*
X87038571Y-95007419D01*
X87038571Y-95007419D02*
X87229047Y-95007419D01*
X87229047Y-95007419D02*
X87324285Y-94959800D01*
X87324285Y-94959800D02*
X87371904Y-94912180D01*
X87371904Y-94912180D02*
X87419523Y-94816942D01*
X87419523Y-94816942D02*
X87419523Y-94007419D01*
X87848095Y-94102657D02*
X87895714Y-94055038D01*
X87895714Y-94055038D02*
X87990952Y-94007419D01*
X87990952Y-94007419D02*
X88229047Y-94007419D01*
X88229047Y-94007419D02*
X88324285Y-94055038D01*
X88324285Y-94055038D02*
X88371904Y-94102657D01*
X88371904Y-94102657D02*
X88419523Y-94197895D01*
X88419523Y-94197895D02*
X88419523Y-94293133D01*
X88419523Y-94293133D02*
X88371904Y-94435990D01*
X88371904Y-94435990D02*
X87800476Y-95007419D01*
X87800476Y-95007419D02*
X88419523Y-95007419D01*
D10*
X83940912Y-59771407D02*
X83940912Y-60486559D01*
X83940912Y-60486559D02*
X83893236Y-60629590D01*
X83893236Y-60629590D02*
X83797882Y-60724944D01*
X83797882Y-60724944D02*
X83654852Y-60772620D01*
X83654852Y-60772620D02*
X83559498Y-60772620D01*
X84942125Y-60772620D02*
X84370004Y-60772620D01*
X84656065Y-60772620D02*
X84656065Y-59771407D01*
X84656065Y-59771407D02*
X84560711Y-59914438D01*
X84560711Y-59914438D02*
X84465357Y-60009791D01*
X84465357Y-60009791D02*
X84370004Y-60057468D01*
X63271905Y-103664819D02*
X63271905Y-102664819D01*
X63271905Y-102664819D02*
X63510000Y-102664819D01*
X63510000Y-102664819D02*
X63652857Y-102712438D01*
X63652857Y-102712438D02*
X63748095Y-102807676D01*
X63748095Y-102807676D02*
X63795714Y-102902914D01*
X63795714Y-102902914D02*
X63843333Y-103093390D01*
X63843333Y-103093390D02*
X63843333Y-103236247D01*
X63843333Y-103236247D02*
X63795714Y-103426723D01*
X63795714Y-103426723D02*
X63748095Y-103521961D01*
X63748095Y-103521961D02*
X63652857Y-103617200D01*
X63652857Y-103617200D02*
X63510000Y-103664819D01*
X63510000Y-103664819D02*
X63271905Y-103664819D01*
X64176667Y-102664819D02*
X64795714Y-102664819D01*
X64795714Y-102664819D02*
X64462381Y-103045771D01*
X64462381Y-103045771D02*
X64605238Y-103045771D01*
X64605238Y-103045771D02*
X64700476Y-103093390D01*
X64700476Y-103093390D02*
X64748095Y-103141009D01*
X64748095Y-103141009D02*
X64795714Y-103236247D01*
X64795714Y-103236247D02*
X64795714Y-103474342D01*
X64795714Y-103474342D02*
X64748095Y-103569580D01*
X64748095Y-103569580D02*
X64700476Y-103617200D01*
X64700476Y-103617200D02*
X64605238Y-103664819D01*
X64605238Y-103664819D02*
X64319524Y-103664819D01*
X64319524Y-103664819D02*
X64224286Y-103617200D01*
X64224286Y-103617200D02*
X64176667Y-103569580D01*
X68576667Y-103622295D02*
X68310000Y-103241342D01*
X68119524Y-103622295D02*
X68119524Y-102822295D01*
X68119524Y-102822295D02*
X68424286Y-102822295D01*
X68424286Y-102822295D02*
X68500476Y-102860390D01*
X68500476Y-102860390D02*
X68538571Y-102898485D01*
X68538571Y-102898485D02*
X68576667Y-102974676D01*
X68576667Y-102974676D02*
X68576667Y-103088961D01*
X68576667Y-103088961D02*
X68538571Y-103165152D01*
X68538571Y-103165152D02*
X68500476Y-103203247D01*
X68500476Y-103203247D02*
X68424286Y-103241342D01*
X68424286Y-103241342D02*
X68119524Y-103241342D01*
X68843333Y-102822295D02*
X69338571Y-102822295D01*
X69338571Y-102822295D02*
X69071905Y-103127057D01*
X69071905Y-103127057D02*
X69186190Y-103127057D01*
X69186190Y-103127057D02*
X69262381Y-103165152D01*
X69262381Y-103165152D02*
X69300476Y-103203247D01*
X69300476Y-103203247D02*
X69338571Y-103279438D01*
X69338571Y-103279438D02*
X69338571Y-103469914D01*
X69338571Y-103469914D02*
X69300476Y-103546104D01*
X69300476Y-103546104D02*
X69262381Y-103584200D01*
X69262381Y-103584200D02*
X69186190Y-103622295D01*
X69186190Y-103622295D02*
X68957619Y-103622295D01*
X68957619Y-103622295D02*
X68881428Y-103584200D01*
X68881428Y-103584200D02*
X68843333Y-103546104D01*
X115010476Y-107442295D02*
X115467619Y-107442295D01*
X115239047Y-108242295D02*
X115239047Y-107442295D01*
X115734286Y-108242295D02*
X115734286Y-107442295D01*
X115734286Y-107442295D02*
X116039048Y-107442295D01*
X116039048Y-107442295D02*
X116115238Y-107480390D01*
X116115238Y-107480390D02*
X116153333Y-107518485D01*
X116153333Y-107518485D02*
X116191429Y-107594676D01*
X116191429Y-107594676D02*
X116191429Y-107708961D01*
X116191429Y-107708961D02*
X116153333Y-107785152D01*
X116153333Y-107785152D02*
X116115238Y-107823247D01*
X116115238Y-107823247D02*
X116039048Y-107861342D01*
X116039048Y-107861342D02*
X115734286Y-107861342D01*
X116877143Y-107442295D02*
X116724762Y-107442295D01*
X116724762Y-107442295D02*
X116648571Y-107480390D01*
X116648571Y-107480390D02*
X116610476Y-107518485D01*
X116610476Y-107518485D02*
X116534286Y-107632771D01*
X116534286Y-107632771D02*
X116496190Y-107785152D01*
X116496190Y-107785152D02*
X116496190Y-108089914D01*
X116496190Y-108089914D02*
X116534286Y-108166104D01*
X116534286Y-108166104D02*
X116572381Y-108204200D01*
X116572381Y-108204200D02*
X116648571Y-108242295D01*
X116648571Y-108242295D02*
X116800952Y-108242295D01*
X116800952Y-108242295D02*
X116877143Y-108204200D01*
X116877143Y-108204200D02*
X116915238Y-108166104D01*
X116915238Y-108166104D02*
X116953333Y-108089914D01*
X116953333Y-108089914D02*
X116953333Y-107899438D01*
X116953333Y-107899438D02*
X116915238Y-107823247D01*
X116915238Y-107823247D02*
X116877143Y-107785152D01*
X116877143Y-107785152D02*
X116800952Y-107747057D01*
X116800952Y-107747057D02*
X116648571Y-107747057D01*
X116648571Y-107747057D02*
X116572381Y-107785152D01*
X116572381Y-107785152D02*
X116534286Y-107823247D01*
X116534286Y-107823247D02*
X116496190Y-107899438D01*
X91285916Y-58922319D02*
X91285916Y-59636604D01*
X91285916Y-59636604D02*
X91238297Y-59779461D01*
X91238297Y-59779461D02*
X91143059Y-59874700D01*
X91143059Y-59874700D02*
X91000202Y-59922319D01*
X91000202Y-59922319D02*
X90904964Y-59922319D01*
X92190678Y-59255652D02*
X92190678Y-59922319D01*
X91952583Y-58874700D02*
X91714488Y-59588985D01*
X91714488Y-59588985D02*
X92333535Y-59588985D01*
X114990476Y-104032295D02*
X115447619Y-104032295D01*
X115219047Y-104832295D02*
X115219047Y-104032295D01*
X115714286Y-104832295D02*
X115714286Y-104032295D01*
X115714286Y-104032295D02*
X116019048Y-104032295D01*
X116019048Y-104032295D02*
X116095238Y-104070390D01*
X116095238Y-104070390D02*
X116133333Y-104108485D01*
X116133333Y-104108485D02*
X116171429Y-104184676D01*
X116171429Y-104184676D02*
X116171429Y-104298961D01*
X116171429Y-104298961D02*
X116133333Y-104375152D01*
X116133333Y-104375152D02*
X116095238Y-104413247D01*
X116095238Y-104413247D02*
X116019048Y-104451342D01*
X116019048Y-104451342D02*
X115714286Y-104451342D01*
X116933333Y-104832295D02*
X116476190Y-104832295D01*
X116704762Y-104832295D02*
X116704762Y-104032295D01*
X116704762Y-104032295D02*
X116628571Y-104146580D01*
X116628571Y-104146580D02*
X116552381Y-104222771D01*
X116552381Y-104222771D02*
X116476190Y-104260866D01*
X108646667Y-103502295D02*
X108380000Y-103121342D01*
X108189524Y-103502295D02*
X108189524Y-102702295D01*
X108189524Y-102702295D02*
X108494286Y-102702295D01*
X108494286Y-102702295D02*
X108570476Y-102740390D01*
X108570476Y-102740390D02*
X108608571Y-102778485D01*
X108608571Y-102778485D02*
X108646667Y-102854676D01*
X108646667Y-102854676D02*
X108646667Y-102968961D01*
X108646667Y-102968961D02*
X108608571Y-103045152D01*
X108608571Y-103045152D02*
X108570476Y-103083247D01*
X108570476Y-103083247D02*
X108494286Y-103121342D01*
X108494286Y-103121342D02*
X108189524Y-103121342D01*
X108951428Y-102778485D02*
X108989524Y-102740390D01*
X108989524Y-102740390D02*
X109065714Y-102702295D01*
X109065714Y-102702295D02*
X109256190Y-102702295D01*
X109256190Y-102702295D02*
X109332381Y-102740390D01*
X109332381Y-102740390D02*
X109370476Y-102778485D01*
X109370476Y-102778485D02*
X109408571Y-102854676D01*
X109408571Y-102854676D02*
X109408571Y-102930866D01*
X109408571Y-102930866D02*
X109370476Y-103045152D01*
X109370476Y-103045152D02*
X108913333Y-103502295D01*
X108913333Y-103502295D02*
X109408571Y-103502295D01*
X107419524Y-104832295D02*
X107419524Y-104032295D01*
X107419524Y-104032295D02*
X107610000Y-104032295D01*
X107610000Y-104032295D02*
X107724286Y-104070390D01*
X107724286Y-104070390D02*
X107800476Y-104146580D01*
X107800476Y-104146580D02*
X107838571Y-104222771D01*
X107838571Y-104222771D02*
X107876667Y-104375152D01*
X107876667Y-104375152D02*
X107876667Y-104489438D01*
X107876667Y-104489438D02*
X107838571Y-104641819D01*
X107838571Y-104641819D02*
X107800476Y-104718009D01*
X107800476Y-104718009D02*
X107724286Y-104794200D01*
X107724286Y-104794200D02*
X107610000Y-104832295D01*
X107610000Y-104832295D02*
X107419524Y-104832295D01*
X108638571Y-104832295D02*
X108181428Y-104832295D01*
X108410000Y-104832295D02*
X108410000Y-104032295D01*
X108410000Y-104032295D02*
X108333809Y-104146580D01*
X108333809Y-104146580D02*
X108257619Y-104222771D01*
X108257619Y-104222771D02*
X108181428Y-104260866D01*
X62434819Y-106851904D02*
X62434819Y-106280476D01*
X63434819Y-106566190D02*
X62434819Y-106566190D01*
X63434819Y-105947142D02*
X62434819Y-105947142D01*
X62434819Y-105947142D02*
X62434819Y-105566190D01*
X62434819Y-105566190D02*
X62482438Y-105470952D01*
X62482438Y-105470952D02*
X62530057Y-105423333D01*
X62530057Y-105423333D02*
X62625295Y-105375714D01*
X62625295Y-105375714D02*
X62768152Y-105375714D01*
X62768152Y-105375714D02*
X62863390Y-105423333D01*
X62863390Y-105423333D02*
X62911009Y-105470952D01*
X62911009Y-105470952D02*
X62958628Y-105566190D01*
X62958628Y-105566190D02*
X62958628Y-105947142D01*
X62530057Y-104994761D02*
X62482438Y-104947142D01*
X62482438Y-104947142D02*
X62434819Y-104851904D01*
X62434819Y-104851904D02*
X62434819Y-104613809D01*
X62434819Y-104613809D02*
X62482438Y-104518571D01*
X62482438Y-104518571D02*
X62530057Y-104470952D01*
X62530057Y-104470952D02*
X62625295Y-104423333D01*
X62625295Y-104423333D02*
X62720533Y-104423333D01*
X62720533Y-104423333D02*
X62863390Y-104470952D01*
X62863390Y-104470952D02*
X63434819Y-105042380D01*
X63434819Y-105042380D02*
X63434819Y-104423333D01*
D11*
X77528095Y-98524919D02*
X77528095Y-99334442D01*
X77528095Y-99334442D02*
X77575714Y-99429680D01*
X77575714Y-99429680D02*
X77623333Y-99477300D01*
X77623333Y-99477300D02*
X77718571Y-99524919D01*
X77718571Y-99524919D02*
X77909047Y-99524919D01*
X77909047Y-99524919D02*
X78004285Y-99477300D01*
X78004285Y-99477300D02*
X78051904Y-99429680D01*
X78051904Y-99429680D02*
X78099523Y-99334442D01*
X78099523Y-99334442D02*
X78099523Y-98524919D01*
X78480476Y-98524919D02*
X79099523Y-98524919D01*
X79099523Y-98524919D02*
X78766190Y-98905871D01*
X78766190Y-98905871D02*
X78909047Y-98905871D01*
X78909047Y-98905871D02*
X79004285Y-98953490D01*
X79004285Y-98953490D02*
X79051904Y-99001109D01*
X79051904Y-99001109D02*
X79099523Y-99096347D01*
X79099523Y-99096347D02*
X79099523Y-99334442D01*
X79099523Y-99334442D02*
X79051904Y-99429680D01*
X79051904Y-99429680D02*
X79004285Y-99477300D01*
X79004285Y-99477300D02*
X78909047Y-99524919D01*
X78909047Y-99524919D02*
X78623333Y-99524919D01*
X78623333Y-99524919D02*
X78528095Y-99477300D01*
X78528095Y-99477300D02*
X78480476Y-99429680D01*
D12*
%TO.C,R13*%
X110850121Y-107120000D02*
X110514879Y-107120000D01*
X110850121Y-107880000D02*
X110514879Y-107880000D01*
%TO.C,D4*%
X109482500Y-106855000D02*
X111767500Y-106855000D01*
X111767500Y-105385000D02*
X109482500Y-105385000D01*
X111767500Y-106855000D02*
X111767500Y-105385000D01*
D11*
%TO.C,U2*%
X83790000Y-93707500D02*
X83790000Y-94207500D01*
X84040000Y-93957500D02*
X84040000Y-94957500D01*
X84290000Y-93707500D02*
X83790000Y-93707500D01*
X86540000Y-94957500D02*
X86540000Y-93957500D01*
D13*
%TO.C,J1*%
X65360000Y-50355000D02*
X65360000Y-52255000D01*
X65360000Y-53455000D02*
X65360000Y-55355000D01*
X66810000Y-50355000D02*
X65360000Y-50355000D01*
X87260000Y-50355000D02*
X85810000Y-50355000D01*
X87260000Y-55355000D02*
X87260000Y-50355000D01*
D14*
X85635000Y-59430000D02*
G75*
G02*
X85435000Y-59430000I-100000J0D01*
G01*
X85435000Y-59430000D02*
G75*
G02*
X85635000Y-59430000I100000J0D01*
G01*
D12*
%TO.C,D3*%
X65612500Y-103945000D02*
X67897500Y-103945000D01*
X67897500Y-102475000D02*
X65612500Y-102475000D01*
X67897500Y-103945000D02*
X67897500Y-102475000D01*
%TO.C,R3*%
X67995121Y-104170000D02*
X67659879Y-104170000D01*
X67995121Y-104930000D02*
X67659879Y-104930000D01*
%TO.C,TP6*%
X112260000Y-105760000D02*
X114660000Y-105760000D01*
X112260000Y-108160000D02*
X112260000Y-105760000D01*
X114660000Y-105760000D02*
X114660000Y-108160000D01*
X114660000Y-108160000D02*
X112260000Y-108160000D01*
D13*
%TO.C,J4*%
X90749250Y-49047500D02*
X90749250Y-50247500D01*
X90749250Y-55197500D02*
X90749250Y-52947500D01*
X92349250Y-57577500D02*
X92999250Y-57577500D01*
X104149250Y-57577500D02*
X102999250Y-57577500D01*
X105749250Y-49047500D02*
X90749250Y-49047500D01*
X105749250Y-50247500D02*
X105749250Y-49047500D01*
X105749250Y-52947500D02*
X105749250Y-55197500D01*
D14*
X93599250Y-58997500D02*
G75*
G02*
X93399250Y-58997500I-100000J0D01*
G01*
X93399250Y-58997500D02*
G75*
G02*
X93599250Y-58997500I100000J0D01*
G01*
D12*
%TO.C,Module1*%
X61420000Y-65740000D02*
X61420000Y-98740000D01*
X64920000Y-102240000D02*
X112920000Y-102240000D01*
X80020000Y-63390000D02*
X81020000Y-63390000D01*
X80020000Y-67170000D02*
X80020000Y-63390000D01*
X80020000Y-67170000D02*
X81020000Y-67170000D01*
X80020000Y-101090000D02*
X80020000Y-97310000D01*
X102820000Y-63390000D02*
X101820000Y-63390000D01*
X102820000Y-67170000D02*
X101820000Y-67170000D01*
X102820000Y-67170000D02*
X102820000Y-63390000D01*
X102820000Y-97310000D02*
X101820000Y-97310000D01*
X102820000Y-101090000D02*
X101820000Y-101090000D01*
X102820000Y-101090000D02*
X102820000Y-97310000D01*
X112920000Y-62240000D02*
X64920000Y-62240000D01*
X116420000Y-98740000D02*
X116420000Y-65740000D01*
X61420000Y-65740000D02*
G75*
G02*
X64920000Y-62240000I3500000J0D01*
G01*
X64920000Y-102240000D02*
G75*
G02*
X61420000Y-98740000I-1J3499999D01*
G01*
X112920000Y-62240000D02*
G75*
G02*
X116420000Y-65740000I0J-3500000D01*
G01*
X116420000Y-98740000D02*
G75*
G02*
X112920000Y-102240000I-3499999J-1D01*
G01*
%TO.C,TP1*%
X112270000Y-102690000D02*
X114670000Y-102690000D01*
X112270000Y-105090000D02*
X112270000Y-102690000D01*
X114670000Y-102690000D02*
X114670000Y-105090000D01*
X114670000Y-105090000D02*
X112270000Y-105090000D01*
%TO.C,R2*%
X110514879Y-102740000D02*
X110850121Y-102740000D01*
X110514879Y-103500000D02*
X110850121Y-103500000D01*
%TO.C,D1*%
X109492500Y-105195000D02*
X111777500Y-105195000D01*
X111777500Y-103725000D02*
X109492500Y-103725000D01*
X111777500Y-105195000D02*
X111777500Y-103725000D01*
%TO.C,TP2*%
X63940000Y-104380000D02*
X66340000Y-104380000D01*
X63940000Y-106780000D02*
X63940000Y-104380000D01*
X66340000Y-104380000D02*
X66340000Y-106780000D01*
X66340000Y-106780000D02*
X63940000Y-106780000D01*
D11*
%TO.C,U3*%
X76780000Y-96902500D02*
X76780000Y-97402500D01*
X77030000Y-97152500D02*
X77030000Y-98152500D01*
X77280000Y-96902500D02*
X76780000Y-96902500D01*
X79530000Y-98152500D02*
X79530000Y-97152500D01*
%TD*%
M02*
