%TF.GenerationSoftware,KiCad,Pcbnew,9.0.7*%
%TF.CreationDate,2026-03-28T21:40:38+01:00*%
%TF.ProjectId,ANE21_PCB,414e4532-315f-4504-9342-2e6b69636164,rev?*%
%TF.SameCoordinates,Original*%
%TF.FileFunction,Paste,Top*%
%TF.FilePolarity,Positive*%
%FSLAX46Y46*%
G04 Gerber Fmt 4.6, Leading zero omitted, Abs format (unit mm)*
G04 Created by KiCad (PCBNEW 9.0.7) date 2026-03-28 21:40:38*
%MOMM*%
%LPD*%
G01*
G04 APERTURE LIST*
G04 Aperture macros list*
%AMRoundRect*
0 Rectangle with rounded corners*
0 $1 Rounding radius*
0 $2 $3 $4 $5 $6 $7 $8 $9 X,Y pos of 4 corners*
0 Add a 4 corners polygon primitive as box body*
4,1,4,$2,$3,$4,$5,$6,$7,$8,$9,$2,$3,0*
0 Add four circle primitives for the rounded corners*
1,1,$1+$1,$2,$3*
1,1,$1+$1,$4,$5*
1,1,$1+$1,$6,$7*
1,1,$1+$1,$8,$9*
0 Add four rect primitives between the rounded corners*
20,1,$1+$1,$2,$3,$4,$5,0*
20,1,$1+$1,$4,$5,$6,$7,0*
20,1,$1+$1,$6,$7,$8,$9,0*
20,1,$1+$1,$8,$9,$2,$3,0*%
G04 Aperture macros list end*
%ADD10RoundRect,0.160000X0.197500X0.160000X-0.197500X0.160000X-0.197500X-0.160000X0.197500X-0.160000X0*%
%ADD11RoundRect,0.218750X0.218750X0.256250X-0.218750X0.256250X-0.218750X-0.256250X0.218750X-0.256250X0*%
%ADD12RoundRect,0.020000X-0.080000X-0.217500X0.080000X-0.217500X0.080000X0.217500X-0.080000X0.217500X0*%
%ADD13R,0.300000X1.550000*%
%ADD14R,1.200000X2.750000*%
%ADD15R,0.300000X1.900000*%
%ADD16R,0.200000X0.700000*%
%ADD17RoundRect,0.160000X-0.197500X-0.160000X0.197500X-0.160000X0.197500X0.160000X-0.197500X0.160000X0*%
G04 APERTURE END LIST*
D10*
%TO.C,R13*%
X111280000Y-107500000D03*
X110085000Y-107500000D03*
%TD*%
D11*
%TO.C,D4*%
X111070000Y-106120000D03*
X109495000Y-106120000D03*
%TD*%
D12*
%TO.C,U2*%
X84290000Y-94070000D03*
X84790000Y-94070000D03*
X85290000Y-94070000D03*
X85790000Y-94070000D03*
X86290000Y-94070000D03*
X86290000Y-94845000D03*
X85790000Y-94845000D03*
X85290000Y-94845000D03*
X84790000Y-94845000D03*
X84290000Y-94845000D03*
%TD*%
D13*
%TO.C,J1*%
X85560000Y-58130000D03*
X85310000Y-50580000D03*
X85060000Y-58130000D03*
X84810000Y-50580000D03*
X84560000Y-58130000D03*
X84310000Y-50580000D03*
X84060000Y-58130000D03*
X83810000Y-50580000D03*
X83560000Y-58130000D03*
X83310000Y-50580000D03*
X83060000Y-58130000D03*
X82810000Y-50580000D03*
X82560000Y-58130000D03*
X82310000Y-50580000D03*
X82060000Y-58130000D03*
X81810000Y-50580000D03*
X81560000Y-58130000D03*
X81310000Y-50580000D03*
X81060000Y-58130000D03*
X80810000Y-50580000D03*
X80560000Y-58130000D03*
X80310000Y-50580000D03*
X80060000Y-58130000D03*
X79810000Y-50580000D03*
X79560000Y-58130000D03*
X79310000Y-50580000D03*
X79060000Y-58130000D03*
X78810000Y-50580000D03*
X78560000Y-58130000D03*
X78310000Y-50580000D03*
X78060000Y-58130000D03*
X77810000Y-50580000D03*
X77560000Y-58130000D03*
X77310000Y-50580000D03*
X77060000Y-58130000D03*
X76810000Y-50580000D03*
X76560000Y-58130000D03*
X76310000Y-50580000D03*
X76060000Y-58130000D03*
X75810000Y-50580000D03*
X75560000Y-58130000D03*
X75310000Y-50580000D03*
X75060000Y-58130000D03*
X74810000Y-50580000D03*
X74560000Y-58130000D03*
X74310000Y-50580000D03*
X74060000Y-58130000D03*
X73810000Y-50580000D03*
X73560000Y-58130000D03*
X73310000Y-50580000D03*
X73060000Y-58130000D03*
X72810000Y-50580000D03*
X72560000Y-58130000D03*
X72310000Y-50580000D03*
X72060000Y-58130000D03*
X71810000Y-50580000D03*
X71560000Y-58130000D03*
X71310000Y-50580000D03*
X69060000Y-58130000D03*
X68810000Y-50580000D03*
X68560000Y-58130000D03*
X68310000Y-50580000D03*
X68060000Y-58130000D03*
X67810000Y-50580000D03*
X67560000Y-58130000D03*
X67310000Y-50580000D03*
X67060000Y-58130000D03*
D14*
X86660000Y-57355000D03*
X65960000Y-57355000D03*
%TD*%
D11*
%TO.C,D3*%
X67200000Y-103210000D03*
X65625000Y-103210000D03*
%TD*%
D10*
%TO.C,R3*%
X68425000Y-104550000D03*
X67230000Y-104550000D03*
%TD*%
D15*
%TO.C,J4*%
X93499250Y-57447500D03*
X93999250Y-57447500D03*
X94499250Y-57447500D03*
X94999250Y-57447500D03*
X95499250Y-57447500D03*
X95999250Y-57447500D03*
X96499250Y-57447500D03*
X96999250Y-57447500D03*
X97499250Y-57447500D03*
X97999250Y-57447500D03*
X98499250Y-57447500D03*
X98999250Y-57447500D03*
X99499250Y-57447500D03*
X99999250Y-57447500D03*
X100499250Y-57447500D03*
X100999250Y-57447500D03*
X101499250Y-57447500D03*
X101999250Y-57447500D03*
X102499250Y-57447500D03*
%TD*%
D16*
%TO.C,Module1*%
X81620000Y-100740000D03*
X81620000Y-97660000D03*
X82020000Y-100740000D03*
X82020000Y-97660000D03*
X82420000Y-100740000D03*
X82420000Y-97660000D03*
X82820000Y-100740000D03*
X82820000Y-97660000D03*
X83220000Y-100740000D03*
X83220000Y-97660000D03*
X83620000Y-100740000D03*
X83620000Y-97660000D03*
X84020000Y-100740000D03*
X84020000Y-97660000D03*
X84420000Y-100740000D03*
X84420000Y-97660000D03*
X84820000Y-100740000D03*
X84820000Y-97660000D03*
X85220000Y-100740000D03*
X85220000Y-97660000D03*
X85620000Y-100740000D03*
X85620000Y-97660000D03*
X86020000Y-100740000D03*
X86020000Y-97660000D03*
X86420000Y-100740000D03*
X86420000Y-97660000D03*
X86820000Y-100740000D03*
X86820000Y-97660000D03*
X87220000Y-100740000D03*
X87220000Y-97660000D03*
X87620000Y-100740000D03*
X87620000Y-97660000D03*
X88020000Y-100740000D03*
X88020000Y-97660000D03*
X88420000Y-100740000D03*
X88420000Y-97660000D03*
X88820000Y-100740000D03*
X88820000Y-97660000D03*
X89220000Y-100740000D03*
X89220000Y-97660000D03*
X89620000Y-100740000D03*
X89620000Y-97660000D03*
X90020000Y-100740000D03*
X90020000Y-97660000D03*
X90420000Y-100740000D03*
X90420000Y-97660000D03*
X90820000Y-100740000D03*
X90820000Y-97660000D03*
X91220000Y-100740000D03*
X91220000Y-97660000D03*
X91620000Y-100740000D03*
X91620000Y-97660000D03*
X92020000Y-100740000D03*
X92020000Y-97660000D03*
X92420000Y-100740000D03*
X92420000Y-97660000D03*
X92820000Y-100740000D03*
X92820000Y-97660000D03*
X93220000Y-100740000D03*
X93220000Y-97660000D03*
X93620000Y-100740000D03*
X93620000Y-97660000D03*
X94020000Y-100740000D03*
X94020000Y-97660000D03*
X94420000Y-100740000D03*
X94420000Y-97660000D03*
X94820000Y-100740000D03*
X94820000Y-97660000D03*
X95220000Y-100740000D03*
X95220000Y-97660000D03*
X95620000Y-100740000D03*
X95620000Y-97660000D03*
X96020000Y-100740000D03*
X96020000Y-97660000D03*
X96420000Y-100740000D03*
X96420000Y-97660000D03*
X96820000Y-100740000D03*
X96820000Y-97660000D03*
X97220000Y-100740000D03*
X97220000Y-97660000D03*
X97620000Y-100740000D03*
X97620000Y-97660000D03*
X98020000Y-100740000D03*
X98020000Y-97660000D03*
X98420000Y-100740000D03*
X98420000Y-97660000D03*
X98820000Y-100740000D03*
X98820000Y-97660000D03*
X99220000Y-100740000D03*
X99220000Y-97660000D03*
X99620000Y-100740000D03*
X99620000Y-97660000D03*
X100020000Y-100740000D03*
X100020000Y-97660000D03*
X100420000Y-100740000D03*
X100420000Y-97660000D03*
X100820000Y-100740000D03*
X100820000Y-97660000D03*
X101220000Y-100740000D03*
X101220000Y-97660000D03*
X81620000Y-66820000D03*
X81620000Y-63740000D03*
X82020000Y-66820000D03*
X82020000Y-63740000D03*
X82420000Y-66820000D03*
X82420000Y-63740000D03*
X82820000Y-66820000D03*
X82820000Y-63740000D03*
X83220000Y-66820000D03*
X83220000Y-63740000D03*
X83620000Y-66820000D03*
X83620000Y-63740000D03*
X84020000Y-66820000D03*
X84020000Y-63740000D03*
X84420000Y-66820000D03*
X84420000Y-63740000D03*
X84820000Y-66820000D03*
X84820000Y-63740000D03*
X85220000Y-66820000D03*
X85220000Y-63740000D03*
X85620000Y-66820000D03*
X85620000Y-63740000D03*
X86020000Y-66820000D03*
X86020000Y-63740000D03*
X86420000Y-66820000D03*
X86420000Y-63740000D03*
X86820000Y-66820000D03*
X86820000Y-63740000D03*
X87220000Y-66820000D03*
X87220000Y-63740000D03*
X87620000Y-66820000D03*
X87620000Y-63740000D03*
X88020000Y-66820000D03*
X88020000Y-63740000D03*
X88420000Y-66820000D03*
X88420000Y-63740000D03*
X88820000Y-66820000D03*
X88820000Y-63740000D03*
X89220000Y-66820000D03*
X89220000Y-63740000D03*
X89620000Y-66820000D03*
X89620000Y-63740000D03*
X90020000Y-66820000D03*
X90020000Y-63740000D03*
X90420000Y-66820000D03*
X90420000Y-63740000D03*
X90820000Y-66820000D03*
X90820000Y-63740000D03*
X91220000Y-66820000D03*
X91220000Y-63740000D03*
X91620000Y-66820000D03*
X91620000Y-63740000D03*
X92020000Y-66820000D03*
X92020000Y-63740000D03*
X92420000Y-66820000D03*
X92420000Y-63740000D03*
X92820000Y-66820000D03*
X92820000Y-63740000D03*
X93220000Y-66820000D03*
X93220000Y-63740000D03*
X93620000Y-66820000D03*
X93620000Y-63740000D03*
X94020000Y-66820000D03*
X94020000Y-63740000D03*
X94420000Y-66820000D03*
X94420000Y-63740000D03*
X94820000Y-66820000D03*
X94820000Y-63740000D03*
X95220000Y-66820000D03*
X95220000Y-63740000D03*
X95620000Y-66820000D03*
X95620000Y-63740000D03*
X96020000Y-66820000D03*
X96020000Y-63740000D03*
X96420000Y-66820000D03*
X96420000Y-63740000D03*
X96820000Y-66820000D03*
X96820000Y-63740000D03*
X97220000Y-66820000D03*
X97220000Y-63740000D03*
X97620000Y-66820000D03*
X97620000Y-63740000D03*
X98020000Y-66820000D03*
X98020000Y-63740000D03*
X98420000Y-66820000D03*
X98420000Y-63740000D03*
X98820000Y-66820000D03*
X98820000Y-63740000D03*
X99220000Y-66820000D03*
X99220000Y-63740000D03*
X99620000Y-66820000D03*
X99620000Y-63740000D03*
X100020000Y-66820000D03*
X100020000Y-63740000D03*
X100420000Y-66820000D03*
X100420000Y-63740000D03*
X100820000Y-66820000D03*
X100820000Y-63740000D03*
X101220000Y-66820000D03*
X101220000Y-63740000D03*
%TD*%
D17*
%TO.C,R2*%
X110085000Y-103120000D03*
X111280000Y-103120000D03*
%TD*%
D11*
%TO.C,D1*%
X111080000Y-104460000D03*
X109505000Y-104460000D03*
%TD*%
D12*
%TO.C,U3*%
X77280000Y-97265000D03*
X77780000Y-97265000D03*
X78280000Y-97265000D03*
X78780000Y-97265000D03*
X79280000Y-97265000D03*
X79280000Y-98040000D03*
X78780000Y-98040000D03*
X78280000Y-98040000D03*
X77780000Y-98040000D03*
X77280000Y-98040000D03*
%TD*%
M02*
