%TF.GenerationSoftware,KiCad,Pcbnew,9.0.7*%
%TF.CreationDate,2026-03-28T21:40:38+01:00*%
%TF.ProjectId,ANE21_PCB,414e4532-315f-4504-9342-2e6b69636164,rev?*%
%TF.SameCoordinates,Original*%
%TF.FileFunction,Soldermask,Bot*%
%TF.FilePolarity,Negative*%
%FSLAX46Y46*%
G04 Gerber Fmt 4.6, Leading zero omitted, Abs format (unit mm)*
G04 Created by KiCad (PCBNEW 9.0.7) date 2026-03-28 21:40:38*
%MOMM*%
%LPD*%
G01*
G04 APERTURE LIST*
G04 Aperture macros list*
%AMRoundRect*
0 Rectangle with rounded corners*
0 $1 Rounding radius*
0 $2 $3 $4 $5 $6 $7 $8 $9 X,Y pos of 4 corners*
0 Add a 4 corners polygon primitive as box body*
4,1,4,$2,$3,$4,$5,$6,$7,$8,$9,$2,$3,0*
0 Add four circle primitives for the rounded corners*
1,1,$1+$1,$2,$3*
1,1,$1+$1,$4,$5*
1,1,$1+$1,$6,$7*
1,1,$1+$1,$8,$9*
0 Add four rect primitives between the rounded corners*
20,1,$1+$1,$2,$3,$4,$5,0*
20,1,$1+$1,$4,$5,$6,$7,0*
20,1,$1+$1,$6,$7,$8,$9,0*
20,1,$1+$1,$8,$9,$2,$3,0*%
G04 Aperture macros list end*
%ADD10C,0.010000*%
%ADD11C,1.100000*%
%ADD12C,1.600000*%
%ADD13C,2.199000*%
%ADD14C,6.100000*%
%ADD15C,0.650000*%
%ADD16O,2.304000X1.204000*%
%ADD17O,2.004000X1.204000*%
%ADD18RoundRect,0.155000X0.212500X0.155000X-0.212500X0.155000X-0.212500X-0.155000X0.212500X-0.155000X0*%
%ADD19RoundRect,0.160000X0.197500X0.160000X-0.197500X0.160000X-0.197500X-0.160000X0.197500X-0.160000X0*%
%ADD20RoundRect,0.098000X-0.714000X-0.294000X0.714000X-0.294000X0.714000X0.294000X-0.714000X0.294000X0*%
%ADD21RoundRect,0.155000X0.155000X-0.212500X0.155000X0.212500X-0.155000X0.212500X-0.155000X-0.212500X0*%
%ADD22RoundRect,0.155000X-0.212500X-0.155000X0.212500X-0.155000X0.212500X0.155000X-0.212500X0.155000X0*%
%ADD23RoundRect,0.062500X0.312500X0.062500X-0.312500X0.062500X-0.312500X-0.062500X0.312500X-0.062500X0*%
%ADD24R,1.800000X2.500000*%
%ADD25RoundRect,0.102000X0.800000X2.850000X-0.800000X2.850000X-0.800000X-2.850000X0.800000X-2.850000X0*%
%ADD26R,1.700000X1.700000*%
%ADD27C,1.700000*%
%ADD28RoundRect,0.100000X-0.225000X-0.100000X0.225000X-0.100000X0.225000X0.100000X-0.225000X0.100000X0*%
%ADD29RoundRect,0.102000X2.850000X-0.800000X2.850000X0.800000X-2.850000X0.800000X-2.850000X-0.800000X0*%
%ADD30RoundRect,0.160000X0.160000X-0.197500X0.160000X0.197500X-0.160000X0.197500X-0.160000X-0.197500X0*%
%ADD31R,2.000000X2.000000*%
%ADD32C,2.311400*%
%ADD33C,1.422400*%
%ADD34C,3.249000*%
%ADD35C,3.250000*%
%ADD36RoundRect,0.102000X-0.699000X-0.699000X0.699000X-0.699000X0.699000X0.699000X-0.699000X0.699000X0*%
%ADD37C,1.602000*%
%ADD38C,1.734000*%
%ADD39C,2.559000*%
%ADD40RoundRect,0.102000X-0.295000X0.670000X-0.295000X-0.670000X0.295000X-0.670000X0.295000X0.670000X0*%
%ADD41RoundRect,0.250000X0.750000X-0.275000X0.750000X0.275000X-0.750000X0.275000X-0.750000X-0.275000X0*%
%ADD42RoundRect,0.160000X-0.160000X0.197500X-0.160000X-0.197500X0.160000X-0.197500X0.160000X0.197500X0*%
%ADD43RoundRect,0.102000X0.670000X0.295000X-0.670000X0.295000X-0.670000X-0.295000X0.670000X-0.295000X0*%
%ADD44RoundRect,0.267260X-0.894740X0.924740X-0.894740X-0.924740X0.894740X-0.924740X0.894740X0.924740X0*%
%ADD45RoundRect,0.160000X-0.197500X-0.160000X0.197500X-0.160000X0.197500X0.160000X-0.197500X0.160000X0*%
%ADD46RoundRect,0.155000X-0.155000X0.212500X-0.155000X-0.212500X0.155000X-0.212500X0.155000X0.212500X0*%
%ADD47RoundRect,0.030000X0.257500X-0.120000X0.257500X0.120000X-0.257500X0.120000X-0.257500X-0.120000X0*%
%ADD48RoundRect,0.250000X-1.050000X1.050000X-1.050000X-1.050000X1.050000X-1.050000X1.050000X1.050000X0*%
%ADD49C,2.600000*%
G04 APERTURE END LIST*
D10*
%TO.C,U11*%
X113505000Y-84750000D02*
X112255000Y-84750000D01*
X112255000Y-84050000D01*
X113505000Y-84050000D01*
X113505000Y-84750000D01*
G36*
X113505000Y-84750000D02*
G01*
X112255000Y-84750000D01*
X112255000Y-84050000D01*
X113505000Y-84050000D01*
X113505000Y-84750000D01*
G37*
X113505000Y-85550000D02*
X112255000Y-85550000D01*
X112255000Y-84850000D01*
X113505000Y-84850000D01*
X113505000Y-85550000D01*
G36*
X113505000Y-85550000D02*
G01*
X112255000Y-85550000D01*
X112255000Y-84850000D01*
X113505000Y-84850000D01*
X113505000Y-85550000D01*
G37*
X113505000Y-86050000D02*
X112255000Y-86050000D01*
X112255000Y-85650000D01*
X113505000Y-85650000D01*
X113505000Y-86050000D01*
G36*
X113505000Y-86050000D02*
G01*
X112255000Y-86050000D01*
X112255000Y-85650000D01*
X113505000Y-85650000D01*
X113505000Y-86050000D01*
G37*
X113505000Y-86550000D02*
X112255000Y-86550000D01*
X112255000Y-86150000D01*
X113505000Y-86150000D01*
X113505000Y-86550000D01*
G36*
X113505000Y-86550000D02*
G01*
X112255000Y-86550000D01*
X112255000Y-86150000D01*
X113505000Y-86150000D01*
X113505000Y-86550000D01*
G37*
X113505000Y-87050000D02*
X112255000Y-87050000D01*
X112255000Y-86650000D01*
X113505000Y-86650000D01*
X113505000Y-87050000D01*
G36*
X113505000Y-87050000D02*
G01*
X112255000Y-87050000D01*
X112255000Y-86650000D01*
X113505000Y-86650000D01*
X113505000Y-87050000D01*
G37*
X113505000Y-87550000D02*
X112255000Y-87550000D01*
X112255000Y-87150000D01*
X113505000Y-87150000D01*
X113505000Y-87550000D01*
G36*
X113505000Y-87550000D02*
G01*
X112255000Y-87550000D01*
X112255000Y-87150000D01*
X113505000Y-87150000D01*
X113505000Y-87550000D01*
G37*
X113505000Y-88050000D02*
X112255000Y-88050000D01*
X112255000Y-87650000D01*
X113505000Y-87650000D01*
X113505000Y-88050000D01*
G36*
X113505000Y-88050000D02*
G01*
X112255000Y-88050000D01*
X112255000Y-87650000D01*
X113505000Y-87650000D01*
X113505000Y-88050000D01*
G37*
X113505000Y-88550000D02*
X112255000Y-88550000D01*
X112255000Y-88150000D01*
X113505000Y-88150000D01*
X113505000Y-88550000D01*
G36*
X113505000Y-88550000D02*
G01*
X112255000Y-88550000D01*
X112255000Y-88150000D01*
X113505000Y-88150000D01*
X113505000Y-88550000D01*
G37*
X113505000Y-89050000D02*
X112255000Y-89050000D01*
X112255000Y-88650000D01*
X113505000Y-88650000D01*
X113505000Y-89050000D01*
G36*
X113505000Y-89050000D02*
G01*
X112255000Y-89050000D01*
X112255000Y-88650000D01*
X113505000Y-88650000D01*
X113505000Y-89050000D01*
G37*
X113505000Y-89550000D02*
X112255000Y-89550000D01*
X112255000Y-89150000D01*
X113505000Y-89150000D01*
X113505000Y-89550000D01*
G36*
X113505000Y-89550000D02*
G01*
X112255000Y-89550000D01*
X112255000Y-89150000D01*
X113505000Y-89150000D01*
X113505000Y-89550000D01*
G37*
X113505000Y-90350000D02*
X112255000Y-90350000D01*
X112255000Y-89650000D01*
X113505000Y-89650000D01*
X113505000Y-90350000D01*
G36*
X113505000Y-90350000D02*
G01*
X112255000Y-90350000D01*
X112255000Y-89650000D01*
X113505000Y-89650000D01*
X113505000Y-90350000D01*
G37*
X113505000Y-91150000D02*
X112255000Y-91150000D01*
X112255000Y-90450000D01*
X113505000Y-90450000D01*
X113505000Y-91150000D01*
G36*
X113505000Y-91150000D02*
G01*
X112255000Y-91150000D01*
X112255000Y-90450000D01*
X113505000Y-90450000D01*
X113505000Y-91150000D01*
G37*
%TO.C,J2*%
X113190000Y-52890000D02*
X111940000Y-52890000D01*
X111940000Y-52190000D01*
X113190000Y-52190000D01*
X113190000Y-52890000D01*
G36*
X113190000Y-52890000D02*
G01*
X111940000Y-52890000D01*
X111940000Y-52190000D01*
X113190000Y-52190000D01*
X113190000Y-52890000D01*
G37*
X113190000Y-53690000D02*
X111940000Y-53690000D01*
X111940000Y-52990000D01*
X113190000Y-52990000D01*
X113190000Y-53690000D01*
G36*
X113190000Y-53690000D02*
G01*
X111940000Y-53690000D01*
X111940000Y-52990000D01*
X113190000Y-52990000D01*
X113190000Y-53690000D01*
G37*
X113190000Y-54190000D02*
X111940000Y-54190000D01*
X111940000Y-53790000D01*
X113190000Y-53790000D01*
X113190000Y-54190000D01*
G36*
X113190000Y-54190000D02*
G01*
X111940000Y-54190000D01*
X111940000Y-53790000D01*
X113190000Y-53790000D01*
X113190000Y-54190000D01*
G37*
X113190000Y-54690000D02*
X111940000Y-54690000D01*
X111940000Y-54290000D01*
X113190000Y-54290000D01*
X113190000Y-54690000D01*
G36*
X113190000Y-54690000D02*
G01*
X111940000Y-54690000D01*
X111940000Y-54290000D01*
X113190000Y-54290000D01*
X113190000Y-54690000D01*
G37*
X113190000Y-55190000D02*
X111940000Y-55190000D01*
X111940000Y-54790000D01*
X113190000Y-54790000D01*
X113190000Y-55190000D01*
G36*
X113190000Y-55190000D02*
G01*
X111940000Y-55190000D01*
X111940000Y-54790000D01*
X113190000Y-54790000D01*
X113190000Y-55190000D01*
G37*
X113190000Y-55690000D02*
X111940000Y-55690000D01*
X111940000Y-55290000D01*
X113190000Y-55290000D01*
X113190000Y-55690000D01*
G36*
X113190000Y-55690000D02*
G01*
X111940000Y-55690000D01*
X111940000Y-55290000D01*
X113190000Y-55290000D01*
X113190000Y-55690000D01*
G37*
X113190000Y-56190000D02*
X111940000Y-56190000D01*
X111940000Y-55790000D01*
X113190000Y-55790000D01*
X113190000Y-56190000D01*
G36*
X113190000Y-56190000D02*
G01*
X111940000Y-56190000D01*
X111940000Y-55790000D01*
X113190000Y-55790000D01*
X113190000Y-56190000D01*
G37*
X113190000Y-56690000D02*
X111940000Y-56690000D01*
X111940000Y-56290000D01*
X113190000Y-56290000D01*
X113190000Y-56690000D01*
G36*
X113190000Y-56690000D02*
G01*
X111940000Y-56690000D01*
X111940000Y-56290000D01*
X113190000Y-56290000D01*
X113190000Y-56690000D01*
G37*
X113190000Y-57190000D02*
X111940000Y-57190000D01*
X111940000Y-56790000D01*
X113190000Y-56790000D01*
X113190000Y-57190000D01*
G36*
X113190000Y-57190000D02*
G01*
X111940000Y-57190000D01*
X111940000Y-56790000D01*
X113190000Y-56790000D01*
X113190000Y-57190000D01*
G37*
X113190000Y-57690000D02*
X111940000Y-57690000D01*
X111940000Y-57290000D01*
X113190000Y-57290000D01*
X113190000Y-57690000D01*
G36*
X113190000Y-57690000D02*
G01*
X111940000Y-57690000D01*
X111940000Y-57290000D01*
X113190000Y-57290000D01*
X113190000Y-57690000D01*
G37*
X113190000Y-58490000D02*
X111940000Y-58490000D01*
X111940000Y-57790000D01*
X113190000Y-57790000D01*
X113190000Y-58490000D01*
G36*
X113190000Y-58490000D02*
G01*
X111940000Y-58490000D01*
X111940000Y-57790000D01*
X113190000Y-57790000D01*
X113190000Y-58490000D01*
G37*
X113190000Y-59290000D02*
X111940000Y-59290000D01*
X111940000Y-58590000D01*
X113190000Y-58590000D01*
X113190000Y-59290000D01*
G36*
X113190000Y-59290000D02*
G01*
X111940000Y-59290000D01*
X111940000Y-58590000D01*
X113190000Y-58590000D01*
X113190000Y-59290000D01*
G37*
%TD*%
D11*
%TO.C,J1*%
X86310000Y-52855000D03*
D12*
X66310000Y-52855000D03*
%TD*%
D13*
%TO.C,J4*%
X105499250Y-56547500D03*
X90999250Y-56547500D03*
X106099250Y-51597500D03*
X90399250Y-51597500D03*
%TD*%
D14*
%TO.C,Module1*%
X64920000Y-98740000D03*
X112920000Y-98740000D03*
X64920000Y-65740000D03*
X112920000Y-65740000D03*
%TD*%
D15*
%TO.C,U11*%
X113955000Y-84710000D03*
X113955000Y-90490000D03*
D16*
X113455000Y-83280000D03*
X113455000Y-91920000D03*
D17*
X117635000Y-83280000D03*
X117635000Y-91920000D03*
%TD*%
D18*
%TO.C,C13*%
X103010000Y-85392500D03*
X101875000Y-85392500D03*
%TD*%
D19*
%TO.C,R10*%
X98780000Y-79100000D03*
X97585000Y-79100000D03*
%TD*%
D20*
%TO.C,U5*%
X108410000Y-54570000D03*
X108410000Y-53620000D03*
X108410000Y-52670000D03*
X110700000Y-52670000D03*
X110700000Y-54570000D03*
%TD*%
D21*
%TO.C,C8*%
X101130000Y-78870000D03*
X101130000Y-77735000D03*
%TD*%
D22*
%TO.C,C2*%
X107945000Y-55910000D03*
X109080000Y-55910000D03*
%TD*%
D23*
%TO.C,U6*%
X110735000Y-86255000D03*
X110735000Y-86755000D03*
X110735000Y-87255000D03*
X110735000Y-87755000D03*
X110735000Y-88255000D03*
X107785000Y-88255000D03*
X107785000Y-87755000D03*
X107785000Y-87255000D03*
X107785000Y-86755000D03*
X107785000Y-86255000D03*
D24*
X109260000Y-87255000D03*
%TD*%
D25*
%TO.C,L1*%
X97730000Y-83510000D03*
X93030000Y-83510000D03*
%TD*%
D22*
%TO.C,C9*%
X97635000Y-78090000D03*
X98770000Y-78090000D03*
%TD*%
D26*
%TO.C,J8*%
X90120000Y-104400000D03*
D27*
X90120000Y-106940000D03*
X92660000Y-104400000D03*
X92660000Y-106940000D03*
X95200000Y-104400000D03*
X95200000Y-106940000D03*
X97740000Y-104400000D03*
X97740000Y-106940000D03*
X100280000Y-104400000D03*
X100280000Y-106940000D03*
X102820000Y-104400000D03*
X102820000Y-106940000D03*
%TD*%
D28*
%TO.C,U9*%
X103810000Y-101260000D03*
X103810000Y-100610000D03*
X103810000Y-99960000D03*
X105710000Y-99960000D03*
X105710000Y-101260000D03*
%TD*%
D29*
%TO.C,L2*%
X108850000Y-75600000D03*
X108850000Y-70900000D03*
%TD*%
D19*
%TO.C,R6*%
X109155000Y-51300000D03*
X107960000Y-51300000D03*
%TD*%
D21*
%TO.C,C12*%
X99960000Y-81460000D03*
X99960000Y-80325000D03*
%TD*%
D30*
%TO.C,R4*%
X81170000Y-95455000D03*
X81170000Y-94260000D03*
%TD*%
D31*
%TO.C,TP5*%
X98600000Y-88640000D03*
%TD*%
D32*
%TO.C,J3*%
X103970700Y-72317800D03*
X90838900Y-72317800D03*
D33*
X100910000Y-69600000D03*
X98408100Y-69600000D03*
X96401500Y-69600000D03*
X93899600Y-69600000D03*
%TD*%
D22*
%TO.C,C7*%
X103860000Y-76250000D03*
X104995000Y-76250000D03*
%TD*%
%TO.C,C3*%
X109355000Y-84940000D03*
X110490000Y-84940000D03*
%TD*%
D34*
%TO.C,U1*%
X71405000Y-78730000D03*
D35*
X82835000Y-78730000D03*
D36*
X82835000Y-85080000D03*
D37*
X81565000Y-87620000D03*
X80295000Y-85080000D03*
X79025000Y-87620000D03*
X77755000Y-85080000D03*
X76485000Y-87620000D03*
X75215000Y-85080000D03*
X73945000Y-87620000D03*
X72675000Y-85080000D03*
X71405000Y-87620000D03*
D38*
X82585000Y-92450000D03*
X80045000Y-92450000D03*
X74195000Y-92450000D03*
X71655000Y-92450000D03*
D39*
X69375000Y-81780000D03*
X84865000Y-81780000D03*
%TD*%
D31*
%TO.C,TP4*%
X108200000Y-68260000D03*
%TD*%
D26*
%TO.C,J5*%
X76180000Y-104410000D03*
D27*
X76180000Y-106950000D03*
X78720000Y-104410000D03*
X78720000Y-106950000D03*
X81260000Y-104410000D03*
X81260000Y-106950000D03*
X83800000Y-104410000D03*
X83800000Y-106950000D03*
X86340000Y-104410000D03*
X86340000Y-106950000D03*
%TD*%
D40*
%TO.C,U8*%
X101210000Y-81422500D03*
X102160000Y-81422500D03*
X103110000Y-81422500D03*
X103110000Y-83802500D03*
X102160000Y-83802500D03*
X101210000Y-83802500D03*
%TD*%
D41*
%TO.C,SW3*%
X106480000Y-107570000D03*
X106480000Y-103120000D03*
%TD*%
D42*
%TO.C,R7*%
X106570000Y-87285000D03*
X106570000Y-88480000D03*
%TD*%
D15*
%TO.C,J2*%
X113640000Y-52850000D03*
X113640000Y-58630000D03*
D16*
X113140000Y-51420000D03*
X113140000Y-60060000D03*
D17*
X117320000Y-51420000D03*
X117320000Y-60060000D03*
%TD*%
D22*
%TO.C,C10*%
X97635000Y-77050000D03*
X98770000Y-77050000D03*
%TD*%
D31*
%TO.C,TP3*%
X108950000Y-57960000D03*
%TD*%
D21*
%TO.C,C15*%
X101840000Y-88787500D03*
X101840000Y-87652500D03*
%TD*%
D42*
%TO.C,R12*%
X102990000Y-87615000D03*
X102990000Y-88810000D03*
%TD*%
D43*
%TO.C,U7*%
X105050000Y-77570000D03*
X105050000Y-78520000D03*
X105050000Y-79470000D03*
X102670000Y-79470000D03*
X102670000Y-78520000D03*
X102670000Y-77570000D03*
%TD*%
D44*
%TO.C,D2*%
X109870000Y-78640000D03*
X109870000Y-83070000D03*
%TD*%
D45*
%TO.C,R11*%
X101870000Y-86432500D03*
X103065000Y-86432500D03*
%TD*%
D46*
%TO.C,C11*%
X105500000Y-81017500D03*
X105500000Y-82152500D03*
%TD*%
D47*
%TO.C,U4*%
X107370000Y-65340000D03*
X107370000Y-64840000D03*
X107370000Y-64340000D03*
X107370000Y-63840000D03*
X107370000Y-63340000D03*
X106595000Y-63340000D03*
X106595000Y-63840000D03*
X106595000Y-64340000D03*
X106595000Y-64840000D03*
X106595000Y-65340000D03*
%TD*%
D21*
%TO.C,C1*%
X110260000Y-51230000D03*
X110260000Y-50095000D03*
%TD*%
D46*
%TO.C,C6*%
X104490000Y-81027500D03*
X104490000Y-82162500D03*
%TD*%
D41*
%TO.C,SW2*%
X110682500Y-107500000D03*
X110682500Y-103050000D03*
%TD*%
D42*
%TO.C,R5*%
X74250000Y-94380000D03*
X74250000Y-95575000D03*
%TD*%
D28*
%TO.C,U10*%
X103840000Y-98272500D03*
X103840000Y-97622500D03*
X103840000Y-96972500D03*
X105740000Y-96972500D03*
X105740000Y-98272500D03*
%TD*%
D42*
%TO.C,R9*%
X100030000Y-77685000D03*
X100030000Y-78880000D03*
%TD*%
D21*
%TO.C,C14*%
X100730000Y-88780000D03*
X100730000Y-87645000D03*
%TD*%
D48*
%TO.C,J6*%
X118592500Y-71929163D03*
D49*
X118592500Y-77009163D03*
%TD*%
D41*
%TO.C,SW1*%
X115280000Y-107500000D03*
X115280000Y-103050000D03*
%TD*%
M02*
