M48
METRIC,LZ,000.000
;FILE_FORMAT=3:3
;TYPE=PLATED
;Layer: PTH_Through
;EasyEDA v6.5.51, 2025-12-29 19:16:08
;8e36dad52bfc4c7faac2288d2deaf62e,036ae6e9a2b24cebb23d0048bde98d7c,10
;Gerber Generator version 0.2
;Holesize 1 = 0.310 mm
T01C0.310
;Holesize 2 = 0.701 mm
T02C0.701
;Holesize 3 = 0.800 mm
T03C0.800
;Holesize 4 = 1.400 mm
T04C1.400
%
G05
G90
T01
X010033Y054483
X010160Y051435
X017399Y048895
X015875Y051054
X024765Y054864
X024892Y052959
X024892Y052070
X018034Y051943
X017145Y051943
X018034Y052959
X017145Y052959
X018034Y053975
X017145Y053975
X013970Y052705
X012700Y055118
X021463Y049149
X018161Y057150
X019431Y057150
T02
X010269Y048893G85X011369Y048893
X010269Y057533G85X011369Y057533
T03
X006269Y057533G85X007069Y057533
X006269Y048893G85X007069Y048893
T04
X026162Y056769
X026162Y049784
M30
