G04 Layer: BottomLayer*
G04 EasyEDA v6.5.51, 2025-12-29 19:16:08*
G04 8e36dad52bfc4c7faac2288d2deaf62e,036ae6e9a2b24cebb23d0048bde98d7c,10*
G04 Gerber Generator version 0.2*
G04 Scale: 100 percent, Rotated: No, Reflected: No *
G04 Dimensions in millimeters *
G04 leading zeros omitted , absolute positions ,4 integer and 5 decimal *
%FSLAX45Y45*%
%MOMM*%

%AMMACRO1*21,1,$1,$2,0,0,$3*%
%ADD10C,0.2540*%
%ADD11C,0.4000*%
%ADD12MACRO1,0.864X0.8065X-90.0000*%
%ADD13R,2.3000X2.5500*%
%ADD14O,1.999996X1.199998*%
%ADD15O,2.299995X1.199998*%
%ADD16C,0.6200*%
%ADD17C,0.0167*%

%LPD*%
G36*
X544068Y4724908D02*
G01*
X540156Y4725670D01*
X536905Y4727905D01*
X534670Y4731156D01*
X533908Y4735068D01*
X533908Y4840986D01*
X534873Y4845304D01*
X537616Y4848809D01*
X541578Y4850841D01*
X545998Y4850993D01*
X550062Y4849215D01*
X553008Y4845862D01*
X554634Y4842865D01*
X561949Y4833061D01*
X570636Y4824374D01*
X580440Y4817059D01*
X591210Y4811166D01*
X602691Y4806899D01*
X614629Y4804308D01*
X627227Y4803394D01*
X706526Y4803394D01*
X719074Y4804308D01*
X731062Y4806899D01*
X742543Y4811166D01*
X753313Y4817059D01*
X763117Y4824374D01*
X771753Y4833061D01*
X779119Y4842865D01*
X785012Y4853635D01*
X789279Y4865116D01*
X791870Y4877054D01*
X792734Y4889296D01*
X791870Y4901539D01*
X789279Y4913477D01*
X785012Y4924958D01*
X779119Y4935728D01*
X771753Y4945532D01*
X763117Y4954219D01*
X753313Y4961534D01*
X742543Y4967427D01*
X731062Y4971694D01*
X719074Y4974285D01*
X706526Y4975199D01*
X627227Y4975199D01*
X614629Y4974285D01*
X602691Y4971694D01*
X591210Y4967427D01*
X580440Y4961534D01*
X570636Y4954219D01*
X561949Y4945532D01*
X554634Y4935728D01*
X553008Y4932730D01*
X550062Y4929378D01*
X545998Y4927600D01*
X541578Y4927752D01*
X537616Y4929784D01*
X534873Y4933289D01*
X533908Y4937607D01*
X533908Y5704992D01*
X534873Y5709310D01*
X537616Y5712815D01*
X541578Y5714847D01*
X545998Y5715000D01*
X550062Y5713222D01*
X553008Y5709869D01*
X554634Y5706872D01*
X561949Y5697067D01*
X570636Y5688380D01*
X580440Y5681065D01*
X591210Y5675172D01*
X602691Y5670905D01*
X614629Y5668314D01*
X627227Y5667400D01*
X706526Y5667400D01*
X719074Y5668314D01*
X731062Y5670905D01*
X742543Y5675172D01*
X753313Y5681065D01*
X763117Y5688380D01*
X771753Y5697067D01*
X779119Y5706872D01*
X785012Y5717641D01*
X789279Y5729122D01*
X791870Y5741060D01*
X792734Y5753303D01*
X791870Y5765546D01*
X789279Y5777484D01*
X785012Y5788964D01*
X779119Y5799734D01*
X771753Y5809538D01*
X763117Y5818225D01*
X753313Y5825540D01*
X742543Y5831433D01*
X731062Y5835700D01*
X719074Y5838291D01*
X706526Y5839206D01*
X627227Y5839206D01*
X614629Y5838291D01*
X602691Y5835700D01*
X591210Y5831433D01*
X580440Y5825540D01*
X570636Y5818225D01*
X561949Y5809538D01*
X554634Y5799734D01*
X553008Y5796737D01*
X550062Y5793384D01*
X545998Y5791606D01*
X541578Y5791758D01*
X537616Y5793790D01*
X534873Y5797296D01*
X533908Y5801614D01*
X533908Y5869432D01*
X534670Y5873343D01*
X536905Y5876594D01*
X540156Y5878830D01*
X544068Y5879592D01*
X2770632Y5879592D01*
X2774543Y5878830D01*
X2777794Y5876594D01*
X2780030Y5873343D01*
X2780792Y5869432D01*
X2780792Y4735068D01*
X2780030Y4731156D01*
X2777794Y4727905D01*
X2774543Y4725670D01*
X2770632Y4724908D01*
G37*

%LPC*%
G36*
X1027226Y4803394D02*
G01*
X1136497Y4803394D01*
X1149096Y4804308D01*
X1161084Y4806899D01*
X1172565Y4811166D01*
X1183284Y4817059D01*
X1193088Y4824374D01*
X1201775Y4833061D01*
X1209141Y4842865D01*
X1214983Y4853635D01*
X1219250Y4865116D01*
X1221892Y4877054D01*
X1222756Y4889296D01*
X1221892Y4901539D01*
X1219250Y4913477D01*
X1214983Y4924958D01*
X1209141Y4935728D01*
X1201775Y4945532D01*
X1193088Y4954219D01*
X1183284Y4961534D01*
X1172565Y4967427D01*
X1161084Y4971694D01*
X1149096Y4974285D01*
X1136497Y4975199D01*
X1088339Y4975199D01*
X1084529Y4975961D01*
X1081227Y4978095D01*
X1079042Y4981295D01*
X1078179Y4985105D01*
X1078839Y4988915D01*
X1087628Y5002123D01*
X1091793Y5011724D01*
X1094384Y5021834D01*
X1095248Y5032298D01*
X1094384Y5042712D01*
X1091793Y5052872D01*
X1087628Y5062423D01*
X1081887Y5071211D01*
X1074775Y5078933D01*
X1062329Y5088737D01*
X1060551Y5092801D01*
X1060704Y5097221D01*
X1062685Y5101183D01*
X1066190Y5103926D01*
X1070508Y5104892D01*
X1402181Y5104892D01*
X1406093Y5104130D01*
X1409395Y5101894D01*
X1547164Y4964176D01*
X1553362Y4959045D01*
X1560068Y4955489D01*
X1567281Y4953304D01*
X1575308Y4952492D01*
X1691132Y4952492D01*
X1695043Y4951730D01*
X1698294Y4949494D01*
X1700530Y4946243D01*
X1701292Y4942332D01*
X1701292Y4935474D01*
X1700733Y4932070D01*
X1699056Y4929073D01*
X1692757Y4921351D01*
X1688084Y4912918D01*
X1684883Y4903825D01*
X1683257Y4894326D01*
X1683257Y4884674D01*
X1684883Y4875174D01*
X1688084Y4866081D01*
X1692757Y4857648D01*
X1698853Y4850130D01*
X1706067Y4843780D01*
X1714296Y4838700D01*
X1723237Y4835144D01*
X1732686Y4833112D01*
X1742338Y4832654D01*
X1751888Y4833924D01*
X1761083Y4836718D01*
X1769719Y4841087D01*
X1777492Y4846828D01*
X1784146Y4853787D01*
X1789531Y4861763D01*
X1793544Y4870551D01*
X1795932Y4879898D01*
X1796796Y4889500D01*
X1795932Y4899101D01*
X1793544Y4908448D01*
X1789531Y4917236D01*
X1784146Y4925212D01*
X1781352Y4928158D01*
X1779219Y4931410D01*
X1778507Y4935220D01*
X1778507Y4965192D01*
X1777695Y4973218D01*
X1775510Y4980432D01*
X1771954Y4987137D01*
X1766824Y4993335D01*
X1742135Y5018024D01*
X1735937Y5023154D01*
X1729232Y5026710D01*
X1722018Y5028895D01*
X1713992Y5029708D01*
X1601724Y5029708D01*
X1597710Y5030520D01*
X1594358Y5032857D01*
X1592173Y5036362D01*
X1591564Y5040426D01*
X1592630Y5044389D01*
X1595170Y5047640D01*
X1598777Y5049570D01*
X1608683Y5052618D01*
X1617319Y5056987D01*
X1625092Y5062728D01*
X1631746Y5069687D01*
X1637131Y5077663D01*
X1641144Y5086451D01*
X1643532Y5095798D01*
X1644396Y5105400D01*
X1643532Y5115001D01*
X1641144Y5124348D01*
X1637131Y5133136D01*
X1631746Y5141112D01*
X1625092Y5148072D01*
X1617319Y5153812D01*
X1608683Y5158181D01*
X1599488Y5160975D01*
X1585823Y5162905D01*
X1582318Y5165191D01*
X1526235Y5221224D01*
X1520037Y5226354D01*
X1513332Y5229910D01*
X1506118Y5232095D01*
X1498092Y5232908D01*
X1457960Y5232908D01*
X1453997Y5233720D01*
X1450644Y5235956D01*
X1448460Y5239359D01*
X1447800Y5243322D01*
X1448663Y5247233D01*
X1450644Y5251551D01*
X1453032Y5260898D01*
X1453896Y5270500D01*
X1453032Y5280101D01*
X1450644Y5289448D01*
X1446631Y5298236D01*
X1444650Y5301183D01*
X1443329Y5303926D01*
X1442923Y5306872D01*
X1442872Y5335778D01*
X1441653Y5344515D01*
X1438960Y5352542D01*
X1434846Y5359908D01*
X1429105Y5366816D01*
X1322171Y5473750D01*
X1319936Y5477103D01*
X1319225Y5481116D01*
X1320139Y5485079D01*
X1323644Y5492851D01*
X1326032Y5502198D01*
X1326896Y5511800D01*
X1326032Y5521401D01*
X1323644Y5530748D01*
X1319631Y5539536D01*
X1314246Y5547512D01*
X1307592Y5554472D01*
X1299819Y5560212D01*
X1291183Y5564581D01*
X1281988Y5567375D01*
X1272438Y5568645D01*
X1262786Y5568188D01*
X1253337Y5566156D01*
X1244396Y5562600D01*
X1236167Y5557520D01*
X1228953Y5551170D01*
X1222857Y5543651D01*
X1218184Y5535218D01*
X1214983Y5526125D01*
X1213358Y5516626D01*
X1213358Y5506974D01*
X1214983Y5497474D01*
X1218184Y5488381D01*
X1222806Y5480100D01*
X1223772Y5477713D01*
X1224076Y5475173D01*
X1224127Y5459120D01*
X1225346Y5450484D01*
X1228039Y5442458D01*
X1232154Y5435092D01*
X1237894Y5428183D01*
X1348130Y5317947D01*
X1350314Y5314645D01*
X1351076Y5310784D01*
X1350772Y5304586D01*
X1349806Y5302199D01*
X1345184Y5293918D01*
X1341983Y5284825D01*
X1340358Y5275326D01*
X1340358Y5265674D01*
X1341983Y5256174D01*
X1345387Y5246471D01*
X1345946Y5242661D01*
X1345082Y5238902D01*
X1342847Y5235752D01*
X1339596Y5233619D01*
X1335836Y5232908D01*
X1099718Y5232908D01*
X1095806Y5233670D01*
X1092504Y5235905D01*
X1019505Y5308904D01*
X1017269Y5312206D01*
X1016508Y5316118D01*
X1016508Y5385562D01*
X1017422Y5389727D01*
X1019962Y5393182D01*
X1033119Y5399887D01*
X1040892Y5405628D01*
X1047546Y5412587D01*
X1052931Y5420563D01*
X1056944Y5429351D01*
X1059332Y5438698D01*
X1060196Y5448300D01*
X1059332Y5457901D01*
X1056944Y5467248D01*
X1052931Y5476036D01*
X1047546Y5484012D01*
X1040892Y5490972D01*
X1033119Y5496712D01*
X1024483Y5501081D01*
X1015288Y5503875D01*
X1005738Y5505145D01*
X996086Y5504688D01*
X986637Y5502656D01*
X977696Y5499100D01*
X969467Y5494020D01*
X962253Y5487670D01*
X956157Y5480151D01*
X951484Y5471718D01*
X948283Y5462625D01*
X946658Y5453126D01*
X946658Y5448350D01*
X946353Y5445861D01*
X945438Y5443575D01*
X942289Y5437632D01*
X940104Y5430418D01*
X939292Y5422392D01*
X939292Y5296408D01*
X940104Y5288381D01*
X942289Y5281168D01*
X945845Y5274462D01*
X950976Y5268264D01*
X1004214Y5214975D01*
X1006551Y5211368D01*
X1007211Y5207101D01*
X1005992Y5202986D01*
X1003249Y5199735D01*
X999337Y5197906D01*
X990396Y5194300D01*
X982167Y5189220D01*
X974953Y5182870D01*
X968857Y5175351D01*
X964184Y5166918D01*
X960983Y5157825D01*
X959358Y5148326D01*
X959358Y5138674D01*
X960983Y5129174D01*
X964184Y5120081D01*
X968857Y5111648D01*
X974953Y5104130D01*
X982167Y5097780D01*
X987094Y5094732D01*
X990295Y5091633D01*
X991819Y5087518D01*
X991463Y5083048D01*
X989228Y5079238D01*
X981862Y5071211D01*
X976121Y5062423D01*
X971956Y5052872D01*
X969365Y5042712D01*
X968502Y5032298D01*
X969365Y5021834D01*
X971956Y5011724D01*
X976121Y5002123D01*
X981862Y4993386D01*
X988974Y4985664D01*
X991412Y4983734D01*
X994054Y4980686D01*
X995273Y4976926D01*
X994968Y4972913D01*
X993140Y4969357D01*
X990041Y4966817D01*
X980440Y4961534D01*
X970635Y4954219D01*
X961948Y4945532D01*
X954633Y4935728D01*
X948740Y4924958D01*
X944473Y4913477D01*
X941882Y4901539D01*
X940968Y4889296D01*
X941882Y4877054D01*
X944473Y4865116D01*
X948740Y4853635D01*
X954633Y4842865D01*
X961948Y4833061D01*
X970635Y4824374D01*
X980440Y4817059D01*
X991209Y4811166D01*
X1002690Y4806899D01*
X1014628Y4804308D01*
G37*
G36*
X2501747Y4824984D02*
G01*
X2730652Y4824984D01*
X2736951Y4825695D01*
X2742438Y4827625D01*
X2747314Y4830673D01*
X2751429Y4834788D01*
X2754477Y4839665D01*
X2756408Y4845151D01*
X2757119Y4851450D01*
X2757119Y5105349D01*
X2756408Y5111648D01*
X2754477Y5117134D01*
X2751429Y5122011D01*
X2747314Y5126126D01*
X2742438Y5129174D01*
X2736951Y5131104D01*
X2730652Y5131816D01*
X2505049Y5131816D01*
X2501036Y5132628D01*
X2498547Y5134406D01*
X2497124Y5132527D01*
X2493670Y5130495D01*
X2489962Y5129174D01*
X2485085Y5126126D01*
X2483002Y5124043D01*
X2479700Y5121808D01*
X2475839Y5121046D01*
X2471928Y5121808D01*
X2468626Y5124043D01*
X2466441Y5127294D01*
X2465679Y5131206D01*
X2465679Y5141518D01*
X2466644Y5145887D01*
X2469438Y5149443D01*
X2473452Y5151424D01*
X2477973Y5151475D01*
X2481986Y5150612D01*
X2490774Y5150205D01*
X2494635Y5149291D01*
X2496870Y5147614D01*
X2498496Y5149697D01*
X2502103Y5151678D01*
X2510383Y5154218D01*
X2519019Y5158587D01*
X2526792Y5164328D01*
X2533446Y5171287D01*
X2538831Y5179263D01*
X2542844Y5188051D01*
X2545232Y5197398D01*
X2546096Y5207000D01*
X2545232Y5216601D01*
X2542844Y5225948D01*
X2538831Y5234736D01*
X2533446Y5242712D01*
X2531821Y5244439D01*
X2529738Y5247640D01*
X2529027Y5251450D01*
X2529738Y5255260D01*
X2531821Y5258460D01*
X2533446Y5260187D01*
X2538831Y5268163D01*
X2542844Y5276951D01*
X2545232Y5286298D01*
X2546096Y5295900D01*
X2545232Y5305501D01*
X2542844Y5314848D01*
X2538831Y5323636D01*
X2533446Y5331612D01*
X2526792Y5338572D01*
X2519019Y5344312D01*
X2510383Y5348681D01*
X2501188Y5351475D01*
X2491638Y5352745D01*
X2481986Y5352288D01*
X2472537Y5350256D01*
X2466898Y5348020D01*
X2463038Y5347258D01*
X2459177Y5348071D01*
X2455926Y5350306D01*
X2453741Y5353558D01*
X2452979Y5357418D01*
X2452979Y5363921D01*
X2452268Y5370271D01*
X2450338Y5375706D01*
X2447239Y5380634D01*
X2440279Y5387187D01*
X2438603Y5390184D01*
X2438044Y5393537D01*
X2438044Y5401462D01*
X2438603Y5404815D01*
X2440279Y5407812D01*
X2443175Y5410301D01*
X2447239Y5414365D01*
X2450338Y5419293D01*
X2452166Y5424576D01*
X2453995Y5427726D01*
X2456789Y5430062D01*
X2460244Y5431282D01*
X2463901Y5431129D01*
X2469286Y5430012D01*
X2478938Y5429554D01*
X2488488Y5430824D01*
X2497683Y5433618D01*
X2506319Y5437987D01*
X2514092Y5443728D01*
X2520746Y5450687D01*
X2526131Y5458663D01*
X2530144Y5467451D01*
X2532532Y5476798D01*
X2533396Y5486400D01*
X2532532Y5496001D01*
X2530144Y5505348D01*
X2528417Y5509158D01*
X2527503Y5513070D01*
X2528214Y5517032D01*
X2530398Y5520436D01*
X2533700Y5522671D01*
X2537663Y5523484D01*
X2552344Y5523484D01*
X2552344Y5606796D01*
X2475280Y5606796D01*
X2475280Y5552287D01*
X2474722Y5548934D01*
X2473045Y5545937D01*
X2470454Y5543651D01*
X2467254Y5542381D01*
X2459837Y5540756D01*
X2450896Y5537200D01*
X2447798Y5536488D01*
X2444648Y5536742D01*
X2441702Y5538012D01*
X2438247Y5540197D01*
X2432812Y5542076D01*
X2426462Y5542788D01*
X2360168Y5542788D01*
X2356256Y5543600D01*
X2353005Y5545785D01*
X2350770Y5549087D01*
X2350008Y5552948D01*
X2350008Y5663692D01*
X2349195Y5671718D01*
X2347010Y5678932D01*
X2343454Y5685637D01*
X2338324Y5691835D01*
X2288235Y5741924D01*
X2282037Y5747054D01*
X2275332Y5750610D01*
X2268118Y5752795D01*
X2260092Y5753608D01*
X1988921Y5753608D01*
X1984959Y5754420D01*
X1972919Y5763412D01*
X1964283Y5767781D01*
X1955088Y5770575D01*
X1945538Y5771845D01*
X1935886Y5771388D01*
X1926437Y5769356D01*
X1917496Y5765800D01*
X1909267Y5760720D01*
X1902053Y5754370D01*
X1895957Y5746851D01*
X1891284Y5738418D01*
X1889252Y5732678D01*
X1887016Y5729020D01*
X1883460Y5726633D01*
X1879244Y5725922D01*
X1875078Y5726988D01*
X1871776Y5729681D01*
X1865731Y5742736D01*
X1860346Y5750712D01*
X1853692Y5757672D01*
X1845919Y5763412D01*
X1837283Y5767781D01*
X1828088Y5770575D01*
X1818538Y5771845D01*
X1808886Y5771388D01*
X1799437Y5769356D01*
X1790496Y5765800D01*
X1782267Y5760720D01*
X1775053Y5754370D01*
X1768957Y5746851D01*
X1764284Y5738418D01*
X1761083Y5729325D01*
X1759457Y5719826D01*
X1759457Y5710174D01*
X1761083Y5700674D01*
X1764284Y5691581D01*
X1768957Y5683148D01*
X1775256Y5675426D01*
X1776933Y5672429D01*
X1777492Y5669026D01*
X1777492Y5626608D01*
X1778304Y5618581D01*
X1780489Y5611368D01*
X1784045Y5604662D01*
X1789175Y5598464D01*
X1813864Y5573776D01*
X1820062Y5568645D01*
X1826768Y5565089D01*
X1833981Y5562904D01*
X1842007Y5562092D01*
X1882546Y5562092D01*
X1886508Y5561279D01*
X1889861Y5558993D01*
X1892046Y5555589D01*
X1892706Y5551627D01*
X1891792Y5547664D01*
X1889404Y5544413D01*
X1885899Y5542330D01*
X1879752Y5540197D01*
X1874824Y5537098D01*
X1870760Y5533034D01*
X1867662Y5528106D01*
X1865731Y5522671D01*
X1865020Y5516321D01*
X1865020Y5501640D01*
X1904746Y5501640D01*
X1904746Y5551932D01*
X1905558Y5555843D01*
X1907743Y5559094D01*
X1911045Y5561330D01*
X1914906Y5562092D01*
X1947621Y5562092D01*
X1951532Y5561330D01*
X1954834Y5559094D01*
X1957019Y5555843D01*
X1957781Y5551932D01*
X1957781Y5501640D01*
X2005533Y5501640D01*
X2009444Y5500878D01*
X2012696Y5498693D01*
X2014931Y5495391D01*
X2015693Y5491480D01*
X2015693Y5455920D01*
X2014931Y5452008D01*
X2012696Y5448706D01*
X2009444Y5446522D01*
X2005533Y5445760D01*
X1957781Y5445760D01*
X1957781Y5349240D01*
X2005533Y5349240D01*
X2009444Y5348478D01*
X2012696Y5346293D01*
X2014931Y5342991D01*
X2015693Y5339080D01*
X2015693Y5303520D01*
X2014931Y5299608D01*
X2012696Y5296306D01*
X2009444Y5294122D01*
X2005533Y5293360D01*
X1957781Y5293360D01*
X1957781Y5196840D01*
X2005533Y5196840D01*
X2009444Y5196078D01*
X2012696Y5193893D01*
X2014931Y5190591D01*
X2015693Y5186680D01*
X2015693Y5151120D01*
X2014931Y5147208D01*
X2012696Y5143906D01*
X2009444Y5141722D01*
X2005533Y5140960D01*
X1957781Y5140960D01*
X1957781Y5099812D01*
X1971039Y5099812D01*
X1977339Y5100523D01*
X1982825Y5102402D01*
X1987702Y5105501D01*
X1991817Y5109565D01*
X1994865Y5114493D01*
X1996998Y5120538D01*
X1999132Y5124094D01*
X2002536Y5126532D01*
X2006600Y5127345D01*
X2010664Y5126532D01*
X2014067Y5124094D01*
X2016201Y5120538D01*
X2018334Y5114493D01*
X2021382Y5109565D01*
X2025497Y5105501D01*
X2030374Y5102402D01*
X2035860Y5100523D01*
X2042160Y5099812D01*
X2097532Y5099812D01*
X2101443Y5098999D01*
X2104694Y5096814D01*
X2106930Y5093512D01*
X2107692Y5089652D01*
X2107692Y4960874D01*
X2107133Y4957470D01*
X2105456Y4954473D01*
X2099157Y4946751D01*
X2094484Y4938318D01*
X2091283Y4929225D01*
X2089657Y4919726D01*
X2089657Y4910074D01*
X2091283Y4900574D01*
X2094484Y4891481D01*
X2099157Y4883048D01*
X2105253Y4875530D01*
X2112467Y4869180D01*
X2120696Y4864100D01*
X2129637Y4860544D01*
X2139086Y4858512D01*
X2148738Y4858054D01*
X2158288Y4859324D01*
X2167483Y4862118D01*
X2176119Y4866487D01*
X2183892Y4872228D01*
X2190546Y4879187D01*
X2195931Y4887163D01*
X2199944Y4895951D01*
X2202332Y4905298D01*
X2203196Y4914900D01*
X2202332Y4924501D01*
X2199944Y4933848D01*
X2195931Y4942636D01*
X2190546Y4950612D01*
X2187752Y4953558D01*
X2185619Y4956810D01*
X2184908Y4960620D01*
X2184908Y5092395D01*
X2185619Y5096205D01*
X2187702Y5099456D01*
X2190851Y5101640D01*
X2194610Y5102555D01*
X2198420Y5101996D01*
X2202688Y5100523D01*
X2209038Y5099812D01*
X2288540Y5099812D01*
X2294839Y5100523D01*
X2300325Y5102402D01*
X2305202Y5105501D01*
X2309317Y5109565D01*
X2312365Y5114493D01*
X2314498Y5120538D01*
X2316632Y5124094D01*
X2320036Y5126532D01*
X2324100Y5127345D01*
X2328164Y5126532D01*
X2331567Y5124094D01*
X2333701Y5120538D01*
X2335834Y5114493D01*
X2338882Y5109565D01*
X2342997Y5105501D01*
X2347874Y5102402D01*
X2353360Y5100523D01*
X2359660Y5099812D01*
X2439162Y5099812D01*
X2445512Y5100523D01*
X2450947Y5102402D01*
X2455875Y5105501D01*
X2457958Y5107584D01*
X2461260Y5109768D01*
X2465120Y5110581D01*
X2469032Y5109768D01*
X2472334Y5107584D01*
X2474518Y5104282D01*
X2475280Y5100421D01*
X2475280Y4851450D01*
X2475992Y4845151D01*
X2477922Y4839665D01*
X2480970Y4834788D01*
X2485085Y4830673D01*
X2489962Y4827625D01*
X2495448Y4825695D01*
G37*
G36*
X1891538Y5099812D02*
G01*
X1904746Y5099812D01*
X1904746Y5140960D01*
X1865020Y5140960D01*
X1865020Y5126278D01*
X1865731Y5119928D01*
X1867662Y5114493D01*
X1870760Y5109565D01*
X1874824Y5105501D01*
X1879752Y5102402D01*
X1885188Y5100523D01*
G37*
G36*
X1865020Y5196840D02*
G01*
X1904746Y5196840D01*
X1904746Y5293360D01*
X1865020Y5293360D01*
X1865020Y5278678D01*
X1865731Y5272328D01*
X1867662Y5266893D01*
X1870760Y5261965D01*
X1874824Y5257901D01*
X1883664Y5252567D01*
X1886051Y5249164D01*
X1886915Y5245100D01*
X1886051Y5241036D01*
X1883664Y5237632D01*
X1874824Y5232298D01*
X1870760Y5228234D01*
X1867662Y5223306D01*
X1865731Y5217871D01*
X1865020Y5211521D01*
G37*
G36*
X1865020Y5349240D02*
G01*
X1904746Y5349240D01*
X1904746Y5445760D01*
X1865020Y5445760D01*
X1865020Y5431078D01*
X1865731Y5424728D01*
X1867662Y5419293D01*
X1870760Y5414365D01*
X1874824Y5410301D01*
X1883664Y5404967D01*
X1886051Y5401564D01*
X1886915Y5397500D01*
X1886051Y5393436D01*
X1883664Y5390032D01*
X1874824Y5384698D01*
X1870760Y5380634D01*
X1867662Y5375706D01*
X1865731Y5370271D01*
X1865020Y5363921D01*
G37*
G36*
X2680055Y5523484D02*
G01*
X2730652Y5523484D01*
X2736951Y5524195D01*
X2742438Y5526125D01*
X2747314Y5529173D01*
X2751429Y5533288D01*
X2754477Y5538165D01*
X2756408Y5543651D01*
X2757119Y5549950D01*
X2757119Y5606796D01*
X2680055Y5606796D01*
G37*
G36*
X1026617Y5547106D02*
G01*
X1037132Y5547106D01*
X1047445Y5548833D01*
X1057351Y5552236D01*
X1066546Y5557215D01*
X1074775Y5563666D01*
X1081887Y5571388D01*
X1087628Y5580126D01*
X1091793Y5589727D01*
X1094384Y5599836D01*
X1095248Y5610301D01*
X1094384Y5620715D01*
X1091793Y5630875D01*
X1087628Y5640425D01*
X1078788Y5653684D01*
X1078179Y5657494D01*
X1078992Y5661304D01*
X1081227Y5664504D01*
X1084478Y5666638D01*
X1088288Y5667400D01*
X1136497Y5667400D01*
X1149096Y5668314D01*
X1161084Y5670905D01*
X1172565Y5675172D01*
X1183284Y5681065D01*
X1193088Y5688380D01*
X1201775Y5697067D01*
X1209141Y5706872D01*
X1214983Y5717641D01*
X1219250Y5729122D01*
X1221892Y5741060D01*
X1222756Y5753303D01*
X1221892Y5765546D01*
X1219250Y5777484D01*
X1214983Y5788964D01*
X1209141Y5799734D01*
X1201775Y5809538D01*
X1193088Y5818225D01*
X1183284Y5825540D01*
X1172565Y5831433D01*
X1161084Y5835700D01*
X1149096Y5838291D01*
X1136497Y5839206D01*
X1027226Y5839206D01*
X1014628Y5838291D01*
X1002690Y5835700D01*
X991209Y5831433D01*
X980440Y5825540D01*
X970635Y5818225D01*
X961948Y5809538D01*
X954633Y5799734D01*
X948740Y5788964D01*
X944473Y5777484D01*
X941882Y5765546D01*
X940968Y5753303D01*
X941882Y5741060D01*
X944473Y5729122D01*
X948740Y5717641D01*
X954633Y5706872D01*
X961948Y5697067D01*
X970635Y5688380D01*
X980440Y5681065D01*
X990092Y5675782D01*
X993140Y5673242D01*
X994968Y5669686D01*
X995324Y5665673D01*
X994054Y5661863D01*
X991463Y5658866D01*
X988974Y5656935D01*
X981862Y5649214D01*
X976121Y5640425D01*
X971956Y5630875D01*
X969365Y5620715D01*
X968502Y5610301D01*
X969365Y5599836D01*
X971956Y5589727D01*
X976121Y5580126D01*
X981862Y5571388D01*
X988974Y5563666D01*
X997203Y5557215D01*
X1006398Y5552236D01*
X1016304Y5548833D01*
G37*
G36*
X2475280Y5747004D02*
G01*
X2552344Y5747004D01*
X2552344Y5830316D01*
X2501747Y5830316D01*
X2495448Y5829604D01*
X2489962Y5827674D01*
X2485085Y5824626D01*
X2480970Y5820511D01*
X2477922Y5815634D01*
X2475992Y5810148D01*
X2475280Y5803849D01*
G37*
G36*
X2680055Y5747004D02*
G01*
X2757119Y5747004D01*
X2757119Y5803849D01*
X2756408Y5810148D01*
X2754477Y5815634D01*
X2751429Y5820511D01*
X2747314Y5824626D01*
X2742438Y5827674D01*
X2736951Y5829604D01*
X2730652Y5830316D01*
X2680055Y5830316D01*
G37*

%LPD*%
D10*
X2386736Y5473700D02*
G01*
X2399431Y5461005D01*
X2399431Y5168900D01*
X1931268Y5473700D02*
G01*
X1931268Y5168905D01*
X1931263Y5168900D01*
X2081936Y5473700D02*
G01*
X2236068Y5473700D01*
X2236068Y5321300D02*
G01*
X2081936Y5321300D01*
X2386736Y5473700D02*
G01*
X2399436Y5486400D01*
X2476500Y5486400D01*
X2386736Y5321300D02*
G01*
X2412136Y5295900D01*
X2489200Y5295900D01*
X2399436Y5168900D02*
G01*
X2437536Y5207000D01*
X2489200Y5207000D01*
X1803400Y5397500D02*
G01*
X1879600Y5473700D01*
X1931263Y5473700D01*
X1803400Y5295900D02*
G01*
X1828800Y5321300D01*
X1931263Y5321300D01*
X1931263Y5168900D02*
G01*
X1905863Y5194300D01*
X1803400Y5194300D01*
X1003300Y5448300D02*
G01*
X977900Y5422900D01*
X977900Y5295900D01*
X1079500Y5194300D01*
X1498600Y5194300D01*
X1587500Y5105400D01*
X1016000Y5143500D02*
G01*
X1422400Y5143500D01*
X1574800Y4991100D01*
X1714500Y4991100D01*
X1739900Y4965700D01*
X1739900Y4889500D01*
X2081936Y5168900D02*
G01*
X2248768Y5168900D01*
X2248661Y5168900D02*
G01*
X2146300Y5168900D01*
X2146300Y4914900D01*
X1816100Y5715000D02*
G01*
X1816100Y5626100D01*
X1841500Y5600700D01*
X2006600Y5600700D01*
X2082038Y5525262D01*
X2082038Y5473700D01*
X2235961Y5321300D02*
G01*
X2298700Y5321300D01*
X2311400Y5334000D01*
X2311400Y5664200D01*
X2260600Y5715000D01*
X1943100Y5715000D01*
D11*
X1270000Y5511800D02*
G01*
X1270000Y5461000D01*
X1397000Y5334000D01*
X1397000Y5270500D01*
D12*
G01*
X2386724Y5473700D03*
G01*
X2236075Y5473700D03*
G01*
X2399424Y5168900D03*
G01*
X2248775Y5168900D03*
G01*
X2386724Y5321300D03*
G01*
X2236075Y5321300D03*
G01*
X2081924Y5168900D03*
G01*
X1931275Y5168900D03*
G01*
X2081924Y5321300D03*
G01*
X1931275Y5321300D03*
G01*
X2081924Y5473700D03*
G01*
X1931275Y5473700D03*
D13*
G01*
X2616200Y5676900D03*
G01*
X2616200Y4978400D03*
D14*
G01*
X666877Y5753277D03*
G01*
X666877Y4889296D03*
D15*
G01*
X1081862Y4889296D03*
G01*
X1081862Y5753277D03*
D16*
G01*
X1003300Y5448300D03*
G01*
X1016000Y5143500D03*
G01*
X1739900Y4889500D03*
G01*
X1587500Y5105400D03*
G01*
X2476500Y5486400D03*
G01*
X2489200Y5295900D03*
G01*
X2489200Y5207000D03*
G01*
X1803400Y5194300D03*
G01*
X1714500Y5194300D03*
G01*
X1803400Y5295900D03*
G01*
X1714500Y5295900D03*
G01*
X1803400Y5397500D03*
G01*
X1714500Y5397500D03*
G01*
X1397000Y5270500D03*
G01*
X1270000Y5511800D03*
G01*
X2146300Y4914900D03*
G01*
X1816100Y5715000D03*
G01*
X1943100Y5715000D03*
M02*
