G04 Layer: TopLayer*
G04 EasyEDA v6.5.51, 2025-12-29 19:16:08*
G04 8e36dad52bfc4c7faac2288d2deaf62e,036ae6e9a2b24cebb23d0048bde98d7c,10*
G04 Gerber Generator version 0.2*
G04 Scale: 100 percent, Rotated: No, Reflected: No *
G04 Dimensions in millimeters *
G04 leading zeros omitted , absolute positions ,4 integer and 5 decimal *
%FSLAX45Y45*%
%MOMM*%

%AMMACRO1*21,1,$1,$2,0,0,$3*%
%ADD10C,0.2540*%
%ADD11C,0.3500*%
%ADD12C,0.4000*%
%ADD13R,0.9000X0.8000*%
%ADD14R,0.8000X0.9000*%
%ADD15R,0.0100X0.9000*%
%ADD16R,0.8000X0.8000*%
%ADD17MACRO1,0.864X0.8065X90.0000*%
%ADD18MACRO1,0.864X0.8065X-90.0000*%
%ADD19MACRO1,0.864X0.8065X0.0000*%
%ADD20R,0.8640X0.8065*%
%ADD21R,0.6000X1.5000*%
%ADD22R,3.3000X2.1000*%
%ADD23MACRO1,0.2997X1.1481X-90.0000*%
%ADD24R,1.1500X0.3000*%
%ADD25R,1.1500X0.6000*%
%ADD26R,2.3000X2.5500*%
%ADD27O,1.999996X1.199998*%
%ADD28O,2.299995X1.199998*%
%ADD29C,0.6200*%

%LPD*%
G36*
X544068Y4724908D02*
G01*
X540156Y4725670D01*
X536905Y4727905D01*
X534670Y4731156D01*
X533908Y4735068D01*
X533908Y4840986D01*
X534873Y4845304D01*
X537616Y4848809D01*
X541578Y4850841D01*
X545998Y4850993D01*
X550062Y4849215D01*
X553008Y4845862D01*
X554634Y4842865D01*
X561949Y4833061D01*
X570636Y4824374D01*
X580440Y4817059D01*
X591210Y4811166D01*
X602691Y4806899D01*
X614629Y4804308D01*
X627227Y4803394D01*
X706526Y4803394D01*
X719074Y4804308D01*
X731062Y4806899D01*
X742543Y4811166D01*
X753313Y4817059D01*
X763117Y4824374D01*
X771753Y4833061D01*
X779119Y4842865D01*
X785012Y4853635D01*
X789279Y4865116D01*
X791870Y4877054D01*
X792734Y4889296D01*
X791870Y4901539D01*
X789279Y4913477D01*
X785012Y4924958D01*
X779119Y4935728D01*
X771753Y4945532D01*
X763117Y4954219D01*
X753313Y4961534D01*
X742543Y4967427D01*
X731062Y4971694D01*
X719074Y4974285D01*
X706526Y4975199D01*
X627227Y4975199D01*
X614629Y4974285D01*
X602691Y4971694D01*
X591210Y4967427D01*
X580440Y4961534D01*
X570636Y4954219D01*
X561949Y4945532D01*
X554634Y4935728D01*
X553008Y4932730D01*
X550062Y4929378D01*
X545998Y4927600D01*
X541578Y4927752D01*
X537616Y4929784D01*
X534873Y4933289D01*
X533908Y4937607D01*
X533908Y5704992D01*
X534873Y5709310D01*
X537616Y5712815D01*
X541578Y5714847D01*
X545998Y5715000D01*
X550062Y5713222D01*
X553008Y5709869D01*
X554634Y5706872D01*
X561949Y5697067D01*
X570636Y5688380D01*
X580440Y5681065D01*
X591210Y5675172D01*
X602691Y5670905D01*
X614629Y5668314D01*
X627227Y5667400D01*
X706526Y5667400D01*
X719074Y5668314D01*
X731062Y5670905D01*
X742543Y5675172D01*
X753313Y5681065D01*
X763117Y5688380D01*
X771753Y5697067D01*
X779119Y5706872D01*
X785012Y5717641D01*
X789279Y5729122D01*
X791870Y5741060D01*
X792734Y5753303D01*
X791870Y5765546D01*
X789279Y5777484D01*
X785012Y5788964D01*
X779119Y5799734D01*
X771753Y5809538D01*
X763117Y5818225D01*
X753313Y5825540D01*
X742543Y5831433D01*
X731062Y5835700D01*
X719074Y5838291D01*
X706526Y5839206D01*
X627227Y5839206D01*
X614629Y5838291D01*
X602691Y5835700D01*
X591210Y5831433D01*
X580440Y5825540D01*
X570636Y5818225D01*
X561949Y5809538D01*
X554634Y5799734D01*
X553008Y5796737D01*
X550062Y5793384D01*
X545998Y5791606D01*
X541578Y5791758D01*
X537616Y5793790D01*
X534873Y5797296D01*
X533908Y5801614D01*
X533908Y5869432D01*
X534670Y5873343D01*
X536905Y5876594D01*
X540156Y5878830D01*
X544068Y5879592D01*
X2770632Y5879592D01*
X2774543Y5878830D01*
X2777794Y5876594D01*
X2780030Y5873343D01*
X2780792Y5869432D01*
X2780792Y4735068D01*
X2780030Y4731156D01*
X2777794Y4727905D01*
X2774543Y4725670D01*
X2770632Y4724908D01*
G37*

%LPC*%
G36*
X1600657Y4769866D02*
G01*
X2224176Y4769916D01*
X2232406Y4771085D01*
X2240026Y4773625D01*
X2246985Y4777536D01*
X2253538Y4782921D01*
X2364486Y4893919D01*
X2367788Y4896104D01*
X2371699Y4896866D01*
X2465120Y4896866D01*
X2469032Y4896104D01*
X2472334Y4893919D01*
X2474518Y4890617D01*
X2475280Y4886706D01*
X2475280Y4851450D01*
X2475992Y4845151D01*
X2477922Y4839665D01*
X2480970Y4834788D01*
X2485085Y4830673D01*
X2489962Y4827625D01*
X2495448Y4825695D01*
X2501747Y4824984D01*
X2730652Y4824984D01*
X2736951Y4825695D01*
X2742438Y4827625D01*
X2747314Y4830673D01*
X2751429Y4834788D01*
X2754477Y4839665D01*
X2756408Y4845151D01*
X2757119Y4851450D01*
X2757119Y5105349D01*
X2756408Y5111648D01*
X2754477Y5117134D01*
X2751429Y5122011D01*
X2747314Y5126126D01*
X2742438Y5129174D01*
X2736951Y5131104D01*
X2730652Y5131816D01*
X2672283Y5131816D01*
X2668371Y5132578D01*
X2665069Y5134762D01*
X2662885Y5138064D01*
X2662123Y5141976D01*
X2662123Y5177231D01*
X2662936Y5181295D01*
X2665374Y5184648D01*
X2668930Y5186781D01*
X2672435Y5188000D01*
X2677312Y5191099D01*
X2681427Y5195214D01*
X2684475Y5200091D01*
X2686405Y5205577D01*
X2687116Y5211876D01*
X2687116Y5290718D01*
X2686405Y5297068D01*
X2684475Y5302504D01*
X2681427Y5307431D01*
X2677312Y5311495D01*
X2675432Y5312714D01*
X2672486Y5315508D01*
X2670860Y5319268D01*
X2670860Y5323332D01*
X2672486Y5327091D01*
X2675432Y5329885D01*
X2677312Y5331104D01*
X2681427Y5335168D01*
X2684475Y5340096D01*
X2686405Y5345531D01*
X2687116Y5351881D01*
X2687116Y5364937D01*
X2645054Y5364937D01*
X2645054Y5327396D01*
X2644292Y5323484D01*
X2642057Y5320182D01*
X2638755Y5317998D01*
X2634894Y5317236D01*
X2597505Y5317236D01*
X2593644Y5317998D01*
X2590342Y5320182D01*
X2588107Y5323484D01*
X2587345Y5327396D01*
X2587345Y5364937D01*
X2545283Y5364937D01*
X2545283Y5351881D01*
X2546096Y5344769D01*
X2545689Y5340604D01*
X2543657Y5336997D01*
X2540304Y5334457D01*
X2536240Y5333492D01*
X2532126Y5334254D01*
X2528671Y5336641D01*
X2526792Y5338572D01*
X2519019Y5344312D01*
X2510383Y5348681D01*
X2501188Y5351475D01*
X2491638Y5352745D01*
X2481986Y5352288D01*
X2468829Y5349494D01*
X2465222Y5350103D01*
X2462072Y5351983D01*
X2416454Y5351983D01*
X2416454Y5312257D01*
X2420518Y5310581D01*
X2423515Y5307330D01*
X2424836Y5303164D01*
X2424277Y5298795D01*
X2421940Y5295036D01*
X2402179Y5275326D01*
X2398877Y5273141D01*
X2395016Y5272379D01*
X2344978Y5272379D01*
X2338628Y5271668D01*
X2333193Y5269738D01*
X2328265Y5266639D01*
X2324201Y5262575D01*
X2321102Y5257647D01*
X2319223Y5252212D01*
X2318512Y5245862D01*
X2318512Y5166360D01*
X2319223Y5160060D01*
X2321102Y5154574D01*
X2324201Y5149697D01*
X2328265Y5145582D01*
X2333193Y5142534D01*
X2339238Y5140401D01*
X2342794Y5138267D01*
X2345232Y5134864D01*
X2346045Y5130800D01*
X2345232Y5126736D01*
X2342794Y5123332D01*
X2339238Y5121198D01*
X2333193Y5119065D01*
X2328265Y5116017D01*
X2324201Y5111902D01*
X2321102Y5107025D01*
X2319223Y5101539D01*
X2318867Y5098491D01*
X2317800Y5094935D01*
X2315514Y5092039D01*
X2312365Y5090109D01*
X2308758Y5089448D01*
X2285034Y5089448D01*
X2280970Y5090312D01*
X2277618Y5092700D01*
X2275484Y5096256D01*
X2273452Y5102047D01*
X2270353Y5106974D01*
X2266289Y5111038D01*
X2261362Y5114137D01*
X2255926Y5116068D01*
X2249576Y5116779D01*
X2170734Y5116779D01*
X2164384Y5116068D01*
X2158949Y5114137D01*
X2154021Y5111038D01*
X2149957Y5106974D01*
X2146858Y5102047D01*
X2144979Y5096611D01*
X2144268Y5090261D01*
X2144268Y5011420D01*
X2144979Y5005120D01*
X2146858Y4999634D01*
X2149957Y4994757D01*
X2157323Y4987544D01*
X2158898Y4983530D01*
X2158695Y4979314D01*
X2156764Y4975504D01*
X2153412Y4972812D01*
X2149297Y4971745D01*
X2139086Y4971288D01*
X2129637Y4969256D01*
X2120696Y4965700D01*
X2112873Y4960874D01*
X2108860Y4959451D01*
X2104593Y4959807D01*
X2100834Y4961890D01*
X2098294Y4965344D01*
X2097430Y4969510D01*
X2097430Y5070348D01*
X2096719Y5076647D01*
X2094788Y5082133D01*
X2091689Y5087010D01*
X2087625Y5091125D01*
X2084832Y5092852D01*
X2082292Y5095087D01*
X2080666Y5098084D01*
X2080107Y5101437D01*
X2080107Y5120081D01*
X2080869Y5123992D01*
X2083054Y5127294D01*
X2126945Y5171186D01*
X2130094Y5173268D01*
X2133752Y5174132D01*
X2137511Y5173573D01*
X2140762Y5171694D01*
X2143150Y5168747D01*
X2146147Y5159552D01*
X2149246Y5154625D01*
X2153361Y5150561D01*
X2158238Y5147462D01*
X2163724Y5145532D01*
X2170023Y5144820D01*
X2248865Y5144820D01*
X2255215Y5145532D01*
X2260650Y5147462D01*
X2265578Y5150561D01*
X2269642Y5154625D01*
X2272741Y5159552D01*
X2274671Y5164988D01*
X2275382Y5171338D01*
X2275382Y5250180D01*
X2274671Y5256479D01*
X2272741Y5261965D01*
X2269642Y5266842D01*
X2265578Y5270957D01*
X2260650Y5274056D01*
X2255215Y5275935D01*
X2248865Y5276646D01*
X2170023Y5276646D01*
X2163724Y5275935D01*
X2158238Y5274056D01*
X2153361Y5270957D01*
X2149246Y5266842D01*
X2146858Y5263083D01*
X2144572Y5260543D01*
X2141626Y5258866D01*
X2138273Y5258308D01*
X2121408Y5258308D01*
X2113381Y5257495D01*
X2106168Y5255310D01*
X2099462Y5251754D01*
X2093264Y5246624D01*
X2049729Y5203139D01*
X2046478Y5200954D01*
X2042566Y5200192D01*
X2038654Y5200954D01*
X2035403Y5203139D01*
X2033168Y5206441D01*
X2032406Y5210352D01*
X2032406Y5237073D01*
X1930349Y5237073D01*
X1930349Y5164988D01*
X1995170Y5164988D01*
X1998878Y5164277D01*
X2002078Y5162296D01*
X2004314Y5159248D01*
X2005330Y5155641D01*
X2004923Y5151882D01*
X2003653Y5147818D01*
X2002891Y5139791D01*
X2002891Y5101437D01*
X2002332Y5098084D01*
X2000656Y5095087D01*
X1996897Y5092039D01*
X1993392Y5090668D01*
X1989632Y5090668D01*
X1986076Y5092039D01*
X1982724Y5094173D01*
X1977237Y5096103D01*
X1970938Y5096814D01*
X1912061Y5096814D01*
X1905762Y5096103D01*
X1900275Y5094173D01*
X1896922Y5092039D01*
X1893366Y5090668D01*
X1889607Y5090668D01*
X1886102Y5092039D01*
X1882698Y5094173D01*
X1877263Y5096103D01*
X1870913Y5096814D01*
X1858111Y5096814D01*
X1854200Y5097576D01*
X1850898Y5099761D01*
X1805635Y5145024D01*
X1799437Y5150154D01*
X1792732Y5153710D01*
X1785518Y5155895D01*
X1777492Y5156708D01*
X1762810Y5156708D01*
X1758899Y5157470D01*
X1755648Y5159705D01*
X1753412Y5162956D01*
X1752650Y5166868D01*
X1752650Y5237073D01*
X1650593Y5237073D01*
X1650593Y5223052D01*
X1649831Y5219141D01*
X1647596Y5215839D01*
X1644345Y5213654D01*
X1640433Y5212892D01*
X1636522Y5213654D01*
X1633270Y5215839D01*
X1627835Y5221224D01*
X1621637Y5226354D01*
X1614932Y5229910D01*
X1607718Y5232095D01*
X1599692Y5232908D01*
X1573479Y5232908D01*
X1569872Y5233568D01*
X1566722Y5235498D01*
X1564436Y5238394D01*
X1563268Y5243271D01*
X1561338Y5248706D01*
X1558239Y5253634D01*
X1554175Y5257698D01*
X1549247Y5260797D01*
X1543812Y5262676D01*
X1537462Y5263388D01*
X1463802Y5263388D01*
X1460144Y5264099D01*
X1456944Y5266080D01*
X1454708Y5269077D01*
X1453692Y5272684D01*
X1453032Y5280101D01*
X1450644Y5289448D01*
X1446631Y5298236D01*
X1441246Y5306212D01*
X1434592Y5313172D01*
X1426819Y5318912D01*
X1418183Y5323281D01*
X1408988Y5326075D01*
X1404010Y5326735D01*
X1399794Y5328259D01*
X1396644Y5331460D01*
X1395171Y5335727D01*
X1395679Y5340197D01*
X1398117Y5344007D01*
X1498904Y5444794D01*
X1502206Y5447030D01*
X1506118Y5447792D01*
X1688592Y5447792D01*
X1696618Y5448604D01*
X1703832Y5450789D01*
X1710537Y5454345D01*
X1716735Y5459476D01*
X1749298Y5492038D01*
X1752600Y5494223D01*
X1756511Y5494985D01*
X1770938Y5494985D01*
X1777238Y5495696D01*
X1782724Y5497626D01*
X1786077Y5499760D01*
X1789633Y5501132D01*
X1793392Y5501132D01*
X1796897Y5499760D01*
X1800301Y5497626D01*
X1805736Y5495696D01*
X1812086Y5494985D01*
X1870913Y5494985D01*
X1877263Y5495696D01*
X1882698Y5497626D01*
X1886102Y5499760D01*
X1889607Y5501132D01*
X1893366Y5501132D01*
X1896922Y5499760D01*
X1900275Y5497626D01*
X1905762Y5495696D01*
X1912061Y5494985D01*
X1970938Y5494985D01*
X1977237Y5495696D01*
X1982724Y5497626D01*
X1986076Y5499760D01*
X1989632Y5501132D01*
X1993392Y5501132D01*
X1996897Y5499760D01*
X2000300Y5497626D01*
X2005736Y5495696D01*
X2012086Y5494985D01*
X2070912Y5494985D01*
X2077262Y5495696D01*
X2082698Y5497626D01*
X2087625Y5500674D01*
X2091689Y5504789D01*
X2094788Y5509666D01*
X2096719Y5515152D01*
X2097430Y5521452D01*
X2097430Y5607304D01*
X2098192Y5611164D01*
X2100376Y5614466D01*
X2135936Y5650026D01*
X2139340Y5652262D01*
X2143353Y5652973D01*
X2147316Y5652058D01*
X2150618Y5649671D01*
X2155799Y5641187D01*
X2159812Y5637174D01*
X2166264Y5633262D01*
X2168906Y5630976D01*
X2170582Y5627979D01*
X2171192Y5624576D01*
X2171192Y5593943D01*
X2170531Y5590286D01*
X2168601Y5587187D01*
X2165705Y5584901D01*
X2162149Y5583834D01*
X2159050Y5583478D01*
X2153564Y5581599D01*
X2148687Y5578500D01*
X2144572Y5574385D01*
X2141524Y5569508D01*
X2139594Y5564022D01*
X2138883Y5557723D01*
X2138883Y5478881D01*
X2139594Y5472531D01*
X2141524Y5467096D01*
X2144572Y5462168D01*
X2148687Y5458104D01*
X2150567Y5456885D01*
X2153513Y5454091D01*
X2155139Y5450332D01*
X2155139Y5446268D01*
X2153513Y5442508D01*
X2150567Y5439714D01*
X2148687Y5438495D01*
X2144572Y5434431D01*
X2141524Y5429504D01*
X2139594Y5424068D01*
X2138883Y5417718D01*
X2138883Y5404662D01*
X2180945Y5404662D01*
X2180945Y5442204D01*
X2181707Y5446115D01*
X2183942Y5449417D01*
X2187244Y5451602D01*
X2191105Y5452364D01*
X2228494Y5452364D01*
X2232355Y5451602D01*
X2235657Y5449417D01*
X2237892Y5446115D01*
X2238654Y5442204D01*
X2238654Y5404662D01*
X2280716Y5404662D01*
X2280716Y5417718D01*
X2280005Y5424068D01*
X2278075Y5429504D01*
X2275027Y5434431D01*
X2270912Y5438495D01*
X2269032Y5439714D01*
X2266086Y5442508D01*
X2264460Y5446268D01*
X2264460Y5450332D01*
X2266086Y5454091D01*
X2269032Y5456885D01*
X2270912Y5458104D01*
X2275027Y5462168D01*
X2278075Y5467096D01*
X2280107Y5472887D01*
X2282240Y5476443D01*
X2285644Y5478830D01*
X2289708Y5479694D01*
X2307691Y5479694D01*
X2311755Y5478830D01*
X2315159Y5476443D01*
X2317292Y5472887D01*
X2319324Y5467096D01*
X2322372Y5462168D01*
X2326487Y5458104D01*
X2328367Y5456885D01*
X2331313Y5454091D01*
X2332939Y5450332D01*
X2332939Y5446268D01*
X2331313Y5442508D01*
X2328367Y5439714D01*
X2326487Y5438495D01*
X2322372Y5434431D01*
X2319324Y5429504D01*
X2317394Y5424068D01*
X2316683Y5417718D01*
X2316683Y5404662D01*
X2358745Y5404662D01*
X2358745Y5442204D01*
X2359507Y5446115D01*
X2361742Y5449417D01*
X2365044Y5451602D01*
X2368905Y5452364D01*
X2399182Y5452364D01*
X2401671Y5452059D01*
X2404770Y5450789D01*
X2409240Y5449417D01*
X2413000Y5447334D01*
X2415540Y5443880D01*
X2416454Y5439714D01*
X2416454Y5404662D01*
X2458516Y5404662D01*
X2458516Y5417718D01*
X2458872Y5423052D01*
X2461056Y5426760D01*
X2464663Y5429250D01*
X2468930Y5430012D01*
X2478938Y5429554D01*
X2488488Y5430824D01*
X2497683Y5433618D01*
X2506319Y5437987D01*
X2514092Y5443728D01*
X2520746Y5450687D01*
X2526131Y5458663D01*
X2530144Y5467451D01*
X2532532Y5476798D01*
X2533396Y5486400D01*
X2532532Y5496001D01*
X2530144Y5505348D01*
X2528417Y5509158D01*
X2527503Y5513070D01*
X2528214Y5517032D01*
X2530398Y5520436D01*
X2533700Y5522671D01*
X2537663Y5523484D01*
X2552344Y5523484D01*
X2552344Y5606796D01*
X2475280Y5606796D01*
X2475280Y5573826D01*
X2474366Y5569610D01*
X2471775Y5566105D01*
X2467914Y5564073D01*
X2463596Y5563768D01*
X2459532Y5565343D01*
X2456535Y5568442D01*
X2452776Y5574436D01*
X2448712Y5578500D01*
X2443835Y5581599D01*
X2438349Y5583478D01*
X2432050Y5584190D01*
X2343150Y5584190D01*
X2336850Y5583478D01*
X2331364Y5581599D01*
X2326487Y5578500D01*
X2322372Y5574385D01*
X2319324Y5569508D01*
X2317292Y5563717D01*
X2315159Y5560161D01*
X2311755Y5557774D01*
X2307691Y5556910D01*
X2289708Y5556910D01*
X2285644Y5557774D01*
X2282240Y5560161D01*
X2280107Y5563717D01*
X2278075Y5569508D01*
X2275027Y5574385D01*
X2270912Y5578500D01*
X2266035Y5581599D01*
X2260549Y5583478D01*
X2257450Y5583834D01*
X2253894Y5584901D01*
X2250998Y5587187D01*
X2249068Y5590286D01*
X2248408Y5593943D01*
X2248408Y5621528D01*
X2249068Y5625134D01*
X2250998Y5628284D01*
X2253894Y5630570D01*
X2257450Y5631637D01*
X2261768Y5632094D01*
X2267204Y5634024D01*
X2272131Y5637072D01*
X2276195Y5641187D01*
X2277414Y5643067D01*
X2280208Y5646013D01*
X2283968Y5647639D01*
X2288032Y5647639D01*
X2291791Y5646013D01*
X2294585Y5643067D01*
X2295804Y5641187D01*
X2299868Y5637072D01*
X2304796Y5634024D01*
X2310231Y5632094D01*
X2316581Y5631383D01*
X2329637Y5631383D01*
X2329637Y5673445D01*
X2292096Y5673445D01*
X2288184Y5674207D01*
X2284882Y5676442D01*
X2282698Y5679744D01*
X2281936Y5683605D01*
X2281936Y5720994D01*
X2282698Y5724855D01*
X2284882Y5728157D01*
X2288184Y5730392D01*
X2292096Y5731154D01*
X2329637Y5731154D01*
X2329637Y5773216D01*
X2316581Y5773216D01*
X2310231Y5772505D01*
X2304796Y5770575D01*
X2299868Y5767527D01*
X2295804Y5763412D01*
X2294585Y5761532D01*
X2291791Y5758586D01*
X2288032Y5756960D01*
X2283968Y5756960D01*
X2280208Y5758586D01*
X2277414Y5761532D01*
X2276195Y5763412D01*
X2272131Y5767527D01*
X2267204Y5770575D01*
X2261768Y5772505D01*
X2255418Y5773216D01*
X2176576Y5773216D01*
X2170277Y5772505D01*
X2164791Y5770575D01*
X2159914Y5767527D01*
X2155799Y5763412D01*
X2152700Y5758535D01*
X2150821Y5753049D01*
X2150465Y5749950D01*
X2149398Y5746394D01*
X2147112Y5743498D01*
X2144014Y5741568D01*
X2140356Y5740908D01*
X2134108Y5740908D01*
X2126081Y5740095D01*
X2118868Y5737910D01*
X2112162Y5734354D01*
X2105964Y5729224D01*
X2100630Y5723940D01*
X2097379Y5721756D01*
X2093468Y5720994D01*
X2089556Y5721756D01*
X2086305Y5723940D01*
X2084070Y5727242D01*
X2083307Y5731154D01*
X2083307Y5790692D01*
X2082495Y5798718D01*
X2080310Y5805932D01*
X2076754Y5812637D01*
X2071624Y5818835D01*
X2059635Y5830824D01*
X2053437Y5835954D01*
X2046732Y5839510D01*
X2039518Y5841695D01*
X2031492Y5842508D01*
X1715007Y5842508D01*
X1706981Y5841695D01*
X1699768Y5839510D01*
X1693062Y5835954D01*
X1686864Y5830824D01*
X1681175Y5825185D01*
X1677873Y5823000D01*
X1674012Y5822188D01*
X1648460Y5822188D01*
X1642160Y5821476D01*
X1636674Y5819597D01*
X1631797Y5816498D01*
X1627682Y5812434D01*
X1624634Y5807506D01*
X1622501Y5801461D01*
X1620367Y5797905D01*
X1616964Y5795467D01*
X1612900Y5794654D01*
X1608836Y5795467D01*
X1605432Y5797905D01*
X1603298Y5801461D01*
X1601165Y5807506D01*
X1598117Y5812434D01*
X1594002Y5816498D01*
X1589125Y5819597D01*
X1583639Y5821476D01*
X1577340Y5822188D01*
X1497838Y5822188D01*
X1491488Y5821476D01*
X1486052Y5819597D01*
X1481124Y5816498D01*
X1477060Y5812434D01*
X1473962Y5807506D01*
X1472031Y5802071D01*
X1471320Y5795721D01*
X1471320Y5744159D01*
X1470558Y5740298D01*
X1468374Y5736996D01*
X1421739Y5690362D01*
X1418437Y5688177D01*
X1414576Y5687415D01*
X1410665Y5688177D01*
X1407363Y5690362D01*
X1405178Y5693664D01*
X1404416Y5697575D01*
X1404416Y5707837D01*
X1362354Y5707837D01*
X1362354Y5670296D01*
X1361592Y5666384D01*
X1359357Y5663082D01*
X1356055Y5660898D01*
X1352194Y5660136D01*
X1314805Y5660136D01*
X1310944Y5660898D01*
X1307642Y5663082D01*
X1305407Y5666384D01*
X1304645Y5670296D01*
X1304645Y5707837D01*
X1262583Y5707837D01*
X1262583Y5694781D01*
X1263294Y5688431D01*
X1265224Y5682996D01*
X1268272Y5678068D01*
X1272387Y5674004D01*
X1274267Y5672785D01*
X1277213Y5669991D01*
X1278839Y5666232D01*
X1278839Y5662168D01*
X1277213Y5658408D01*
X1274267Y5655614D01*
X1272387Y5654395D01*
X1268272Y5650331D01*
X1265224Y5645404D01*
X1263294Y5639968D01*
X1262583Y5633618D01*
X1262583Y5630113D01*
X1261821Y5626201D01*
X1259636Y5622899D01*
X1256334Y5620715D01*
X1252423Y5619953D01*
X1193342Y5619953D01*
X1190142Y5617921D01*
X1186383Y5617210D01*
X1136548Y5617210D01*
X1132789Y5617921D01*
X1129588Y5619953D01*
X1102512Y5619953D01*
X1098143Y5620918D01*
X1094638Y5623661D01*
X1092657Y5627624D01*
X1091793Y5630875D01*
X1087628Y5640425D01*
X1083360Y5646928D01*
X1081836Y5650992D01*
X1082141Y5655310D01*
X1084173Y5659120D01*
X1087628Y5661710D01*
X1091895Y5662625D01*
X1127912Y5662625D01*
X1129995Y5665012D01*
X1132738Y5666638D01*
X1135837Y5667349D01*
X1149096Y5668314D01*
X1161084Y5670905D01*
X1172565Y5675172D01*
X1181557Y5680100D01*
X1185519Y5681319D01*
X1189685Y5680811D01*
X1193292Y5678678D01*
X1195730Y5675274D01*
X1196543Y5671159D01*
X1196543Y5662625D01*
X1244854Y5662625D01*
X1244854Y5670702D01*
X1244142Y5677052D01*
X1242263Y5682488D01*
X1239164Y5687415D01*
X1235100Y5691479D01*
X1230172Y5694578D01*
X1224737Y5696508D01*
X1219708Y5697067D01*
X1215948Y5698236D01*
X1212900Y5700776D01*
X1211072Y5704281D01*
X1210767Y5708243D01*
X1211935Y5712002D01*
X1214983Y5717641D01*
X1219250Y5729122D01*
X1221892Y5741060D01*
X1222756Y5753303D01*
X1221892Y5765546D01*
X1219250Y5777484D01*
X1214983Y5788964D01*
X1209141Y5799734D01*
X1201775Y5809538D01*
X1193088Y5818225D01*
X1183284Y5825540D01*
X1172565Y5831433D01*
X1161084Y5835700D01*
X1149096Y5838291D01*
X1136497Y5839206D01*
X1027226Y5839206D01*
X1014628Y5838291D01*
X1002690Y5835700D01*
X991209Y5831433D01*
X980440Y5825540D01*
X970635Y5818225D01*
X961948Y5809538D01*
X954633Y5799734D01*
X948740Y5788964D01*
X944473Y5777484D01*
X941882Y5765546D01*
X940968Y5753303D01*
X941882Y5741060D01*
X944473Y5729122D01*
X948740Y5717641D01*
X954633Y5706872D01*
X961948Y5697067D01*
X970635Y5688380D01*
X980440Y5681065D01*
X990092Y5675782D01*
X993140Y5673242D01*
X994968Y5669686D01*
X995324Y5665673D01*
X994054Y5661863D01*
X991463Y5658866D01*
X988974Y5656935D01*
X981862Y5649214D01*
X976121Y5640425D01*
X971956Y5630875D01*
X969365Y5620715D01*
X968502Y5610301D01*
X969365Y5599836D01*
X971956Y5589727D01*
X976121Y5580126D01*
X981862Y5571388D01*
X988974Y5563666D01*
X997203Y5557215D01*
X1006398Y5552236D01*
X1016304Y5548833D01*
X1026617Y5547106D01*
X1037132Y5547106D01*
X1047445Y5548833D01*
X1057351Y5552236D01*
X1063040Y5555335D01*
X1067054Y5556554D01*
X1071219Y5556046D01*
X1074775Y5553913D01*
X1077214Y5550509D01*
X1078077Y5546394D01*
X1078077Y5531866D01*
X1078788Y5525566D01*
X1079855Y5520740D01*
X1079144Y5517032D01*
X1078433Y5510733D01*
X1078433Y5497068D01*
X1077671Y5493156D01*
X1075486Y5489905D01*
X1072184Y5487670D01*
X1068273Y5486908D01*
X1049121Y5486908D01*
X1045159Y5487720D01*
X1033119Y5496712D01*
X1024483Y5501081D01*
X1015288Y5503875D01*
X1005738Y5505145D01*
X996086Y5504688D01*
X986637Y5502656D01*
X977696Y5499100D01*
X969467Y5494020D01*
X962253Y5487670D01*
X956157Y5480151D01*
X951484Y5471718D01*
X948283Y5462625D01*
X946658Y5453126D01*
X946658Y5443474D01*
X948283Y5433974D01*
X951484Y5424881D01*
X956157Y5416448D01*
X962253Y5408930D01*
X969467Y5402580D01*
X977696Y5397500D01*
X986637Y5393944D01*
X996086Y5391912D01*
X1005738Y5391454D01*
X1009497Y5390591D01*
X1012647Y5388356D01*
X1014780Y5385104D01*
X1015492Y5381345D01*
X1015492Y5309108D01*
X1016304Y5301081D01*
X1018489Y5293868D01*
X1022045Y5287162D01*
X1027176Y5280964D01*
X1038656Y5269484D01*
X1044854Y5264353D01*
X1051560Y5260797D01*
X1058773Y5258612D01*
X1068324Y5257800D01*
X1072184Y5257038D01*
X1075486Y5254802D01*
X1077671Y5251551D01*
X1078484Y5247640D01*
X1078484Y5231892D01*
X1079195Y5225542D01*
X1080058Y5221325D01*
X1079195Y5217058D01*
X1078484Y5210708D01*
X1078484Y5192268D01*
X1077671Y5188356D01*
X1075486Y5185105D01*
X1072184Y5182870D01*
X1068324Y5182108D01*
X1061821Y5182108D01*
X1057859Y5182920D01*
X1045819Y5191912D01*
X1037183Y5196281D01*
X1027988Y5199075D01*
X1018438Y5200345D01*
X1008786Y5199888D01*
X999337Y5197856D01*
X990396Y5194300D01*
X982167Y5189220D01*
X974953Y5182870D01*
X968857Y5175351D01*
X964184Y5166918D01*
X960983Y5157825D01*
X959358Y5148326D01*
X959358Y5138674D01*
X960983Y5129174D01*
X964184Y5120081D01*
X968857Y5111648D01*
X974953Y5104130D01*
X982167Y5097780D01*
X987094Y5094732D01*
X990295Y5091633D01*
X991819Y5087518D01*
X991463Y5083048D01*
X989228Y5079238D01*
X981862Y5071211D01*
X976121Y5062423D01*
X971956Y5052872D01*
X969365Y5042712D01*
X968502Y5032298D01*
X969365Y5021834D01*
X971956Y5011724D01*
X976121Y5002123D01*
X981862Y4993386D01*
X988974Y4985664D01*
X991412Y4983734D01*
X994054Y4980686D01*
X995273Y4976926D01*
X994968Y4972913D01*
X993140Y4969357D01*
X990041Y4966817D01*
X980440Y4961534D01*
X970635Y4954219D01*
X961948Y4945532D01*
X954633Y4935728D01*
X948740Y4924958D01*
X944473Y4913477D01*
X941882Y4901539D01*
X940968Y4889296D01*
X941882Y4877054D01*
X944473Y4865116D01*
X948740Y4853635D01*
X954633Y4842865D01*
X961948Y4833061D01*
X970635Y4824374D01*
X980440Y4817059D01*
X991209Y4811166D01*
X1002690Y4806899D01*
X1014628Y4804308D01*
X1027226Y4803394D01*
X1136497Y4803394D01*
X1149096Y4804308D01*
X1161084Y4806899D01*
X1172565Y4811166D01*
X1183284Y4817059D01*
X1193088Y4824374D01*
X1201775Y4833061D01*
X1209141Y4842865D01*
X1214983Y4853635D01*
X1219250Y4865116D01*
X1221892Y4877054D01*
X1222756Y4889296D01*
X1221892Y4901539D01*
X1219250Y4913477D01*
X1214983Y4924958D01*
X1211986Y4930546D01*
X1210767Y4934305D01*
X1211122Y4938217D01*
X1212951Y4941722D01*
X1215948Y4944313D01*
X1219758Y4945481D01*
X1225143Y4946091D01*
X1230579Y4948021D01*
X1235456Y4951069D01*
X1239570Y4955184D01*
X1242669Y4960061D01*
X1244549Y4965547D01*
X1245158Y4970678D01*
X1246327Y4974386D01*
X1248765Y4977384D01*
X1252169Y4979212D01*
X1256030Y4979670D01*
X1259789Y4978603D01*
X1262888Y4976215D01*
X1265224Y4971796D01*
X1268272Y4966868D01*
X1272387Y4962804D01*
X1274267Y4961585D01*
X1277213Y4958791D01*
X1278839Y4955032D01*
X1278839Y4950968D01*
X1277213Y4947208D01*
X1274267Y4944414D01*
X1272387Y4943195D01*
X1268272Y4939131D01*
X1265224Y4934204D01*
X1263294Y4928768D01*
X1262583Y4922418D01*
X1262583Y4909362D01*
X1304645Y4909362D01*
X1304645Y4946904D01*
X1305407Y4950815D01*
X1307642Y4954117D01*
X1310944Y4956302D01*
X1314805Y4957064D01*
X1335227Y4957064D01*
X1338122Y4956657D01*
X1349857Y4950663D01*
X1354988Y4949190D01*
X1358798Y4947158D01*
X1361440Y4943652D01*
X1362354Y4939436D01*
X1362354Y4909362D01*
X1404416Y4909362D01*
X1404366Y4923180D01*
X1405178Y4927092D01*
X1407363Y4930394D01*
X1410665Y4932578D01*
X1414526Y4933340D01*
X1418437Y4932578D01*
X1421739Y4930394D01*
X1570685Y4781448D01*
X1577390Y4776419D01*
X1584553Y4772863D01*
X1592224Y4770678D01*
G37*
G36*
X1362354Y4817110D02*
G01*
X1377950Y4817110D01*
X1384249Y4817821D01*
X1389735Y4819700D01*
X1394612Y4822799D01*
X1398727Y4826914D01*
X1401775Y4831791D01*
X1403705Y4837277D01*
X1404416Y4843576D01*
X1404416Y4856683D01*
X1362354Y4856683D01*
G37*
G36*
X1289050Y4817110D02*
G01*
X1304645Y4817110D01*
X1304645Y4856683D01*
X1262583Y4856683D01*
X1262583Y4843576D01*
X1263294Y4837277D01*
X1265224Y4831791D01*
X1268272Y4826914D01*
X1272387Y4822799D01*
X1277264Y4819700D01*
X1282750Y4817821D01*
G37*
G36*
X2165350Y5312410D02*
G01*
X2180945Y5312410D01*
X2180945Y5351983D01*
X2138883Y5351983D01*
X2138883Y5338876D01*
X2139594Y5332577D01*
X2141524Y5327091D01*
X2144572Y5322214D01*
X2148687Y5318099D01*
X2153564Y5315000D01*
X2159050Y5313121D01*
G37*
G36*
X2343150Y5312410D02*
G01*
X2358745Y5312410D01*
X2358745Y5351983D01*
X2316683Y5351983D01*
X2316683Y5338876D01*
X2317394Y5332577D01*
X2319324Y5327091D01*
X2322372Y5322214D01*
X2326487Y5318099D01*
X2331364Y5315000D01*
X2336850Y5313121D01*
G37*
G36*
X2238654Y5312410D02*
G01*
X2254250Y5312410D01*
X2260549Y5313121D01*
X2266035Y5315000D01*
X2270912Y5318099D01*
X2275027Y5322214D01*
X2278075Y5327091D01*
X2280005Y5332577D01*
X2280716Y5338876D01*
X2280716Y5351983D01*
X2238654Y5351983D01*
G37*
G36*
X1650593Y5354726D02*
G01*
X1752650Y5354726D01*
X1752650Y5426811D01*
X1677060Y5426811D01*
X1670761Y5426100D01*
X1665274Y5424170D01*
X1660398Y5421122D01*
X1656283Y5417007D01*
X1653235Y5412130D01*
X1651304Y5406644D01*
X1650593Y5400344D01*
G37*
G36*
X1930349Y5354726D02*
G01*
X2032406Y5354726D01*
X2032406Y5400344D01*
X2031695Y5406644D01*
X2029764Y5412130D01*
X2026716Y5417007D01*
X2022602Y5421122D01*
X2017725Y5424170D01*
X2012238Y5426100D01*
X2005939Y5426811D01*
X1930349Y5426811D01*
G37*
G36*
X2545283Y5417616D02*
G01*
X2587345Y5417616D01*
X2587345Y5457190D01*
X2571750Y5457190D01*
X2565450Y5456478D01*
X2559964Y5454599D01*
X2555087Y5451500D01*
X2550972Y5447385D01*
X2547924Y5442508D01*
X2545994Y5437022D01*
X2545283Y5430723D01*
G37*
G36*
X2645054Y5417616D02*
G01*
X2687116Y5417616D01*
X2687116Y5430723D01*
X2686405Y5437022D01*
X2684475Y5442508D01*
X2681427Y5447385D01*
X2677312Y5451500D01*
X2672435Y5454599D01*
X2666949Y5456478D01*
X2660650Y5457190D01*
X2645054Y5457190D01*
G37*
G36*
X2680055Y5523484D02*
G01*
X2730652Y5523484D01*
X2736951Y5524195D01*
X2742438Y5526125D01*
X2747314Y5529173D01*
X2751429Y5533288D01*
X2754477Y5538165D01*
X2756408Y5543651D01*
X2757119Y5549950D01*
X2757119Y5606796D01*
X2680055Y5606796D01*
G37*
G36*
X2382316Y5631383D02*
G01*
X2395423Y5631383D01*
X2401722Y5632094D01*
X2407208Y5634024D01*
X2412085Y5637072D01*
X2416200Y5641187D01*
X2419299Y5646064D01*
X2421178Y5651550D01*
X2421890Y5657850D01*
X2421890Y5673445D01*
X2382316Y5673445D01*
G37*
G36*
X2382316Y5731154D02*
G01*
X2421890Y5731154D01*
X2421890Y5746750D01*
X2421178Y5753049D01*
X2419299Y5758535D01*
X2416200Y5763412D01*
X2412085Y5767527D01*
X2407208Y5770575D01*
X2401722Y5772505D01*
X2395423Y5773216D01*
X2382316Y5773216D01*
G37*
G36*
X2680055Y5747004D02*
G01*
X2757119Y5747004D01*
X2757119Y5803849D01*
X2756408Y5810148D01*
X2754477Y5815634D01*
X2751429Y5820511D01*
X2747314Y5824626D01*
X2742438Y5827674D01*
X2736951Y5829604D01*
X2730652Y5830316D01*
X2680055Y5830316D01*
G37*
G36*
X2475280Y5747004D02*
G01*
X2552344Y5747004D01*
X2552344Y5830316D01*
X2501747Y5830316D01*
X2495448Y5829604D01*
X2489962Y5827674D01*
X2485085Y5824626D01*
X2480970Y5820511D01*
X2477922Y5815634D01*
X2475992Y5810148D01*
X2475280Y5803849D01*
G37*
G36*
X1362354Y5760516D02*
G01*
X1404416Y5760516D01*
X1404416Y5773623D01*
X1403705Y5779922D01*
X1401775Y5785408D01*
X1398727Y5790285D01*
X1394612Y5794400D01*
X1389735Y5797499D01*
X1384249Y5799378D01*
X1377950Y5800090D01*
X1362354Y5800090D01*
G37*
G36*
X1262583Y5760516D02*
G01*
X1304645Y5760516D01*
X1304645Y5800090D01*
X1289050Y5800090D01*
X1282750Y5799378D01*
X1277264Y5797499D01*
X1272387Y5794400D01*
X1268272Y5790285D01*
X1265224Y5785408D01*
X1263294Y5779922D01*
X1262583Y5773623D01*
G37*

%LPD*%
G36*
X1185926Y4961077D02*
G01*
X1181963Y4962296D01*
X1172565Y4967427D01*
X1161084Y4971694D01*
X1149096Y4974285D01*
X1136192Y4975250D01*
X1133144Y4975961D01*
X1130401Y4977587D01*
X1128318Y4979924D01*
X1091895Y4979924D01*
X1087678Y4980889D01*
X1084173Y4983480D01*
X1082141Y4987290D01*
X1081836Y4991608D01*
X1083360Y4995672D01*
X1087628Y5002123D01*
X1091793Y5011724D01*
X1092657Y5014976D01*
X1094638Y5018938D01*
X1098143Y5021681D01*
X1102512Y5022646D01*
X1129995Y5022646D01*
X1133195Y5024678D01*
X1136904Y5025390D01*
X1186789Y5025390D01*
X1190548Y5024678D01*
X1193749Y5022646D01*
X1252423Y5022646D01*
X1256334Y5021884D01*
X1259636Y5019649D01*
X1261821Y5016347D01*
X1262583Y5012486D01*
X1262583Y4990084D01*
X1261821Y4986223D01*
X1259636Y4982921D01*
X1256334Y4980736D01*
X1252423Y4979924D01*
X1196949Y4979924D01*
X1196949Y4971186D01*
X1196086Y4967122D01*
X1193698Y4963718D01*
X1190091Y4961585D01*
G37*

%LPD*%
D10*
X1641492Y5595912D02*
G01*
X1636704Y5600700D01*
X1511300Y5600700D01*
X1306893Y5396293D01*
X1161694Y5396293D01*
X1161872Y5346306D02*
G01*
X1345806Y5346306D01*
X1485900Y5486400D01*
X1689100Y5486400D01*
X1741492Y5538792D01*
X1741492Y5595912D01*
X1161795Y5396229D02*
G01*
X1066800Y5397500D01*
X1054100Y5384800D01*
X1054100Y5308600D01*
X1066292Y5296407D01*
X1161795Y5296407D01*
X1161795Y5246370D02*
G01*
X1257300Y5245100D01*
X1266697Y5254497D01*
X1266697Y5346192D01*
X1161925Y5446303D02*
G01*
X1159929Y5448300D01*
X1003300Y5448300D01*
X1741492Y4995887D02*
G01*
X1739900Y4994292D01*
X1739900Y4889500D01*
X2215997Y5702300D02*
G01*
X2209800Y5696102D01*
X2209800Y5518302D01*
X2209800Y5518302D02*
G01*
X2387600Y5518302D01*
X2387600Y5055463D02*
G01*
X2382989Y5050853D01*
X2210142Y5050853D01*
X2209457Y5210746D02*
G01*
X2200503Y5219700D01*
X2120900Y5219700D01*
X2041491Y5140291D01*
X2041491Y4995913D01*
X2387600Y5518304D02*
G01*
X2419504Y5486400D01*
X2476500Y5486400D01*
X2387600Y5206138D02*
G01*
X2477361Y5295900D01*
X2489200Y5295900D01*
X2489200Y5207000D02*
G01*
X2488338Y5206138D01*
X2387600Y5206138D01*
X2215997Y5702300D02*
G01*
X2133600Y5702300D01*
X2041491Y5610191D01*
X2041491Y5595912D01*
X1587500Y5105400D02*
G01*
X1641492Y5051407D01*
X1641492Y4995913D01*
X1497837Y5194300D02*
G01*
X1600200Y5194300D01*
X1676400Y5118100D01*
X1778000Y5118100D01*
X1841500Y5054600D01*
X1841500Y4995926D01*
X1161872Y5146306D02*
G01*
X1159065Y5143500D01*
X1016000Y5143500D01*
X1941575Y4995926D02*
G01*
X1943100Y4889500D01*
X1955800Y4876800D01*
X2120900Y4876800D01*
X2146300Y4902200D01*
X2146300Y4914900D01*
X2041491Y5595912D02*
G01*
X2044700Y5599120D01*
X2044700Y5791200D01*
X2032000Y5803900D01*
X1714500Y5803900D01*
X1688236Y5777636D01*
X1688236Y5753100D01*
X1841500Y5595873D02*
G01*
X1841500Y5689600D01*
X1828800Y5702300D01*
X1941575Y5595873D02*
G01*
X1943100Y5702300D01*
D11*
X1333500Y5023104D02*
G01*
X1365504Y4991100D01*
X1422400Y4991100D01*
X1600200Y4813300D01*
X2222500Y4813300D01*
X2349500Y4940300D01*
X2616200Y4940300D01*
X2616200Y4978400D01*
D12*
X2616200Y5251297D02*
G01*
X2616200Y4978400D01*
X2616200Y5391302D02*
G01*
X2616200Y5676900D01*
X2387600Y5378195D02*
G01*
X2616200Y5378195D01*
X2616200Y5391404D01*
X2387600Y5378297D02*
G01*
X2209800Y5378297D01*
X1841492Y5295887D02*
G01*
X1923902Y5378297D01*
X2209800Y5378297D01*
X1333500Y5594197D02*
G01*
X1300594Y5561291D01*
X1161465Y5561291D01*
X1333500Y5594197D02*
G01*
X1270000Y5530697D01*
X1270000Y5511800D01*
X1347063Y5194300D02*
G01*
X1333500Y5180736D01*
X1333500Y5023002D01*
X1397000Y5270500D02*
G01*
X1347063Y5220563D01*
X1347063Y5194300D01*
X1161795Y5001260D02*
G01*
X1196339Y5001260D01*
X1314704Y4882895D01*
X1333500Y4882895D01*
X1161872Y5081282D02*
G01*
X1275219Y5081282D01*
X1333500Y5023002D01*
X1333500Y5594197D02*
G01*
X1352702Y5613400D01*
X1409700Y5613400D01*
X1537563Y5741263D01*
X1537563Y5753100D01*
X1161542Y5641339D02*
G01*
X1183639Y5641339D01*
X1276604Y5734304D01*
X1333500Y5734304D01*
X2356002Y5702300D02*
G01*
X2381402Y5676900D01*
X2616200Y5676900D01*
D13*
G01*
X2616200Y5251297D03*
G01*
X2616200Y5391302D03*
G01*
X1333500Y5023002D03*
G01*
X1333500Y4882997D03*
G01*
X1333500Y5594197D03*
G01*
X1333500Y5734202D03*
D14*
G01*
X2215997Y5702300D03*
G01*
X2356002Y5702300D03*
D13*
G01*
X2209800Y5518302D03*
G01*
X2209800Y5378297D03*
G01*
X2387600Y5518302D03*
G01*
X2387600Y5378297D03*
D16*
G01*
X2209444Y5210759D03*
G01*
X2210155Y5050866D03*
D17*
G01*
X1688224Y5753100D03*
G01*
X1537575Y5753100D03*
D18*
G01*
X1347075Y5194300D03*
G01*
X1497724Y5194300D03*
D19*
G01*
X2387600Y5206124D03*
D20*
G01*
X2387600Y5055463D03*
D21*
G01*
X2041499Y4995900D03*
G01*
X1941499Y4995900D03*
G01*
X1841500Y4995900D03*
G01*
X1741500Y4995900D03*
G01*
X1641500Y4995900D03*
G01*
X1641500Y5595899D03*
G01*
X1741500Y5595899D03*
G01*
X1841500Y5595899D03*
G01*
X1941499Y5595899D03*
G01*
X2041499Y5595899D03*
D22*
G01*
X1841500Y5295900D03*
D23*
G01*
X1161864Y5496295D03*
D24*
G01*
X1161922Y5446293D03*
G01*
X1161694Y5396306D03*
G01*
X1161872Y5346293D03*
G01*
X1161719Y5296280D03*
G01*
X1161872Y5246293D03*
D23*
G01*
X1161872Y5196304D03*
D24*
G01*
X1161872Y5146294D03*
D25*
G01*
X1161465Y5641289D03*
G01*
X1161465Y5561304D03*
G01*
X1161872Y5081295D03*
G01*
X1161872Y5001285D03*
D26*
G01*
X2616200Y5676900D03*
G01*
X2616200Y4978400D03*
D27*
G01*
X666877Y5753277D03*
G01*
X666877Y4889296D03*
D28*
G01*
X1081862Y4889296D03*
G01*
X1081862Y5753277D03*
D29*
G01*
X1003300Y5448300D03*
G01*
X1016000Y5143500D03*
G01*
X1739900Y4889500D03*
G01*
X1587500Y5105400D03*
G01*
X2476500Y5486400D03*
G01*
X2489200Y5295900D03*
G01*
X2489200Y5207000D03*
G01*
X1803400Y5194300D03*
G01*
X1714500Y5194300D03*
G01*
X1803400Y5295900D03*
G01*
X1714500Y5295900D03*
G01*
X1803400Y5397500D03*
G01*
X1714500Y5397500D03*
G01*
X1397000Y5270500D03*
G01*
X1270000Y5511800D03*
G01*
X2146300Y4914900D03*
G01*
X1816100Y5715000D03*
G01*
X1943100Y5715000D03*
M02*
