G04 Layer: BottomSilkscreenLayer*
G04 EasyEDA v6.5.51, 2025-12-29 19:16:08*
G04 8e36dad52bfc4c7faac2288d2deaf62e,036ae6e9a2b24cebb23d0048bde98d7c,10*
G04 Gerber Generator version 0.2*
G04 Scale: 100 percent, Rotated: No, Reflected: No *
G04 Dimensions in millimeters *
G04 leading zeros omitted , absolute positions ,4 integer and 5 decimal *
%FSLAX45Y45*%
%MOMM*%

%ADD10C,0.1000*%
%ADD11C,0.1524*%
%ADD12C,0.0192*%

%LPD*%
D10*
X1577873Y5655426D02*
G01*
X1581053Y5661789D01*
X1587418Y5668154D01*
X1593781Y5671337D01*
X1606509Y5671337D01*
X1612872Y5668154D01*
X1619237Y5661789D01*
X1622417Y5655426D01*
X1625600Y5645881D01*
X1625600Y5629973D01*
X1622417Y5620428D01*
X1619237Y5614062D01*
X1612872Y5607700D01*
X1606509Y5604517D01*
X1593781Y5604517D01*
X1587418Y5607700D01*
X1581053Y5614062D01*
X1577873Y5620428D01*
X1556872Y5671337D02*
G01*
X1556872Y5604517D01*
X1556872Y5671337D02*
G01*
X1515508Y5671337D01*
X1556872Y5639518D02*
G01*
X1531419Y5639518D01*
X1446781Y5655426D02*
G01*
X1449964Y5661789D01*
X1456326Y5668154D01*
X1462692Y5671337D01*
X1475417Y5671337D01*
X1481782Y5668154D01*
X1488145Y5661789D01*
X1491327Y5655426D01*
X1494510Y5645881D01*
X1494510Y5629973D01*
X1491327Y5620428D01*
X1488145Y5614062D01*
X1481782Y5607700D01*
X1475417Y5604517D01*
X1462692Y5604517D01*
X1456326Y5607700D01*
X1449964Y5614062D01*
X1446781Y5620428D01*
X1446781Y5629973D01*
X1462692Y5629973D02*
G01*
X1446781Y5629973D01*
X1376781Y5658609D02*
G01*
X1370418Y5661789D01*
X1360873Y5671337D01*
X1360873Y5604517D01*
X1287691Y5655426D02*
G01*
X1287691Y5658609D01*
X1284511Y5664972D01*
X1281328Y5668154D01*
X1274963Y5671337D01*
X1262237Y5671337D01*
X1255872Y5668154D01*
X1252692Y5664972D01*
X1249509Y5658609D01*
X1249509Y5652244D01*
X1252692Y5645881D01*
X1259055Y5636336D01*
X1290873Y5604517D01*
X1246327Y5604517D01*
X1169964Y5671337D02*
G01*
X1134963Y5671337D01*
X1154056Y5645881D01*
X1144511Y5645881D01*
X1138146Y5642698D01*
X1134963Y5639518D01*
X1131783Y5629973D01*
X1131783Y5623608D01*
X1134963Y5614062D01*
X1141328Y5607700D01*
X1150873Y5604517D01*
X1160419Y5604517D01*
X1169964Y5607700D01*
X1173147Y5610882D01*
X1176327Y5617245D01*
X1612900Y5544309D02*
G01*
X1606537Y5547489D01*
X1596991Y5557037D01*
X1596991Y5490217D01*
X1526992Y5518853D02*
G01*
X1469717Y5518853D01*
X1399717Y5518853D02*
G01*
X1342445Y5518853D01*
X1234264Y5557037D02*
G01*
X1266083Y5557037D01*
X1269263Y5528398D01*
X1266083Y5531581D01*
X1256537Y5534764D01*
X1246992Y5534764D01*
X1237447Y5531581D01*
X1231082Y5525218D01*
X1227899Y5515673D01*
X1227899Y5509308D01*
X1231082Y5499762D01*
X1237447Y5493400D01*
X1246992Y5490217D01*
X1256537Y5490217D01*
X1266083Y5493400D01*
X1269263Y5496582D01*
X1272446Y5502945D01*
X1206901Y5557037D02*
G01*
X1181445Y5490217D01*
X1155992Y5557037D02*
G01*
X1181445Y5490217D01*
X1581109Y5430037D02*
G01*
X1590654Y5426854D01*
X1597017Y5417309D01*
X1600200Y5401398D01*
X1600200Y5391853D01*
X1597017Y5375945D01*
X1590654Y5366400D01*
X1581109Y5363217D01*
X1574746Y5363217D01*
X1565201Y5366400D01*
X1558836Y5375945D01*
X1555653Y5391853D01*
X1555653Y5401398D01*
X1558836Y5417309D01*
X1565201Y5426854D01*
X1574746Y5430037D01*
X1581109Y5430037D01*
X1466562Y5430037D02*
G01*
X1476108Y5426854D01*
X1482473Y5417309D01*
X1485653Y5401398D01*
X1485653Y5391853D01*
X1482473Y5375945D01*
X1476108Y5366400D01*
X1466562Y5363217D01*
X1460200Y5363217D01*
X1450654Y5366400D01*
X1444292Y5375945D01*
X1441109Y5391853D01*
X1441109Y5401398D01*
X1444292Y5417309D01*
X1450654Y5426854D01*
X1460200Y5430037D01*
X1466562Y5430037D01*
X1352019Y5430037D02*
G01*
X1361564Y5426854D01*
X1367927Y5417309D01*
X1371109Y5401398D01*
X1371109Y5391853D01*
X1367927Y5375945D01*
X1361564Y5366400D01*
X1352019Y5363217D01*
X1345653Y5363217D01*
X1336108Y5366400D01*
X1329745Y5375945D01*
X1326563Y5391853D01*
X1326563Y5401398D01*
X1329745Y5417309D01*
X1336108Y5426854D01*
X1345653Y5430037D01*
X1352019Y5430037D01*
X1215199Y5407764D02*
G01*
X1218382Y5398218D01*
X1224747Y5391853D01*
X1234292Y5388673D01*
X1237472Y5388673D01*
X1247018Y5391853D01*
X1253383Y5398218D01*
X1256563Y5407764D01*
X1256563Y5410944D01*
X1253383Y5420489D01*
X1247018Y5426854D01*
X1237472Y5430037D01*
X1234292Y5430037D01*
X1224747Y5426854D01*
X1218382Y5420489D01*
X1215199Y5407764D01*
X1215199Y5391853D01*
X1218382Y5375945D01*
X1224747Y5366400D01*
X1234292Y5363217D01*
X1240655Y5363217D01*
X1250200Y5366400D01*
X1253383Y5372762D01*
X1194201Y5430037D02*
G01*
X1168745Y5363217D01*
X1143292Y5430037D02*
G01*
X1168745Y5363217D01*
X1581109Y5315737D02*
G01*
X1590654Y5312554D01*
X1597017Y5303009D01*
X1600200Y5287098D01*
X1600200Y5277553D01*
X1597017Y5261645D01*
X1590654Y5252100D01*
X1581109Y5248917D01*
X1574746Y5248917D01*
X1565201Y5252100D01*
X1558836Y5261645D01*
X1555653Y5277553D01*
X1555653Y5287098D01*
X1558836Y5303009D01*
X1565201Y5312554D01*
X1574746Y5315737D01*
X1581109Y5315737D01*
X1466562Y5315737D02*
G01*
X1476108Y5312554D01*
X1482473Y5303009D01*
X1485653Y5287098D01*
X1485653Y5277553D01*
X1482473Y5261645D01*
X1476108Y5252100D01*
X1466562Y5248917D01*
X1460200Y5248917D01*
X1450654Y5252100D01*
X1444292Y5261645D01*
X1441109Y5277553D01*
X1441109Y5287098D01*
X1444292Y5303009D01*
X1450654Y5312554D01*
X1460200Y5315737D01*
X1466562Y5315737D01*
X1371109Y5303009D02*
G01*
X1364747Y5306189D01*
X1355199Y5315737D01*
X1355199Y5248917D01*
X1285199Y5303009D02*
G01*
X1278836Y5306189D01*
X1269291Y5315737D01*
X1269291Y5248917D01*
X1245110Y5299826D02*
G01*
X1245110Y5303009D01*
X1241927Y5309372D01*
X1238745Y5312554D01*
X1232382Y5315737D01*
X1219654Y5315737D01*
X1213291Y5312554D01*
X1210109Y5309372D01*
X1206929Y5303009D01*
X1206929Y5296644D01*
X1210109Y5290281D01*
X1216474Y5280736D01*
X1248290Y5248917D01*
X1203746Y5248917D01*
X1182745Y5315737D02*
G01*
X1157292Y5248917D01*
X1131836Y5315737D02*
G01*
X1157292Y5248917D01*
X1581109Y5176037D02*
G01*
X1590654Y5172854D01*
X1597017Y5163309D01*
X1600200Y5147398D01*
X1600200Y5137853D01*
X1597017Y5121945D01*
X1590654Y5112400D01*
X1581109Y5109217D01*
X1574746Y5109217D01*
X1565201Y5112400D01*
X1558836Y5121945D01*
X1555653Y5137853D01*
X1555653Y5147398D01*
X1558836Y5163309D01*
X1565201Y5172854D01*
X1574746Y5176037D01*
X1581109Y5176037D01*
X1485653Y5163309D02*
G01*
X1479290Y5166489D01*
X1469745Y5176037D01*
X1469745Y5109217D01*
X1399745Y5163309D02*
G01*
X1393383Y5166489D01*
X1383837Y5176037D01*
X1383837Y5109217D01*
X1313837Y5163309D02*
G01*
X1307472Y5166489D01*
X1297927Y5176037D01*
X1297927Y5109217D01*
X1238745Y5176037D02*
G01*
X1270563Y5176037D01*
X1273746Y5147398D01*
X1270563Y5150581D01*
X1261018Y5153764D01*
X1251473Y5153764D01*
X1241927Y5150581D01*
X1235565Y5144218D01*
X1232382Y5134673D01*
X1232382Y5128308D01*
X1235565Y5118762D01*
X1241927Y5112400D01*
X1251473Y5109217D01*
X1261018Y5109217D01*
X1270563Y5112400D01*
X1273746Y5115582D01*
X1276929Y5121945D01*
X1211381Y5176037D02*
G01*
X1185928Y5109217D01*
X1160472Y5176037D02*
G01*
X1185928Y5109217D01*
X1581109Y5061737D02*
G01*
X1590654Y5058554D01*
X1597017Y5049009D01*
X1600200Y5033098D01*
X1600200Y5023553D01*
X1597017Y5007645D01*
X1590654Y4998100D01*
X1581109Y4994917D01*
X1574746Y4994917D01*
X1565201Y4998100D01*
X1558836Y5007645D01*
X1555653Y5023553D01*
X1555653Y5033098D01*
X1558836Y5049009D01*
X1565201Y5058554D01*
X1574746Y5061737D01*
X1581109Y5061737D01*
X1485653Y5049009D02*
G01*
X1479290Y5052189D01*
X1469745Y5061737D01*
X1469745Y4994917D01*
X1380655Y5061737D02*
G01*
X1390200Y5058554D01*
X1396563Y5049009D01*
X1399745Y5033098D01*
X1399745Y5023553D01*
X1396563Y5007645D01*
X1390200Y4998100D01*
X1380655Y4994917D01*
X1374292Y4994917D01*
X1364747Y4998100D01*
X1358381Y5007645D01*
X1355199Y5023553D01*
X1355199Y5033098D01*
X1358381Y5049009D01*
X1364747Y5058554D01*
X1374292Y5061737D01*
X1380655Y5061737D01*
X1282019Y5045826D02*
G01*
X1282019Y5049009D01*
X1278836Y5055372D01*
X1275654Y5058554D01*
X1269291Y5061737D01*
X1256563Y5061737D01*
X1250200Y5058554D01*
X1247018Y5055372D01*
X1243837Y5049009D01*
X1243837Y5042644D01*
X1247018Y5036281D01*
X1253383Y5026736D01*
X1285199Y4994917D01*
X1240655Y4994917D01*
X1200564Y5061737D02*
G01*
X1210109Y5058554D01*
X1216474Y5049009D01*
X1219654Y5033098D01*
X1219654Y5023553D01*
X1216474Y5007645D01*
X1210109Y4998100D01*
X1200564Y4994917D01*
X1194201Y4994917D01*
X1184655Y4998100D01*
X1178290Y5007645D01*
X1175110Y5023553D01*
X1175110Y5033098D01*
X1178290Y5049009D01*
X1184655Y5058554D01*
X1194201Y5061737D01*
X1200564Y5061737D01*
X1154109Y5061737D02*
G01*
X1128656Y4994917D01*
X1103200Y5061737D02*
G01*
X1128656Y4994917D01*
D11*
X1774189Y5193284D02*
G01*
X1778000Y5200650D01*
X1785112Y5208015D01*
X1792478Y5211571D01*
X1806955Y5211571D01*
X1814321Y5208015D01*
X1821434Y5200650D01*
X1825244Y5193284D01*
X1828800Y5182362D01*
X1828800Y5164328D01*
X1825244Y5153405D01*
X1821434Y5146039D01*
X1814321Y5138673D01*
X1806955Y5135118D01*
X1792478Y5135118D01*
X1785112Y5138673D01*
X1778000Y5146039D01*
X1774189Y5153405D01*
X1750313Y5211571D02*
G01*
X1750313Y5135118D01*
X1750313Y5211571D02*
G01*
X1703070Y5211571D01*
X1750313Y5175250D02*
G01*
X1721104Y5175250D01*
X1678939Y5197094D02*
G01*
X1671828Y5200650D01*
X1660905Y5211571D01*
X1660905Y5135118D01*
X1786889Y5358384D02*
G01*
X1790700Y5365750D01*
X1797812Y5373115D01*
X1805178Y5376671D01*
X1819655Y5376671D01*
X1827021Y5373115D01*
X1834134Y5365750D01*
X1837944Y5358384D01*
X1841500Y5347462D01*
X1841500Y5329428D01*
X1837944Y5318505D01*
X1834134Y5311139D01*
X1827021Y5303773D01*
X1819655Y5300218D01*
X1805178Y5300218D01*
X1797812Y5303773D01*
X1790700Y5311139D01*
X1786889Y5318505D01*
X1763013Y5376671D02*
G01*
X1763013Y5300218D01*
X1763013Y5376671D02*
G01*
X1715770Y5376671D01*
X1763013Y5340350D02*
G01*
X1733804Y5340350D01*
X1688084Y5358384D02*
G01*
X1688084Y5362194D01*
X1684528Y5369305D01*
X1680718Y5373115D01*
X1673605Y5376671D01*
X1658873Y5376671D01*
X1651762Y5373115D01*
X1647952Y5369305D01*
X1644395Y5362194D01*
X1644395Y5354828D01*
X1647952Y5347462D01*
X1655318Y5336539D01*
X1691639Y5300218D01*
X1640839Y5300218D01*
X1786889Y5498084D02*
G01*
X1790700Y5505450D01*
X1797812Y5512815D01*
X1805178Y5516371D01*
X1819655Y5516371D01*
X1827021Y5512815D01*
X1834134Y5505450D01*
X1837944Y5498084D01*
X1841500Y5487162D01*
X1841500Y5469128D01*
X1837944Y5458205D01*
X1834134Y5450839D01*
X1827021Y5443473D01*
X1819655Y5439918D01*
X1805178Y5439918D01*
X1797812Y5443473D01*
X1790700Y5450839D01*
X1786889Y5458205D01*
X1763013Y5516371D02*
G01*
X1763013Y5439918D01*
X1763013Y5516371D02*
G01*
X1715770Y5516371D01*
X1763013Y5480050D02*
G01*
X1733804Y5480050D01*
X1684528Y5516371D02*
G01*
X1644395Y5516371D01*
X1666239Y5487162D01*
X1655318Y5487162D01*
X1647952Y5483605D01*
X1644395Y5480050D01*
X1640839Y5469128D01*
X1640839Y5461762D01*
X1644395Y5450839D01*
X1651762Y5443473D01*
X1662684Y5439918D01*
X1673605Y5439918D01*
X1684528Y5443473D01*
X1688084Y5447284D01*
X1691639Y5454395D01*
X2354021Y5539760D02*
G01*
X2449908Y5539760D01*
X2449908Y5407639D01*
X2354021Y5407639D01*
X2268778Y5539760D02*
G01*
X2172891Y5539760D01*
X2172891Y5407639D01*
X2268778Y5407639D01*
X2366721Y5234960D02*
G01*
X2462608Y5234960D01*
X2462608Y5102839D01*
X2366721Y5102839D01*
X2281478Y5234960D02*
G01*
X2185591Y5234960D01*
X2185591Y5102839D01*
X2281478Y5102839D01*
X2354021Y5387360D02*
G01*
X2449908Y5387360D01*
X2449908Y5255239D01*
X2354021Y5255239D01*
X2268778Y5387360D02*
G01*
X2172891Y5387360D01*
X2172891Y5255239D01*
X2268778Y5255239D01*
X2049221Y5234960D02*
G01*
X2145108Y5234960D01*
X2145108Y5102839D01*
X2049221Y5102839D01*
X1963978Y5234960D02*
G01*
X1868091Y5234960D01*
X1868091Y5102839D01*
X1963978Y5102839D01*
X2049221Y5387360D02*
G01*
X2145108Y5387360D01*
X2145108Y5255239D01*
X2049221Y5255239D01*
X1963978Y5387360D02*
G01*
X1868091Y5387360D01*
X1868091Y5255239D01*
X1963978Y5255239D01*
X2049221Y5539760D02*
G01*
X2145108Y5539760D01*
X2145108Y5407639D01*
X2049221Y5407639D01*
X1963978Y5539760D02*
G01*
X1868091Y5539760D01*
X1868091Y5407639D01*
X1963978Y5407639D01*
M02*
