M48
; DRILL file {KiCad 9.0.5} date 2026-03-12T15:32:09+0100
; FORMAT={-:-/ absolute / inch / decimal}
; #@! TF.CreationDate,2026-03-12T15:32:09+01:00
; #@! TF.GenerationSoftware,Kicad,Pcbnew,9.0.5
; #@! TF.FileFunction,Plated,1,4,PTH
FMAT,2
INCH
; #@! TA.AperFunction,Plated,PTH,ViaDrill
T1C0.0098
; #@! TA.AperFunction,Plated,PTH,ComponentDrill
T2C0.0256
; #@! TA.AperFunction,Plated,PTH,ComponentDrill
T3C0.0276
; #@! TA.AperFunction,Plated,PTH,ComponentDrill
T4C0.0350
; #@! TA.AperFunction,Plated,PTH,ComponentDrill
T5C0.0360
; #@! TA.AperFunction,Plated,PTH,ComponentDrill
T6C0.0394
; #@! TA.AperFunction,Plated,PTH,ComponentDrill
T7C0.0402
; #@! TA.AperFunction,Plated,PTH,ComponentDrill
T8C0.0524
; #@! TA.AperFunction,Plated,PTH,ComponentDrill
T9C0.0618
%
G90
G05
T1
X2.4823Y-2.3484
X2.5433Y-1.9484
X2.6768Y-2.2528
X2.724Y-2.0709
X2.7358Y-2.3524
X2.7362Y-2.4047
X2.7457Y-2.0484
X2.7525Y-2.3787
X2.7713Y-2.0709
X2.7782Y-2.3787
X2.7949Y-2.3524
X2.7965Y-2.4264
X2.8543Y-2.2539
X2.8866Y-2.3748
X2.8869Y-2.4235
X2.9102Y-2.3864
X2.9102Y-2.4121
X2.913Y-2.2472
X2.9328Y-2.4235
X2.9343Y-2.3751
X2.972Y-2.2484
X3.0311Y-2.2587
X3.0902Y-2.2598
X3.1024Y-1.9476
X3.1492Y-2.2587
X3.1811Y-4.2035
X3.1843Y-4.0591
X3.1866Y-2.7697
X3.1992Y-3.972
X3.2Y-2.6776
X3.2083Y-2.2587
X3.2258Y-1.9498
X3.2274Y-2.351
X3.2535Y-2.6941
X3.2535Y-3.9197
X3.2579Y-2.6528
X3.2583Y-4.039
X3.2965Y-3.9173
X3.3Y-4.1106
X3.3008Y-4.0421
X3.3012Y-2.7008
X3.3024Y-2.6512
X3.311Y-3.9868
X3.3173Y-2.2957
X3.3283Y-4.1555
X3.3386Y-3.9868
X3.3461Y-4.1346
X3.3472Y-2.7047
X3.3476Y-2.6465
X3.3586Y-3.9992
X3.3602Y-4.1583
X3.3657Y-4.0417
X3.3748Y-3.9827
X3.3904Y-4.0412
X3.3941Y-4.097
X3.3945Y-2.7063
X3.3949Y-2.6461
X3.3992Y-3.6933
X3.4028Y-2.8136
X3.4291Y-4.1189
X3.4378Y-3.9894
X3.44Y-3.6803
X3.4421Y-2.7083
X3.4425Y-2.6398
X3.4441Y-3.6437
X3.4484Y-3.7402
X3.4567Y-4.0437
X3.4595Y-3.6997
X3.4858Y-2.6512
X3.489Y-2.7055
X3.4992Y-3.6937
X3.5209Y-3.9854
X3.5303Y-2.2559
X3.5366Y-2.6398
X3.5366Y-4.0433
X3.5748Y-2.6425
X3.5886Y-2.2531
X3.5961Y-2.7071
X3.6Y-3.9744
X3.6154Y-4.0328
X3.6199Y-2.7077
X3.6311Y-2.6394
X3.6378Y-4.1228
X3.6453Y-2.702
X3.6476Y-2.2531
X3.6634Y-3.9795
X3.6705Y-4.0331
X3.6764Y-2.6421
X3.6811Y-2.6969
X3.7067Y-2.2539
X3.7079Y-3.4165
X3.7098Y-4.0394
X3.7102Y-3.9807
X3.7256Y-2.6437
X3.7366Y-2.3957
X3.7376Y-2.6994
X3.7445Y-3.4299
X3.7445Y-3.4575
X3.7571Y-4.0386
X3.7591Y-2.3665
X3.7665Y-2.6398
X3.774Y-3.978
X3.7756Y-2.4228
X3.778Y-2.6984
X3.7795Y-3.4189
X3.7953Y-4.0335
X3.8094Y-3.9933
X3.8197Y-2.6445
X3.8252Y-2.2504
X3.8276Y-2.3717
X3.8291Y-4.0323
X3.8344Y-2.701
X3.8492Y-3.9894
X3.8516Y-4.0921
X3.863Y-2.3799
X3.8638Y-3.3709
X3.8661Y-2.6449
X3.8752Y-4.1331
X3.8768Y-2.698
X3.8831Y-4.0993
X3.8975Y-3.3858
X3.8975Y-3.4134
X3.9012Y-2.3764
X3.9087Y-3.9992
X3.9107Y-4.0993
X3.9134Y-2.6421
X3.9205Y-3.9776
X3.9254Y-2.7037
X3.9315Y-3.3713
X3.9358Y-4.0976
X3.9449Y-4.1406
X3.9492Y-2.4264
X3.9567Y-2.6575
X3.9567Y-2.6969
X3.9586Y-4.0993
X3.9669Y-3.9835
X3.981Y-4.0949
X4.0Y-3.9551
X4.0142Y-4.1
X4.0157Y-3.911
X4.0811Y-4.0791
X4.1024Y-2.4906
X4.1177Y-4.2327
X4.1177Y-4.2815
X4.12Y-4.1798
X4.1257Y-4.1496
X4.135Y-2.3989
X4.1457Y-4.3689
X4.1528Y-2.3146
X4.1884Y-4.0754
X4.189Y-2.4575
X4.2209Y-4.0713
X4.25Y-4.3142
X4.2657Y-4.1906
X4.274Y-2.3819
X4.2748Y-4.2697
X4.385Y-2.2752
X4.4149Y-2.1941
X4.4394Y-2.1083
X4.4571Y-2.5063
X4.4667Y-4.288
X4.4708Y-2.1382
X4.526Y-2.3283
X4.5567Y-3.5878
X4.5894Y-2.3283
X4.5894Y-3.0606
X4.5921Y-2.5563
X4.5949Y-3.6
X4.6051Y-3.6319
X4.6075Y-2.1157
X4.6339Y-2.4232
X4.6591Y-3.5154
X4.6783Y-2.1535
X4.6955Y-2.4337
X4.7205Y-3.5587
X4.726Y-3.524
X4.7618Y-2.2622
X4.7803Y-2.4492
X4.835Y-2.663
X4.8402Y-2.5791
X4.8543Y-3.0669
X4.8559Y-3.1283
X4.9126Y-2.4843
X4.9524Y-2.5622
X4.9543Y-2.5177
X4.9551Y-2.3402
X4.9713Y-3.4898
X4.9939Y-3.1502
T4
X4.735Y-3.815
X4.785Y-3.915
X4.835Y-3.815
X4.885Y-3.915
X4.935Y-3.815
X4.985Y-3.915
X5.035Y-3.815
X5.085Y-3.915
X5.135Y-3.815
X5.185Y-3.915
T5
X4.7516Y-2.9531
X4.7516Y-3.0516
X4.7516Y-3.1306
X4.7516Y-3.2291
T6
X3.4453Y-4.2071
X3.4453Y-4.3071
X3.5453Y-4.2071
X3.5453Y-4.3071
X3.6453Y-4.2071
X3.6453Y-4.3071
X3.7453Y-4.2071
X3.7453Y-4.3071
X3.8453Y-4.2071
X3.8453Y-4.3071
X3.9453Y-4.2071
X3.9453Y-4.3071
X4.0453Y-4.2071
X4.0453Y-4.3071
X5.0594Y-2.815
X5.078Y-2.6043
X5.1594Y-2.815
X5.178Y-2.6043
T7
X4.7449Y-3.6248
X4.8449Y-3.6248
X5.0752Y-3.6248
X5.1752Y-3.6248
T8
X3.3878Y-2.0782
X3.4114Y-2.2731
X3.9823Y-2.2731
X4.0059Y-2.0782
T9
X4.6551Y-4.0449
X5.265Y-4.0449
T2
G00X5.0524Y-2.9874
M15
G01X5.0366Y-2.9874
M16
G05
G00X5.0524Y-3.178
M15
G01X5.0366Y-3.178
M16
G05
T3
G00X5.1724Y-2.9752
M15
G01X5.1528Y-2.9752
M16
G05
G00X5.1724Y-3.1902
M15
G01X5.1528Y-3.1902
M16
G05
T6
G00X4.8992Y-2.1764
M15
G01X4.8992Y-2.1173
M16
G05
G00X5.102Y-2.1862
M15
G01X5.0508Y-2.1862
M16
G05
G00X5.1157Y-2.4224
M15
G01X5.037Y-2.4224
M16
G05
G00X5.2535Y-2.1764
M15
G01X5.2535Y-2.1173
M16
G05
M30
