%TF.GenerationSoftware,KiCad,Pcbnew,9.0.5*%
%TF.CreationDate,2026-03-13T18:17:16+01:00*%
%TF.ProjectId,ANE21_PCB,414e4532-315f-4504-9342-2e6b69636164,rev?*%
%TF.SameCoordinates,Original*%
%TF.FileFunction,Paste,Top*%
%TF.FilePolarity,Positive*%
%FSLAX46Y46*%
G04 Gerber Fmt 4.6, Leading zero omitted, Abs format (unit mm)*
G04 Created by KiCad (PCBNEW 9.0.5) date 2026-03-13 18:17:16*
%MOMM*%
%LPD*%
G01*
G04 APERTURE LIST*
G04 Aperture macros list*
%AMRoundRect*
0 Rectangle with rounded corners*
0 $1 Rounding radius*
0 $2 $3 $4 $5 $6 $7 $8 $9 X,Y pos of 4 corners*
0 Add a 4 corners polygon primitive as box body*
4,1,4,$2,$3,$4,$5,$6,$7,$8,$9,$2,$3,0*
0 Add four circle primitives for the rounded corners*
1,1,$1+$1,$2,$3*
1,1,$1+$1,$4,$5*
1,1,$1+$1,$6,$7*
1,1,$1+$1,$8,$9*
0 Add four rect primitives between the rounded corners*
20,1,$1+$1,$2,$3,$4,$5,0*
20,1,$1+$1,$4,$5,$6,$7,0*
20,1,$1+$1,$6,$7,$8,$9,0*
20,1,$1+$1,$8,$9,$2,$3,0*%
G04 Aperture macros list end*
%ADD10R,0.300000X1.550000*%
%ADD11R,1.200000X2.750000*%
%ADD12RoundRect,0.218750X0.218750X0.256250X-0.218750X0.256250X-0.218750X-0.256250X0.218750X-0.256250X0*%
%ADD13RoundRect,0.218750X-0.218750X-0.256250X0.218750X-0.256250X0.218750X0.256250X-0.218750X0.256250X0*%
%ADD14RoundRect,0.100000X-0.225000X-0.100000X0.225000X-0.100000X0.225000X0.100000X-0.225000X0.100000X0*%
%ADD15RoundRect,0.160000X-0.197500X-0.160000X0.197500X-0.160000X0.197500X0.160000X-0.197500X0.160000X0*%
%ADD16RoundRect,0.020000X0.217500X-0.080000X0.217500X0.080000X-0.217500X0.080000X-0.217500X-0.080000X0*%
%ADD17RoundRect,0.075000X-0.200000X0.075000X-0.200000X-0.075000X0.200000X-0.075000X0.200000X0.075000X0*%
%ADD18RoundRect,0.150000X-0.150000X0.587500X-0.150000X-0.587500X0.150000X-0.587500X0.150000X0.587500X0*%
%ADD19RoundRect,0.160000X0.197500X0.160000X-0.197500X0.160000X-0.197500X-0.160000X0.197500X-0.160000X0*%
%ADD20RoundRect,0.100000X0.225000X0.100000X-0.225000X0.100000X-0.225000X-0.100000X0.225000X-0.100000X0*%
%ADD21R,0.300000X1.900000*%
%ADD22R,0.200000X0.700000*%
%ADD23RoundRect,0.160000X-0.160000X0.197500X-0.160000X-0.197500X0.160000X-0.197500X0.160000X0.197500X0*%
%ADD24RoundRect,0.155000X-0.155000X0.212500X-0.155000X-0.212500X0.155000X-0.212500X0.155000X0.212500X0*%
G04 APERTURE END LIST*
D10*
%TO.C,J13*%
X81990000Y-58390000D03*
X81740000Y-50840000D03*
X81490000Y-58390000D03*
X81240000Y-50840000D03*
X80990000Y-58390000D03*
X80740000Y-50840000D03*
X80490000Y-58390000D03*
X80240000Y-50840000D03*
X79990000Y-58390000D03*
X79740000Y-50840000D03*
X79490000Y-58390000D03*
X79240000Y-50840000D03*
X78990000Y-58390000D03*
X78740000Y-50840000D03*
X78490000Y-58390000D03*
X78240000Y-50840000D03*
X77990000Y-58390000D03*
X77740000Y-50840000D03*
X77490000Y-58390000D03*
X77240000Y-50840000D03*
X76990000Y-58390000D03*
X76740000Y-50840000D03*
X76490000Y-58390000D03*
X76240000Y-50840000D03*
X75990000Y-58390000D03*
X75740000Y-50840000D03*
X75490000Y-58390000D03*
X75240000Y-50840000D03*
X74990000Y-58390000D03*
X74740000Y-50840000D03*
X74490000Y-58390000D03*
X74240000Y-50840000D03*
X73990000Y-58390000D03*
X73740000Y-50840000D03*
X73490000Y-58390000D03*
X73240000Y-50840000D03*
X72990000Y-58390000D03*
X72740000Y-50840000D03*
X72490000Y-58390000D03*
X72240000Y-50840000D03*
X71990000Y-58390000D03*
X71740000Y-50840000D03*
X71490000Y-58390000D03*
X71240000Y-50840000D03*
X70990000Y-58390000D03*
X70740000Y-50840000D03*
X70490000Y-58390000D03*
X70240000Y-50840000D03*
X69990000Y-58390000D03*
X69740000Y-50840000D03*
X69490000Y-58390000D03*
X69240000Y-50840000D03*
X68990000Y-58390000D03*
X68740000Y-50840000D03*
X68490000Y-58390000D03*
X68240000Y-50840000D03*
X67990000Y-58390000D03*
X67740000Y-50840000D03*
X65490000Y-58390000D03*
X65240000Y-50840000D03*
X64990000Y-58390000D03*
X64740000Y-50840000D03*
X64490000Y-58390000D03*
X64240000Y-50840000D03*
X63990000Y-58390000D03*
X63740000Y-50840000D03*
X63490000Y-58390000D03*
D11*
X83090000Y-57615000D03*
X62390000Y-57615000D03*
%TD*%
D12*
%TO.C,D3*%
X83450000Y-106860000D03*
X81875000Y-106860000D03*
%TD*%
D13*
%TO.C,D4*%
X110970000Y-108560000D03*
X112545000Y-108560000D03*
%TD*%
D14*
%TO.C,U2*%
X105310000Y-105850000D03*
X105310000Y-106500000D03*
X105310000Y-107150000D03*
X107210000Y-107150000D03*
X107210000Y-105850000D03*
%TD*%
D15*
%TO.C,R7*%
X82465000Y-105560000D03*
X83660000Y-105560000D03*
%TD*%
D16*
%TO.C,U9*%
X79745000Y-98880000D03*
X79745000Y-98380000D03*
X79745000Y-97880000D03*
X79745000Y-97380000D03*
X79745000Y-96880000D03*
X80520000Y-96880000D03*
X80520000Y-97380000D03*
X80520000Y-97880000D03*
X80520000Y-98380000D03*
X80520000Y-98880000D03*
%TD*%
D17*
%TO.C,U11*%
X84560000Y-71270000D03*
X84560000Y-71770000D03*
X84560000Y-72270000D03*
X84560000Y-72770000D03*
X84560000Y-73270000D03*
X85330000Y-73270000D03*
X85330000Y-72770000D03*
X85330000Y-72270000D03*
X85330000Y-71770000D03*
X85330000Y-71270000D03*
%TD*%
D18*
%TO.C,U13*%
X102440000Y-60890000D03*
X100540000Y-60890000D03*
X101490000Y-62765000D03*
%TD*%
D19*
%TO.C,R26*%
X109635000Y-107620000D03*
X108440000Y-107620000D03*
%TD*%
D20*
%TO.C,U1*%
X107200000Y-110042500D03*
X107200000Y-109392500D03*
X107200000Y-108742500D03*
X105300000Y-108742500D03*
X105300000Y-110042500D03*
%TD*%
D21*
%TO.C,J5*%
X89149250Y-58637500D03*
X89649250Y-58637500D03*
X90149250Y-58637500D03*
X90649250Y-58637500D03*
X91149250Y-58637500D03*
X91649250Y-58637500D03*
X92149250Y-58637500D03*
X92649250Y-58637500D03*
X93149250Y-58637500D03*
X93649250Y-58637500D03*
X94149250Y-58637500D03*
X94649250Y-58637500D03*
X95149250Y-58637500D03*
X95649250Y-58637500D03*
X96149250Y-58637500D03*
X96649250Y-58637500D03*
X97149250Y-58637500D03*
X97649250Y-58637500D03*
X98149250Y-58637500D03*
%TD*%
D22*
%TO.C,Module1*%
X81430000Y-103300000D03*
X81430000Y-100220000D03*
X81830000Y-103300000D03*
X81830000Y-100220000D03*
X82230000Y-103300000D03*
X82230000Y-100220000D03*
X82630000Y-103300000D03*
X82630000Y-100220000D03*
X83030000Y-103300000D03*
X83030000Y-100220000D03*
X83430000Y-103300000D03*
X83430000Y-100220000D03*
X83830000Y-103300000D03*
X83830000Y-100220000D03*
X84230000Y-103300000D03*
X84230000Y-100220000D03*
X84630000Y-103300000D03*
X84630000Y-100220000D03*
X85030000Y-103300000D03*
X85030000Y-100220000D03*
X85430000Y-103300000D03*
X85430000Y-100220000D03*
X85830000Y-103300000D03*
X85830000Y-100220000D03*
X86230000Y-103300000D03*
X86230000Y-100220000D03*
X86630000Y-103300000D03*
X86630000Y-100220000D03*
X87030000Y-103300000D03*
X87030000Y-100220000D03*
X87430000Y-103300000D03*
X87430000Y-100220000D03*
X87830000Y-103300000D03*
X87830000Y-100220000D03*
X88230000Y-103300000D03*
X88230000Y-100220000D03*
X88630000Y-103300000D03*
X88630000Y-100220000D03*
X89030000Y-103300000D03*
X89030000Y-100220000D03*
X89430000Y-103300000D03*
X89430000Y-100220000D03*
X89830000Y-103300000D03*
X89830000Y-100220000D03*
X90230000Y-103300000D03*
X90230000Y-100220000D03*
X90630000Y-103300000D03*
X90630000Y-100220000D03*
X91030000Y-103300000D03*
X91030000Y-100220000D03*
X91430000Y-103300000D03*
X91430000Y-100220000D03*
X91830000Y-103300000D03*
X91830000Y-100220000D03*
X92230000Y-103300000D03*
X92230000Y-100220000D03*
X92630000Y-103300000D03*
X92630000Y-100220000D03*
X93030000Y-103300000D03*
X93030000Y-100220000D03*
X93430000Y-103300000D03*
X93430000Y-100220000D03*
X93830000Y-103300000D03*
X93830000Y-100220000D03*
X94230000Y-103300000D03*
X94230000Y-100220000D03*
X94630000Y-103300000D03*
X94630000Y-100220000D03*
X95030000Y-103300000D03*
X95030000Y-100220000D03*
X95430000Y-103300000D03*
X95430000Y-100220000D03*
X95830000Y-103300000D03*
X95830000Y-100220000D03*
X96230000Y-103300000D03*
X96230000Y-100220000D03*
X96630000Y-103300000D03*
X96630000Y-100220000D03*
X97030000Y-103300000D03*
X97030000Y-100220000D03*
X97430000Y-103300000D03*
X97430000Y-100220000D03*
X97830000Y-103300000D03*
X97830000Y-100220000D03*
X98230000Y-103300000D03*
X98230000Y-100220000D03*
X98630000Y-103300000D03*
X98630000Y-100220000D03*
X99030000Y-103300000D03*
X99030000Y-100220000D03*
X99430000Y-103300000D03*
X99430000Y-100220000D03*
X99830000Y-103300000D03*
X99830000Y-100220000D03*
X100230000Y-103300000D03*
X100230000Y-100220000D03*
X100630000Y-103300000D03*
X100630000Y-100220000D03*
X101030000Y-103300000D03*
X101030000Y-100220000D03*
X81430000Y-69380000D03*
X81430000Y-66300000D03*
X81830000Y-69380000D03*
X81830000Y-66300000D03*
X82230000Y-69380000D03*
X82230000Y-66300000D03*
X82630000Y-69380000D03*
X82630000Y-66300000D03*
X83030000Y-69380000D03*
X83030000Y-66300000D03*
X83430000Y-69380000D03*
X83430000Y-66300000D03*
X83830000Y-69380000D03*
X83830000Y-66300000D03*
X84230000Y-69380000D03*
X84230000Y-66300000D03*
X84630000Y-69380000D03*
X84630000Y-66300000D03*
X85030000Y-69380000D03*
X85030000Y-66300000D03*
X85430000Y-69380000D03*
X85430000Y-66300000D03*
X85830000Y-69380000D03*
X85830000Y-66300000D03*
X86230000Y-69380000D03*
X86230000Y-66300000D03*
X86630000Y-69380000D03*
X86630000Y-66300000D03*
X87030000Y-69380000D03*
X87030000Y-66300000D03*
X87430000Y-69380000D03*
X87430000Y-66300000D03*
X87830000Y-69380000D03*
X87830000Y-66300000D03*
X88230000Y-69380000D03*
X88230000Y-66300000D03*
X88630000Y-69380000D03*
X88630000Y-66300000D03*
X89030000Y-69380000D03*
X89030000Y-66300000D03*
X89430000Y-69380000D03*
X89430000Y-66300000D03*
X89830000Y-69380000D03*
X89830000Y-66300000D03*
X90230000Y-69380000D03*
X90230000Y-66300000D03*
X90630000Y-69380000D03*
X90630000Y-66300000D03*
X91030000Y-69380000D03*
X91030000Y-66300000D03*
X91430000Y-69380000D03*
X91430000Y-66300000D03*
X91830000Y-69380000D03*
X91830000Y-66300000D03*
X92230000Y-69380000D03*
X92230000Y-66300000D03*
X92630000Y-69380000D03*
X92630000Y-66300000D03*
X93030000Y-69380000D03*
X93030000Y-66300000D03*
X93430000Y-69380000D03*
X93430000Y-66300000D03*
X93830000Y-69380000D03*
X93830000Y-66300000D03*
X94230000Y-69380000D03*
X94230000Y-66300000D03*
X94630000Y-69380000D03*
X94630000Y-66300000D03*
X95030000Y-69380000D03*
X95030000Y-66300000D03*
X95430000Y-69380000D03*
X95430000Y-66300000D03*
X95830000Y-69380000D03*
X95830000Y-66300000D03*
X96230000Y-69380000D03*
X96230000Y-66300000D03*
X96630000Y-69380000D03*
X96630000Y-66300000D03*
X97030000Y-69380000D03*
X97030000Y-66300000D03*
X97430000Y-69380000D03*
X97430000Y-66300000D03*
X97830000Y-69380000D03*
X97830000Y-66300000D03*
X98230000Y-69380000D03*
X98230000Y-66300000D03*
X98630000Y-69380000D03*
X98630000Y-66300000D03*
X99030000Y-69380000D03*
X99030000Y-66300000D03*
X99430000Y-69380000D03*
X99430000Y-66300000D03*
X99830000Y-69380000D03*
X99830000Y-66300000D03*
X100230000Y-69380000D03*
X100230000Y-66300000D03*
X100630000Y-69380000D03*
X100630000Y-66300000D03*
X101030000Y-69380000D03*
X101030000Y-66300000D03*
%TD*%
D23*
%TO.C,R23*%
X84980000Y-106430000D03*
X84980000Y-107625000D03*
%TD*%
D24*
%TO.C,C57*%
X99250000Y-61155000D03*
X99250000Y-62290000D03*
%TD*%
D13*
%TO.C,D1*%
X111000000Y-106910000D03*
X112575000Y-106910000D03*
%TD*%
D24*
%TO.C,C56*%
X104040000Y-61750000D03*
X104040000Y-62885000D03*
%TD*%
D16*
%TO.C,U10*%
X77015000Y-102590000D03*
X77015000Y-102090000D03*
X77015000Y-101590000D03*
X77015000Y-101090000D03*
X77015000Y-100590000D03*
X77790000Y-100590000D03*
X77790000Y-101090000D03*
X77790000Y-101590000D03*
X77790000Y-102090000D03*
X77790000Y-102590000D03*
%TD*%
D15*
%TO.C,R8*%
X108465000Y-105550000D03*
X109660000Y-105550000D03*
%TD*%
M02*
