M48
; DRILL file {KiCad 9.0.5} date 2026-03-13T18:17:16+0100
; FORMAT={-:-/ absolute / inch / decimal}
; #@! TF.CreationDate,2026-03-13T18:17:16+01:00
; #@! TF.GenerationSoftware,Kicad,Pcbnew,9.0.5
; #@! TF.FileFunction,NonPlated,1,4,NPTH
FMAT,2
INCH
; #@! TA.AperFunction,NonPlated,NPTH,ComponentDrill
T1C0.0200
; #@! TA.AperFunction,NonPlated,NPTH,ComponentDrill
T2C0.0433
; #@! TA.AperFunction,NonPlated,NPTH,ComponentDrill
T3C0.0630
; #@! TA.AperFunction,NonPlated,NPTH,ComponentDrill
T4C0.0910
; #@! TA.AperFunction,NonPlated,NPTH,ComponentDrill
T5C0.1063
; #@! TA.AperFunction,NonPlated,NPTH,ComponentDrill
T6C0.1280
%
G90
G05
T2
X3.2575Y-2.0911
T3
X2.4701Y-2.0911
T4
X3.7673Y-2.911
X4.2843Y-2.911
T5
X0.9262Y-1.3787
X0.9262Y-1.6524
X1.1998Y-1.3787
X1.1998Y-1.6524
X1.4734Y-1.3787
X1.4734Y-1.6524
X1.747Y-1.3787
X1.747Y-1.6524
X2.5484Y-2.689
X2.5484Y-3.9882
X4.4382Y-2.689
X4.4382Y-3.9882
T6
X2.8053Y-3.2012
X3.2553Y-3.2012
T1
G00X4.5518Y-3.385
M15
G01X4.5128Y-3.385
M16
G05
G00X4.5518Y-3.7354
M15
G01X4.5128Y-3.7354
M16
G05
G00X4.5604Y-2.9264
M15
G01X4.5214Y-2.9264
M16
G05
G00X4.5604Y-3.2768
M15
G01X4.5214Y-3.2768
M16
G05
G00X4.6818Y-3.7354
M15
G01X4.6348Y-3.7354
M16
G05
G00X4.6818Y-3.385
M15
G01X4.6348Y-3.385
M16
G05
G00X4.6904Y-3.2768
M15
G01X4.6434Y-3.2768
M16
G05
G00X4.6904Y-2.9264
M15
G01X4.6434Y-2.9264
M16
G05
M30
