M48
; DRILL file {KiCad 9.0.5} date 2026-03-13T18:17:16+0100
; FORMAT={-:-/ absolute / inch / decimal}
; #@! TF.CreationDate,2026-03-13T18:17:16+01:00
; #@! TF.GenerationSoftware,Kicad,Pcbnew,9.0.5
; #@! TF.FileFunction,Plated,1,4,PTH
FMAT,2
INCH
; #@! TA.AperFunction,Plated,PTH,ViaDrill
T1C0.0098
; #@! TA.AperFunction,Plated,PTH,ComponentDrill
T2C0.0350
; #@! TA.AperFunction,Plated,PTH,ComponentDrill
T3C0.0360
; #@! TA.AperFunction,Plated,PTH,ComponentDrill
T4C0.0394
; #@! TA.AperFunction,Plated,PTH,ComponentDrill
T5C0.0402
; #@! TA.AperFunction,Plated,PTH,ComponentDrill
T6C0.0524
; #@! TA.AperFunction,Plated,PTH,ComponentDrill
T7C0.0618
%
G90
G05
T1
X2.4823Y-2.3484
X2.6768Y-2.2528
X2.724Y-2.0709
X2.7358Y-2.3524
X2.7362Y-2.4047
X2.7457Y-2.0484
X2.7525Y-2.3787
X2.7713Y-2.0709
X2.7782Y-2.3787
X2.7949Y-2.3524
X2.8008Y-2.4235
X2.8543Y-2.2539
X2.8866Y-2.3748
X2.8869Y-2.4235
X2.9102Y-2.3864
X2.9102Y-2.4121
X2.913Y-2.2472
X2.9328Y-2.4235
X2.9343Y-2.3751
X2.972Y-2.2484
X3.0311Y-2.2587
X3.0902Y-2.2598
X3.0972Y-3.9996
X3.1492Y-2.2587
X3.1843Y-4.0591
X3.1898Y-4.2079
X3.1984Y-3.8531
X3.2012Y-2.6709
X3.2083Y-2.2587
X3.2134Y-3.9787
X3.2274Y-2.351
X3.2531Y-4.1031
X3.2535Y-3.9807
X3.2579Y-2.6528
X3.2663Y-1.9774
X3.2685Y-2.6925
X3.2709Y-2.3524
X3.2941Y-3.9819
X3.3Y-4.0299
X3.3012Y-2.7008
X3.3016Y-2.8453
X3.3024Y-2.6512
X3.3134Y-4.1024
X3.3161Y-4.0055
X3.3358Y-4.1406
X3.3465Y-3.9929
X3.3472Y-2.7047
X3.3476Y-2.6465
X3.3748Y-3.9827
X3.3791Y-4.0409
X3.3945Y-2.7063
X3.3949Y-2.6461
X3.4378Y-3.9894
X3.4421Y-2.7083
X3.4425Y-2.6398
X3.4567Y-4.0437
X3.4665Y-4.1122
X3.4858Y-2.6512
X3.489Y-2.7055
X3.5197Y-3.8559
X3.5209Y-3.9854
X3.5303Y-2.2559
X3.5366Y-2.6398
X3.5366Y-4.0433
X3.5748Y-2.6425
X3.5886Y-2.2531
X3.5961Y-2.7012
X3.6Y-3.9744
X3.6016Y-3.8583
X3.6154Y-4.0328
X3.6199Y-2.7012
X3.6311Y-2.6394
X3.6378Y-4.1228
X3.6437Y-2.6933
X3.6476Y-2.2531
X3.6634Y-3.9795
X3.6705Y-4.0331
X3.6764Y-2.6421
X3.6811Y-2.6969
X3.7067Y-2.2539
X3.7098Y-4.0394
X3.7102Y-3.9807
X3.7256Y-2.6437
X3.7366Y-2.3957
X3.7376Y-2.6994
X3.7571Y-4.0386
X3.7591Y-2.3665
X3.7665Y-2.6398
X3.774Y-3.978
X3.7756Y-2.4228
X3.778Y-2.6984
X3.7953Y-4.0335
X3.8094Y-3.9933
X3.8197Y-2.6445
X3.8252Y-2.2504
X3.8276Y-2.3717
X3.8344Y-2.701
X3.8426Y-4.1009
X3.8492Y-3.9894
X3.8575Y-3.9165
X3.863Y-2.3799
X3.8661Y-2.6449
X3.8665Y-3.6382
X3.8713Y-3.1748
X3.8752Y-4.1331
X3.8768Y-2.698
X3.8831Y-4.0993
X3.9Y-2.3685
X3.9087Y-3.9992
X3.9107Y-4.0993
X3.9134Y-2.6421
X3.9205Y-3.8984
X3.9205Y-3.9776
X3.9254Y-2.7037
X3.9358Y-4.0976
X3.9449Y-4.1406
X3.9547Y-3.7846
X3.9567Y-2.6575
X3.9567Y-2.6969
X3.9586Y-4.0993
X3.9669Y-3.9835
X3.981Y-4.0949
X3.9878Y-3.172
X4.0Y-3.9551
X4.0142Y-4.1
X4.0157Y-3.911
X4.0315Y-2.4889
X4.0539Y-3.6909
X4.0642Y-2.4209
X4.0815Y-3.4866
X4.0839Y-4.0709
X4.1177Y-4.2327
X4.1177Y-4.2815
X4.12Y-4.1798
X4.1257Y-4.1496
X4.1457Y-4.3689
X4.1884Y-4.0754
X4.2209Y-4.0713
X4.2276Y-3.3094
X4.25Y-4.3142
X4.2606Y-4.1949
X4.2748Y-4.2697
X4.3807Y-3.6301
X4.3969Y-3.4358
X4.4667Y-4.288
X4.472Y-3.0071
X4.4768Y-3.163
X4.478Y-3.6409
X4.4898Y-3.6933
X4.4929Y-3.5421
X4.4961Y-3.2217
X4.4961Y-2.9811
X4.504Y-3.1236
X4.5142Y-3.4409
X4.5894Y-3.1008
X4.6012Y-3.7055
T2
X2.8053Y-3.5512
X2.8553Y-3.4512
X2.9053Y-3.5512
X2.9553Y-3.4512
X3.0053Y-3.5512
X3.0553Y-3.4512
X3.1053Y-3.5512
X3.1553Y-3.4512
X3.2053Y-3.5512
X3.2553Y-3.4512
T3
X3.8878Y-3.018
X3.9863Y-3.018
X4.0653Y-3.018
X4.1638Y-3.018
T4
X3.4453Y-4.2071
X3.4453Y-4.3071
X3.5453Y-4.2071
X3.5453Y-4.3071
X3.6453Y-4.2071
X3.6453Y-4.3071
X3.7453Y-4.2071
X3.7453Y-4.3071
X3.8453Y-4.2071
X3.8453Y-4.3071
X3.9453Y-4.2071
X3.9453Y-4.3071
X4.0453Y-4.2071
X4.0453Y-4.3071
X4.4031Y-3.2559
X4.4031Y-3.3559
T5
X2.8152Y-3.7413
X2.9152Y-3.7413
X3.1455Y-3.7413
X3.2455Y-3.7413
T6
X3.3878Y-2.0782
X3.4114Y-2.2731
X3.9823Y-2.2731
X4.0059Y-2.0782
T7
X2.7254Y-3.3213
X3.3352Y-3.3213
M30
