%TF.GenerationSoftware,KiCad,Pcbnew,9.0.5*%
%TF.CreationDate,2026-03-13T18:17:16+01:00*%
%TF.ProjectId,ANE21_PCB,414e4532-315f-4504-9342-2e6b69636164,rev?*%
%TF.SameCoordinates,Original*%
%TF.FileFunction,Paste,Bot*%
%TF.FilePolarity,Positive*%
%FSLAX46Y46*%
G04 Gerber Fmt 4.6, Leading zero omitted, Abs format (unit mm)*
G04 Created by KiCad (PCBNEW 9.0.5) date 2026-03-13 18:17:16*
%MOMM*%
%LPD*%
G01*
G04 APERTURE LIST*
G04 Aperture macros list*
%AMRoundRect*
0 Rectangle with rounded corners*
0 $1 Rounding radius*
0 $2 $3 $4 $5 $6 $7 $8 $9 X,Y pos of 4 corners*
0 Add a 4 corners polygon primitive as box body*
4,1,4,$2,$3,$4,$5,$6,$7,$8,$9,$2,$3,0*
0 Add four circle primitives for the rounded corners*
1,1,$1+$1,$2,$3*
1,1,$1+$1,$4,$5*
1,1,$1+$1,$6,$7*
1,1,$1+$1,$8,$9*
0 Add four rect primitives between the rounded corners*
20,1,$1+$1,$2,$3,$4,$5,0*
20,1,$1+$1,$4,$5,$6,$7,0*
20,1,$1+$1,$6,$7,$8,$9,0*
20,1,$1+$1,$8,$9,$2,$3,0*%
G04 Aperture macros list end*
%ADD10RoundRect,0.155000X-0.155000X0.212500X-0.155000X-0.212500X0.155000X-0.212500X0.155000X0.212500X0*%
%ADD11RoundRect,0.155000X0.155000X-0.212500X0.155000X0.212500X-0.155000X0.212500X-0.155000X-0.212500X0*%
%ADD12RoundRect,0.155000X-0.212500X-0.155000X0.212500X-0.155000X0.212500X0.155000X-0.212500X0.155000X0*%
%ADD13RoundRect,0.160000X0.197500X0.160000X-0.197500X0.160000X-0.197500X-0.160000X0.197500X-0.160000X0*%
%ADD14RoundRect,0.218750X0.218750X0.256250X-0.218750X0.256250X-0.218750X-0.256250X0.218750X-0.256250X0*%
%ADD15RoundRect,0.155000X0.212500X0.155000X-0.212500X0.155000X-0.212500X-0.155000X0.212500X-0.155000X0*%
%ADD16R,0.812800X0.279400*%
%ADD17R,0.812800X0.330200*%
%ADD18RoundRect,0.218750X-0.256250X0.218750X-0.256250X-0.218750X0.256250X-0.218750X0.256250X0.218750X0*%
%ADD19RoundRect,0.160000X-0.160000X0.197500X-0.160000X-0.197500X0.160000X-0.197500X0.160000X0.197500X0*%
%ADD20R,1.340000X0.590000*%
%ADD21R,0.590000X1.340000*%
%ADD22RoundRect,0.160000X-0.197500X-0.160000X0.197500X-0.160000X0.197500X0.160000X-0.197500X0.160000X0*%
%ADD23RoundRect,0.160000X0.160000X-0.197500X0.160000X0.197500X-0.160000X0.197500X-0.160000X-0.197500X0*%
%ADD24RoundRect,0.182500X0.182500X0.322500X-0.182500X0.322500X-0.182500X-0.322500X0.182500X-0.322500X0*%
%ADD25RoundRect,0.062500X0.312500X0.062500X-0.312500X0.062500X-0.312500X-0.062500X0.312500X-0.062500X0*%
G04 APERTURE END LIST*
D10*
%TO.C,C13*%
X99090000Y-91237500D03*
X99090000Y-92372500D03*
%TD*%
D11*
%TO.C,C8*%
X105200000Y-82630000D03*
X105200000Y-81495000D03*
%TD*%
D12*
%TO.C,C2*%
X111685000Y-88820000D03*
X112820000Y-88820000D03*
%TD*%
D13*
%TO.C,R15*%
X84880000Y-96970000D03*
X83685000Y-96970000D03*
%TD*%
D14*
%TO.C,L1*%
X108000000Y-81430000D03*
X106425000Y-81430000D03*
%TD*%
D15*
%TO.C,C9*%
X106390000Y-93750000D03*
X105255000Y-93750000D03*
%TD*%
D10*
%TO.C,C5*%
X107570000Y-89435000D03*
X107570000Y-90570000D03*
%TD*%
D16*
%TO.C,J2*%
X115159301Y-75729998D03*
X115159301Y-77530000D03*
X115159301Y-78030000D03*
X115159301Y-78530000D03*
X115159301Y-79030000D03*
X115159301Y-79530000D03*
X115159301Y-80030000D03*
X115159301Y-81830002D03*
X116409301Y-81780000D03*
X116409301Y-80280000D03*
X116409301Y-79780000D03*
X116409301Y-79280000D03*
X116409301Y-78280000D03*
X116409301Y-77780000D03*
X116409301Y-77280000D03*
X116409301Y-75780000D03*
D17*
X115159301Y-75229999D03*
X115159301Y-82330001D03*
%TD*%
D18*
%TO.C,L2*%
X101430000Y-90635000D03*
X101430000Y-92210000D03*
%TD*%
D13*
%TO.C,R6*%
X106420000Y-95800000D03*
X105225000Y-95800000D03*
%TD*%
D11*
%TO.C,C12*%
X101900000Y-82650000D03*
X101900000Y-81515000D03*
%TD*%
D19*
%TO.C,R4*%
X104590000Y-85980000D03*
X104590000Y-87175000D03*
%TD*%
D11*
%TO.C,C7*%
X102940000Y-91595000D03*
X102940000Y-90460000D03*
%TD*%
D20*
%TO.C,U4*%
X108480000Y-84030000D03*
X108480000Y-84980000D03*
X108480000Y-85930000D03*
X106100000Y-85930000D03*
X106100000Y-84980000D03*
X106100000Y-84030000D03*
%TD*%
D19*
%TO.C,R3*%
X104090000Y-81455000D03*
X104090000Y-82650000D03*
%TD*%
D21*
%TO.C,U8*%
X104270000Y-89820000D03*
X105220000Y-89820000D03*
X106170000Y-89820000D03*
X106170000Y-92200000D03*
X105220000Y-92200000D03*
X104270000Y-92200000D03*
%TD*%
D11*
%TO.C,C10*%
X103000000Y-82660000D03*
X103000000Y-81525000D03*
%TD*%
D15*
%TO.C,C4*%
X108870000Y-87250000D03*
X107735000Y-87250000D03*
%TD*%
D19*
%TO.C,R1*%
X108640000Y-92700000D03*
X108640000Y-93895000D03*
%TD*%
D10*
%TO.C,C11*%
X100120000Y-91235000D03*
X100120000Y-92370000D03*
%TD*%
D22*
%TO.C,R16*%
X73295000Y-97000000D03*
X74490000Y-97000000D03*
%TD*%
D12*
%TO.C,C1*%
X111685000Y-89880000D03*
X112820000Y-89880000D03*
%TD*%
%TO.C,C6*%
X106845000Y-82760000D03*
X107980000Y-82760000D03*
%TD*%
D23*
%TO.C,R2*%
X108630000Y-91540000D03*
X108630000Y-90345000D03*
%TD*%
D22*
%TO.C,R5*%
X105217500Y-94770000D03*
X106412500Y-94770000D03*
%TD*%
D16*
%TO.C,J7*%
X114940000Y-87379998D03*
X114940000Y-89180000D03*
X114940000Y-89680000D03*
X114940000Y-90180000D03*
X114940000Y-90680000D03*
X114940000Y-91180000D03*
X114940000Y-91680000D03*
X114940000Y-93480002D03*
X116190000Y-93430000D03*
X116190000Y-91930000D03*
X116190000Y-91430000D03*
X116190000Y-90930000D03*
X116190000Y-89930000D03*
X116190000Y-89430000D03*
X116190000Y-88930000D03*
X116190000Y-87430000D03*
D17*
X114940000Y-86879999D03*
X114940000Y-93980001D03*
%TD*%
D24*
%TO.C,U3*%
X111720000Y-92830000D03*
X111720000Y-91580000D03*
X110820000Y-92830000D03*
X110820000Y-91580000D03*
D25*
X112745000Y-91205000D03*
X112745000Y-91705000D03*
X112745000Y-92205000D03*
X112745000Y-92705000D03*
X112745000Y-93205000D03*
X109795000Y-93205000D03*
X109795000Y-92705000D03*
X109795000Y-92205000D03*
X109795000Y-91705000D03*
X109795000Y-91205000D03*
%TD*%
D12*
%TO.C,C3*%
X111680000Y-87830000D03*
X112815000Y-87830000D03*
%TD*%
M02*
