M48
; DRILL file {KiCad 9.0.5} date 2026-03-12T15:32:09+0100
; FORMAT={-:-/ absolute / inch / decimal}
; #@! TF.CreationDate,2026-03-12T15:32:09+01:00
; #@! TF.GenerationSoftware,Kicad,Pcbnew,9.0.5
; #@! TF.FileFunction,NonPlated,1,4,NPTH
FMAT,2
INCH
; #@! TA.AperFunction,NonPlated,NPTH,ComponentDrill
T1C0.0200
; #@! TA.AperFunction,NonPlated,NPTH,ComponentDrill
T2C0.0433
; #@! TA.AperFunction,NonPlated,NPTH,ComponentDrill
T3C0.0630
; #@! TA.AperFunction,NonPlated,NPTH,ComponentDrill
T4C0.0910
; #@! TA.AperFunction,NonPlated,NPTH,ComponentDrill
T5C0.1063
; #@! TA.AperFunction,NonPlated,NPTH,ComponentDrill
T6C0.1280
%
G90
G05
T2
X3.2575Y-2.0911
T3
X2.4701Y-2.0911
X5.0764Y-2.0681
T4
X4.8586Y-2.8326
X4.8586Y-3.3496
T5
X0.9262Y-1.3787
X0.9262Y-1.6524
X1.1998Y-1.3787
X1.1998Y-1.6524
X1.4734Y-1.3787
X1.4734Y-1.6524
X1.747Y-1.3787
X1.747Y-1.6524
X2.5484Y-2.6913
X2.5484Y-3.9906
X4.4382Y-2.6913
X4.4382Y-3.9906
T6
X4.735Y-4.165
X5.185Y-4.165
T1
G00X4.3626Y-1.962
M15
G01X4.3626Y-2.009
M16
G05
G00X4.3626Y-2.0919
M15
G01X4.3626Y-2.1309
M16
G05
G00X4.713Y-1.962
M15
G01X4.713Y-2.009
M16
G05
G00X4.713Y-2.0919
M15
G01X4.713Y-2.1309
M16
G05
M30
