%TF.GenerationSoftware,KiCad,Pcbnew,9.0.5*%
%TF.CreationDate,2026-03-12T15:32:09+01:00*%
%TF.ProjectId,ANE21_PCB,414e4532-315f-4504-9342-2e6b69636164,rev?*%
%TF.SameCoordinates,Original*%
%TF.FileFunction,Copper,L4,Bot*%
%TF.FilePolarity,Positive*%
%FSLAX46Y46*%
G04 Gerber Fmt 4.6, Leading zero omitted, Abs format (unit mm)*
G04 Created by KiCad (PCBNEW 9.0.5) date 2026-03-12 15:32:09*
%MOMM*%
%LPD*%
G01*
G04 APERTURE LIST*
%TA.AperFunction,ComponentPad*%
%ADD10R,1.700000X1.700000*%
%TD*%
%TA.AperFunction,ComponentPad*%
%ADD11C,1.700000*%
%TD*%
%TA.AperFunction,ComponentPad*%
%ADD12R,4.000000X2.000000*%
%TD*%
%TA.AperFunction,ComponentPad*%
%ADD13O,3.300000X2.000000*%
%TD*%
%TA.AperFunction,ComponentPad*%
%ADD14O,2.000000X3.500000*%
%TD*%
%TA.AperFunction,ComponentPad*%
%ADD15C,1.422400*%
%TD*%
%TA.AperFunction,ComponentPad*%
%ADD16C,1.995000*%
%TD*%
%TA.AperFunction,ComponentPad*%
%ADD17R,1.398000X1.398000*%
%TD*%
%TA.AperFunction,ComponentPad*%
%ADD18C,1.398000*%
%TD*%
%TA.AperFunction,ComponentPad*%
%ADD19C,1.530000*%
%TD*%
%TA.AperFunction,ComponentPad*%
%ADD20C,2.355000*%
%TD*%
%TA.AperFunction,HeatsinkPad*%
%ADD21O,1.700000X1.350000*%
%TD*%
%TA.AperFunction,HeatsinkPad*%
%ADD22O,1.500000X1.100000*%
%TD*%
%TA.AperFunction,WasherPad*%
%ADD23O,0.965200X1.955800*%
%TD*%
%TA.AperFunction,WasherPad*%
%ADD24O,0.965200X2.159000*%
%TD*%
%TA.AperFunction,ViaPad*%
%ADD25C,0.450000*%
%TD*%
%TA.AperFunction,Conductor*%
%ADD26C,0.130000*%
%TD*%
%TA.AperFunction,Conductor*%
%ADD27C,0.158000*%
%TD*%
%TA.AperFunction,Conductor*%
%ADD28C,0.158200*%
%TD*%
G04 APERTURE END LIST*
D10*
%TO.P,J6,1,Pin_1*%
%TO.N,/CM4_LowSpeed/nRPIBOOT*%
X102750000Y-106860000D03*
D11*
%TO.P,J6,2,Pin_2*%
%TO.N,/CM4_LowSpeed/GLOBAL_EN*%
X102750000Y-109400000D03*
%TO.P,J6,3,Pin_3*%
%TO.N,/Miscellaneous/Reset*%
X100210000Y-106860000D03*
%TO.P,J6,4,Pin_4*%
%TO.N,GND*%
X100210000Y-109400000D03*
%TO.P,J6,5,Pin_5*%
%TO.N,/CM4_LowSpeed/BT_nDis*%
X97670000Y-106860000D03*
%TO.P,J6,6,Pin_6*%
%TO.N,GND*%
X97670000Y-109400000D03*
%TO.P,J6,7,Pin_7*%
%TO.N,/CM4_LowSpeed/WL_nDis*%
X95130000Y-106860000D03*
%TO.P,J6,8,Pin_8*%
%TO.N,GND*%
X95130000Y-109400000D03*
%TO.P,J6,9,Pin_9*%
%TO.N,/Miscellaneous/EEPROM_nWP*%
X92590000Y-106860000D03*
%TO.P,J6,10,Pin_10*%
%TO.N,GND*%
X92590000Y-109400000D03*
%TO.P,J6,11,Pin_11*%
%TO.N,/GPIO14*%
X90050000Y-106860000D03*
%TO.P,J6,12,Pin_12*%
%TO.N,GND*%
X90050000Y-109400000D03*
%TO.P,J6,13,Pin_13*%
%TO.N,/GPIO15*%
X87510000Y-106860000D03*
%TO.P,J6,14,Pin_14*%
%TO.N,GND*%
X87510000Y-109400000D03*
%TD*%
D12*
%TO.P,J4,1*%
%TO.N,/+12v*%
X128940000Y-61530000D03*
D13*
%TO.P,J4,2*%
%TO.N,Net-(C14-Pad1)*%
X128940000Y-55530000D03*
D14*
%TO.P,J4,MP*%
%TO.N,N/C*%
X133440000Y-54530000D03*
X124440000Y-54530000D03*
%TD*%
D15*
%TO.P,J3,1,1*%
%TO.N,/+5v*%
X120690000Y-82018500D03*
%TO.P,J3,2,2*%
%TO.N,USBD-*%
X120690000Y-79516600D03*
%TO.P,J3,3,3*%
%TO.N,USBD+*%
X120690000Y-77510000D03*
%TO.P,J3,4,4*%
%TO.N,GND*%
X120690000Y-75008100D03*
%TD*%
D16*
%TO.P,J5,SH1,SH*%
%TO.N,GND*%
X101149250Y-57737500D03*
%TO.P,J5,SH2,SH*%
X86649250Y-57737500D03*
%TO.P,J5,SH3,SH*%
X101749250Y-52787500D03*
%TO.P,J5,SH4,SH*%
X86049250Y-52787500D03*
%TD*%
D10*
%TO.P,J16,1,Pin_1*%
%TO.N,GND*%
X131050000Y-71500000D03*
D11*
%TO.P,J16,2,Pin_2*%
%TO.N,USB_OTG*%
X128510000Y-71500000D03*
%TD*%
D10*
%TO.P,J1,1,Pin_1*%
%TO.N,GND*%
X128980000Y-66150000D03*
D11*
%TO.P,J1,2,Pin_2*%
%TO.N,/+12v*%
X131520000Y-66150000D03*
%TD*%
D17*
%TO.P,U12,1,GND*%
%TO.N,GND*%
X131700000Y-99440000D03*
D18*
%TO.P,U12,2,TRD0+*%
%TO.N,/CM4_LowSpeed/TRD0_P*%
X130430000Y-96900000D03*
%TO.P,U12,3,TRD0-*%
%TO.N,/CM4_LowSpeed/TRD0_N*%
X129160000Y-99440000D03*
%TO.P,U12,4,TRD1+*%
%TO.N,/CM4_LowSpeed/TRD1_P*%
X127890000Y-96900000D03*
%TO.P,U12,5,TRD1-*%
%TO.N,/CM4_LowSpeed/TRD1_N*%
X126620000Y-99440000D03*
%TO.P,U12,6,CT*%
%TO.N,unconnected-(U12-CT-Pad6)*%
X125350000Y-96900000D03*
%TO.P,U12,7,TRD2+*%
%TO.N,/CM4_LowSpeed/TRD2_P*%
X124080000Y-99440000D03*
%TO.P,U12,8,TRD2-*%
%TO.N,/CM4_LowSpeed/TRD2_N*%
X122810000Y-96900000D03*
%TO.P,U12,9,TRD3+*%
%TO.N,/CM4_LowSpeed/TRD3_P*%
X121540000Y-99440000D03*
%TO.P,U12,10,TRD3-*%
%TO.N,/CM4_LowSpeed/TRD3_N*%
X120270000Y-96900000D03*
D19*
%TO.P,U12,13,LEDR_K*%
%TO.N,Net-(U12-LEDR_K)*%
X131450000Y-92070000D03*
%TO.P,U12,14,LEDR_A*%
%TO.N,/+3.3v*%
X128910000Y-92070000D03*
%TO.P,U12,15,LEDL_K*%
%TO.N,Net-(U12-LEDL_K)*%
X123060000Y-92070000D03*
%TO.P,U12,16,LEDL_A*%
%TO.N,/+3.3v*%
X120520000Y-92070000D03*
D20*
%TO.P,U12,19,SHIELD*%
%TO.N,GND*%
X118240000Y-102740000D03*
%TO.P,U12,20,SHIELD*%
X133730000Y-102740000D03*
%TD*%
D21*
%TO.P,J15,6,Shield*%
%TO.N,GND*%
X131130000Y-81030000D03*
D22*
X128130000Y-80720000D03*
X128130000Y-75880000D03*
D21*
X131130000Y-75570000D03*
%TD*%
D23*
%TO.P,J7,*%
%TO.N,*%
X119710001Y-53630700D03*
D24*
X119710000Y-50430698D03*
D23*
X110810000Y-53630699D03*
D24*
X110809999Y-50430699D03*
%TD*%
D25*
%TO.N,GND*%
X118828101Y-54700000D03*
X123340000Y-79460000D03*
X74491977Y-61556599D03*
X104200000Y-63260000D03*
X99860000Y-85630000D03*
X122940000Y-65510000D03*
X119265000Y-61815000D03*
X125840000Y-63950000D03*
X97160000Y-57160000D03*
X99705000Y-68675000D03*
X99090000Y-60360000D03*
X86115811Y-102645282D03*
X118340000Y-89290000D03*
X102000000Y-99340000D03*
X116570000Y-77740000D03*
X94149250Y-57250000D03*
X81280000Y-68010000D03*
X92400000Y-104720000D03*
X94910000Y-60850000D03*
X100200000Y-105170000D03*
X92590000Y-68630000D03*
X73990000Y-57080000D03*
X78490000Y-57400000D03*
X108560000Y-60500000D03*
X96400000Y-102450000D03*
X83730000Y-99500000D03*
X93230000Y-102440000D03*
X67990000Y-57220000D03*
X84260000Y-58310000D03*
X89830000Y-67050000D03*
X87440000Y-67050000D03*
X126270000Y-88640000D03*
X116640000Y-64930000D03*
X84990000Y-105020000D03*
X120950000Y-57460000D03*
X112760000Y-53550000D03*
X82760000Y-102590000D03*
X104590000Y-107510000D03*
X86220000Y-68740000D03*
X99280000Y-101580000D03*
X95860000Y-101040000D03*
X82640000Y-99560000D03*
X85020000Y-68700000D03*
X97020000Y-67170000D03*
X87800000Y-102710000D03*
X92649250Y-57230000D03*
X125860000Y-59440000D03*
X95900000Y-61540000D03*
X90800000Y-67120000D03*
X86340000Y-93810000D03*
X70990000Y-59750000D03*
X95430000Y-102580000D03*
X94240000Y-101110000D03*
X96000000Y-86840000D03*
X113210000Y-63660000D03*
X85030000Y-67220000D03*
X83850000Y-68600000D03*
X72500000Y-57250000D03*
X85720000Y-101160000D03*
X79990000Y-57370000D03*
X87430000Y-68790000D03*
X87590000Y-95000000D03*
X87480000Y-92550000D03*
X73326058Y-61556599D03*
X97220000Y-60240000D03*
X75490000Y-57110000D03*
X69500000Y-61080000D03*
X69490000Y-59750000D03*
X93050000Y-101080000D03*
X63050000Y-59650000D03*
X95960000Y-68540000D03*
X81975000Y-59715000D03*
X108580000Y-108450000D03*
X80880000Y-103100000D03*
X94935000Y-68565000D03*
X83820000Y-104410000D03*
X93380000Y-67110000D03*
X88880000Y-93820000D03*
X100500000Y-67500000D03*
X94230000Y-102600000D03*
X97395000Y-68605000D03*
X87320000Y-101330000D03*
X122810000Y-67640000D03*
X94630000Y-67150000D03*
X115740000Y-91130000D03*
X99400000Y-67110000D03*
X83880000Y-67340000D03*
X96760000Y-101430000D03*
X100500000Y-68500000D03*
X94180000Y-86780000D03*
X98470000Y-68530000D03*
X86230000Y-67210000D03*
X97770000Y-101330000D03*
X100760000Y-101180000D03*
X91440000Y-100950000D03*
X89430000Y-101230000D03*
X83840000Y-102670000D03*
X120040000Y-89510000D03*
X101960000Y-104140000D03*
X95670000Y-67050000D03*
X88620000Y-68720000D03*
X92230000Y-67040000D03*
X103660000Y-103610000D03*
X93500000Y-68500000D03*
X81490000Y-57370000D03*
X82750000Y-67380000D03*
X89670000Y-57300000D03*
X123300000Y-77900000D03*
X81260000Y-100890000D03*
X87100000Y-104620000D03*
X76990000Y-57370000D03*
X70390000Y-52600000D03*
X74530000Y-60326999D03*
X98430000Y-104980000D03*
X91150000Y-57230000D03*
X69190000Y-52600000D03*
X98200000Y-67180000D03*
X100310000Y-61630000D03*
X98140000Y-85620000D03*
X88540000Y-67340000D03*
X71030000Y-61630000D03*
X91830000Y-102432506D03*
X89830000Y-102700000D03*
X73320000Y-60320000D03*
X105480000Y-58790000D03*
X116570000Y-59140000D03*
X107210000Y-103410000D03*
X106400000Y-62420000D03*
X116970000Y-92250000D03*
%TO.N,/CM4_LowSpeed/BT_nDis*%
X99332470Y-104121397D03*
%TO.N,/CM4_LowSpeed/WL_nDis*%
X98630000Y-104121396D03*
%TO.N,/CM4_LowSpeed/GLOBAL_EN*%
X101117863Y-104010694D03*
X104793193Y-105399063D03*
%TO.N,/CM4_LowSpeed/RUN_PG*%
X107950000Y-109580000D03*
X99580000Y-101030000D03*
%TO.N,USB_OTG*%
X86430000Y-71466000D03*
X80940000Y-70350000D03*
%TO.N,/CM4_LowSpeed/nRPIBOOT*%
X99970000Y-104080000D03*
%TO.N,Net-(Module1A-EEPROM_nWP)*%
X85309048Y-101580000D03*
X84540000Y-105550000D03*
%TO.N,/CM4_LowSpeed/nPWR_LED*%
X100548523Y-104121397D03*
X104646985Y-106166985D03*
%TO.N,Net-(Module1A-PI_nLED_Activity)*%
X85350000Y-105620000D03*
X85490000Y-102660000D03*
%TO.N,/CM4_HighSpeed/P_TX0_N*%
X70566600Y-60420000D03*
X73920000Y-60615199D03*
%TO.N,/CM4_HighSpeed/P_TX0_P*%
X69913400Y-60420000D03*
X73920000Y-61268399D03*
%TO.N,/CM4_HighSpeed/HDMI0_HOT*%
X91945000Y-68775000D03*
X98120000Y-60450000D03*
%TO.N,/CM4_HighSpeed/HDMI0_CEC*%
X95480000Y-60110000D03*
X91340000Y-68760000D03*
%TO.N,/CM4_LowSpeed/TRD0_P*%
X98995999Y-86000000D03*
X84100000Y-101265934D03*
%TO.N,/CM4_LowSpeed/TRD1_P*%
X87376410Y-93478614D03*
X95110000Y-87120000D03*
%TO.N,/CM4_LowSpeed/TRD0_N*%
X98995999Y-86700000D03*
X84800000Y-101265934D03*
%TO.N,/CM4_LowSpeed/TRD1_N*%
X87871386Y-93973590D03*
X95110000Y-87820000D03*
%TO.N,/CM4_LowSpeed/LEDG*%
X86210000Y-104065002D03*
X97260000Y-102420000D03*
%TO.N,/CM4_LowSpeed/LEDY*%
X119900000Y-90390000D03*
X116710000Y-91440000D03*
%TO.N,/CM4_HighSpeed/P_RST*%
X69740000Y-52030000D03*
X82640000Y-68430000D03*
%TO.N,/+12v*%
X117030000Y-53740000D03*
X124780000Y-63100000D03*
X114960000Y-59140000D03*
X113559400Y-54309400D03*
X112139400Y-55729400D03*
%TO.N,/+3.3v*%
X117700000Y-61550000D03*
X78800000Y-49470000D03*
X81935000Y-49525000D03*
X80800000Y-106770000D03*
X64600000Y-49490000D03*
X111380000Y-57790000D03*
X113455000Y-108915000D03*
X108350000Y-106440000D03*
%TO.N,/+5v*%
X105030000Y-60932500D03*
X105300000Y-110970000D03*
X97830000Y-103940000D03*
X121420000Y-62210000D03*
X125790000Y-65080000D03*
X126845000Y-80015000D03*
%TO.N,Net-(Module1A-nEXTRST)*%
X106385000Y-103515000D03*
X101600000Y-100460000D03*
%TO.N,/Miscellaneous/Reset*%
X104590000Y-108750000D03*
%TD*%
D26*
%TO.N,/CM4_LowSpeed/BT_nDis*%
X99332470Y-105197530D02*
X97670000Y-106860000D01*
X99332470Y-104121397D02*
X99332470Y-105197530D01*
%TO.N,/CM4_LowSpeed/WL_nDis*%
X95500000Y-106860000D02*
X95130000Y-106860000D01*
X98630000Y-104121396D02*
X98243988Y-104121396D01*
X97999000Y-104361000D02*
X95500000Y-106860000D01*
X98243988Y-104121396D02*
X98004384Y-104361000D01*
X98004384Y-104361000D02*
X97999000Y-104361000D01*
%TO.N,/CM4_LowSpeed/GLOBAL_EN*%
X104793193Y-104793193D02*
X104560000Y-104560000D01*
X104560000Y-104560000D02*
X101667169Y-104560000D01*
X104793193Y-105399063D02*
X104793193Y-104793193D01*
X101667169Y-104560000D02*
X101117863Y-104010694D01*
%TO.N,/CM4_LowSpeed/RUN_PG*%
X99580000Y-101030000D02*
X102560000Y-104010000D01*
X106260000Y-108640000D02*
X107200000Y-109580000D01*
X102560000Y-104010000D02*
X104930000Y-104010000D01*
X104930000Y-104010000D02*
X106260000Y-105340000D01*
X106260000Y-105340000D02*
X106260000Y-108640000D01*
X107200000Y-109580000D02*
X107950000Y-109580000D01*
X107950000Y-109580000D02*
X107930000Y-109580000D01*
%TO.N,USB_OTG*%
X82056000Y-71466000D02*
X86430000Y-71466000D01*
X80940000Y-70350000D02*
X82056000Y-71466000D01*
D27*
%TO.N,/CM4_LowSpeed/nRPIBOOT*%
X102671943Y-106860000D02*
X102750000Y-106860000D01*
X99970000Y-104080000D02*
X99970000Y-104158057D01*
X99970000Y-104158057D02*
X102671943Y-106860000D01*
D26*
%TO.N,Net-(Module1A-EEPROM_nWP)*%
X84470000Y-103080000D02*
X84470000Y-105480000D01*
X85309048Y-102240952D02*
X84470000Y-103080000D01*
X85309048Y-101580000D02*
X85309048Y-102240952D01*
X84470000Y-105480000D02*
X84540000Y-105550000D01*
%TO.N,/CM4_LowSpeed/nPWR_LED*%
X101637126Y-105210000D02*
X100548523Y-104121397D01*
X104350000Y-105900000D02*
X103660000Y-105210000D01*
X104646985Y-106166985D02*
X104380000Y-105900000D01*
X103660000Y-105210000D02*
X101637126Y-105210000D01*
X104380000Y-105900000D02*
X104350000Y-105900000D01*
%TO.N,Net-(Module1A-PI_nLED_Activity)*%
X85430000Y-102720000D02*
X85490000Y-102660000D01*
X85490000Y-102660000D02*
X85440000Y-102710000D01*
X85490000Y-105360000D02*
X85490000Y-102660000D01*
X85350000Y-105500000D02*
X85490000Y-105360000D01*
X85350000Y-105620000D02*
X85350000Y-105500000D01*
D28*
%TO.N,/CM4_HighSpeed/P_TX0_N*%
X70765596Y-60761099D02*
X73774100Y-60761099D01*
X70566600Y-60562103D02*
X70765596Y-60761099D01*
X70566600Y-60420000D02*
X70566600Y-60562103D01*
X73774100Y-60761099D02*
X73920000Y-60615199D01*
%TO.N,/CM4_HighSpeed/P_TX0_P*%
X70615899Y-61122499D02*
X73774100Y-61122499D01*
X69913400Y-60420000D02*
X70615899Y-61122499D01*
X73774100Y-61122499D02*
X73920000Y-61268399D01*
D26*
%TO.N,/CM4_HighSpeed/HDMI0_HOT*%
X91810000Y-66864616D02*
X91809000Y-66865616D01*
X91809000Y-66865616D02*
X91809000Y-67214384D01*
X91945000Y-67350384D02*
X91945000Y-68775000D01*
X91810000Y-65590000D02*
X91810000Y-66864616D01*
X93350000Y-65220000D02*
X92180000Y-65220000D01*
X91809000Y-67214384D02*
X91945000Y-67350384D01*
X98120000Y-60450000D02*
X93350000Y-65220000D01*
X92180000Y-65220000D02*
X91810000Y-65590000D01*
%TO.N,/CM4_HighSpeed/HDMI0_CEC*%
X95480000Y-60110000D02*
X95460000Y-60130000D01*
X95460000Y-61400000D02*
X91340000Y-65520000D01*
X95460000Y-60130000D02*
X95460000Y-61400000D01*
X91340000Y-65520000D02*
X91340000Y-68760000D01*
%TO.N,/CM4_LowSpeed/TRD0_P*%
X84260000Y-101105934D02*
X84100000Y-101265934D01*
X98995999Y-86000000D02*
X98835999Y-86160000D01*
X97611298Y-86160000D02*
X84260000Y-99511298D01*
X98835999Y-86160000D02*
X97611298Y-86160000D01*
X84260000Y-99511298D02*
X84260000Y-101105934D01*
%TO.N,/CM4_LowSpeed/TRD1_P*%
X94950000Y-87280000D02*
X93801298Y-87280000D01*
X93801298Y-87280000D02*
X87602685Y-93478614D01*
X87602685Y-93478614D02*
X87376410Y-93478614D01*
X95110000Y-87120000D02*
X94950000Y-87280000D01*
%TO.N,/CM4_LowSpeed/TRD0_N*%
X97768702Y-86540000D02*
X84640000Y-99668702D01*
X98835999Y-86540000D02*
X97768702Y-86540000D01*
X84640000Y-101105934D02*
X84800000Y-101265934D01*
X98995999Y-86700000D02*
X98835999Y-86540000D01*
X84640000Y-99668702D02*
X84640000Y-101105934D01*
%TO.N,/CM4_LowSpeed/TRD1_N*%
X93958702Y-87660000D02*
X87871386Y-93747315D01*
X87871386Y-93747315D02*
X87871386Y-93973590D01*
X95110000Y-87820000D02*
X94950000Y-87660000D01*
X94950000Y-87660000D02*
X93958702Y-87660000D01*
%TO.N,/CM4_LowSpeed/LEDG*%
X86210000Y-104065002D02*
X86214998Y-104070000D01*
X86214998Y-104070000D02*
X96700000Y-104070000D01*
X96700000Y-104070000D02*
X97260000Y-103510000D01*
X97260000Y-103510000D02*
X97260000Y-102420000D01*
%TO.N,/CM4_LowSpeed/LEDY*%
X116710000Y-91440000D02*
X117220000Y-90930000D01*
X119860000Y-90430000D02*
X119900000Y-90390000D01*
X117220000Y-90930000D02*
X119860000Y-90930000D01*
X119860000Y-90930000D02*
X119860000Y-90430000D01*
%TO.N,/CM4_HighSpeed/P_RST*%
X66870000Y-60290000D02*
X75010000Y-68430000D01*
X69740000Y-52030000D02*
X69740000Y-53910000D01*
X69740000Y-53910000D02*
X66870000Y-56780000D01*
X66870000Y-56780000D02*
X66870000Y-60290000D01*
X75010000Y-68430000D02*
X82640000Y-68430000D01*
%TO.N,Net-(Module1A-nEXTRST)*%
X103395577Y-100545839D02*
X103309761Y-100460000D01*
X103309761Y-100460000D02*
X101600000Y-100460000D01*
X103417326Y-100547326D02*
X103395577Y-100545839D01*
X106385000Y-103515000D02*
X103417326Y-100547326D01*
%TO.N,/GPIO15*%
X87610000Y-106860000D02*
X87510000Y-106860000D01*
%TO.N,/Miscellaneous/Reset*%
X104590000Y-108750000D02*
X103990000Y-108150000D01*
X101500000Y-108150000D02*
X100210000Y-106860000D01*
X103990000Y-108150000D02*
X101500000Y-108150000D01*
%TD*%
%TA.AperFunction,Conductor*%
%TO.N,GND*%
G36*
X135215192Y-103860052D02*
G01*
X135200183Y-114865669D01*
X135200101Y-114865944D01*
X135208460Y-103833273D01*
X135215192Y-103860052D01*
G37*
%TD.AperFunction*%
%TA.AperFunction,Conductor*%
G36*
X135278624Y-49082989D02*
G01*
X135289829Y-49134668D01*
X135289736Y-49203391D01*
X135218246Y-101620484D01*
X135210116Y-101648031D01*
X135249969Y-49049920D01*
X135278624Y-49082989D01*
G37*
%TD.AperFunction*%
%TD*%
%TA.AperFunction,Conductor*%
%TO.N,GND*%
G36*
X88851444Y-107513999D02*
G01*
X88890486Y-107559056D01*
X88894951Y-107567820D01*
X89019890Y-107739786D01*
X89170213Y-107890109D01*
X89342179Y-108015048D01*
X89342181Y-108015049D01*
X89342184Y-108015051D01*
X89351493Y-108019794D01*
X89402290Y-108067766D01*
X89419087Y-108135587D01*
X89396552Y-108201722D01*
X89351505Y-108240760D01*
X89342446Y-108245376D01*
X89342440Y-108245380D01*
X89288282Y-108284727D01*
X89288282Y-108284728D01*
X89920591Y-108917037D01*
X89857007Y-108934075D01*
X89742993Y-108999901D01*
X89649901Y-109092993D01*
X89584075Y-109207007D01*
X89567037Y-109270591D01*
X88934728Y-108638282D01*
X88934727Y-108638282D01*
X88895380Y-108692440D01*
X88890483Y-108702051D01*
X88842506Y-108752845D01*
X88774684Y-108769638D01*
X88708550Y-108747098D01*
X88669516Y-108702048D01*
X88664626Y-108692452D01*
X88625270Y-108638282D01*
X88625269Y-108638282D01*
X87992962Y-109270590D01*
X87975925Y-109207007D01*
X87910099Y-109092993D01*
X87817007Y-108999901D01*
X87702993Y-108934075D01*
X87639409Y-108917037D01*
X88271716Y-108284728D01*
X88217547Y-108245373D01*
X88217547Y-108245372D01*
X88208500Y-108240763D01*
X88157706Y-108192788D01*
X88140912Y-108124966D01*
X88163451Y-108058832D01*
X88208508Y-108019793D01*
X88217816Y-108015051D01*
X88297007Y-107957515D01*
X88389786Y-107890109D01*
X88389788Y-107890106D01*
X88389792Y-107890104D01*
X88540104Y-107739792D01*
X88540106Y-107739788D01*
X88540109Y-107739786D01*
X88665048Y-107567820D01*
X88665047Y-107567820D01*
X88665051Y-107567816D01*
X88669514Y-107559054D01*
X88717488Y-107508259D01*
X88785308Y-107491463D01*
X88851444Y-107513999D01*
G37*
%TD.AperFunction*%
%TA.AperFunction,Conductor*%
G36*
X91391444Y-107513999D02*
G01*
X91430486Y-107559056D01*
X91434951Y-107567820D01*
X91559890Y-107739786D01*
X91710213Y-107890109D01*
X91882179Y-108015048D01*
X91882181Y-108015049D01*
X91882184Y-108015051D01*
X91891493Y-108019794D01*
X91942290Y-108067766D01*
X91959087Y-108135587D01*
X91936552Y-108201722D01*
X91891505Y-108240760D01*
X91882446Y-108245376D01*
X91882440Y-108245380D01*
X91828282Y-108284727D01*
X91828282Y-108284728D01*
X92460591Y-108917037D01*
X92397007Y-108934075D01*
X92282993Y-108999901D01*
X92189901Y-109092993D01*
X92124075Y-109207007D01*
X92107037Y-109270591D01*
X91474728Y-108638282D01*
X91474727Y-108638282D01*
X91435380Y-108692440D01*
X91430483Y-108702051D01*
X91382506Y-108752845D01*
X91314684Y-108769638D01*
X91248550Y-108747098D01*
X91209516Y-108702048D01*
X91204626Y-108692452D01*
X91165270Y-108638282D01*
X91165269Y-108638282D01*
X90532962Y-109270590D01*
X90515925Y-109207007D01*
X90450099Y-109092993D01*
X90357007Y-108999901D01*
X90242993Y-108934075D01*
X90179409Y-108917037D01*
X90811716Y-108284728D01*
X90757547Y-108245373D01*
X90757547Y-108245372D01*
X90748500Y-108240763D01*
X90697706Y-108192788D01*
X90680912Y-108124966D01*
X90703451Y-108058832D01*
X90748508Y-108019793D01*
X90757816Y-108015051D01*
X90837007Y-107957515D01*
X90929786Y-107890109D01*
X90929788Y-107890106D01*
X90929792Y-107890104D01*
X91080104Y-107739792D01*
X91080106Y-107739788D01*
X91080109Y-107739786D01*
X91205048Y-107567820D01*
X91205047Y-107567820D01*
X91205051Y-107567816D01*
X91209514Y-107559054D01*
X91257488Y-107508259D01*
X91325308Y-107491463D01*
X91391444Y-107513999D01*
G37*
%TD.AperFunction*%
%TA.AperFunction,Conductor*%
G36*
X93931444Y-107513999D02*
G01*
X93970486Y-107559056D01*
X93974951Y-107567820D01*
X94099890Y-107739786D01*
X94250213Y-107890109D01*
X94422179Y-108015048D01*
X94422181Y-108015049D01*
X94422184Y-108015051D01*
X94431493Y-108019794D01*
X94482290Y-108067766D01*
X94499087Y-108135587D01*
X94476552Y-108201722D01*
X94431505Y-108240760D01*
X94422446Y-108245376D01*
X94422440Y-108245380D01*
X94368282Y-108284727D01*
X94368282Y-108284728D01*
X95000591Y-108917037D01*
X94937007Y-108934075D01*
X94822993Y-108999901D01*
X94729901Y-109092993D01*
X94664075Y-109207007D01*
X94647037Y-109270591D01*
X94014728Y-108638282D01*
X94014727Y-108638282D01*
X93975380Y-108692440D01*
X93970483Y-108702051D01*
X93922506Y-108752845D01*
X93854684Y-108769638D01*
X93788550Y-108747098D01*
X93749516Y-108702048D01*
X93744626Y-108692452D01*
X93705270Y-108638282D01*
X93705269Y-108638282D01*
X93072962Y-109270590D01*
X93055925Y-109207007D01*
X92990099Y-109092993D01*
X92897007Y-108999901D01*
X92782993Y-108934075D01*
X92719409Y-108917037D01*
X93351716Y-108284728D01*
X93297547Y-108245373D01*
X93297547Y-108245372D01*
X93288500Y-108240763D01*
X93237706Y-108192788D01*
X93220912Y-108124966D01*
X93243451Y-108058832D01*
X93288508Y-108019793D01*
X93297816Y-108015051D01*
X93377007Y-107957515D01*
X93469786Y-107890109D01*
X93469788Y-107890106D01*
X93469792Y-107890104D01*
X93620104Y-107739792D01*
X93620106Y-107739788D01*
X93620109Y-107739786D01*
X93745048Y-107567820D01*
X93745047Y-107567820D01*
X93745051Y-107567816D01*
X93749514Y-107559054D01*
X93797488Y-107508259D01*
X93865308Y-107491463D01*
X93931444Y-107513999D01*
G37*
%TD.AperFunction*%
%TA.AperFunction,Conductor*%
G36*
X96471444Y-107513999D02*
G01*
X96510486Y-107559056D01*
X96514951Y-107567820D01*
X96639890Y-107739786D01*
X96790213Y-107890109D01*
X96962179Y-108015048D01*
X96962181Y-108015049D01*
X96962184Y-108015051D01*
X96971493Y-108019794D01*
X97022290Y-108067766D01*
X97039087Y-108135587D01*
X97016552Y-108201722D01*
X96971505Y-108240760D01*
X96962446Y-108245376D01*
X96962440Y-108245380D01*
X96908282Y-108284727D01*
X96908282Y-108284728D01*
X97540591Y-108917037D01*
X97477007Y-108934075D01*
X97362993Y-108999901D01*
X97269901Y-109092993D01*
X97204075Y-109207007D01*
X97187037Y-109270591D01*
X96554728Y-108638282D01*
X96554727Y-108638282D01*
X96515380Y-108692440D01*
X96510483Y-108702051D01*
X96462506Y-108752845D01*
X96394684Y-108769638D01*
X96328550Y-108747098D01*
X96289516Y-108702048D01*
X96284626Y-108692452D01*
X96245270Y-108638282D01*
X96245269Y-108638282D01*
X95612962Y-109270590D01*
X95595925Y-109207007D01*
X95530099Y-109092993D01*
X95437007Y-108999901D01*
X95322993Y-108934075D01*
X95259409Y-108917037D01*
X95891716Y-108284728D01*
X95837547Y-108245373D01*
X95837547Y-108245372D01*
X95828500Y-108240763D01*
X95777706Y-108192788D01*
X95760912Y-108124966D01*
X95783451Y-108058832D01*
X95828508Y-108019793D01*
X95837816Y-108015051D01*
X95917007Y-107957515D01*
X96009786Y-107890109D01*
X96009788Y-107890106D01*
X96009792Y-107890104D01*
X96160104Y-107739792D01*
X96160106Y-107739788D01*
X96160109Y-107739786D01*
X96285048Y-107567820D01*
X96285047Y-107567820D01*
X96285051Y-107567816D01*
X96289514Y-107559054D01*
X96337488Y-107508259D01*
X96405308Y-107491463D01*
X96471444Y-107513999D01*
G37*
%TD.AperFunction*%
%TA.AperFunction,Conductor*%
G36*
X99011444Y-107513999D02*
G01*
X99050486Y-107559056D01*
X99054951Y-107567820D01*
X99179890Y-107739786D01*
X99330213Y-107890109D01*
X99502179Y-108015048D01*
X99502181Y-108015049D01*
X99502184Y-108015051D01*
X99511493Y-108019794D01*
X99562290Y-108067766D01*
X99579087Y-108135587D01*
X99556552Y-108201722D01*
X99511505Y-108240760D01*
X99502446Y-108245376D01*
X99502440Y-108245380D01*
X99448282Y-108284727D01*
X99448282Y-108284728D01*
X100080591Y-108917037D01*
X100017007Y-108934075D01*
X99902993Y-108999901D01*
X99809901Y-109092993D01*
X99744075Y-109207007D01*
X99727037Y-109270591D01*
X99094728Y-108638282D01*
X99094727Y-108638282D01*
X99055380Y-108692440D01*
X99050483Y-108702051D01*
X99002506Y-108752845D01*
X98934684Y-108769638D01*
X98868550Y-108747098D01*
X98829516Y-108702048D01*
X98824626Y-108692452D01*
X98785270Y-108638282D01*
X98785269Y-108638282D01*
X98152962Y-109270590D01*
X98135925Y-109207007D01*
X98070099Y-109092993D01*
X97977007Y-108999901D01*
X97862993Y-108934075D01*
X97799409Y-108917037D01*
X98431716Y-108284728D01*
X98377547Y-108245373D01*
X98377547Y-108245372D01*
X98368500Y-108240763D01*
X98317706Y-108192788D01*
X98300912Y-108124966D01*
X98323451Y-108058832D01*
X98368508Y-108019793D01*
X98377816Y-108015051D01*
X98457007Y-107957515D01*
X98549786Y-107890109D01*
X98549788Y-107890106D01*
X98549792Y-107890104D01*
X98700104Y-107739792D01*
X98700106Y-107739788D01*
X98700109Y-107739786D01*
X98825048Y-107567820D01*
X98825047Y-107567820D01*
X98825051Y-107567816D01*
X98829514Y-107559054D01*
X98877488Y-107508259D01*
X98945308Y-107491463D01*
X99011444Y-107513999D01*
G37*
%TD.AperFunction*%
%TA.AperFunction,Conductor*%
G36*
X98413938Y-104818224D02*
G01*
X98418054Y-104818880D01*
X98418380Y-104819015D01*
X98558545Y-104846896D01*
X98593823Y-104846896D01*
X98603522Y-104848442D01*
X98666627Y-104878433D01*
X98703500Y-104937781D01*
X98702434Y-105007643D01*
X98671685Y-105058577D01*
X98191881Y-105538379D01*
X98130558Y-105571864D01*
X98065883Y-105568629D01*
X97986246Y-105542754D01*
X97986248Y-105542754D01*
X97907837Y-105530335D01*
X97844703Y-105500405D01*
X97807772Y-105441093D01*
X97808770Y-105371231D01*
X97839552Y-105320185D01*
X98306741Y-104852995D01*
X98311594Y-104850345D01*
X98314657Y-104845737D01*
X98341929Y-104833781D01*
X98368062Y-104819512D01*
X98374613Y-104819453D01*
X98378648Y-104817685D01*
X98413938Y-104818224D01*
G37*
%TD.AperFunction*%
%TA.AperFunction,Conductor*%
G36*
X94509155Y-88245185D02*
G01*
X94545203Y-88280587D01*
X94547038Y-88283332D01*
X94549773Y-88292061D01*
X94554910Y-88297989D01*
X94557690Y-88317325D01*
X94567931Y-88350005D01*
X94564295Y-88363265D01*
X94564854Y-88367147D01*
X94560796Y-88376030D01*
X94549460Y-88417389D01*
X94531632Y-88439926D01*
X88804084Y-94167475D01*
X88742761Y-94200960D01*
X88673069Y-94195976D01*
X88617136Y-94154104D01*
X88592719Y-94088640D01*
X88594785Y-94055603D01*
X88596886Y-94045045D01*
X88596886Y-93902135D01*
X88596447Y-93899928D01*
X88596552Y-93898748D01*
X88596289Y-93896070D01*
X88596796Y-93896019D01*
X88602673Y-93830339D01*
X88630381Y-93788056D01*
X94156621Y-88261819D01*
X94183548Y-88247115D01*
X94209367Y-88230523D01*
X94215567Y-88229631D01*
X94217944Y-88228334D01*
X94244302Y-88225500D01*
X94442116Y-88225500D01*
X94509155Y-88245185D01*
G37*
%TD.AperFunction*%
%TA.AperFunction,Conductor*%
G36*
X63894800Y-49030185D02*
G01*
X63940555Y-49082989D01*
X63950499Y-49152147D01*
X63942322Y-49181952D01*
X63902382Y-49278375D01*
X63902379Y-49278385D01*
X63874500Y-49418542D01*
X63874500Y-49418545D01*
X63874500Y-49561455D01*
X63874500Y-49561457D01*
X63874499Y-49561457D01*
X63902379Y-49701614D01*
X63902381Y-49701620D01*
X63957069Y-49833650D01*
X63957074Y-49833659D01*
X64036467Y-49952478D01*
X64036470Y-49952482D01*
X64137517Y-50053529D01*
X64137521Y-50053532D01*
X64256340Y-50132925D01*
X64256346Y-50132928D01*
X64256347Y-50132929D01*
X64388380Y-50187619D01*
X64388384Y-50187619D01*
X64388385Y-50187620D01*
X64528542Y-50215500D01*
X64528545Y-50215500D01*
X64671457Y-50215500D01*
X64772000Y-50195500D01*
X64811620Y-50187619D01*
X64943653Y-50132929D01*
X65062479Y-50053532D01*
X65163532Y-49952479D01*
X65242929Y-49833653D01*
X65297619Y-49701620D01*
X65325500Y-49561455D01*
X65325500Y-49418545D01*
X65325500Y-49418542D01*
X65297620Y-49278385D01*
X65297619Y-49278384D01*
X65297619Y-49278380D01*
X65268098Y-49207109D01*
X65257678Y-49181952D01*
X65250209Y-49112483D01*
X65281484Y-49050004D01*
X65341574Y-49014352D01*
X65372239Y-49010500D01*
X78019477Y-49010500D01*
X78086516Y-49030185D01*
X78132271Y-49082989D01*
X78142215Y-49152147D01*
X78134038Y-49181952D01*
X78102382Y-49258375D01*
X78102379Y-49258385D01*
X78074500Y-49398542D01*
X78074500Y-49398545D01*
X78074500Y-49541455D01*
X78074500Y-49541457D01*
X78074499Y-49541457D01*
X78102379Y-49681614D01*
X78102381Y-49681620D01*
X78157069Y-49813650D01*
X78157074Y-49813659D01*
X78236467Y-49932478D01*
X78236470Y-49932482D01*
X78337517Y-50033529D01*
X78337521Y-50033532D01*
X78456340Y-50112925D01*
X78456346Y-50112928D01*
X78456347Y-50112929D01*
X78588380Y-50167619D01*
X78588384Y-50167619D01*
X78588385Y-50167620D01*
X78728542Y-50195500D01*
X78728545Y-50195500D01*
X78871457Y-50195500D01*
X78965751Y-50176742D01*
X79011620Y-50167619D01*
X79143653Y-50112929D01*
X79262479Y-50033532D01*
X79363532Y-49932479D01*
X79442929Y-49813653D01*
X79497619Y-49681620D01*
X79514560Y-49596455D01*
X79525500Y-49541457D01*
X79525500Y-49398542D01*
X79497620Y-49258385D01*
X79497619Y-49258384D01*
X79497619Y-49258380D01*
X79476382Y-49207109D01*
X79465962Y-49181952D01*
X79458493Y-49112483D01*
X79489768Y-49050004D01*
X79549857Y-49014352D01*
X79580523Y-49010500D01*
X81177259Y-49010500D01*
X81244298Y-49030185D01*
X81290053Y-49082989D01*
X81299997Y-49152147D01*
X81291820Y-49181953D01*
X81237381Y-49313379D01*
X81237379Y-49313385D01*
X81209500Y-49453542D01*
X81209500Y-49453545D01*
X81209500Y-49596455D01*
X81209500Y-49596457D01*
X81209499Y-49596457D01*
X81237379Y-49736614D01*
X81237381Y-49736620D01*
X81292069Y-49868650D01*
X81292074Y-49868659D01*
X81371467Y-49987478D01*
X81371470Y-49987482D01*
X81472517Y-50088529D01*
X81472521Y-50088532D01*
X81591340Y-50167925D01*
X81591346Y-50167928D01*
X81591347Y-50167929D01*
X81723380Y-50222619D01*
X81723384Y-50222619D01*
X81723385Y-50222620D01*
X81863542Y-50250500D01*
X81863545Y-50250500D01*
X82006457Y-50250500D01*
X82100751Y-50231742D01*
X82146620Y-50222619D01*
X82278653Y-50167929D01*
X82397479Y-50088532D01*
X82498532Y-49987479D01*
X82577929Y-49868653D01*
X82632619Y-49736620D01*
X82660500Y-49596455D01*
X82660500Y-49453545D01*
X82660500Y-49453542D01*
X82632620Y-49313385D01*
X82632619Y-49313384D01*
X82632619Y-49313380D01*
X82578179Y-49181952D01*
X82570711Y-49112483D01*
X82601986Y-49050004D01*
X82662075Y-49014352D01*
X82692741Y-49010500D01*
X109945757Y-49010500D01*
X110012796Y-49030185D01*
X110058551Y-49082989D01*
X110068495Y-49152147D01*
X110048859Y-49203391D01*
X109938790Y-49368119D01*
X109938783Y-49368132D01*
X109864680Y-49547034D01*
X109864677Y-49547046D01*
X109826899Y-49736967D01*
X109826899Y-51124430D01*
X109864677Y-51314351D01*
X109864680Y-51314363D01*
X109938783Y-51493265D01*
X109938790Y-51493278D01*
X110046374Y-51654288D01*
X110046377Y-51654292D01*
X110183305Y-51791220D01*
X110183309Y-51791223D01*
X110344319Y-51898807D01*
X110344332Y-51898814D01*
X110508799Y-51966938D01*
X110563203Y-52010779D01*
X110585268Y-52077073D01*
X110567989Y-52144772D01*
X110516852Y-52192383D01*
X110508800Y-52196060D01*
X110344329Y-52264185D01*
X110344320Y-52264190D01*
X110183310Y-52371774D01*
X110183306Y-52371777D01*
X110046378Y-52508705D01*
X110046375Y-52508709D01*
X109938791Y-52669719D01*
X109938784Y-52669732D01*
X109864681Y-52848634D01*
X109864678Y-52848646D01*
X109826900Y-53038567D01*
X109826900Y-54222830D01*
X109864678Y-54412751D01*
X109864681Y-54412763D01*
X109938784Y-54591665D01*
X109938791Y-54591678D01*
X110046375Y-54752688D01*
X110046378Y-54752692D01*
X110183306Y-54889620D01*
X110183310Y-54889623D01*
X110344320Y-54997207D01*
X110344333Y-54997214D01*
X110523235Y-55071317D01*
X110523240Y-55071319D01*
X110713168Y-55109098D01*
X110713171Y-55109099D01*
X110713173Y-55109099D01*
X110906829Y-55109099D01*
X110906830Y-55109098D01*
X111096760Y-55071319D01*
X111259524Y-55003900D01*
X111275666Y-54997214D01*
X111275666Y-54997213D01*
X111275673Y-54997211D01*
X111436690Y-54889623D01*
X111573624Y-54752689D01*
X111681212Y-54591672D01*
X111755320Y-54412759D01*
X111761666Y-54380857D01*
X112833899Y-54380857D01*
X112861779Y-54521014D01*
X112861781Y-54521020D01*
X112916469Y-54653050D01*
X112916474Y-54653059D01*
X112995867Y-54771878D01*
X112995870Y-54771882D01*
X113096917Y-54872929D01*
X113096921Y-54872932D01*
X113215740Y-54952325D01*
X113215746Y-54952328D01*
X113215747Y-54952329D01*
X113347780Y-55007019D01*
X113347784Y-55007019D01*
X113347785Y-55007020D01*
X113487942Y-55034900D01*
X113487945Y-55034900D01*
X113630857Y-55034900D01*
X113725151Y-55016142D01*
X113771020Y-55007019D01*
X113903053Y-54952329D01*
X114021879Y-54872932D01*
X114122932Y-54771879D01*
X114202329Y-54653053D01*
X114257019Y-54521020D01*
X114278555Y-54412752D01*
X114284900Y-54380857D01*
X114284900Y-54237942D01*
X114257020Y-54097785D01*
X114257019Y-54097784D01*
X114257019Y-54097780D01*
X114202329Y-53965747D01*
X114202328Y-53965746D01*
X114202325Y-53965740D01*
X114122932Y-53846921D01*
X114122929Y-53846917D01*
X114087469Y-53811457D01*
X116304499Y-53811457D01*
X116332379Y-53951614D01*
X116332381Y-53951620D01*
X116387069Y-54083650D01*
X116387074Y-54083659D01*
X116466467Y-54202478D01*
X116466470Y-54202482D01*
X116567517Y-54303529D01*
X116567521Y-54303532D01*
X116686340Y-54382925D01*
X116686349Y-54382930D01*
X116716258Y-54395318D01*
X116818380Y-54437619D01*
X116818384Y-54437619D01*
X116818385Y-54437620D01*
X116958542Y-54465500D01*
X116958545Y-54465500D01*
X117101457Y-54465500D01*
X117195751Y-54446742D01*
X117241620Y-54437619D01*
X117373653Y-54382929D01*
X117492479Y-54303532D01*
X117593532Y-54202479D01*
X117672929Y-54083653D01*
X117727619Y-53951620D01*
X117740923Y-53884737D01*
X117755500Y-53811457D01*
X117755500Y-53668542D01*
X117727620Y-53528385D01*
X117727619Y-53528384D01*
X117727619Y-53528380D01*
X117672929Y-53396347D01*
X117672928Y-53396346D01*
X117672925Y-53396340D01*
X117593532Y-53277521D01*
X117593529Y-53277517D01*
X117492482Y-53176470D01*
X117492478Y-53176467D01*
X117373659Y-53097074D01*
X117373650Y-53097069D01*
X117241620Y-53042381D01*
X117241614Y-53042379D01*
X117101457Y-53014500D01*
X117101455Y-53014500D01*
X116958545Y-53014500D01*
X116958543Y-53014500D01*
X116818385Y-53042379D01*
X116818379Y-53042381D01*
X116686349Y-53097069D01*
X116686340Y-53097074D01*
X116567521Y-53176467D01*
X116567517Y-53176470D01*
X116466470Y-53277517D01*
X116466467Y-53277521D01*
X116387074Y-53396340D01*
X116387069Y-53396349D01*
X116332381Y-53528379D01*
X116332379Y-53528385D01*
X116304500Y-53668542D01*
X116304500Y-53668545D01*
X116304500Y-53811455D01*
X116304500Y-53811457D01*
X116304499Y-53811457D01*
X114087469Y-53811457D01*
X114021882Y-53745870D01*
X114021878Y-53745867D01*
X113903059Y-53666474D01*
X113903050Y-53666469D01*
X113771020Y-53611781D01*
X113771014Y-53611779D01*
X113630857Y-53583900D01*
X113630855Y-53583900D01*
X113487945Y-53583900D01*
X113487943Y-53583900D01*
X113347785Y-53611779D01*
X113347779Y-53611781D01*
X113215749Y-53666469D01*
X113215740Y-53666474D01*
X113096921Y-53745867D01*
X113096917Y-53745870D01*
X112995870Y-53846917D01*
X112995867Y-53846921D01*
X112916474Y-53965740D01*
X112916469Y-53965749D01*
X112861781Y-54097779D01*
X112861779Y-54097785D01*
X112833900Y-54237942D01*
X112833900Y-54237945D01*
X112833900Y-54380855D01*
X112833900Y-54380857D01*
X112833899Y-54380857D01*
X111761666Y-54380857D01*
X111793100Y-54222826D01*
X111793100Y-53038572D01*
X111793100Y-53038570D01*
X111793100Y-53038569D01*
X111793099Y-53038567D01*
X111767362Y-52909179D01*
X111755320Y-52848639D01*
X111729995Y-52787499D01*
X111681215Y-52669732D01*
X111681208Y-52669719D01*
X111573624Y-52508709D01*
X111573621Y-52508705D01*
X111436693Y-52371777D01*
X111436689Y-52371774D01*
X111275679Y-52264190D01*
X111275670Y-52264185D01*
X111111198Y-52196059D01*
X111056795Y-52152218D01*
X111034730Y-52085924D01*
X111052009Y-52018224D01*
X111103146Y-51970614D01*
X111111180Y-51966945D01*
X111209853Y-51926073D01*
X111275666Y-51898814D01*
X111275669Y-51898812D01*
X111275672Y-51898811D01*
X111436689Y-51791223D01*
X111573623Y-51654289D01*
X111681211Y-51493272D01*
X111755319Y-51314359D01*
X111793099Y-51124426D01*
X111793099Y-49736972D01*
X111793099Y-49736971D01*
X111793099Y-49736969D01*
X111793098Y-49736967D01*
X111782089Y-49681620D01*
X111755319Y-49547039D01*
X111716593Y-49453545D01*
X111681214Y-49368132D01*
X111681207Y-49368119D01*
X111571139Y-49203391D01*
X111550261Y-49136713D01*
X111568746Y-49069333D01*
X111620724Y-49022643D01*
X111674241Y-49010500D01*
X118845757Y-49010500D01*
X118912796Y-49030185D01*
X118958551Y-49082989D01*
X118968495Y-49152147D01*
X118948859Y-49203391D01*
X118838791Y-49368118D01*
X118838784Y-49368131D01*
X118764681Y-49547033D01*
X118764678Y-49547045D01*
X118726900Y-49736966D01*
X118726900Y-51124429D01*
X118764678Y-51314350D01*
X118764681Y-51314362D01*
X118838784Y-51493264D01*
X118838791Y-51493277D01*
X118946375Y-51654287D01*
X118946378Y-51654291D01*
X119083306Y-51791219D01*
X119083310Y-51791222D01*
X119244320Y-51898806D01*
X119244329Y-51898811D01*
X119408803Y-51966938D01*
X119463206Y-52010779D01*
X119485271Y-52077073D01*
X119467992Y-52144772D01*
X119416855Y-52192383D01*
X119408803Y-52196060D01*
X119244330Y-52264186D01*
X119244321Y-52264191D01*
X119083311Y-52371775D01*
X119083307Y-52371778D01*
X118946379Y-52508706D01*
X118946376Y-52508710D01*
X118838792Y-52669720D01*
X118838785Y-52669733D01*
X118764682Y-52848635D01*
X118764679Y-52848647D01*
X118726901Y-53038568D01*
X118726901Y-54222831D01*
X118764679Y-54412752D01*
X118764682Y-54412764D01*
X118838785Y-54591666D01*
X118838792Y-54591679D01*
X118946376Y-54752689D01*
X118946379Y-54752693D01*
X119083307Y-54889621D01*
X119083311Y-54889624D01*
X119244321Y-54997208D01*
X119244334Y-54997215D01*
X119423234Y-55071317D01*
X119423241Y-55071320D01*
X119613164Y-55109098D01*
X119613169Y-55109099D01*
X119613172Y-55109100D01*
X119613174Y-55109100D01*
X119806830Y-55109100D01*
X119806831Y-55109099D01*
X119996761Y-55071320D01*
X120175674Y-54997212D01*
X120336691Y-54889624D01*
X120473625Y-54752690D01*
X120581213Y-54591673D01*
X120655321Y-54412760D01*
X120693101Y-54222827D01*
X120693101Y-53661902D01*
X122939500Y-53661902D01*
X122939500Y-55398097D01*
X122976446Y-55631368D01*
X123049433Y-55855996D01*
X123156657Y-56066433D01*
X123295483Y-56257510D01*
X123462490Y-56424517D01*
X123653567Y-56563343D01*
X123752991Y-56614002D01*
X123864003Y-56670566D01*
X123864005Y-56670566D01*
X123864008Y-56670568D01*
X123971671Y-56705550D01*
X124088631Y-56743553D01*
X124321903Y-56780500D01*
X124321908Y-56780500D01*
X124558097Y-56780500D01*
X124791368Y-56743553D01*
X125015992Y-56670568D01*
X125226433Y-56563343D01*
X125417510Y-56424517D01*
X125584517Y-56257510D01*
X125723343Y-56066433D01*
X125830568Y-55855992D01*
X125903553Y-55631368D01*
X125938313Y-55411902D01*
X126789500Y-55411902D01*
X126789500Y-55648097D01*
X126826446Y-55881368D01*
X126899433Y-56105996D01*
X126994681Y-56292929D01*
X127006657Y-56316433D01*
X127145483Y-56507510D01*
X127312490Y-56674517D01*
X127503567Y-56813343D01*
X127602991Y-56864002D01*
X127714003Y-56920566D01*
X127714005Y-56920566D01*
X127714008Y-56920568D01*
X127834412Y-56959689D01*
X127938631Y-56993553D01*
X128171903Y-57030500D01*
X128171908Y-57030500D01*
X129708097Y-57030500D01*
X129941368Y-56993553D01*
X129989484Y-56977919D01*
X130165992Y-56920568D01*
X130376433Y-56813343D01*
X130567510Y-56674517D01*
X130734517Y-56507510D01*
X130873343Y-56316433D01*
X130980568Y-56105992D01*
X131053553Y-55881368D01*
X131090500Y-55648097D01*
X131090500Y-55411902D01*
X131053553Y-55178631D01*
X131005837Y-55031779D01*
X130980568Y-54954008D01*
X130980566Y-54954005D01*
X130980566Y-54954003D01*
X130887770Y-54771882D01*
X130873343Y-54743567D01*
X130734517Y-54552490D01*
X130567510Y-54385483D01*
X130376433Y-54246657D01*
X130289735Y-54202482D01*
X130165996Y-54139433D01*
X129941368Y-54066446D01*
X129708097Y-54029500D01*
X129708092Y-54029500D01*
X128171908Y-54029500D01*
X128171903Y-54029500D01*
X127938631Y-54066446D01*
X127714003Y-54139433D01*
X127503566Y-54246657D01*
X127394550Y-54325862D01*
X127312490Y-54385483D01*
X127312488Y-54385485D01*
X127312487Y-54385485D01*
X127145485Y-54552487D01*
X127145485Y-54552488D01*
X127145483Y-54552490D01*
X127085862Y-54634550D01*
X127006657Y-54743566D01*
X126899433Y-54954003D01*
X126826446Y-55178631D01*
X126789500Y-55411902D01*
X125938313Y-55411902D01*
X125940500Y-55398092D01*
X125940500Y-53661908D01*
X125940500Y-53661902D01*
X131939500Y-53661902D01*
X131939500Y-55398097D01*
X131976446Y-55631368D01*
X132049433Y-55855996D01*
X132156657Y-56066433D01*
X132295483Y-56257510D01*
X132462490Y-56424517D01*
X132653567Y-56563343D01*
X132752991Y-56614002D01*
X132864003Y-56670566D01*
X132864005Y-56670566D01*
X132864008Y-56670568D01*
X132971671Y-56705550D01*
X133088631Y-56743553D01*
X133321903Y-56780500D01*
X133321908Y-56780500D01*
X133558097Y-56780500D01*
X133791368Y-56743553D01*
X134015992Y-56670568D01*
X134226433Y-56563343D01*
X134417510Y-56424517D01*
X134584517Y-56257510D01*
X134723343Y-56066433D01*
X134830568Y-55855992D01*
X134903553Y-55631368D01*
X134921543Y-55517785D01*
X134940500Y-55398097D01*
X134940500Y-53661902D01*
X134903553Y-53428631D01*
X134854454Y-53277521D01*
X134830568Y-53204008D01*
X134830566Y-53204005D01*
X134830566Y-53204003D01*
X134748214Y-53042379D01*
X134723343Y-52993567D01*
X134584517Y-52802490D01*
X134417510Y-52635483D01*
X134226433Y-52496657D01*
X134212451Y-52489533D01*
X134015996Y-52389433D01*
X133791368Y-52316446D01*
X133558097Y-52279500D01*
X133558092Y-52279500D01*
X133321908Y-52279500D01*
X133321903Y-52279500D01*
X133088631Y-52316446D01*
X132864003Y-52389433D01*
X132653566Y-52496657D01*
X132611601Y-52527147D01*
X132462490Y-52635483D01*
X132462488Y-52635485D01*
X132462487Y-52635485D01*
X132295485Y-52802487D01*
X132295485Y-52802488D01*
X132295483Y-52802490D01*
X132238080Y-52881498D01*
X132156657Y-52993566D01*
X132049433Y-53204003D01*
X131976446Y-53428631D01*
X131939500Y-53661902D01*
X125940500Y-53661902D01*
X125903553Y-53428631D01*
X125854454Y-53277521D01*
X125830568Y-53204008D01*
X125830566Y-53204005D01*
X125830566Y-53204003D01*
X125748214Y-53042379D01*
X125723343Y-52993567D01*
X125584517Y-52802490D01*
X125417510Y-52635483D01*
X125226433Y-52496657D01*
X125212451Y-52489533D01*
X125137127Y-52451153D01*
X128139500Y-52451153D01*
X128139500Y-52608846D01*
X128170261Y-52763489D01*
X128170264Y-52763501D01*
X128230602Y-52909172D01*
X128230609Y-52909185D01*
X128318210Y-53040288D01*
X128318213Y-53040292D01*
X128429707Y-53151786D01*
X128429711Y-53151789D01*
X128560814Y-53239390D01*
X128560827Y-53239397D01*
X128652868Y-53277521D01*
X128706503Y-53299737D01*
X128846001Y-53327485D01*
X128861153Y-53330499D01*
X128861156Y-53330500D01*
X128861158Y-53330500D01*
X129018844Y-53330500D01*
X129018845Y-53330499D01*
X129173497Y-53299737D01*
X129319179Y-53239394D01*
X129450289Y-53151789D01*
X129561789Y-53040289D01*
X129649394Y-52909179D01*
X129650976Y-52905361D01*
X129674472Y-52848634D01*
X129709737Y-52763497D01*
X129740500Y-52608842D01*
X129740500Y-52451158D01*
X129740500Y-52451155D01*
X129740499Y-52451153D01*
X129725083Y-52373653D01*
X129709737Y-52296503D01*
X129696352Y-52264188D01*
X129649397Y-52150827D01*
X129649390Y-52150814D01*
X129561789Y-52019711D01*
X129561786Y-52019707D01*
X129450292Y-51908213D01*
X129450288Y-51908210D01*
X129319185Y-51820609D01*
X129319172Y-51820602D01*
X129173501Y-51760264D01*
X129173489Y-51760261D01*
X129018845Y-51729500D01*
X129018842Y-51729500D01*
X128861158Y-51729500D01*
X128861155Y-51729500D01*
X128706510Y-51760261D01*
X128706498Y-51760264D01*
X128560827Y-51820602D01*
X128560814Y-51820609D01*
X128429711Y-51908210D01*
X128429707Y-51908213D01*
X128318213Y-52019707D01*
X128318210Y-52019711D01*
X128230609Y-52150814D01*
X128230602Y-52150827D01*
X128170264Y-52296498D01*
X128170261Y-52296510D01*
X128139500Y-52451153D01*
X125137127Y-52451153D01*
X125015996Y-52389433D01*
X124791368Y-52316446D01*
X124558097Y-52279500D01*
X124558092Y-52279500D01*
X124321908Y-52279500D01*
X124321903Y-52279500D01*
X124088631Y-52316446D01*
X123864003Y-52389433D01*
X123653566Y-52496657D01*
X123611601Y-52527147D01*
X123462490Y-52635483D01*
X123462488Y-52635485D01*
X123462487Y-52635485D01*
X123295485Y-52802487D01*
X123295485Y-52802488D01*
X123295483Y-52802490D01*
X123238080Y-52881498D01*
X123156657Y-52993566D01*
X123049433Y-53204003D01*
X122976446Y-53428631D01*
X122939500Y-53661902D01*
X120693101Y-53661902D01*
X120693101Y-53038573D01*
X120693101Y-53038572D01*
X120693101Y-53038570D01*
X120693100Y-53038568D01*
X120684149Y-52993567D01*
X120655321Y-52848640D01*
X120636204Y-52802487D01*
X120581216Y-52669733D01*
X120581209Y-52669720D01*
X120473625Y-52508710D01*
X120473622Y-52508706D01*
X120336694Y-52371778D01*
X120336690Y-52371775D01*
X120175680Y-52264191D01*
X120175670Y-52264186D01*
X120011197Y-52196059D01*
X119956794Y-52152218D01*
X119934729Y-52085924D01*
X119952008Y-52018224D01*
X120003146Y-51970614D01*
X120011183Y-51966943D01*
X120152979Y-51908210D01*
X120175666Y-51898813D01*
X120175666Y-51898812D01*
X120175673Y-51898810D01*
X120336690Y-51791222D01*
X120473624Y-51654288D01*
X120581212Y-51493271D01*
X120655320Y-51314358D01*
X120693100Y-51124425D01*
X120693100Y-49736971D01*
X120693100Y-49736969D01*
X120693100Y-49736968D01*
X120693099Y-49736966D01*
X120665150Y-49596457D01*
X120655320Y-49547038D01*
X120653008Y-49541457D01*
X120581215Y-49368131D01*
X120581208Y-49368118D01*
X120471141Y-49203391D01*
X120450263Y-49136713D01*
X120468748Y-49069333D01*
X120520727Y-49022643D01*
X120574243Y-49010500D01*
X135165830Y-49010500D01*
X135232869Y-49030185D01*
X135249969Y-49049920D01*
X135210116Y-101648031D01*
X135198470Y-101687497D01*
X135145604Y-101733180D01*
X135086137Y-101744050D01*
X135079909Y-101743641D01*
X134434365Y-102389185D01*
X134425658Y-102368163D01*
X134339749Y-102239592D01*
X134230408Y-102130251D01*
X134101837Y-102044342D01*
X134080811Y-102035633D01*
X134726356Y-101390089D01*
X134663964Y-101342213D01*
X134473534Y-101232269D01*
X134473524Y-101232265D01*
X134270374Y-101148117D01*
X134057964Y-101091203D01*
X133839956Y-101062500D01*
X133620043Y-101062500D01*
X133402035Y-101091203D01*
X133189625Y-101148117D01*
X132986475Y-101232265D01*
X132986465Y-101232269D01*
X132796040Y-101342210D01*
X132796033Y-101342216D01*
X132733642Y-101390088D01*
X132733642Y-101390089D01*
X133379186Y-102035633D01*
X133358163Y-102044342D01*
X133229592Y-102130251D01*
X133120251Y-102239592D01*
X133034342Y-102368163D01*
X133025633Y-102389186D01*
X132380089Y-101743642D01*
X132380088Y-101743642D01*
X132332216Y-101806033D01*
X132332210Y-101806040D01*
X132222269Y-101996465D01*
X132222265Y-101996475D01*
X132138117Y-102199625D01*
X132081203Y-102412035D01*
X132052500Y-102630043D01*
X132052500Y-102849956D01*
X132081203Y-103067964D01*
X132138117Y-103280374D01*
X132222265Y-103483524D01*
X132222269Y-103483534D01*
X132332213Y-103673964D01*
X132380089Y-103736356D01*
X133025633Y-103090812D01*
X133034342Y-103111837D01*
X133120251Y-103240408D01*
X133229592Y-103349749D01*
X133358163Y-103435658D01*
X133379185Y-103444365D01*
X132733642Y-104089908D01*
X132733642Y-104089909D01*
X132796036Y-104137786D01*
X132986465Y-104247730D01*
X132986475Y-104247734D01*
X133189625Y-104331882D01*
X133402035Y-104388796D01*
X133620043Y-104417499D01*
X133620058Y-104417500D01*
X133839942Y-104417500D01*
X133839956Y-104417499D01*
X134057964Y-104388796D01*
X134270374Y-104331882D01*
X134473524Y-104247734D01*
X134473534Y-104247730D01*
X134663965Y-104137784D01*
X134726356Y-104089909D01*
X134726356Y-104089908D01*
X134080813Y-103444366D01*
X134101837Y-103435658D01*
X134230408Y-103349749D01*
X134339749Y-103240408D01*
X134425658Y-103111837D01*
X134434366Y-103090813D01*
X135079908Y-103736356D01*
X135083081Y-103736149D01*
X135151265Y-103751406D01*
X135200375Y-103801104D01*
X135208460Y-103833273D01*
X135200101Y-114865944D01*
X135180407Y-114932682D01*
X135127541Y-114978365D01*
X135076183Y-114989500D01*
X60804500Y-114989500D01*
X60737461Y-114969815D01*
X60691706Y-114917011D01*
X60680500Y-114865500D01*
X60680500Y-111041457D01*
X104574499Y-111041457D01*
X104602379Y-111181614D01*
X104602381Y-111181620D01*
X104657069Y-111313650D01*
X104657074Y-111313659D01*
X104736467Y-111432478D01*
X104736470Y-111432482D01*
X104837517Y-111533529D01*
X104837521Y-111533532D01*
X104956340Y-111612925D01*
X104956346Y-111612928D01*
X104956347Y-111612929D01*
X105088380Y-111667619D01*
X105088384Y-111667619D01*
X105088385Y-111667620D01*
X105228542Y-111695500D01*
X105228545Y-111695500D01*
X105371457Y-111695500D01*
X105465751Y-111676742D01*
X105511620Y-111667619D01*
X105643653Y-111612929D01*
X105762479Y-111533532D01*
X105863532Y-111432479D01*
X105942929Y-111313653D01*
X105997619Y-111181620D01*
X106025500Y-111041455D01*
X106025500Y-110898545D01*
X106025500Y-110898542D01*
X105997620Y-110758385D01*
X105997619Y-110758384D01*
X105997619Y-110758380D01*
X105942929Y-110626347D01*
X105942928Y-110626346D01*
X105942925Y-110626340D01*
X105863532Y-110507521D01*
X105863529Y-110507517D01*
X105762482Y-110406470D01*
X105762478Y-110406467D01*
X105643659Y-110327074D01*
X105643650Y-110327069D01*
X105511620Y-110272381D01*
X105511614Y-110272379D01*
X105371457Y-110244500D01*
X105371455Y-110244500D01*
X105228545Y-110244500D01*
X105228543Y-110244500D01*
X105088385Y-110272379D01*
X105088379Y-110272381D01*
X104956349Y-110327069D01*
X104956340Y-110327074D01*
X104837521Y-110406467D01*
X104837517Y-110406470D01*
X104736470Y-110507517D01*
X104736467Y-110507521D01*
X104657074Y-110626340D01*
X104657069Y-110626349D01*
X104602381Y-110758379D01*
X104602379Y-110758385D01*
X104574500Y-110898542D01*
X104574500Y-110898545D01*
X104574500Y-111041455D01*
X104574500Y-111041457D01*
X104574499Y-111041457D01*
X60680500Y-111041457D01*
X60680500Y-106841457D01*
X80074499Y-106841457D01*
X80102379Y-106981614D01*
X80102381Y-106981620D01*
X80157069Y-107113650D01*
X80157074Y-107113659D01*
X80236467Y-107232478D01*
X80236470Y-107232482D01*
X80337517Y-107333529D01*
X80337521Y-107333532D01*
X80456340Y-107412925D01*
X80456346Y-107412928D01*
X80456347Y-107412929D01*
X80588380Y-107467619D01*
X80588384Y-107467619D01*
X80588385Y-107467620D01*
X80728542Y-107495500D01*
X80728545Y-107495500D01*
X80871457Y-107495500D01*
X80965751Y-107476742D01*
X81011620Y-107467619D01*
X81143653Y-107412929D01*
X81262479Y-107333532D01*
X81363532Y-107232479D01*
X81442929Y-107113653D01*
X81497619Y-106981620D01*
X81513361Y-106902482D01*
X81525500Y-106841457D01*
X81525500Y-106698542D01*
X81497620Y-106558385D01*
X81497619Y-106558384D01*
X81497619Y-106558380D01*
X81442929Y-106426347D01*
X81442928Y-106426346D01*
X81442925Y-106426340D01*
X81363532Y-106307521D01*
X81363529Y-106307517D01*
X81262482Y-106206470D01*
X81262478Y-106206467D01*
X81143659Y-106127074D01*
X81143650Y-106127069D01*
X81011620Y-106072381D01*
X81011614Y-106072379D01*
X80871457Y-106044500D01*
X80871455Y-106044500D01*
X80728545Y-106044500D01*
X80728543Y-106044500D01*
X80588385Y-106072379D01*
X80588379Y-106072381D01*
X80456349Y-106127069D01*
X80456340Y-106127074D01*
X80337521Y-106206467D01*
X80337517Y-106206470D01*
X80236470Y-106307517D01*
X80236467Y-106307521D01*
X80157074Y-106426340D01*
X80157069Y-106426349D01*
X80102381Y-106558379D01*
X80102379Y-106558385D01*
X80074500Y-106698542D01*
X80074500Y-106698545D01*
X80074500Y-106841455D01*
X80074500Y-106841457D01*
X80074499Y-106841457D01*
X60680500Y-106841457D01*
X60680500Y-101188681D01*
X61679500Y-101188681D01*
X61679500Y-101531318D01*
X61717858Y-101871768D01*
X61717860Y-101871780D01*
X61717861Y-101871783D01*
X61733963Y-101942330D01*
X61794102Y-102205816D01*
X61794103Y-102205818D01*
X61907264Y-102529216D01*
X62055922Y-102837907D01*
X62077389Y-102872071D01*
X62238211Y-103128018D01*
X62364979Y-103286980D01*
X62441058Y-103382381D01*
X62451834Y-103395893D01*
X62694107Y-103638166D01*
X62961982Y-103851789D01*
X63252090Y-104034076D01*
X63560785Y-104182736D01*
X63884183Y-104295897D01*
X64218217Y-104372139D01*
X64218226Y-104372140D01*
X64218231Y-104372141D01*
X64445197Y-104397713D01*
X64558682Y-104410499D01*
X64558685Y-104410500D01*
X64558688Y-104410500D01*
X64901315Y-104410500D01*
X64901316Y-104410499D01*
X65093945Y-104388796D01*
X65241768Y-104372141D01*
X65241771Y-104372140D01*
X65241783Y-104372139D01*
X65575817Y-104295897D01*
X65899215Y-104182736D01*
X66207910Y-104034076D01*
X66498018Y-103851789D01*
X66765893Y-103638166D01*
X67008166Y-103395893D01*
X67221789Y-103128018D01*
X67404076Y-102837910D01*
X67552736Y-102529215D01*
X67665897Y-102205817D01*
X67742139Y-101871783D01*
X67743865Y-101856470D01*
X67771681Y-101609584D01*
X67780500Y-101531312D01*
X67780500Y-101337391D01*
X83374499Y-101337391D01*
X83402379Y-101477548D01*
X83402381Y-101477554D01*
X83457069Y-101609584D01*
X83457074Y-101609593D01*
X83536467Y-101728412D01*
X83536470Y-101728416D01*
X83637517Y-101829463D01*
X83637521Y-101829466D01*
X83756340Y-101908859D01*
X83756349Y-101908864D01*
X83780117Y-101918709D01*
X83888380Y-101963553D01*
X83888384Y-101963553D01*
X83888385Y-101963554D01*
X84028542Y-101991434D01*
X84028545Y-101991434D01*
X84171457Y-101991434D01*
X84265751Y-101972676D01*
X84311620Y-101963553D01*
X84402549Y-101925888D01*
X84433063Y-101922607D01*
X84463256Y-101917161D01*
X84469323Y-101918709D01*
X84472016Y-101918420D01*
X84497444Y-101925886D01*
X84557169Y-101950625D01*
X84611571Y-101994466D01*
X84633635Y-102060760D01*
X84616355Y-102128459D01*
X84597395Y-102152866D01*
X84122775Y-102627487D01*
X84017488Y-102732773D01*
X84017484Y-102732778D01*
X83943039Y-102861722D01*
X83943038Y-102861723D01*
X83940265Y-102872074D01*
X83904500Y-103005550D01*
X83904500Y-103005552D01*
X83904500Y-105163747D01*
X83895061Y-105211200D01*
X83842381Y-105338379D01*
X83842379Y-105338385D01*
X83814500Y-105478542D01*
X83814500Y-105478545D01*
X83814500Y-105621455D01*
X83814500Y-105621457D01*
X83814499Y-105621457D01*
X83842379Y-105761614D01*
X83842381Y-105761620D01*
X83897069Y-105893650D01*
X83897074Y-105893659D01*
X83976467Y-106012478D01*
X83976470Y-106012482D01*
X84077517Y-106113529D01*
X84077521Y-106113532D01*
X84196340Y-106192925D01*
X84196346Y-106192928D01*
X84196347Y-106192929D01*
X84328380Y-106247619D01*
X84328384Y-106247619D01*
X84328385Y-106247620D01*
X84468542Y-106275500D01*
X84468545Y-106275500D01*
X84611457Y-106275500D01*
X84705751Y-106256742D01*
X84751620Y-106247619D01*
X84833488Y-106213707D01*
X84902956Y-106206239D01*
X84949831Y-106225167D01*
X85006340Y-106262925D01*
X85006346Y-106262928D01*
X85006347Y-106262929D01*
X85138380Y-106317619D01*
X85138384Y-106317619D01*
X85138385Y-106317620D01*
X85278542Y-106345500D01*
X85278545Y-106345500D01*
X85421457Y-106345500D01*
X85515751Y-106326742D01*
X85561620Y-106317619D01*
X85693653Y-106262929D01*
X85812479Y-106183532D01*
X85913532Y-106082479D01*
X85992929Y-105963653D01*
X86047619Y-105831620D01*
X86059526Y-105771759D01*
X86075500Y-105691457D01*
X86075500Y-105548542D01*
X86057883Y-105459979D01*
X86055500Y-105435787D01*
X86055500Y-104914502D01*
X86075185Y-104847463D01*
X86127989Y-104801708D01*
X86179500Y-104790502D01*
X86281457Y-104790502D01*
X86375751Y-104771744D01*
X86421620Y-104762621D01*
X86553653Y-104707931D01*
X86630778Y-104656398D01*
X86697455Y-104635520D01*
X86699669Y-104635500D01*
X96625399Y-104635500D01*
X96692438Y-104655185D01*
X96738193Y-104707989D01*
X96748137Y-104777147D01*
X96719112Y-104840703D01*
X96713080Y-104847181D01*
X95913110Y-105647150D01*
X95851787Y-105680635D01*
X95782095Y-105675651D01*
X95769134Y-105669954D01*
X95763766Y-105667219D01*
X95648412Y-105608443D01*
X95446243Y-105542754D01*
X95446241Y-105542753D01*
X95446240Y-105542753D01*
X95284957Y-105517208D01*
X95236287Y-105509500D01*
X95023713Y-105509500D01*
X94975042Y-105517208D01*
X94813760Y-105542753D01*
X94813757Y-105542754D01*
X94661853Y-105592111D01*
X94611585Y-105608444D01*
X94422179Y-105704951D01*
X94250213Y-105829890D01*
X94099890Y-105980213D01*
X93974949Y-106152182D01*
X93970484Y-106160946D01*
X93922509Y-106211742D01*
X93854688Y-106228536D01*
X93788553Y-106205998D01*
X93749516Y-106160946D01*
X93745050Y-106152182D01*
X93620109Y-105980213D01*
X93469786Y-105829890D01*
X93297820Y-105704951D01*
X93108414Y-105608444D01*
X93108413Y-105608443D01*
X93108412Y-105608443D01*
X92906243Y-105542754D01*
X92906241Y-105542753D01*
X92906240Y-105542753D01*
X92744957Y-105517208D01*
X92696287Y-105509500D01*
X92483713Y-105509500D01*
X92435042Y-105517208D01*
X92273760Y-105542753D01*
X92273757Y-105542754D01*
X92121853Y-105592111D01*
X92071585Y-105608444D01*
X91882179Y-105704951D01*
X91710213Y-105829890D01*
X91559890Y-105980213D01*
X91434949Y-106152182D01*
X91430484Y-106160946D01*
X91382509Y-106211742D01*
X91314688Y-106228536D01*
X91248553Y-106205998D01*
X91209516Y-106160946D01*
X91205050Y-106152182D01*
X91080109Y-105980213D01*
X90929786Y-105829890D01*
X90757820Y-105704951D01*
X90568414Y-105608444D01*
X90568413Y-105608443D01*
X90568412Y-105608443D01*
X90366243Y-105542754D01*
X90366241Y-105542753D01*
X90366240Y-105542753D01*
X90204957Y-105517208D01*
X90156287Y-105509500D01*
X89943713Y-105509500D01*
X89895042Y-105517208D01*
X89733760Y-105542753D01*
X89733757Y-105542754D01*
X89581853Y-105592111D01*
X89531585Y-105608444D01*
X89342179Y-105704951D01*
X89170213Y-105829890D01*
X89019890Y-105980213D01*
X88894949Y-106152182D01*
X88890484Y-106160946D01*
X88842509Y-106211742D01*
X88774688Y-106228536D01*
X88708553Y-106205998D01*
X88669516Y-106160946D01*
X88665050Y-106152182D01*
X88540109Y-105980213D01*
X88389786Y-105829890D01*
X88217820Y-105704951D01*
X88028414Y-105608444D01*
X88028413Y-105608443D01*
X88028412Y-105608443D01*
X87826243Y-105542754D01*
X87826241Y-105542753D01*
X87826240Y-105542753D01*
X87664957Y-105517208D01*
X87616287Y-105509500D01*
X87403713Y-105509500D01*
X87355042Y-105517208D01*
X87193760Y-105542753D01*
X87193757Y-105542754D01*
X87041853Y-105592111D01*
X86991585Y-105608444D01*
X86802179Y-105704951D01*
X86630213Y-105829890D01*
X86479890Y-105980213D01*
X86354951Y-106152179D01*
X86258444Y-106341585D01*
X86192753Y-106543760D01*
X86159500Y-106753713D01*
X86159500Y-106966286D01*
X86186636Y-107137620D01*
X86192754Y-107176243D01*
X86257488Y-107375474D01*
X86258444Y-107378414D01*
X86354951Y-107567820D01*
X86479890Y-107739786D01*
X86630213Y-107890109D01*
X86802179Y-108015048D01*
X86802181Y-108015049D01*
X86802184Y-108015051D01*
X86811493Y-108019794D01*
X86862290Y-108067766D01*
X86879087Y-108135587D01*
X86856552Y-108201722D01*
X86811505Y-108240760D01*
X86802446Y-108245376D01*
X86802440Y-108245380D01*
X86748282Y-108284727D01*
X86748282Y-108284728D01*
X87380591Y-108917037D01*
X87317007Y-108934075D01*
X87202993Y-108999901D01*
X87109901Y-109092993D01*
X87044075Y-109207007D01*
X87027037Y-109270591D01*
X86394728Y-108638282D01*
X86394727Y-108638282D01*
X86355380Y-108692439D01*
X86258904Y-108881782D01*
X86193242Y-109083869D01*
X86193242Y-109083872D01*
X86160000Y-109293753D01*
X86160000Y-109506246D01*
X86193242Y-109716127D01*
X86193242Y-109716130D01*
X86258904Y-109918217D01*
X86355375Y-110107550D01*
X86394728Y-110161716D01*
X87027037Y-109529408D01*
X87044075Y-109592993D01*
X87109901Y-109707007D01*
X87202993Y-109800099D01*
X87317007Y-109865925D01*
X87380590Y-109882962D01*
X86748282Y-110515269D01*
X86748282Y-110515270D01*
X86802449Y-110554624D01*
X86991782Y-110651095D01*
X87193870Y-110716757D01*
X87403754Y-110750000D01*
X87616246Y-110750000D01*
X87826127Y-110716757D01*
X87826130Y-110716757D01*
X88028217Y-110651095D01*
X88217554Y-110554622D01*
X88271716Y-110515270D01*
X88271717Y-110515270D01*
X87639408Y-109882962D01*
X87702993Y-109865925D01*
X87817007Y-109800099D01*
X87910099Y-109707007D01*
X87975925Y-109592993D01*
X87992962Y-109529408D01*
X88625270Y-110161717D01*
X88625270Y-110161716D01*
X88664622Y-110107554D01*
X88669514Y-110097954D01*
X88717488Y-110047157D01*
X88785308Y-110030361D01*
X88851444Y-110052897D01*
X88890486Y-110097954D01*
X88895375Y-110107550D01*
X88934728Y-110161716D01*
X89567037Y-109529408D01*
X89584075Y-109592993D01*
X89649901Y-109707007D01*
X89742993Y-109800099D01*
X89857007Y-109865925D01*
X89920590Y-109882962D01*
X89288282Y-110515269D01*
X89288282Y-110515270D01*
X89342449Y-110554624D01*
X89531782Y-110651095D01*
X89733870Y-110716757D01*
X89943754Y-110750000D01*
X90156246Y-110750000D01*
X90366127Y-110716757D01*
X90366130Y-110716757D01*
X90568217Y-110651095D01*
X90757554Y-110554622D01*
X90811716Y-110515270D01*
X90811717Y-110515270D01*
X90179408Y-109882962D01*
X90242993Y-109865925D01*
X90357007Y-109800099D01*
X90450099Y-109707007D01*
X90515925Y-109592993D01*
X90532962Y-109529408D01*
X91165270Y-110161717D01*
X91165270Y-110161716D01*
X91204622Y-110107554D01*
X91209514Y-110097954D01*
X91257488Y-110047157D01*
X91325308Y-110030361D01*
X91391444Y-110052897D01*
X91430486Y-110097954D01*
X91435375Y-110107550D01*
X91474728Y-110161716D01*
X92107037Y-109529408D01*
X92124075Y-109592993D01*
X92189901Y-109707007D01*
X92282993Y-109800099D01*
X92397007Y-109865925D01*
X92460590Y-109882962D01*
X91828282Y-110515269D01*
X91828282Y-110515270D01*
X91882449Y-110554624D01*
X92071782Y-110651095D01*
X92273870Y-110716757D01*
X92483754Y-110750000D01*
X92696246Y-110750000D01*
X92906127Y-110716757D01*
X92906130Y-110716757D01*
X93108217Y-110651095D01*
X93297554Y-110554622D01*
X93351716Y-110515270D01*
X93351717Y-110515270D01*
X92719408Y-109882962D01*
X92782993Y-109865925D01*
X92897007Y-109800099D01*
X92990099Y-109707007D01*
X93055925Y-109592993D01*
X93072962Y-109529409D01*
X93705270Y-110161717D01*
X93705270Y-110161716D01*
X93744622Y-110107554D01*
X93749514Y-110097954D01*
X93797488Y-110047157D01*
X93865308Y-110030361D01*
X93931444Y-110052897D01*
X93970486Y-110097954D01*
X93975375Y-110107550D01*
X94014728Y-110161716D01*
X94647037Y-109529408D01*
X94664075Y-109592993D01*
X94729901Y-109707007D01*
X94822993Y-109800099D01*
X94937007Y-109865925D01*
X95000590Y-109882962D01*
X94368282Y-110515269D01*
X94368282Y-110515270D01*
X94422449Y-110554624D01*
X94611782Y-110651095D01*
X94813870Y-110716757D01*
X95023754Y-110750000D01*
X95236246Y-110750000D01*
X95446127Y-110716757D01*
X95446130Y-110716757D01*
X95648217Y-110651095D01*
X95837554Y-110554622D01*
X95891716Y-110515270D01*
X95891717Y-110515270D01*
X95259408Y-109882962D01*
X95322993Y-109865925D01*
X95437007Y-109800099D01*
X95530099Y-109707007D01*
X95595925Y-109592993D01*
X95612962Y-109529409D01*
X96245270Y-110161717D01*
X96245270Y-110161716D01*
X96284622Y-110107554D01*
X96289514Y-110097954D01*
X96337488Y-110047157D01*
X96405308Y-110030361D01*
X96471444Y-110052897D01*
X96510486Y-110097954D01*
X96515375Y-110107550D01*
X96554728Y-110161716D01*
X97187037Y-109529408D01*
X97204075Y-109592993D01*
X97269901Y-109707007D01*
X97362993Y-109800099D01*
X97477007Y-109865925D01*
X97540590Y-109882962D01*
X96908282Y-110515269D01*
X96908282Y-110515270D01*
X96962449Y-110554624D01*
X97151782Y-110651095D01*
X97353870Y-110716757D01*
X97563754Y-110750000D01*
X97776246Y-110750000D01*
X97986127Y-110716757D01*
X97986130Y-110716757D01*
X98188217Y-110651095D01*
X98377554Y-110554622D01*
X98431716Y-110515270D01*
X98431717Y-110515270D01*
X97799408Y-109882962D01*
X97862993Y-109865925D01*
X97977007Y-109800099D01*
X98070099Y-109707007D01*
X98135925Y-109592993D01*
X98152962Y-109529409D01*
X98785270Y-110161717D01*
X98785270Y-110161716D01*
X98824622Y-110107554D01*
X98829514Y-110097954D01*
X98877488Y-110047157D01*
X98945308Y-110030361D01*
X99011444Y-110052897D01*
X99050486Y-110097954D01*
X99055375Y-110107550D01*
X99094728Y-110161716D01*
X99727037Y-109529408D01*
X99744075Y-109592993D01*
X99809901Y-109707007D01*
X99902993Y-109800099D01*
X100017007Y-109865925D01*
X100080590Y-109882962D01*
X99448282Y-110515269D01*
X99448282Y-110515270D01*
X99502449Y-110554624D01*
X99691782Y-110651095D01*
X99893870Y-110716757D01*
X100103754Y-110750000D01*
X100316246Y-110750000D01*
X100526127Y-110716757D01*
X100526130Y-110716757D01*
X100728217Y-110651095D01*
X100917554Y-110554622D01*
X100971716Y-110515270D01*
X100971717Y-110515270D01*
X100339408Y-109882962D01*
X100402993Y-109865925D01*
X100517007Y-109800099D01*
X100610099Y-109707007D01*
X100675925Y-109592993D01*
X100692962Y-109529408D01*
X101325270Y-110161717D01*
X101325270Y-110161716D01*
X101364622Y-110107555D01*
X101369232Y-110098507D01*
X101417205Y-110047709D01*
X101485025Y-110030912D01*
X101551161Y-110053447D01*
X101590204Y-110098504D01*
X101594949Y-110107817D01*
X101719890Y-110279786D01*
X101870213Y-110430109D01*
X102042179Y-110555048D01*
X102042181Y-110555049D01*
X102042184Y-110555051D01*
X102231588Y-110651557D01*
X102433757Y-110717246D01*
X102643713Y-110750500D01*
X102643714Y-110750500D01*
X102856286Y-110750500D01*
X102856287Y-110750500D01*
X103066243Y-110717246D01*
X103268412Y-110651557D01*
X103457816Y-110555051D01*
X103523236Y-110507521D01*
X103629786Y-110430109D01*
X103629788Y-110430106D01*
X103629792Y-110430104D01*
X103780104Y-110279792D01*
X103780106Y-110279788D01*
X103780109Y-110279786D01*
X103905048Y-110107820D01*
X103905050Y-110107817D01*
X103905051Y-110107816D01*
X104001557Y-109918412D01*
X104067246Y-109716243D01*
X104100500Y-109506287D01*
X104100500Y-109506285D01*
X104101262Y-109501475D01*
X104102810Y-109501720D01*
X104125216Y-109442886D01*
X104181437Y-109401400D01*
X104251161Y-109396895D01*
X104271424Y-109403316D01*
X104378380Y-109447619D01*
X104378384Y-109447619D01*
X104378385Y-109447620D01*
X104518542Y-109475500D01*
X104518545Y-109475500D01*
X104661457Y-109475500D01*
X104755751Y-109456742D01*
X104801620Y-109447619D01*
X104933653Y-109392929D01*
X105052479Y-109313532D01*
X105153532Y-109212479D01*
X105232929Y-109093653D01*
X105287619Y-108961620D01*
X105315500Y-108821455D01*
X105315500Y-108678545D01*
X105315500Y-108678542D01*
X105287620Y-108538385D01*
X105287619Y-108538384D01*
X105287619Y-108538380D01*
X105232929Y-108406347D01*
X105232928Y-108406346D01*
X105232925Y-108406340D01*
X105153532Y-108287521D01*
X105153529Y-108287517D01*
X105052482Y-108186470D01*
X105052478Y-108186467D01*
X104933659Y-108107074D01*
X104933650Y-108107069D01*
X104801620Y-108052381D01*
X104801612Y-108052379D01*
X104701821Y-108032529D01*
X104639910Y-108000144D01*
X104638331Y-107998593D01*
X104337226Y-107697488D01*
X104337221Y-107697484D01*
X104208277Y-107623039D01*
X104208270Y-107623036D01*
X104192404Y-107618785D01*
X104132744Y-107582420D01*
X104102216Y-107519573D01*
X104100499Y-107499011D01*
X104100499Y-106906373D01*
X104120184Y-106839334D01*
X104172988Y-106793579D01*
X104242146Y-106783635D01*
X104293393Y-106803273D01*
X104303327Y-106809911D01*
X104303330Y-106809913D01*
X104303332Y-106809914D01*
X104435365Y-106864604D01*
X104435369Y-106864604D01*
X104435370Y-106864605D01*
X104575527Y-106892485D01*
X104575530Y-106892485D01*
X104718442Y-106892485D01*
X104812736Y-106873727D01*
X104858605Y-106864604D01*
X104990638Y-106809914D01*
X105109464Y-106730517D01*
X105210517Y-106629464D01*
X105289914Y-106510638D01*
X105344604Y-106378605D01*
X105370659Y-106247620D01*
X105372485Y-106238442D01*
X105372485Y-106095527D01*
X105343416Y-105949390D01*
X105345753Y-105948924D01*
X105345544Y-105926462D01*
X105344170Y-105893493D01*
X105345216Y-105891128D01*
X105345202Y-105889613D01*
X105357481Y-105860805D01*
X105359341Y-105857626D01*
X105436122Y-105742716D01*
X105459191Y-105687022D01*
X105463482Y-105679691D01*
X105482972Y-105661325D01*
X105499779Y-105640470D01*
X105508017Y-105637728D01*
X105514334Y-105631776D01*
X105540659Y-105626863D01*
X105566073Y-105618405D01*
X105574483Y-105620551D01*
X105583018Y-105618959D01*
X105607825Y-105629061D01*
X105633773Y-105635684D01*
X105639687Y-105642036D01*
X105647728Y-105645311D01*
X105663134Y-105667219D01*
X105681384Y-105686821D01*
X105683644Y-105696386D01*
X105687918Y-105702464D01*
X105688526Y-105717044D01*
X105694500Y-105742326D01*
X105694500Y-108565550D01*
X105694500Y-108714450D01*
X105704788Y-108752845D01*
X105733038Y-108858276D01*
X105733039Y-108858277D01*
X105807484Y-108987221D01*
X105807486Y-108987224D01*
X105807487Y-108987225D01*
X106747487Y-109927225D01*
X106852775Y-110032513D01*
X106852776Y-110032514D01*
X106852778Y-110032515D01*
X106870042Y-110042482D01*
X106981725Y-110106962D01*
X107125550Y-110145500D01*
X107452851Y-110145500D01*
X107519890Y-110165185D01*
X107521742Y-110166398D01*
X107606340Y-110222925D01*
X107606346Y-110222928D01*
X107606347Y-110222929D01*
X107738380Y-110277619D01*
X107738384Y-110277619D01*
X107738385Y-110277620D01*
X107878542Y-110305500D01*
X107878545Y-110305500D01*
X108021457Y-110305500D01*
X108115751Y-110286742D01*
X108161620Y-110277619D01*
X108293653Y-110222929D01*
X108412479Y-110143532D01*
X108513532Y-110042479D01*
X108592929Y-109923653D01*
X108647619Y-109791620D01*
X108662613Y-109716243D01*
X108675500Y-109651457D01*
X108675500Y-109508542D01*
X108647620Y-109368385D01*
X108647619Y-109368384D01*
X108647619Y-109368380D01*
X108602171Y-109258659D01*
X108592930Y-109236349D01*
X108592925Y-109236340D01*
X108513532Y-109117521D01*
X108513529Y-109117517D01*
X108412482Y-109016470D01*
X108412478Y-109016467D01*
X108367565Y-108986457D01*
X112729499Y-108986457D01*
X112757379Y-109126614D01*
X112757381Y-109126620D01*
X112812069Y-109258650D01*
X112812074Y-109258659D01*
X112891467Y-109377478D01*
X112891470Y-109377482D01*
X112992517Y-109478529D01*
X112992521Y-109478532D01*
X113111340Y-109557925D01*
X113111346Y-109557928D01*
X113111347Y-109557929D01*
X113243380Y-109612619D01*
X113243384Y-109612619D01*
X113243385Y-109612620D01*
X113383542Y-109640500D01*
X113383545Y-109640500D01*
X113526457Y-109640500D01*
X113620751Y-109621742D01*
X113666620Y-109612619D01*
X113798653Y-109557929D01*
X113917479Y-109478532D01*
X114018532Y-109377479D01*
X114097929Y-109258653D01*
X114152619Y-109126620D01*
X114174530Y-109016467D01*
X114180500Y-108986457D01*
X114180500Y-108843542D01*
X114152620Y-108703385D01*
X114152619Y-108703384D01*
X114152619Y-108703380D01*
X114097929Y-108571347D01*
X114097928Y-108571346D01*
X114097925Y-108571340D01*
X114018532Y-108452521D01*
X114018529Y-108452517D01*
X113917482Y-108351470D01*
X113917478Y-108351467D01*
X113798659Y-108272074D01*
X113798650Y-108272069D01*
X113666620Y-108217381D01*
X113666614Y-108217379D01*
X113526457Y-108189500D01*
X113526455Y-108189500D01*
X113383545Y-108189500D01*
X113383543Y-108189500D01*
X113243385Y-108217379D01*
X113243379Y-108217381D01*
X113111349Y-108272069D01*
X113111340Y-108272074D01*
X112992521Y-108351467D01*
X112992517Y-108351470D01*
X112891470Y-108452517D01*
X112891467Y-108452521D01*
X112812074Y-108571340D01*
X112812069Y-108571349D01*
X112757381Y-108703379D01*
X112757379Y-108703385D01*
X112729500Y-108843542D01*
X112729500Y-108843545D01*
X112729500Y-108986455D01*
X112729500Y-108986457D01*
X112729499Y-108986457D01*
X108367565Y-108986457D01*
X108298916Y-108940587D01*
X108298867Y-108940555D01*
X108293653Y-108937071D01*
X108293650Y-108937069D01*
X108161620Y-108882381D01*
X108161614Y-108882379D01*
X108021457Y-108854500D01*
X108021455Y-108854500D01*
X107878545Y-108854500D01*
X107878543Y-108854500D01*
X107738385Y-108882379D01*
X107738379Y-108882381D01*
X107606349Y-108937069D01*
X107606342Y-108937073D01*
X107541372Y-108980485D01*
X107474695Y-109001362D01*
X107407315Y-108982877D01*
X107384801Y-108965063D01*
X106861819Y-108442081D01*
X106828334Y-108380758D01*
X106825500Y-108354400D01*
X106825500Y-106511457D01*
X107624499Y-106511457D01*
X107652379Y-106651614D01*
X107652381Y-106651620D01*
X107707069Y-106783650D01*
X107707074Y-106783659D01*
X107786467Y-106902478D01*
X107786470Y-106902482D01*
X107887517Y-107003529D01*
X107887521Y-107003532D01*
X108006340Y-107082925D01*
X108006346Y-107082928D01*
X108006347Y-107082929D01*
X108138380Y-107137619D01*
X108138384Y-107137619D01*
X108138385Y-107137620D01*
X108278542Y-107165500D01*
X108278545Y-107165500D01*
X108421457Y-107165500D01*
X108515751Y-107146742D01*
X108561620Y-107137619D01*
X108693653Y-107082929D01*
X108812479Y-107003532D01*
X108913532Y-106902479D01*
X108992929Y-106783653D01*
X109047619Y-106651620D01*
X109075500Y-106511455D01*
X109075500Y-106368545D01*
X109075500Y-106368542D01*
X109047620Y-106228385D01*
X109047619Y-106228384D01*
X109047619Y-106228380D01*
X108992929Y-106096347D01*
X108992928Y-106096346D01*
X108992925Y-106096340D01*
X108913532Y-105977521D01*
X108913529Y-105977517D01*
X108812482Y-105876470D01*
X108812478Y-105876467D01*
X108693659Y-105797074D01*
X108693649Y-105797069D01*
X108632545Y-105771759D01*
X108632543Y-105771758D01*
X108561624Y-105742382D01*
X108561614Y-105742379D01*
X108421457Y-105714500D01*
X108421455Y-105714500D01*
X108278545Y-105714500D01*
X108278543Y-105714500D01*
X108138385Y-105742379D01*
X108138379Y-105742381D01*
X108006349Y-105797069D01*
X108006340Y-105797074D01*
X107887521Y-105876467D01*
X107887517Y-105876470D01*
X107786470Y-105977517D01*
X107786467Y-105977521D01*
X107707074Y-106096340D01*
X107707069Y-106096349D01*
X107652381Y-106228379D01*
X107652379Y-106228385D01*
X107624500Y-106368542D01*
X107624500Y-106368545D01*
X107624500Y-106511455D01*
X107624500Y-106511457D01*
X107624499Y-106511457D01*
X106825500Y-106511457D01*
X106825500Y-105662070D01*
X118644500Y-105662070D01*
X118644500Y-105917930D01*
X118654364Y-105980208D01*
X118684526Y-106170640D01*
X118763588Y-106413972D01*
X118763589Y-106413975D01*
X118879750Y-106641950D01*
X119030132Y-106848935D01*
X119030136Y-106848940D01*
X119211059Y-107029863D01*
X119211064Y-107029867D01*
X119326387Y-107113653D01*
X119418053Y-107180252D01*
X119520552Y-107232478D01*
X119646024Y-107296410D01*
X119646027Y-107296411D01*
X119723706Y-107321650D01*
X119889361Y-107375474D01*
X120142070Y-107415500D01*
X120142071Y-107415500D01*
X120397929Y-107415500D01*
X120397930Y-107415500D01*
X120650639Y-107375474D01*
X120893975Y-107296410D01*
X121121947Y-107180252D01*
X121328942Y-107029862D01*
X121509862Y-106848942D01*
X121660252Y-106641947D01*
X121776410Y-106413975D01*
X121855474Y-106170639D01*
X121895500Y-105917930D01*
X121895500Y-105662070D01*
X130074500Y-105662070D01*
X130074500Y-105917930D01*
X130084364Y-105980208D01*
X130114526Y-106170640D01*
X130193588Y-106413972D01*
X130193589Y-106413975D01*
X130309750Y-106641950D01*
X130460132Y-106848935D01*
X130460136Y-106848940D01*
X130641059Y-107029863D01*
X130641064Y-107029867D01*
X130756387Y-107113653D01*
X130848053Y-107180252D01*
X130950552Y-107232478D01*
X131076024Y-107296410D01*
X131076027Y-107296411D01*
X131153706Y-107321650D01*
X131319361Y-107375474D01*
X131572070Y-107415500D01*
X131572071Y-107415500D01*
X131827929Y-107415500D01*
X131827930Y-107415500D01*
X132080639Y-107375474D01*
X132323975Y-107296410D01*
X132551947Y-107180252D01*
X132758942Y-107029862D01*
X132939862Y-106848942D01*
X133090252Y-106641947D01*
X133206410Y-106413975D01*
X133285474Y-106170639D01*
X133325500Y-105917930D01*
X133325500Y-105662070D01*
X133285474Y-105409361D01*
X133221088Y-105211200D01*
X133206411Y-105166027D01*
X133206410Y-105166024D01*
X133125710Y-105007643D01*
X133090252Y-104938053D01*
X133046936Y-104878433D01*
X132939867Y-104731064D01*
X132939863Y-104731059D01*
X132758940Y-104550136D01*
X132758935Y-104550132D01*
X132551950Y-104399750D01*
X132551949Y-104399749D01*
X132551947Y-104399748D01*
X132478910Y-104362533D01*
X132323975Y-104283589D01*
X132323972Y-104283588D01*
X132080640Y-104204526D01*
X131943059Y-104182735D01*
X131827930Y-104164500D01*
X131572070Y-104164500D01*
X131487833Y-104177842D01*
X131319359Y-104204526D01*
X131076027Y-104283588D01*
X131076024Y-104283589D01*
X130848049Y-104399750D01*
X130641064Y-104550132D01*
X130641059Y-104550136D01*
X130460136Y-104731059D01*
X130460132Y-104731064D01*
X130309750Y-104938049D01*
X130193589Y-105166024D01*
X130193588Y-105166027D01*
X130114526Y-105409359D01*
X130085581Y-105592111D01*
X130074500Y-105662070D01*
X121895500Y-105662070D01*
X121855474Y-105409361D01*
X121791088Y-105211200D01*
X121776411Y-105166027D01*
X121776410Y-105166024D01*
X121695710Y-105007643D01*
X121660252Y-104938053D01*
X121616936Y-104878433D01*
X121509867Y-104731064D01*
X121509863Y-104731059D01*
X121328940Y-104550136D01*
X121328935Y-104550132D01*
X121121950Y-104399750D01*
X121121949Y-104399749D01*
X121121947Y-104399748D01*
X121048910Y-104362533D01*
X120893975Y-104283589D01*
X120893972Y-104283588D01*
X120650640Y-104204526D01*
X120513059Y-104182735D01*
X120397930Y-104164500D01*
X120142070Y-104164500D01*
X120057833Y-104177842D01*
X119889359Y-104204526D01*
X119646027Y-104283588D01*
X119646024Y-104283589D01*
X119418049Y-104399750D01*
X119211064Y-104550132D01*
X119211059Y-104550136D01*
X119030136Y-104731059D01*
X119030132Y-104731064D01*
X118879750Y-104938049D01*
X118763589Y-105166024D01*
X118763588Y-105166027D01*
X118684526Y-105409359D01*
X118655581Y-105592111D01*
X118644500Y-105662070D01*
X106825500Y-105662070D01*
X106825500Y-105265552D01*
X106825500Y-105265550D01*
X106786962Y-105121725D01*
X106712513Y-104992775D01*
X106607225Y-104887487D01*
X106161556Y-104441818D01*
X106128071Y-104380495D01*
X106133055Y-104310803D01*
X106174927Y-104254870D01*
X106240391Y-104230453D01*
X106273425Y-104232519D01*
X106313545Y-104240500D01*
X106456457Y-104240500D01*
X106550751Y-104221742D01*
X106596620Y-104212619D01*
X106728653Y-104157929D01*
X106847479Y-104078532D01*
X106948532Y-103977479D01*
X107027929Y-103858653D01*
X107082619Y-103726620D01*
X107110500Y-103586455D01*
X107110500Y-103443545D01*
X107110500Y-103443542D01*
X107082620Y-103303385D01*
X107082619Y-103303384D01*
X107082619Y-103303380D01*
X107027929Y-103171347D01*
X107027928Y-103171346D01*
X107027925Y-103171340D01*
X106948532Y-103052521D01*
X106948529Y-103052517D01*
X106847482Y-102951470D01*
X106847478Y-102951467D01*
X106728659Y-102872074D01*
X106728650Y-102872069D01*
X106596620Y-102817381D01*
X106596612Y-102817379D01*
X106496821Y-102797529D01*
X106434910Y-102765144D01*
X106433331Y-102763593D01*
X104858419Y-101188681D01*
X109679500Y-101188681D01*
X109679500Y-101531318D01*
X109717858Y-101871768D01*
X109717860Y-101871780D01*
X109717861Y-101871783D01*
X109733963Y-101942330D01*
X109794102Y-102205816D01*
X109794103Y-102205818D01*
X109907264Y-102529216D01*
X110055922Y-102837907D01*
X110077389Y-102872071D01*
X110238211Y-103128018D01*
X110364979Y-103286980D01*
X110441058Y-103382381D01*
X110451834Y-103395893D01*
X110694107Y-103638166D01*
X110961982Y-103851789D01*
X111252090Y-104034076D01*
X111560785Y-104182736D01*
X111884183Y-104295897D01*
X112218217Y-104372139D01*
X112218226Y-104372140D01*
X112218231Y-104372141D01*
X112445197Y-104397713D01*
X112558682Y-104410499D01*
X112558685Y-104410500D01*
X112558688Y-104410500D01*
X112901315Y-104410500D01*
X112901316Y-104410499D01*
X113093945Y-104388796D01*
X113241768Y-104372141D01*
X113241771Y-104372140D01*
X113241783Y-104372139D01*
X113575817Y-104295897D01*
X113899215Y-104182736D01*
X114207910Y-104034076D01*
X114498018Y-103851789D01*
X114765893Y-103638166D01*
X115008166Y-103395893D01*
X115221789Y-103128018D01*
X115404076Y-102837910D01*
X115504180Y-102630043D01*
X116562500Y-102630043D01*
X116562500Y-102849956D01*
X116591203Y-103067964D01*
X116648117Y-103280374D01*
X116732265Y-103483524D01*
X116732269Y-103483534D01*
X116842213Y-103673964D01*
X116890089Y-103736356D01*
X117535633Y-103090812D01*
X117544342Y-103111837D01*
X117630251Y-103240408D01*
X117739592Y-103349749D01*
X117868163Y-103435658D01*
X117889185Y-103444365D01*
X117243642Y-104089908D01*
X117243642Y-104089909D01*
X117306036Y-104137786D01*
X117496465Y-104247730D01*
X117496475Y-104247734D01*
X117699625Y-104331882D01*
X117912035Y-104388796D01*
X118130043Y-104417499D01*
X118130058Y-104417500D01*
X118349942Y-104417500D01*
X118349956Y-104417499D01*
X118567964Y-104388796D01*
X118780374Y-104331882D01*
X118983524Y-104247734D01*
X118983534Y-104247730D01*
X119173965Y-104137784D01*
X119236356Y-104089909D01*
X119236356Y-104089908D01*
X118590813Y-103444366D01*
X118611837Y-103435658D01*
X118740408Y-103349749D01*
X118849749Y-103240408D01*
X118935658Y-103111837D01*
X118944366Y-103090813D01*
X119589908Y-103736356D01*
X119589909Y-103736356D01*
X119637784Y-103673965D01*
X119747730Y-103483534D01*
X119747734Y-103483524D01*
X119831882Y-103280374D01*
X119888796Y-103067964D01*
X119917499Y-102849956D01*
X119917500Y-102849942D01*
X119917500Y-102630057D01*
X119917499Y-102630043D01*
X119888796Y-102412035D01*
X119831882Y-102199625D01*
X119747734Y-101996475D01*
X119747730Y-101996465D01*
X119637786Y-101806036D01*
X119589909Y-101743642D01*
X119589908Y-101743642D01*
X118944365Y-102389185D01*
X118935658Y-102368163D01*
X118849749Y-102239592D01*
X118740408Y-102130251D01*
X118611837Y-102044342D01*
X118590811Y-102035633D01*
X119236356Y-101390089D01*
X119173964Y-101342213D01*
X118983534Y-101232269D01*
X118983524Y-101232265D01*
X118780374Y-101148117D01*
X118567964Y-101091203D01*
X118349956Y-101062500D01*
X118130043Y-101062500D01*
X117912035Y-101091203D01*
X117699625Y-101148117D01*
X117496475Y-101232265D01*
X117496465Y-101232269D01*
X117306040Y-101342210D01*
X117306033Y-101342216D01*
X117243642Y-101390088D01*
X117243642Y-101390089D01*
X117889186Y-102035633D01*
X117868163Y-102044342D01*
X117739592Y-102130251D01*
X117630251Y-102239592D01*
X117544342Y-102368163D01*
X117535633Y-102389186D01*
X116890089Y-101743642D01*
X116890088Y-101743642D01*
X116842216Y-101806033D01*
X116842210Y-101806040D01*
X116732269Y-101996465D01*
X116732265Y-101996475D01*
X116648117Y-102199625D01*
X116591203Y-102412035D01*
X116562500Y-102630043D01*
X115504180Y-102630043D01*
X115552736Y-102529215D01*
X115665897Y-102205817D01*
X115742139Y-101871783D01*
X115743865Y-101856470D01*
X115771681Y-101609584D01*
X115780500Y-101531312D01*
X115780500Y-101188688D01*
X115764468Y-101046398D01*
X115742141Y-100848231D01*
X115742140Y-100848226D01*
X115742139Y-100848217D01*
X115665897Y-100514183D01*
X115552736Y-100190785D01*
X115419395Y-99913901D01*
X115404077Y-99882092D01*
X115399505Y-99874815D01*
X115221789Y-99591982D01*
X115008166Y-99324107D01*
X114765893Y-99081834D01*
X114736990Y-99058785D01*
X114671991Y-99006950D01*
X114498018Y-98868211D01*
X114207910Y-98685924D01*
X114207907Y-98685922D01*
X113899216Y-98537264D01*
X113575818Y-98424103D01*
X113575816Y-98424102D01*
X113318024Y-98365262D01*
X113241783Y-98347861D01*
X113241780Y-98347860D01*
X113241768Y-98347858D01*
X112901318Y-98309500D01*
X112901312Y-98309500D01*
X112558688Y-98309500D01*
X112558681Y-98309500D01*
X112218231Y-98347858D01*
X112218217Y-98347861D01*
X111884183Y-98424102D01*
X111884181Y-98424103D01*
X111560783Y-98537264D01*
X111252092Y-98685922D01*
X110961983Y-98868210D01*
X110694107Y-99081833D01*
X110451833Y-99324107D01*
X110238210Y-99591983D01*
X110055922Y-99882092D01*
X109907264Y-100190783D01*
X109794103Y-100514181D01*
X109794102Y-100514183D01*
X109717861Y-100848217D01*
X109717858Y-100848231D01*
X109679500Y-101188681D01*
X104858419Y-101188681D01*
X103830849Y-100161111D01*
X103794609Y-100119552D01*
X103778379Y-100108641D01*
X103764551Y-100094813D01*
X103730799Y-100075326D01*
X103705125Y-100055625D01*
X103705115Y-100055615D01*
X103705112Y-100055613D01*
X103657046Y-100007534D01*
X103657015Y-100007516D01*
X103656986Y-100007487D01*
X103590013Y-99968820D01*
X103528106Y-99933067D01*
X103528069Y-99933057D01*
X103528036Y-99933038D01*
X103528007Y-99933030D01*
X103456617Y-99913901D01*
X103384287Y-99894510D01*
X103384286Y-99894509D01*
X103384279Y-99894508D01*
X103384223Y-99894500D01*
X103384211Y-99894500D01*
X103309837Y-99894500D01*
X103235387Y-99894490D01*
X103235350Y-99894500D01*
X102097149Y-99894500D01*
X102030110Y-99874815D01*
X102028258Y-99873602D01*
X101943659Y-99817074D01*
X101943650Y-99817069D01*
X101811620Y-99762381D01*
X101811614Y-99762379D01*
X101671457Y-99734500D01*
X101671455Y-99734500D01*
X101528545Y-99734500D01*
X101528543Y-99734500D01*
X101388385Y-99762379D01*
X101388379Y-99762381D01*
X101256349Y-99817069D01*
X101256340Y-99817074D01*
X101137521Y-99896467D01*
X101137517Y-99896470D01*
X101036470Y-99997517D01*
X101036467Y-99997521D01*
X100957074Y-100116340D01*
X100957069Y-100116349D01*
X100902381Y-100248379D01*
X100902379Y-100248385D01*
X100874500Y-100388542D01*
X100874500Y-100388545D01*
X100874500Y-100531455D01*
X100874500Y-100531457D01*
X100874499Y-100531457D01*
X100902379Y-100671614D01*
X100902381Y-100671620D01*
X100957069Y-100803650D01*
X100957074Y-100803659D01*
X101036467Y-100922478D01*
X101036470Y-100922482D01*
X101137517Y-101023529D01*
X101137521Y-101023532D01*
X101256340Y-101102925D01*
X101256346Y-101102928D01*
X101256347Y-101102929D01*
X101388380Y-101157619D01*
X101388384Y-101157619D01*
X101388385Y-101157620D01*
X101528542Y-101185500D01*
X101528545Y-101185500D01*
X101671457Y-101185500D01*
X101765751Y-101166742D01*
X101811620Y-101157619D01*
X101943653Y-101102929D01*
X101961202Y-101091203D01*
X102028258Y-101046398D01*
X102094935Y-101025520D01*
X102097149Y-101025500D01*
X103044400Y-101025500D01*
X103111439Y-101045185D01*
X103132081Y-101061819D01*
X105445980Y-103375718D01*
X105479465Y-103437041D01*
X105474481Y-103506733D01*
X105432609Y-103562666D01*
X105367145Y-103587083D01*
X105298872Y-103572231D01*
X105282810Y-103561773D01*
X105277221Y-103557484D01*
X105148277Y-103483039D01*
X105148276Y-103483038D01*
X105092828Y-103468181D01*
X105004450Y-103444500D01*
X105004447Y-103444500D01*
X102845600Y-103444500D01*
X102778561Y-103424815D01*
X102757919Y-103408181D01*
X100331405Y-100981667D01*
X100297920Y-100920344D01*
X100297498Y-100918323D01*
X100277619Y-100818380D01*
X100222929Y-100686347D01*
X100222928Y-100686346D01*
X100222925Y-100686340D01*
X100143532Y-100567521D01*
X100143529Y-100567517D01*
X100042482Y-100466470D01*
X100042478Y-100466467D01*
X99923659Y-100387074D01*
X99923650Y-100387069D01*
X99791620Y-100332381D01*
X99791614Y-100332379D01*
X99651457Y-100304500D01*
X99651455Y-100304500D01*
X99508545Y-100304500D01*
X99508543Y-100304500D01*
X99368385Y-100332379D01*
X99368379Y-100332381D01*
X99236349Y-100387069D01*
X99236340Y-100387074D01*
X99117521Y-100466467D01*
X99117517Y-100466470D01*
X99016470Y-100567517D01*
X99016467Y-100567521D01*
X98937074Y-100686340D01*
X98937069Y-100686349D01*
X98882381Y-100818379D01*
X98882379Y-100818385D01*
X98854500Y-100958542D01*
X98854500Y-100958545D01*
X98854500Y-101101455D01*
X98854500Y-101101457D01*
X98854499Y-101101457D01*
X98882379Y-101241614D01*
X98882381Y-101241620D01*
X98937069Y-101373650D01*
X98937074Y-101373659D01*
X99016467Y-101492478D01*
X99016470Y-101492482D01*
X99117517Y-101593529D01*
X99117521Y-101593532D01*
X99236340Y-101672925D01*
X99236346Y-101672928D01*
X99236347Y-101672929D01*
X99368380Y-101727619D01*
X99468180Y-101747470D01*
X99530087Y-101779853D01*
X99531667Y-101781405D01*
X100886101Y-103135839D01*
X100900027Y-103161344D01*
X100916403Y-103185362D01*
X100916573Y-103191645D01*
X100919586Y-103197162D01*
X100917512Y-103226153D01*
X100918303Y-103255206D01*
X100915050Y-103260583D01*
X100914602Y-103266854D01*
X100897182Y-103290123D01*
X100882141Y-103314990D01*
X100875312Y-103319337D01*
X100872730Y-103322787D01*
X100852980Y-103334872D01*
X100849478Y-103336587D01*
X100774210Y-103367765D01*
X100742205Y-103389149D01*
X100734759Y-103392798D01*
X100708160Y-103397363D01*
X100682408Y-103405426D01*
X100668460Y-103404178D01*
X100665897Y-103404618D01*
X100663897Y-103403769D01*
X100656009Y-103403064D01*
X100619978Y-103395897D01*
X100477068Y-103395897D01*
X100477066Y-103395897D01*
X100336408Y-103423876D01*
X100266816Y-103417649D01*
X100264763Y-103416820D01*
X100237255Y-103405426D01*
X100181620Y-103382381D01*
X100181614Y-103382379D01*
X100041457Y-103354500D01*
X100041455Y-103354500D01*
X99898545Y-103354500D01*
X99898543Y-103354500D01*
X99758385Y-103382379D01*
X99758375Y-103382382D01*
X99648716Y-103427804D01*
X99579246Y-103435273D01*
X99553816Y-103427806D01*
X99544093Y-103423779D01*
X99544084Y-103423776D01*
X99403927Y-103395897D01*
X99403925Y-103395897D01*
X99261015Y-103395897D01*
X99261013Y-103395897D01*
X99120855Y-103423776D01*
X99120845Y-103423779D01*
X99028688Y-103461952D01*
X98959219Y-103469421D01*
X98933784Y-103461952D01*
X98841624Y-103423778D01*
X98841614Y-103423775D01*
X98701457Y-103395896D01*
X98701455Y-103395896D01*
X98558545Y-103395896D01*
X98558542Y-103395896D01*
X98417833Y-103423885D01*
X98348242Y-103417658D01*
X98305961Y-103389949D01*
X98292482Y-103376470D01*
X98292478Y-103376467D01*
X98173659Y-103297074D01*
X98173650Y-103297069D01*
X98041620Y-103242381D01*
X98041614Y-103242379D01*
X97925308Y-103219244D01*
X97897177Y-103204529D01*
X97868297Y-103191340D01*
X97866440Y-103188450D01*
X97863397Y-103186859D01*
X97847684Y-103159266D01*
X97830523Y-103132562D01*
X97829862Y-103127968D01*
X97828823Y-103126143D01*
X97825500Y-103097627D01*
X97825500Y-102917147D01*
X97845185Y-102850108D01*
X97846360Y-102848312D01*
X97902929Y-102763653D01*
X97957619Y-102631620D01*
X97977990Y-102529212D01*
X97985500Y-102491457D01*
X97985500Y-102348542D01*
X97957620Y-102208385D01*
X97957619Y-102208384D01*
X97957619Y-102208380D01*
X97902929Y-102076347D01*
X97902928Y-102076346D01*
X97902925Y-102076340D01*
X97823532Y-101957521D01*
X97823529Y-101957517D01*
X97722482Y-101856470D01*
X97722478Y-101856467D01*
X97603659Y-101777074D01*
X97603650Y-101777069D01*
X97471620Y-101722381D01*
X97471614Y-101722379D01*
X97331457Y-101694500D01*
X97331455Y-101694500D01*
X97188545Y-101694500D01*
X97188543Y-101694500D01*
X97048385Y-101722379D01*
X97048379Y-101722381D01*
X96916349Y-101777069D01*
X96916340Y-101777074D01*
X96797521Y-101856467D01*
X96797517Y-101856470D01*
X96696470Y-101957517D01*
X96696467Y-101957521D01*
X96617074Y-102076340D01*
X96617069Y-102076349D01*
X96562381Y-102208379D01*
X96562379Y-102208385D01*
X96534500Y-102348542D01*
X96534500Y-102348545D01*
X96534500Y-102491455D01*
X96534500Y-102491457D01*
X96534499Y-102491457D01*
X96562379Y-102631614D01*
X96562381Y-102631620D01*
X96617069Y-102763650D01*
X96617070Y-102763652D01*
X96617071Y-102763653D01*
X96673602Y-102848258D01*
X96694480Y-102914933D01*
X96694500Y-102917147D01*
X96694500Y-103224400D01*
X96685855Y-103253840D01*
X96679332Y-103283827D01*
X96675577Y-103288842D01*
X96674815Y-103291439D01*
X96658181Y-103312081D01*
X96502081Y-103468181D01*
X96440758Y-103501666D01*
X96414400Y-103504500D01*
X86714629Y-103504500D01*
X86647590Y-103484815D01*
X86645738Y-103483602D01*
X86553659Y-103422076D01*
X86553650Y-103422071D01*
X86421620Y-103367383D01*
X86421614Y-103367381D01*
X86281457Y-103339502D01*
X86281455Y-103339502D01*
X86179500Y-103339502D01*
X86170814Y-103336951D01*
X86161853Y-103338240D01*
X86137812Y-103327261D01*
X86112461Y-103319817D01*
X86106533Y-103312976D01*
X86098297Y-103309215D01*
X86084007Y-103286980D01*
X86066706Y-103267013D01*
X86064418Y-103256498D01*
X86060523Y-103250437D01*
X86055500Y-103215502D01*
X86055500Y-103157147D01*
X86075185Y-103090108D01*
X86076360Y-103088312D01*
X86132929Y-103003653D01*
X86187619Y-102871620D01*
X86202357Y-102797529D01*
X86215500Y-102731457D01*
X86215500Y-102588542D01*
X86187620Y-102448385D01*
X86187619Y-102448384D01*
X86187619Y-102448380D01*
X86132929Y-102316347D01*
X86132928Y-102316346D01*
X86132925Y-102316340D01*
X86053532Y-102197521D01*
X86053529Y-102197517D01*
X85954916Y-102098904D01*
X85921431Y-102037581D01*
X85926415Y-101967889D01*
X85939491Y-101942338D01*
X85951977Y-101923653D01*
X86006667Y-101791620D01*
X86027379Y-101687497D01*
X86034548Y-101651457D01*
X86034548Y-101508542D01*
X86006668Y-101368385D01*
X86006667Y-101368384D01*
X86006667Y-101368380D01*
X85951977Y-101236347D01*
X85951976Y-101236346D01*
X85951973Y-101236340D01*
X85872580Y-101117521D01*
X85872577Y-101117517D01*
X85771530Y-101016470D01*
X85771526Y-101016467D01*
X85652707Y-100937074D01*
X85652698Y-100937069D01*
X85520668Y-100882381D01*
X85520662Y-100882379D01*
X85450640Y-100868451D01*
X85388729Y-100836066D01*
X85386128Y-100833480D01*
X85378106Y-100825268D01*
X85363532Y-100803455D01*
X85262479Y-100702402D01*
X85249845Y-100693960D01*
X85240796Y-100684696D01*
X85230238Y-100664810D01*
X85215802Y-100647534D01*
X85212405Y-100631220D01*
X85208033Y-100622984D01*
X85208792Y-100613866D01*
X85205500Y-100598050D01*
X85205500Y-99954302D01*
X85225185Y-99887263D01*
X85241819Y-99866621D01*
X88302843Y-96805597D01*
X119070500Y-96805597D01*
X119070500Y-96994402D01*
X119100035Y-97180884D01*
X119158381Y-97360452D01*
X119244096Y-97528675D01*
X119355073Y-97681422D01*
X119488578Y-97814927D01*
X119641325Y-97925904D01*
X119720804Y-97966400D01*
X119809547Y-98011618D01*
X119809549Y-98011618D01*
X119809552Y-98011620D01*
X119883961Y-98035797D01*
X119989115Y-98069964D01*
X120036986Y-98077546D01*
X120175597Y-98099500D01*
X120175598Y-98099500D01*
X120364402Y-98099500D01*
X120364403Y-98099500D01*
X120550884Y-98069964D01*
X120730448Y-98011620D01*
X120898675Y-97925904D01*
X121051422Y-97814927D01*
X121184927Y-97681422D01*
X121295904Y-97528675D01*
X121381620Y-97360448D01*
X121422069Y-97235958D01*
X121461507Y-97178284D01*
X121525866Y-97151086D01*
X121594712Y-97163001D01*
X121646188Y-97210245D01*
X121657931Y-97235959D01*
X121698381Y-97360452D01*
X121784096Y-97528675D01*
X121895073Y-97681422D01*
X122028578Y-97814927D01*
X122181325Y-97925904D01*
X122260804Y-97966400D01*
X122349547Y-98011618D01*
X122349549Y-98011618D01*
X122349552Y-98011620D01*
X122423961Y-98035797D01*
X122529115Y-98069964D01*
X122576986Y-98077546D01*
X122715597Y-98099500D01*
X122715598Y-98099500D01*
X122904402Y-98099500D01*
X122904403Y-98099500D01*
X123090884Y-98069964D01*
X123270448Y-98011620D01*
X123438675Y-97925904D01*
X123591422Y-97814927D01*
X123724927Y-97681422D01*
X123835904Y-97528675D01*
X123921620Y-97360448D01*
X123962069Y-97235958D01*
X124001507Y-97178284D01*
X124065866Y-97151086D01*
X124134712Y-97163001D01*
X124186188Y-97210245D01*
X124197931Y-97235959D01*
X124238381Y-97360452D01*
X124324096Y-97528675D01*
X124435073Y-97681422D01*
X124568578Y-97814927D01*
X124721325Y-97925904D01*
X124800804Y-97966400D01*
X124889547Y-98011618D01*
X124889549Y-98011618D01*
X124889552Y-98011620D01*
X124963961Y-98035797D01*
X125069115Y-98069964D01*
X125116986Y-98077546D01*
X125255597Y-98099500D01*
X125255598Y-98099500D01*
X125444402Y-98099500D01*
X125444403Y-98099500D01*
X125630884Y-98069964D01*
X125810448Y-98011620D01*
X125978675Y-97925904D01*
X126131422Y-97814927D01*
X126264927Y-97681422D01*
X126375904Y-97528675D01*
X126461620Y-97360448D01*
X126502069Y-97235958D01*
X126541507Y-97178284D01*
X126605866Y-97151086D01*
X126674712Y-97163001D01*
X126726188Y-97210245D01*
X126737931Y-97235959D01*
X126778381Y-97360452D01*
X126864096Y-97528675D01*
X126975073Y-97681422D01*
X127108578Y-97814927D01*
X127261325Y-97925904D01*
X127340804Y-97966400D01*
X127429547Y-98011618D01*
X127429549Y-98011618D01*
X127429552Y-98011620D01*
X127503961Y-98035797D01*
X127609115Y-98069964D01*
X127656986Y-98077546D01*
X127795597Y-98099500D01*
X127795598Y-98099500D01*
X127984402Y-98099500D01*
X127984403Y-98099500D01*
X128170884Y-98069964D01*
X128350448Y-98011620D01*
X128518675Y-97925904D01*
X128671422Y-97814927D01*
X128804927Y-97681422D01*
X128915904Y-97528675D01*
X129001620Y-97360448D01*
X129042069Y-97235958D01*
X129081507Y-97178284D01*
X129145866Y-97151086D01*
X129214712Y-97163001D01*
X129266188Y-97210245D01*
X129277931Y-97235959D01*
X129318381Y-97360452D01*
X129404096Y-97528675D01*
X129515073Y-97681422D01*
X129648578Y-97814927D01*
X129801325Y-97925904D01*
X129880804Y-97966400D01*
X129969547Y-98011618D01*
X129969549Y-98011618D01*
X129969552Y-98011620D01*
X130043961Y-98035797D01*
X130149115Y-98069964D01*
X130196986Y-98077546D01*
X130335597Y-98099500D01*
X130335598Y-98099500D01*
X130524402Y-98099500D01*
X130524403Y-98099500D01*
X130663012Y-98077546D01*
X130732305Y-98086500D01*
X130785757Y-98131497D01*
X130806397Y-98198248D01*
X130787672Y-98265562D01*
X130756722Y-98299285D01*
X130643809Y-98383812D01*
X130557649Y-98498906D01*
X130557645Y-98498913D01*
X130507403Y-98633620D01*
X130507401Y-98633627D01*
X130501000Y-98693155D01*
X130501000Y-98913237D01*
X130481315Y-98980276D01*
X130428511Y-99026031D01*
X130359353Y-99035975D01*
X130295797Y-99006950D01*
X130266515Y-98969532D01*
X130185903Y-98811324D01*
X130074927Y-98658578D01*
X129941422Y-98525073D01*
X129788675Y-98414096D01*
X129620452Y-98328381D01*
X129440884Y-98270035D01*
X129279899Y-98244538D01*
X129254403Y-98240500D01*
X129065597Y-98240500D01*
X129043167Y-98244052D01*
X128879115Y-98270035D01*
X128699547Y-98328381D01*
X128531324Y-98414096D01*
X128378575Y-98525075D01*
X128245075Y-98658575D01*
X128134096Y-98811324D01*
X128048381Y-98979547D01*
X128007931Y-99104040D01*
X127968493Y-99161715D01*
X127904134Y-99188913D01*
X127835288Y-99176998D01*
X127783812Y-99129754D01*
X127772069Y-99104040D01*
X127731618Y-98979547D01*
X127645903Y-98811324D01*
X127534927Y-98658578D01*
X127401422Y-98525073D01*
X127248675Y-98414096D01*
X127080452Y-98328381D01*
X126900884Y-98270035D01*
X126739899Y-98244538D01*
X126714403Y-98240500D01*
X126525597Y-98240500D01*
X126503167Y-98244052D01*
X126339115Y-98270035D01*
X126159547Y-98328381D01*
X125991324Y-98414096D01*
X125838575Y-98525075D01*
X125705075Y-98658575D01*
X125594096Y-98811324D01*
X125508381Y-98979547D01*
X125467931Y-99104040D01*
X125428493Y-99161715D01*
X125364134Y-99188913D01*
X125295288Y-99176998D01*
X125243812Y-99129754D01*
X125232069Y-99104040D01*
X125191618Y-98979547D01*
X125105903Y-98811324D01*
X124994927Y-98658578D01*
X124861422Y-98525073D01*
X124708675Y-98414096D01*
X124540452Y-98328381D01*
X124360884Y-98270035D01*
X124199899Y-98244538D01*
X124174403Y-98240500D01*
X123985597Y-98240500D01*
X123963167Y-98244052D01*
X123799115Y-98270035D01*
X123619547Y-98328381D01*
X123451324Y-98414096D01*
X123298575Y-98525075D01*
X123165075Y-98658575D01*
X123054096Y-98811324D01*
X122968381Y-98979547D01*
X122927931Y-99104040D01*
X122888493Y-99161715D01*
X122824134Y-99188913D01*
X122755288Y-99176998D01*
X122703812Y-99129754D01*
X122692069Y-99104040D01*
X122651618Y-98979547D01*
X122565903Y-98811324D01*
X122454927Y-98658578D01*
X122321422Y-98525073D01*
X122168675Y-98414096D01*
X122000452Y-98328381D01*
X121820884Y-98270035D01*
X121659899Y-98244538D01*
X121634403Y-98240500D01*
X121445597Y-98240500D01*
X121423167Y-98244052D01*
X121259115Y-98270035D01*
X121079547Y-98328381D01*
X120911324Y-98414096D01*
X120758575Y-98525075D01*
X120625075Y-98658575D01*
X120514096Y-98811324D01*
X120428381Y-98979547D01*
X120370035Y-99159115D01*
X120340500Y-99345597D01*
X120340500Y-99534402D01*
X120370035Y-99720884D01*
X120428381Y-99900452D01*
X120507442Y-100055615D01*
X120514096Y-100068675D01*
X120625073Y-100221422D01*
X120758578Y-100354927D01*
X120911325Y-100465904D01*
X120970759Y-100496187D01*
X121079547Y-100551618D01*
X121079549Y-100551618D01*
X121079552Y-100551620D01*
X121174129Y-100582350D01*
X121259115Y-100609964D01*
X121341320Y-100622984D01*
X121445597Y-100639500D01*
X121445598Y-100639500D01*
X121634402Y-100639500D01*
X121634403Y-100639500D01*
X121820884Y-100609964D01*
X122000448Y-100551620D01*
X122168675Y-100465904D01*
X122321422Y-100354927D01*
X122454927Y-100221422D01*
X122565904Y-100068675D01*
X122651620Y-99900448D01*
X122692069Y-99775958D01*
X122731507Y-99718284D01*
X122795866Y-99691086D01*
X122864712Y-99703001D01*
X122916188Y-99750245D01*
X122927931Y-99775959D01*
X122968381Y-99900452D01*
X123047442Y-100055615D01*
X123054096Y-100068675D01*
X123165073Y-100221422D01*
X123298578Y-100354927D01*
X123451325Y-100465904D01*
X123510759Y-100496187D01*
X123619547Y-100551618D01*
X123619549Y-100551618D01*
X123619552Y-100551620D01*
X123714129Y-100582350D01*
X123799115Y-100609964D01*
X123881320Y-100622984D01*
X123985597Y-100639500D01*
X123985598Y-100639500D01*
X124174402Y-100639500D01*
X124174403Y-100639500D01*
X124360884Y-100609964D01*
X124540448Y-100551620D01*
X124708675Y-100465904D01*
X124861422Y-100354927D01*
X124994927Y-100221422D01*
X125105904Y-100068675D01*
X125191620Y-99900448D01*
X125232069Y-99775958D01*
X125271507Y-99718284D01*
X125335866Y-99691086D01*
X125404712Y-99703001D01*
X125456188Y-99750245D01*
X125467931Y-99775959D01*
X125508381Y-99900452D01*
X125587442Y-100055615D01*
X125594096Y-100068675D01*
X125705073Y-100221422D01*
X125838578Y-100354927D01*
X125991325Y-100465904D01*
X126050759Y-100496187D01*
X126159547Y-100551618D01*
X126159549Y-100551618D01*
X126159552Y-100551620D01*
X126254129Y-100582350D01*
X126339115Y-100609964D01*
X126421320Y-100622984D01*
X126525597Y-100639500D01*
X126525598Y-100639500D01*
X126714402Y-100639500D01*
X126714403Y-100639500D01*
X126900884Y-100609964D01*
X127080448Y-100551620D01*
X127248675Y-100465904D01*
X127401422Y-100354927D01*
X127534927Y-100221422D01*
X127645904Y-100068675D01*
X127731620Y-99900448D01*
X127772069Y-99775958D01*
X127811507Y-99718284D01*
X127875866Y-99691086D01*
X127944712Y-99703001D01*
X127996188Y-99750245D01*
X128007931Y-99775959D01*
X128048381Y-99900452D01*
X128127442Y-100055615D01*
X128134096Y-100068675D01*
X128245073Y-100221422D01*
X128378578Y-100354927D01*
X128531325Y-100465904D01*
X128590759Y-100496187D01*
X128699547Y-100551618D01*
X128699549Y-100551618D01*
X128699552Y-100551620D01*
X128794129Y-100582350D01*
X128879115Y-100609964D01*
X128961320Y-100622984D01*
X129065597Y-100639500D01*
X129065598Y-100639500D01*
X129254402Y-100639500D01*
X129254403Y-100639500D01*
X129440884Y-100609964D01*
X129620448Y-100551620D01*
X129788675Y-100465904D01*
X129941422Y-100354927D01*
X130074927Y-100221422D01*
X130185904Y-100068675D01*
X130266515Y-99910466D01*
X130314490Y-99859671D01*
X130382311Y-99842876D01*
X130448446Y-99865413D01*
X130491897Y-99920129D01*
X130501000Y-99966762D01*
X130501000Y-100186844D01*
X130507401Y-100246372D01*
X130507403Y-100246379D01*
X130557645Y-100381086D01*
X130557649Y-100381093D01*
X130643809Y-100496187D01*
X130643812Y-100496190D01*
X130758906Y-100582350D01*
X130758913Y-100582354D01*
X130893620Y-100632596D01*
X130893627Y-100632598D01*
X130953155Y-100638999D01*
X130953172Y-100639000D01*
X131450000Y-100639000D01*
X131450000Y-99809504D01*
X131528236Y-99854674D01*
X131641415Y-99885000D01*
X131758585Y-99885000D01*
X131871764Y-99854674D01*
X131950000Y-99809504D01*
X131950000Y-100639000D01*
X132446828Y-100639000D01*
X132446844Y-100638999D01*
X132506372Y-100632598D01*
X132506379Y-100632596D01*
X132641086Y-100582354D01*
X132641093Y-100582350D01*
X132756187Y-100496190D01*
X132756190Y-100496187D01*
X132842350Y-100381093D01*
X132842354Y-100381086D01*
X132892596Y-100246379D01*
X132892598Y-100246372D01*
X132898999Y-100186844D01*
X132899000Y-100186827D01*
X132899000Y-99690000D01*
X132069504Y-99690000D01*
X132114674Y-99611764D01*
X132145000Y-99498585D01*
X132145000Y-99381415D01*
X132114674Y-99268236D01*
X132069504Y-99190000D01*
X132899000Y-99190000D01*
X132899000Y-98693172D01*
X132898999Y-98693155D01*
X132892598Y-98633627D01*
X132892596Y-98633620D01*
X132842354Y-98498913D01*
X132842350Y-98498906D01*
X132756190Y-98383812D01*
X132756187Y-98383809D01*
X132641093Y-98297649D01*
X132641086Y-98297645D01*
X132506379Y-98247403D01*
X132506372Y-98247401D01*
X132446844Y-98241000D01*
X131950000Y-98241000D01*
X131950000Y-99070495D01*
X131871764Y-99025326D01*
X131758585Y-98995000D01*
X131641415Y-98995000D01*
X131528236Y-99025326D01*
X131450000Y-99070495D01*
X131450000Y-98241000D01*
X130956762Y-98241000D01*
X130889723Y-98221315D01*
X130843968Y-98168511D01*
X130834024Y-98099353D01*
X130863049Y-98035797D01*
X130900467Y-98006515D01*
X131058675Y-97925904D01*
X131211422Y-97814927D01*
X131344927Y-97681422D01*
X131455904Y-97528675D01*
X131541620Y-97360448D01*
X131599964Y-97180884D01*
X131629500Y-96994403D01*
X131629500Y-96805597D01*
X131599964Y-96619115D01*
X131541618Y-96439547D01*
X131455903Y-96271324D01*
X131344927Y-96118578D01*
X131211422Y-95985073D01*
X131058675Y-95874096D01*
X130890452Y-95788381D01*
X130710884Y-95730035D01*
X130549899Y-95704538D01*
X130524403Y-95700500D01*
X130335597Y-95700500D01*
X130313167Y-95704052D01*
X130149115Y-95730035D01*
X129969547Y-95788381D01*
X129801324Y-95874096D01*
X129648575Y-95985075D01*
X129515075Y-96118575D01*
X129404096Y-96271324D01*
X129318381Y-96439547D01*
X129277931Y-96564040D01*
X129238493Y-96621715D01*
X129174134Y-96648913D01*
X129105288Y-96636998D01*
X129053812Y-96589754D01*
X129042069Y-96564040D01*
X129001618Y-96439547D01*
X128915903Y-96271324D01*
X128804927Y-96118578D01*
X128671422Y-95985073D01*
X128518675Y-95874096D01*
X128350452Y-95788381D01*
X128170884Y-95730035D01*
X128009899Y-95704538D01*
X127984403Y-95700500D01*
X127795597Y-95700500D01*
X127773167Y-95704052D01*
X127609115Y-95730035D01*
X127429547Y-95788381D01*
X127261324Y-95874096D01*
X127108575Y-95985075D01*
X126975075Y-96118575D01*
X126864096Y-96271324D01*
X126778381Y-96439547D01*
X126737931Y-96564040D01*
X126698493Y-96621715D01*
X126634134Y-96648913D01*
X126565288Y-96636998D01*
X126513812Y-96589754D01*
X126502069Y-96564040D01*
X126461618Y-96439547D01*
X126375903Y-96271324D01*
X126264927Y-96118578D01*
X126131422Y-95985073D01*
X125978675Y-95874096D01*
X125810452Y-95788381D01*
X125630884Y-95730035D01*
X125469899Y-95704538D01*
X125444403Y-95700500D01*
X125255597Y-95700500D01*
X125233167Y-95704052D01*
X125069115Y-95730035D01*
X124889547Y-95788381D01*
X124721324Y-95874096D01*
X124568575Y-95985075D01*
X124435075Y-96118575D01*
X124324096Y-96271324D01*
X124238381Y-96439547D01*
X124197931Y-96564040D01*
X124158493Y-96621715D01*
X124094134Y-96648913D01*
X124025288Y-96636998D01*
X123973812Y-96589754D01*
X123962069Y-96564040D01*
X123921618Y-96439547D01*
X123835903Y-96271324D01*
X123724927Y-96118578D01*
X123591422Y-95985073D01*
X123438675Y-95874096D01*
X123270452Y-95788381D01*
X123090884Y-95730035D01*
X122929899Y-95704538D01*
X122904403Y-95700500D01*
X122715597Y-95700500D01*
X122693167Y-95704052D01*
X122529115Y-95730035D01*
X122349547Y-95788381D01*
X122181324Y-95874096D01*
X122028575Y-95985075D01*
X121895075Y-96118575D01*
X121784096Y-96271324D01*
X121698381Y-96439547D01*
X121657931Y-96564040D01*
X121618493Y-96621715D01*
X121554134Y-96648913D01*
X121485288Y-96636998D01*
X121433812Y-96589754D01*
X121422069Y-96564040D01*
X121381618Y-96439547D01*
X121295903Y-96271324D01*
X121184927Y-96118578D01*
X121051422Y-95985073D01*
X120898675Y-95874096D01*
X120730452Y-95788381D01*
X120550884Y-95730035D01*
X120389899Y-95704538D01*
X120364403Y-95700500D01*
X120175597Y-95700500D01*
X120153167Y-95704052D01*
X119989115Y-95730035D01*
X119809547Y-95788381D01*
X119641324Y-95874096D01*
X119488575Y-95985075D01*
X119355075Y-96118575D01*
X119244096Y-96271324D01*
X119158381Y-96439547D01*
X119100035Y-96619115D01*
X119070500Y-96805597D01*
X88302843Y-96805597D01*
X93596983Y-91511457D01*
X115984499Y-91511457D01*
X116012379Y-91651614D01*
X116012381Y-91651620D01*
X116067069Y-91783650D01*
X116067074Y-91783659D01*
X116146467Y-91902478D01*
X116146470Y-91902482D01*
X116247517Y-92003529D01*
X116247521Y-92003532D01*
X116366340Y-92082925D01*
X116366346Y-92082928D01*
X116366347Y-92082929D01*
X116498380Y-92137619D01*
X116498384Y-92137619D01*
X116498385Y-92137620D01*
X116638542Y-92165500D01*
X116638545Y-92165500D01*
X116781457Y-92165500D01*
X116875751Y-92146742D01*
X116921620Y-92137619D01*
X117053653Y-92082929D01*
X117172479Y-92003532D01*
X117273532Y-91902479D01*
X117352929Y-91783653D01*
X117407619Y-91651620D01*
X117418819Y-91595308D01*
X117451204Y-91533398D01*
X117511920Y-91498824D01*
X117540437Y-91495500D01*
X119205370Y-91495500D01*
X119272409Y-91515185D01*
X119318164Y-91567989D01*
X119328108Y-91637147D01*
X119323302Y-91657811D01*
X119310219Y-91698077D01*
X119285660Y-91773660D01*
X119254500Y-91970403D01*
X119254500Y-92169596D01*
X119285661Y-92366340D01*
X119285661Y-92366343D01*
X119347213Y-92555780D01*
X119347215Y-92555783D01*
X119437647Y-92733266D01*
X119554731Y-92894418D01*
X119695582Y-93035269D01*
X119856734Y-93152353D01*
X120034217Y-93242785D01*
X120034219Y-93242786D01*
X120223657Y-93304338D01*
X120223658Y-93304338D01*
X120223661Y-93304339D01*
X120420403Y-93335500D01*
X120420404Y-93335500D01*
X120619596Y-93335500D01*
X120619597Y-93335500D01*
X120816339Y-93304339D01*
X120816342Y-93304338D01*
X120816343Y-93304338D01*
X121005780Y-93242786D01*
X121005780Y-93242785D01*
X121005783Y-93242785D01*
X121183266Y-93152353D01*
X121344418Y-93035269D01*
X121485269Y-92894418D01*
X121602353Y-92733266D01*
X121679515Y-92581827D01*
X121727490Y-92531031D01*
X121795311Y-92514236D01*
X121861446Y-92536773D01*
X121900485Y-92581827D01*
X121977647Y-92733266D01*
X122094731Y-92894418D01*
X122235582Y-93035269D01*
X122396734Y-93152353D01*
X122574217Y-93242785D01*
X122574219Y-93242786D01*
X122763657Y-93304338D01*
X122763658Y-93304338D01*
X122763661Y-93304339D01*
X122960403Y-93335500D01*
X122960404Y-93335500D01*
X123159596Y-93335500D01*
X123159597Y-93335500D01*
X123356339Y-93304339D01*
X123356342Y-93304338D01*
X123356343Y-93304338D01*
X123545780Y-93242786D01*
X123545780Y-93242785D01*
X123545783Y-93242785D01*
X123723266Y-93152353D01*
X123884418Y-93035269D01*
X124025269Y-92894418D01*
X124142353Y-92733266D01*
X124232785Y-92555783D01*
X124240827Y-92531031D01*
X124294338Y-92366343D01*
X124294338Y-92366342D01*
X124294339Y-92366339D01*
X124325500Y-92169597D01*
X124325500Y-91970403D01*
X127644500Y-91970403D01*
X127644500Y-92169596D01*
X127675661Y-92366340D01*
X127675661Y-92366343D01*
X127737213Y-92555780D01*
X127737215Y-92555783D01*
X127827647Y-92733266D01*
X127944731Y-92894418D01*
X128085582Y-93035269D01*
X128246734Y-93152353D01*
X128424217Y-93242785D01*
X128424219Y-93242786D01*
X128613657Y-93304338D01*
X128613658Y-93304338D01*
X128613661Y-93304339D01*
X128810403Y-93335500D01*
X128810404Y-93335500D01*
X129009596Y-93335500D01*
X129009597Y-93335500D01*
X129206339Y-93304339D01*
X129206342Y-93304338D01*
X129206343Y-93304338D01*
X129395780Y-93242786D01*
X129395780Y-93242785D01*
X129395783Y-93242785D01*
X129573266Y-93152353D01*
X129734418Y-93035269D01*
X129875269Y-92894418D01*
X129992353Y-92733266D01*
X130069515Y-92581827D01*
X130117490Y-92531031D01*
X130185311Y-92514236D01*
X130251446Y-92536773D01*
X130290485Y-92581827D01*
X130367647Y-92733266D01*
X130484731Y-92894418D01*
X130625582Y-93035269D01*
X130786734Y-93152353D01*
X130964217Y-93242785D01*
X130964219Y-93242786D01*
X131153657Y-93304338D01*
X131153658Y-93304338D01*
X131153661Y-93304339D01*
X131350403Y-93335500D01*
X131350404Y-93335500D01*
X131549596Y-93335500D01*
X131549597Y-93335500D01*
X131746339Y-93304339D01*
X131746342Y-93304338D01*
X131746343Y-93304338D01*
X131935780Y-93242786D01*
X131935780Y-93242785D01*
X131935783Y-93242785D01*
X132113266Y-93152353D01*
X132274418Y-93035269D01*
X132415269Y-92894418D01*
X132532353Y-92733266D01*
X132622785Y-92555783D01*
X132630827Y-92531031D01*
X132684338Y-92366343D01*
X132684338Y-92366342D01*
X132684339Y-92366339D01*
X132715500Y-92169597D01*
X132715500Y-91970403D01*
X132684339Y-91773661D01*
X132684338Y-91773657D01*
X132684338Y-91773656D01*
X132622786Y-91584219D01*
X132532352Y-91406733D01*
X132415269Y-91245582D01*
X132274418Y-91104731D01*
X132113266Y-90987647D01*
X132093385Y-90977517D01*
X131935780Y-90897213D01*
X131746342Y-90835661D01*
X131598782Y-90812290D01*
X131549597Y-90804500D01*
X131350403Y-90804500D01*
X131294539Y-90813348D01*
X131153659Y-90835661D01*
X131153656Y-90835661D01*
X130964219Y-90897213D01*
X130786733Y-90987647D01*
X130694790Y-91054447D01*
X130625582Y-91104731D01*
X130625580Y-91104733D01*
X130625579Y-91104733D01*
X130484733Y-91245579D01*
X130484733Y-91245580D01*
X130484731Y-91245582D01*
X130434447Y-91314790D01*
X130367647Y-91406733D01*
X130290485Y-91558172D01*
X130242510Y-91608968D01*
X130174689Y-91625763D01*
X130108554Y-91603225D01*
X130069515Y-91558172D01*
X129992352Y-91406733D01*
X129875269Y-91245582D01*
X129734418Y-91104731D01*
X129573266Y-90987647D01*
X129553385Y-90977517D01*
X129395780Y-90897213D01*
X129206342Y-90835661D01*
X129058782Y-90812290D01*
X129009597Y-90804500D01*
X128810403Y-90804500D01*
X128754539Y-90813348D01*
X128613659Y-90835661D01*
X128613656Y-90835661D01*
X128424219Y-90897213D01*
X128246733Y-90987647D01*
X128154790Y-91054447D01*
X128085582Y-91104731D01*
X128085580Y-91104733D01*
X128085579Y-91104733D01*
X127944733Y-91245579D01*
X127944733Y-91245580D01*
X127944731Y-91245582D01*
X127894447Y-91314790D01*
X127827647Y-91406733D01*
X127737213Y-91584219D01*
X127675661Y-91773656D01*
X127675661Y-91773659D01*
X127644500Y-91970403D01*
X124325500Y-91970403D01*
X124294339Y-91773661D01*
X124294338Y-91773657D01*
X124294338Y-91773656D01*
X124232786Y-91584219D01*
X124142352Y-91406733D01*
X124025269Y-91245582D01*
X123884418Y-91104731D01*
X123723266Y-90987647D01*
X123703385Y-90977517D01*
X123545780Y-90897213D01*
X123356342Y-90835661D01*
X123208782Y-90812290D01*
X123159597Y-90804500D01*
X122960403Y-90804500D01*
X122904539Y-90813348D01*
X122763659Y-90835661D01*
X122763656Y-90835661D01*
X122574219Y-90897213D01*
X122396733Y-90987647D01*
X122304790Y-91054447D01*
X122235582Y-91104731D01*
X122235580Y-91104733D01*
X122235579Y-91104733D01*
X122094733Y-91245579D01*
X122094733Y-91245580D01*
X122094731Y-91245582D01*
X122044447Y-91314790D01*
X121977647Y-91406733D01*
X121900485Y-91558172D01*
X121852510Y-91608968D01*
X121784689Y-91625763D01*
X121718554Y-91603225D01*
X121679515Y-91558172D01*
X121602352Y-91406733D01*
X121485269Y-91245582D01*
X121344418Y-91104731D01*
X121183266Y-90987647D01*
X121163385Y-90977517D01*
X121005780Y-90897213D01*
X120816341Y-90835661D01*
X120675466Y-90813348D01*
X120612331Y-90783418D01*
X120575400Y-90724107D01*
X120576398Y-90654244D01*
X120580304Y-90643421D01*
X120597617Y-90601624D01*
X120597619Y-90601620D01*
X120622311Y-90477487D01*
X120625500Y-90461457D01*
X120625500Y-90318542D01*
X120597620Y-90178385D01*
X120597619Y-90178384D01*
X120597619Y-90178380D01*
X120542929Y-90046347D01*
X120542928Y-90046346D01*
X120542925Y-90046340D01*
X120463532Y-89927521D01*
X120463529Y-89927517D01*
X120362482Y-89826470D01*
X120362478Y-89826467D01*
X120243659Y-89747074D01*
X120243650Y-89747069D01*
X120111620Y-89692381D01*
X120111614Y-89692379D01*
X119971457Y-89664500D01*
X119971455Y-89664500D01*
X119828545Y-89664500D01*
X119828543Y-89664500D01*
X119688385Y-89692379D01*
X119688379Y-89692381D01*
X119556349Y-89747069D01*
X119556340Y-89747074D01*
X119437521Y-89826467D01*
X119437517Y-89826470D01*
X119336470Y-89927517D01*
X119336467Y-89927521D01*
X119257074Y-90046340D01*
X119257069Y-90046349D01*
X119202381Y-90178379D01*
X119202379Y-90178387D01*
X119185212Y-90264691D01*
X119152827Y-90326602D01*
X119092111Y-90361176D01*
X119063595Y-90364500D01*
X117294450Y-90364500D01*
X117145550Y-90364500D01*
X117059255Y-90387622D01*
X117001723Y-90403038D01*
X117001722Y-90403039D01*
X116872778Y-90477484D01*
X116872777Y-90477485D01*
X116661667Y-90688594D01*
X116600344Y-90722078D01*
X116598178Y-90722529D01*
X116498385Y-90742379D01*
X116498379Y-90742381D01*
X116366349Y-90797069D01*
X116366340Y-90797074D01*
X116247521Y-90876467D01*
X116247517Y-90876470D01*
X116146470Y-90977517D01*
X116146467Y-90977521D01*
X116067074Y-91096340D01*
X116067069Y-91096349D01*
X116012381Y-91228379D01*
X116012379Y-91228385D01*
X115984500Y-91368542D01*
X115984500Y-91368545D01*
X115984500Y-91511455D01*
X115984500Y-91511457D01*
X115984499Y-91511457D01*
X93596983Y-91511457D01*
X97966621Y-87141819D01*
X98027944Y-87108334D01*
X98054302Y-87105500D01*
X98328115Y-87105500D01*
X98395154Y-87125185D01*
X98428453Y-87157893D01*
X98428603Y-87157771D01*
X98429743Y-87159160D01*
X98431216Y-87160607D01*
X98432467Y-87162480D01*
X98533516Y-87263529D01*
X98533520Y-87263532D01*
X98652339Y-87342925D01*
X98652345Y-87342928D01*
X98652346Y-87342929D01*
X98784379Y-87397619D01*
X98784383Y-87397619D01*
X98784384Y-87397620D01*
X98924541Y-87425500D01*
X98924544Y-87425500D01*
X99067456Y-87425500D01*
X99161750Y-87406742D01*
X99207619Y-87397619D01*
X99339652Y-87342929D01*
X99458478Y-87263532D01*
X99559531Y-87162479D01*
X99638928Y-87043653D01*
X99693618Y-86911620D01*
X99710353Y-86827488D01*
X99721499Y-86771457D01*
X99721499Y-86628542D01*
X99693619Y-86488385D01*
X99693618Y-86488384D01*
X99693618Y-86488380D01*
X99655953Y-86397450D01*
X99648485Y-86327984D01*
X99655952Y-86302552D01*
X99693618Y-86211620D01*
X99721499Y-86071455D01*
X99721499Y-85928545D01*
X99721499Y-85928542D01*
X99693619Y-85788385D01*
X99693618Y-85788384D01*
X99693618Y-85788380D01*
X99638928Y-85656347D01*
X99638927Y-85656346D01*
X99638924Y-85656340D01*
X99559531Y-85537521D01*
X99559528Y-85537517D01*
X99458481Y-85436470D01*
X99458477Y-85436467D01*
X99339658Y-85357074D01*
X99339649Y-85357069D01*
X99207619Y-85302381D01*
X99207613Y-85302379D01*
X99067456Y-85274500D01*
X99067454Y-85274500D01*
X98924544Y-85274500D01*
X98924542Y-85274500D01*
X98784384Y-85302379D01*
X98784378Y-85302381D01*
X98652348Y-85357069D01*
X98652339Y-85357074D01*
X98533520Y-85436467D01*
X98533516Y-85436470D01*
X98432467Y-85537519D01*
X98431216Y-85539393D01*
X98430306Y-85540152D01*
X98428603Y-85542229D01*
X98428209Y-85541905D01*
X98377603Y-85584197D01*
X98328115Y-85594500D01*
X97536848Y-85594500D01*
X97450553Y-85617622D01*
X97393021Y-85633038D01*
X97393020Y-85633039D01*
X97270608Y-85703714D01*
X97264076Y-85707485D01*
X97264070Y-85707489D01*
X96013386Y-86958173D01*
X95952063Y-86991658D01*
X95882371Y-86986674D01*
X95826438Y-86944802D01*
X95810695Y-86913699D01*
X95809950Y-86914008D01*
X95752930Y-86776349D01*
X95752925Y-86776340D01*
X95673532Y-86657521D01*
X95673529Y-86657517D01*
X95572482Y-86556470D01*
X95572478Y-86556467D01*
X95453659Y-86477074D01*
X95453650Y-86477069D01*
X95321620Y-86422381D01*
X95321614Y-86422379D01*
X95181457Y-86394500D01*
X95181455Y-86394500D01*
X95038545Y-86394500D01*
X95038543Y-86394500D01*
X94898385Y-86422379D01*
X94898379Y-86422381D01*
X94766349Y-86477069D01*
X94766340Y-86477074D01*
X94647521Y-86556467D01*
X94647517Y-86556470D01*
X94546468Y-86657519D01*
X94545217Y-86659393D01*
X94544307Y-86660152D01*
X94542604Y-86662229D01*
X94542210Y-86661905D01*
X94491604Y-86704197D01*
X94442116Y-86714500D01*
X93875748Y-86714500D01*
X93726848Y-86714500D01*
X93640553Y-86737622D01*
X93583021Y-86753038D01*
X93583020Y-86753039D01*
X93454076Y-86827484D01*
X93454071Y-86827488D01*
X87561943Y-92719616D01*
X87500620Y-92753101D01*
X87453946Y-92753518D01*
X87453928Y-92753711D01*
X87452136Y-92753534D01*
X87450075Y-92753553D01*
X87447869Y-92753114D01*
X87447865Y-92753114D01*
X87304955Y-92753114D01*
X87304953Y-92753114D01*
X87164795Y-92780993D01*
X87164789Y-92780995D01*
X87032759Y-92835683D01*
X87032750Y-92835688D01*
X86913931Y-92915081D01*
X86913927Y-92915084D01*
X86812880Y-93016131D01*
X86812877Y-93016135D01*
X86733484Y-93134954D01*
X86733479Y-93134963D01*
X86678791Y-93266993D01*
X86678789Y-93266999D01*
X86650910Y-93407156D01*
X86650910Y-93407159D01*
X86650910Y-93550069D01*
X86650910Y-93550071D01*
X86650909Y-93550071D01*
X86678789Y-93690228D01*
X86678791Y-93690234D01*
X86733479Y-93822264D01*
X86733484Y-93822273D01*
X86812877Y-93941092D01*
X86812880Y-93941096D01*
X86913927Y-94042143D01*
X86913931Y-94042146D01*
X87032750Y-94121539D01*
X87032754Y-94121541D01*
X87032757Y-94121543D01*
X87074003Y-94138627D01*
X87123685Y-94159207D01*
X87178088Y-94203048D01*
X87190793Y-94226315D01*
X87228455Y-94317239D01*
X87228460Y-94317249D01*
X87307853Y-94436068D01*
X87307856Y-94436072D01*
X87408903Y-94537119D01*
X87408907Y-94537122D01*
X87527726Y-94616515D01*
X87527732Y-94616518D01*
X87527733Y-94616519D01*
X87659766Y-94671209D01*
X87659770Y-94671209D01*
X87659771Y-94671210D01*
X87799928Y-94699090D01*
X87799931Y-94699090D01*
X87942839Y-94699090D01*
X87942841Y-94699090D01*
X87953397Y-94696990D01*
X88022986Y-94703216D01*
X88078165Y-94746077D01*
X88101412Y-94811966D01*
X88085346Y-94879963D01*
X88065271Y-94906288D01*
X83912775Y-99058785D01*
X83807488Y-99164071D01*
X83807484Y-99164076D01*
X83733039Y-99293020D01*
X83733038Y-99293021D01*
X83724709Y-99324107D01*
X83694500Y-99436848D01*
X83694500Y-99436850D01*
X83694500Y-100598050D01*
X83674815Y-100665089D01*
X83642104Y-100698391D01*
X83642227Y-100698540D01*
X83640843Y-100699675D01*
X83639396Y-100701149D01*
X83637520Y-100702402D01*
X83637515Y-100702406D01*
X83536470Y-100803451D01*
X83536467Y-100803455D01*
X83457074Y-100922274D01*
X83457069Y-100922283D01*
X83402381Y-101054313D01*
X83402379Y-101054319D01*
X83374500Y-101194476D01*
X83374500Y-101194479D01*
X83374500Y-101337389D01*
X83374500Y-101337391D01*
X83374499Y-101337391D01*
X67780500Y-101337391D01*
X67780500Y-101188688D01*
X67764468Y-101046398D01*
X67742141Y-100848231D01*
X67742140Y-100848226D01*
X67742139Y-100848217D01*
X67665897Y-100514183D01*
X67552736Y-100190785D01*
X67419395Y-99913901D01*
X67404077Y-99882092D01*
X67399505Y-99874815D01*
X67221789Y-99591982D01*
X67008166Y-99324107D01*
X66765893Y-99081834D01*
X66736990Y-99058785D01*
X66671991Y-99006950D01*
X66498018Y-98868211D01*
X66207910Y-98685924D01*
X66207907Y-98685922D01*
X65899216Y-98537264D01*
X65575818Y-98424103D01*
X65575816Y-98424102D01*
X65318024Y-98365262D01*
X65241783Y-98347861D01*
X65241780Y-98347860D01*
X65241768Y-98347858D01*
X64901318Y-98309500D01*
X64901312Y-98309500D01*
X64558688Y-98309500D01*
X64558681Y-98309500D01*
X64218231Y-98347858D01*
X64218217Y-98347861D01*
X63884183Y-98424102D01*
X63884181Y-98424103D01*
X63560783Y-98537264D01*
X63252092Y-98685922D01*
X62961983Y-98868210D01*
X62694107Y-99081833D01*
X62451833Y-99324107D01*
X62238210Y-99591983D01*
X62055922Y-99882092D01*
X61907264Y-100190783D01*
X61794103Y-100514181D01*
X61794102Y-100514183D01*
X61717861Y-100848217D01*
X61717858Y-100848231D01*
X61679500Y-101188681D01*
X60680500Y-101188681D01*
X60680500Y-84988205D01*
X122251600Y-84988205D01*
X122251600Y-85170194D01*
X122280070Y-85349945D01*
X122280070Y-85349948D01*
X122336306Y-85523024D01*
X122404234Y-85656340D01*
X122418929Y-85685181D01*
X122525900Y-85832414D01*
X122654586Y-85961100D01*
X122801819Y-86068071D01*
X122963973Y-86150692D01*
X122963975Y-86150693D01*
X123125415Y-86203147D01*
X123137056Y-86206930D01*
X123316805Y-86235400D01*
X123316806Y-86235400D01*
X123498794Y-86235400D01*
X123498795Y-86235400D01*
X123678544Y-86206930D01*
X123678547Y-86206929D01*
X123678548Y-86206929D01*
X123851624Y-86150693D01*
X123851624Y-86150692D01*
X123851627Y-86150692D01*
X124013781Y-86068071D01*
X124161014Y-85961100D01*
X124289700Y-85832414D01*
X124396671Y-85685181D01*
X124479292Y-85523027D01*
X124507417Y-85436467D01*
X124535529Y-85349948D01*
X124535529Y-85349947D01*
X124535530Y-85349944D01*
X124564000Y-85170195D01*
X124564000Y-84988205D01*
X124535530Y-84808456D01*
X124535529Y-84808452D01*
X124535529Y-84808451D01*
X124479293Y-84635375D01*
X124396670Y-84473218D01*
X124289700Y-84325986D01*
X124161014Y-84197300D01*
X124013781Y-84090329D01*
X123851624Y-84007706D01*
X123678546Y-83951470D01*
X123558711Y-83932490D01*
X123498795Y-83923000D01*
X123316805Y-83923000D01*
X123256888Y-83932490D01*
X123137054Y-83951470D01*
X123137051Y-83951470D01*
X122963975Y-84007706D01*
X122801818Y-84090329D01*
X122717816Y-84151360D01*
X122654586Y-84197300D01*
X122654584Y-84197302D01*
X122654583Y-84197302D01*
X122525902Y-84325983D01*
X122525902Y-84325984D01*
X122525900Y-84325986D01*
X122479960Y-84389216D01*
X122418929Y-84473218D01*
X122336306Y-84635375D01*
X122280070Y-84808451D01*
X122280070Y-84808454D01*
X122251600Y-84988205D01*
X60680500Y-84988205D01*
X60680500Y-77414637D01*
X119478300Y-77414637D01*
X119478300Y-77605362D01*
X119508136Y-77793741D01*
X119567071Y-77975128D01*
X119567072Y-77975131D01*
X119653661Y-78145069D01*
X119765767Y-78299370D01*
X119765769Y-78299372D01*
X119892016Y-78425619D01*
X119925501Y-78486942D01*
X119920517Y-78556634D01*
X119892016Y-78600981D01*
X119765769Y-78727227D01*
X119653661Y-78881530D01*
X119567072Y-79051468D01*
X119567071Y-79051471D01*
X119508136Y-79232858D01*
X119478300Y-79421237D01*
X119478300Y-79611962D01*
X119508136Y-79800341D01*
X119567071Y-79981728D01*
X119567072Y-79981731D01*
X119644533Y-80133754D01*
X119653661Y-80151669D01*
X119765767Y-80305970D01*
X119900630Y-80440833D01*
X120054931Y-80552939D01*
X120105154Y-80578529D01*
X120224868Y-80639527D01*
X120224871Y-80639528D01*
X120255928Y-80649619D01*
X120313603Y-80689056D01*
X120340802Y-80753415D01*
X120328887Y-80822261D01*
X120281643Y-80873737D01*
X120255928Y-80885481D01*
X120224871Y-80895571D01*
X120224868Y-80895572D01*
X120054930Y-80982161D01*
X119900627Y-81094269D01*
X119765769Y-81229127D01*
X119653661Y-81383430D01*
X119567072Y-81553368D01*
X119567071Y-81553371D01*
X119508136Y-81734758D01*
X119478300Y-81923137D01*
X119478300Y-82113862D01*
X119508136Y-82302241D01*
X119567071Y-82483628D01*
X119567072Y-82483631D01*
X119653661Y-82653569D01*
X119765767Y-82807870D01*
X119900630Y-82942733D01*
X120054931Y-83054839D01*
X120138280Y-83097307D01*
X120224868Y-83141427D01*
X120224871Y-83141428D01*
X120315564Y-83170895D01*
X120406260Y-83200364D01*
X120594637Y-83230200D01*
X120594638Y-83230200D01*
X120785362Y-83230200D01*
X120785363Y-83230200D01*
X120973740Y-83200364D01*
X121155131Y-83141427D01*
X121325069Y-83054839D01*
X121479370Y-82942733D01*
X121614233Y-82807870D01*
X121726339Y-82653569D01*
X121812927Y-82483631D01*
X121871864Y-82302240D01*
X121901700Y-82113863D01*
X121901700Y-81923137D01*
X121871864Y-81734760D01*
X121812927Y-81553369D01*
X121812927Y-81553368D01*
X121726338Y-81383430D01*
X121723846Y-81380000D01*
X121614233Y-81229130D01*
X121479370Y-81094267D01*
X121325069Y-80982161D01*
X121301202Y-80970000D01*
X121155131Y-80895572D01*
X121155125Y-80895570D01*
X121124072Y-80885481D01*
X121066396Y-80846044D01*
X121039197Y-80781686D01*
X121051111Y-80712840D01*
X121098355Y-80661363D01*
X121124072Y-80649619D01*
X121155125Y-80639529D01*
X121155131Y-80639527D01*
X121325069Y-80552939D01*
X121479370Y-80440833D01*
X121614233Y-80305970D01*
X121726339Y-80151669D01*
X121759566Y-80086457D01*
X126119499Y-80086457D01*
X126147379Y-80226614D01*
X126147381Y-80226620D01*
X126202069Y-80358650D01*
X126202074Y-80358659D01*
X126281467Y-80477478D01*
X126281470Y-80477482D01*
X126382517Y-80578529D01*
X126382521Y-80578532D01*
X126501340Y-80657925D01*
X126501346Y-80657928D01*
X126501347Y-80657929D01*
X126633380Y-80712619D01*
X126773545Y-80740500D01*
X126773555Y-80740500D01*
X126773773Y-80740522D01*
X126773889Y-80740568D01*
X126779520Y-80741689D01*
X126779307Y-80742756D01*
X126838562Y-80766678D01*
X126878925Y-80823709D01*
X126883245Y-80839735D01*
X126920348Y-81026266D01*
X126920350Y-81026274D01*
X126999500Y-81217358D01*
X126999505Y-81217368D01*
X127114410Y-81389335D01*
X127114413Y-81389339D01*
X127260660Y-81535586D01*
X127260664Y-81535589D01*
X127432631Y-81650494D01*
X127432641Y-81650499D01*
X127623725Y-81729649D01*
X127623733Y-81729651D01*
X127826579Y-81769999D01*
X127826583Y-81770000D01*
X127880000Y-81770000D01*
X127880000Y-81043067D01*
X127887213Y-81045000D01*
X128372787Y-81045000D01*
X128380000Y-81043067D01*
X128380000Y-81770000D01*
X128433417Y-81770000D01*
X128433420Y-81769999D01*
X128636266Y-81729651D01*
X128636274Y-81729649D01*
X128827358Y-81650499D01*
X128827368Y-81650494D01*
X128999335Y-81535589D01*
X128999339Y-81535586D01*
X129145586Y-81389339D01*
X129145589Y-81389335D01*
X129260494Y-81217368D01*
X129260499Y-81217358D01*
X129269560Y-81195485D01*
X129339648Y-81026276D01*
X129339649Y-81026274D01*
X129350843Y-80970000D01*
X128539618Y-80970000D01*
X128590064Y-80919554D01*
X128632851Y-80845445D01*
X128650388Y-80779999D01*
X129804950Y-80779999D01*
X129804950Y-80780000D01*
X130635025Y-80780000D01*
X130599930Y-80815095D01*
X130553852Y-80894905D01*
X130530000Y-80983922D01*
X130530000Y-81076078D01*
X130553852Y-81165095D01*
X130599930Y-81244905D01*
X130635025Y-81280000D01*
X129804950Y-81280000D01*
X129808932Y-81305144D01*
X129866082Y-81481037D01*
X129866084Y-81481043D01*
X129950052Y-81645837D01*
X130058754Y-81795454D01*
X130058758Y-81795459D01*
X130189540Y-81926241D01*
X130189545Y-81926245D01*
X130339162Y-82034947D01*
X130503956Y-82118915D01*
X130503959Y-82118916D01*
X130679852Y-82176066D01*
X130862527Y-82205000D01*
X130880000Y-82205000D01*
X130880000Y-81380000D01*
X131380000Y-81380000D01*
X131380000Y-82205000D01*
X131397473Y-82205000D01*
X131580147Y-82176066D01*
X131756040Y-82118916D01*
X131756043Y-82118915D01*
X131920837Y-82034947D01*
X132070454Y-81926245D01*
X132070459Y-81926241D01*
X132201241Y-81795459D01*
X132201245Y-81795454D01*
X132309947Y-81645837D01*
X132393915Y-81481043D01*
X132393917Y-81481037D01*
X132451067Y-81305144D01*
X132455049Y-81280000D01*
X131624975Y-81280000D01*
X131660070Y-81244905D01*
X131706148Y-81165095D01*
X131730000Y-81076078D01*
X131730000Y-80983922D01*
X131706148Y-80894905D01*
X131660070Y-80815095D01*
X131624975Y-80780000D01*
X132455050Y-80780000D01*
X132455049Y-80779999D01*
X132451067Y-80754855D01*
X132393917Y-80578962D01*
X132393915Y-80578956D01*
X132309947Y-80414162D01*
X132201245Y-80264545D01*
X132201241Y-80264540D01*
X132070459Y-80133758D01*
X132070454Y-80133754D01*
X131920837Y-80025052D01*
X131756043Y-79941084D01*
X131756040Y-79941083D01*
X131580147Y-79883933D01*
X131397473Y-79855000D01*
X131380000Y-79855000D01*
X131380000Y-80680000D01*
X130880000Y-80680000D01*
X130880000Y-79855000D01*
X130862527Y-79855000D01*
X130679852Y-79883933D01*
X130503959Y-79941083D01*
X130503956Y-79941084D01*
X130339162Y-80025052D01*
X130189545Y-80133754D01*
X130189540Y-80133758D01*
X130058758Y-80264540D01*
X130058754Y-80264545D01*
X129950052Y-80414162D01*
X129866084Y-80578956D01*
X129866082Y-80578962D01*
X129808932Y-80754855D01*
X129804950Y-80779999D01*
X128650388Y-80779999D01*
X128655000Y-80762787D01*
X128655000Y-80677213D01*
X128632851Y-80594555D01*
X128590064Y-80520446D01*
X128539618Y-80470000D01*
X129350843Y-80470000D01*
X129339649Y-80413725D01*
X129339648Y-80413723D01*
X129260499Y-80222641D01*
X129260494Y-80222631D01*
X129145589Y-80050664D01*
X129145586Y-80050660D01*
X128999339Y-79904413D01*
X128999335Y-79904410D01*
X128827368Y-79789505D01*
X128827358Y-79789500D01*
X128636274Y-79710350D01*
X128636266Y-79710348D01*
X128433420Y-79670000D01*
X128380000Y-79670000D01*
X128380000Y-80396932D01*
X128372787Y-80395000D01*
X127887213Y-80395000D01*
X127880000Y-80396932D01*
X127880000Y-79670000D01*
X127826579Y-79670000D01*
X127623721Y-79710350D01*
X127620479Y-79711334D01*
X127618698Y-79711349D01*
X127617752Y-79711538D01*
X127617716Y-79711358D01*
X127550612Y-79711953D01*
X127491502Y-79674700D01*
X127481391Y-79661562D01*
X127408532Y-79552520D01*
X127307482Y-79451470D01*
X127307478Y-79451467D01*
X127188659Y-79372074D01*
X127188650Y-79372069D01*
X127056620Y-79317381D01*
X127056614Y-79317379D01*
X126916457Y-79289500D01*
X126916455Y-79289500D01*
X126773545Y-79289500D01*
X126773543Y-79289500D01*
X126633385Y-79317379D01*
X126633379Y-79317381D01*
X126501349Y-79372069D01*
X126501340Y-79372074D01*
X126382521Y-79451467D01*
X126382517Y-79451470D01*
X126281470Y-79552517D01*
X126281467Y-79552521D01*
X126202074Y-79671340D01*
X126202069Y-79671349D01*
X126147381Y-79803379D01*
X126147379Y-79803385D01*
X126119500Y-79943542D01*
X126119500Y-79943545D01*
X126119500Y-80086455D01*
X126119500Y-80086457D01*
X126119499Y-80086457D01*
X121759566Y-80086457D01*
X121812927Y-79981731D01*
X121871864Y-79800340D01*
X121901700Y-79611963D01*
X121901700Y-79421237D01*
X121871864Y-79232860D01*
X121812927Y-79051469D01*
X121812927Y-79051468D01*
X121726338Y-78881530D01*
X121614233Y-78727230D01*
X121487984Y-78600981D01*
X121454499Y-78539658D01*
X121459483Y-78469966D01*
X121487984Y-78425619D01*
X121614233Y-78299370D01*
X121726339Y-78145069D01*
X121812927Y-77975131D01*
X121871864Y-77793740D01*
X121901700Y-77605363D01*
X121901700Y-77414637D01*
X121871864Y-77226260D01*
X121812927Y-77044869D01*
X121812927Y-77044868D01*
X121754398Y-76930000D01*
X121726339Y-76874931D01*
X121614233Y-76720630D01*
X121479370Y-76585767D01*
X121325069Y-76473661D01*
X121310514Y-76466245D01*
X121155131Y-76387072D01*
X121155125Y-76387070D01*
X121123263Y-76376718D01*
X121065587Y-76337281D01*
X121038388Y-76272923D01*
X121050302Y-76204076D01*
X121097546Y-76152600D01*
X121123262Y-76140856D01*
X121154936Y-76130564D01*
X121324799Y-76044014D01*
X121324812Y-76044006D01*
X121352347Y-76024001D01*
X121352348Y-76024000D01*
X120784464Y-75456116D01*
X120866473Y-75434142D01*
X120970727Y-75373951D01*
X121055851Y-75288827D01*
X121116042Y-75184573D01*
X121138016Y-75102564D01*
X121703818Y-75668366D01*
X121728591Y-75630000D01*
X126909157Y-75630000D01*
X127720382Y-75630000D01*
X127669936Y-75680446D01*
X127627149Y-75754555D01*
X127605000Y-75837213D01*
X127605000Y-75922787D01*
X127627149Y-76005445D01*
X127669936Y-76079554D01*
X127720382Y-76130000D01*
X126909157Y-76130000D01*
X126920350Y-76186274D01*
X126920351Y-76186276D01*
X126999500Y-76377358D01*
X126999505Y-76377368D01*
X127114410Y-76549335D01*
X127114413Y-76549339D01*
X127260660Y-76695586D01*
X127260664Y-76695589D01*
X127432631Y-76810494D01*
X127432641Y-76810499D01*
X127623725Y-76889649D01*
X127623733Y-76889651D01*
X127826579Y-76929999D01*
X127826583Y-76930000D01*
X127880000Y-76930000D01*
X127880000Y-76203067D01*
X127887213Y-76205000D01*
X128372787Y-76205000D01*
X128380000Y-76203067D01*
X128380000Y-76930000D01*
X128433417Y-76930000D01*
X128433420Y-76929999D01*
X128636266Y-76889651D01*
X128636274Y-76889649D01*
X128827358Y-76810499D01*
X128827368Y-76810494D01*
X128999335Y-76695589D01*
X128999339Y-76695586D01*
X129145586Y-76549339D01*
X129145589Y-76549335D01*
X129260494Y-76377368D01*
X129260499Y-76377358D01*
X129339648Y-76186276D01*
X129339649Y-76186274D01*
X129350843Y-76130000D01*
X128539618Y-76130000D01*
X128590064Y-76079554D01*
X128632851Y-76005445D01*
X128655000Y-75922787D01*
X128655000Y-75837213D01*
X128632851Y-75754555D01*
X128590064Y-75680446D01*
X128539618Y-75630000D01*
X129350843Y-75630000D01*
X129339649Y-75573725D01*
X129339648Y-75573723D01*
X129269560Y-75404515D01*
X129260499Y-75382641D01*
X129260494Y-75382631D01*
X129218645Y-75319999D01*
X129804950Y-75319999D01*
X129804950Y-75320000D01*
X130635025Y-75320000D01*
X130599930Y-75355095D01*
X130553852Y-75434905D01*
X130530000Y-75523922D01*
X130530000Y-75616078D01*
X130553852Y-75705095D01*
X130599930Y-75784905D01*
X130635025Y-75820000D01*
X129804950Y-75820000D01*
X129808932Y-75845144D01*
X129866082Y-76021037D01*
X129866084Y-76021043D01*
X129950052Y-76185837D01*
X130058754Y-76335454D01*
X130058758Y-76335459D01*
X130189540Y-76466241D01*
X130189545Y-76466245D01*
X130339162Y-76574947D01*
X130503956Y-76658915D01*
X130503959Y-76658916D01*
X130679852Y-76716066D01*
X130862527Y-76745000D01*
X130880000Y-76745000D01*
X130880000Y-75920000D01*
X131380000Y-75920000D01*
X131380000Y-76745000D01*
X131397473Y-76745000D01*
X131580147Y-76716066D01*
X131756040Y-76658916D01*
X131756043Y-76658915D01*
X131920837Y-76574947D01*
X132070454Y-76466245D01*
X132070459Y-76466241D01*
X132201241Y-76335459D01*
X132201245Y-76335454D01*
X132309947Y-76185837D01*
X132393915Y-76021043D01*
X132393917Y-76021037D01*
X132451067Y-75845144D01*
X132455049Y-75820000D01*
X131624975Y-75820000D01*
X131660070Y-75784905D01*
X131706148Y-75705095D01*
X131730000Y-75616078D01*
X131730000Y-75523922D01*
X131706148Y-75434905D01*
X131660070Y-75355095D01*
X131624975Y-75320000D01*
X132455050Y-75320000D01*
X132455049Y-75319999D01*
X132451067Y-75294855D01*
X132393917Y-75118962D01*
X132393915Y-75118956D01*
X132309947Y-74954162D01*
X132201245Y-74804545D01*
X132201241Y-74804540D01*
X132070459Y-74673758D01*
X132070454Y-74673754D01*
X131920837Y-74565052D01*
X131756043Y-74481084D01*
X131756040Y-74481083D01*
X131580147Y-74423933D01*
X131397473Y-74395000D01*
X131380000Y-74395000D01*
X131380000Y-75220000D01*
X130880000Y-75220000D01*
X130880000Y-74395000D01*
X130862527Y-74395000D01*
X130679852Y-74423933D01*
X130503959Y-74481083D01*
X130503956Y-74481084D01*
X130339162Y-74565052D01*
X130189545Y-74673754D01*
X130189540Y-74673758D01*
X130058758Y-74804540D01*
X130058754Y-74804545D01*
X129950052Y-74954162D01*
X129866084Y-75118956D01*
X129866082Y-75118962D01*
X129808932Y-75294855D01*
X129804950Y-75319999D01*
X129218645Y-75319999D01*
X129145589Y-75210664D01*
X129145586Y-75210660D01*
X128999339Y-75064413D01*
X128999335Y-75064410D01*
X128827368Y-74949505D01*
X128827358Y-74949500D01*
X128636274Y-74870350D01*
X128636266Y-74870348D01*
X128433420Y-74830000D01*
X128380000Y-74830000D01*
X128380000Y-75556932D01*
X128372787Y-75555000D01*
X127887213Y-75555000D01*
X127880000Y-75556932D01*
X127880000Y-74830000D01*
X127826579Y-74830000D01*
X127623733Y-74870348D01*
X127623725Y-74870350D01*
X127432641Y-74949500D01*
X127432631Y-74949505D01*
X127260664Y-75064410D01*
X127260660Y-75064413D01*
X127114413Y-75210660D01*
X127114410Y-75210664D01*
X126999505Y-75382631D01*
X126999500Y-75382641D01*
X126920351Y-75573723D01*
X126920350Y-75573725D01*
X126909157Y-75630000D01*
X121728591Y-75630000D01*
X121747065Y-75601388D01*
X121812464Y-75473036D01*
X121871375Y-75291727D01*
X121871375Y-75291724D01*
X121901200Y-75103422D01*
X121901200Y-74912777D01*
X121871375Y-74724475D01*
X121871375Y-74724472D01*
X121812464Y-74543163D01*
X121725911Y-74373294D01*
X121705900Y-74345751D01*
X121138016Y-74913635D01*
X121116042Y-74831627D01*
X121055851Y-74727373D01*
X120970727Y-74642249D01*
X120866473Y-74582058D01*
X120784463Y-74560083D01*
X121352347Y-73992198D01*
X121352347Y-73992197D01*
X121324813Y-73972192D01*
X121154936Y-73885635D01*
X120973626Y-73826724D01*
X120785322Y-73796900D01*
X120594678Y-73796900D01*
X120406375Y-73826724D01*
X120406372Y-73826724D01*
X120225063Y-73885635D01*
X120055188Y-73972191D01*
X120055183Y-73972195D01*
X120027651Y-73992196D01*
X120027651Y-73992199D01*
X120595536Y-74560083D01*
X120513527Y-74582058D01*
X120409273Y-74642249D01*
X120324149Y-74727373D01*
X120263958Y-74831627D01*
X120241983Y-74913636D01*
X119674099Y-74345751D01*
X119674096Y-74345751D01*
X119654095Y-74373283D01*
X119654091Y-74373288D01*
X119567535Y-74543163D01*
X119508624Y-74724472D01*
X119508624Y-74724475D01*
X119478800Y-74912777D01*
X119478800Y-75103422D01*
X119508624Y-75291724D01*
X119508624Y-75291727D01*
X119567535Y-75473036D01*
X119654092Y-75642913D01*
X119674097Y-75670447D01*
X119674098Y-75670447D01*
X120241983Y-75102562D01*
X120263958Y-75184573D01*
X120324149Y-75288827D01*
X120409273Y-75373951D01*
X120513527Y-75434142D01*
X120595536Y-75456116D01*
X120027651Y-76024000D01*
X120055194Y-76044011D01*
X120225062Y-76130563D01*
X120256738Y-76140856D01*
X120314413Y-76180294D01*
X120341611Y-76244653D01*
X120329696Y-76313499D01*
X120282452Y-76364975D01*
X120256737Y-76376718D01*
X120224871Y-76387071D01*
X120224868Y-76387072D01*
X120054930Y-76473661D01*
X119900627Y-76585769D01*
X119765769Y-76720627D01*
X119653661Y-76874930D01*
X119567072Y-77044868D01*
X119567071Y-77044871D01*
X119508136Y-77226258D01*
X119478300Y-77414637D01*
X60680500Y-77414637D01*
X60680500Y-68188681D01*
X61679500Y-68188681D01*
X61679500Y-68531318D01*
X61717858Y-68871768D01*
X61717860Y-68871780D01*
X61717861Y-68871783D01*
X61735262Y-68948024D01*
X61794102Y-69205816D01*
X61794103Y-69205818D01*
X61907264Y-69529216D01*
X62055922Y-69837907D01*
X62055924Y-69837910D01*
X62238211Y-70128018D01*
X62355481Y-70275070D01*
X62411207Y-70344949D01*
X62451834Y-70395893D01*
X62694107Y-70638166D01*
X62961982Y-70851789D01*
X63252090Y-71034076D01*
X63560785Y-71182736D01*
X63884183Y-71295897D01*
X64218217Y-71372139D01*
X64218226Y-71372140D01*
X64218231Y-71372141D01*
X64417080Y-71394545D01*
X64558682Y-71410499D01*
X64558685Y-71410500D01*
X64558688Y-71410500D01*
X64901315Y-71410500D01*
X64901316Y-71410499D01*
X65075311Y-71390895D01*
X65241768Y-71372141D01*
X65241771Y-71372140D01*
X65241783Y-71372139D01*
X65575817Y-71295897D01*
X65899215Y-71182736D01*
X66207910Y-71034076D01*
X66498018Y-70851789D01*
X66765893Y-70638166D01*
X66982602Y-70421457D01*
X80214499Y-70421457D01*
X80242379Y-70561614D01*
X80242381Y-70561620D01*
X80297069Y-70693650D01*
X80297074Y-70693659D01*
X80376467Y-70812478D01*
X80376470Y-70812482D01*
X80477517Y-70913529D01*
X80477521Y-70913532D01*
X80596340Y-70992925D01*
X80596346Y-70992928D01*
X80596347Y-70992929D01*
X80728380Y-71047619D01*
X80828180Y-71067470D01*
X80890087Y-71099853D01*
X80891667Y-71101405D01*
X81708775Y-71918513D01*
X81708776Y-71918514D01*
X81708778Y-71918515D01*
X81726042Y-71928482D01*
X81837725Y-71992962D01*
X81981550Y-72031500D01*
X82130450Y-72031500D01*
X85932851Y-72031500D01*
X85999890Y-72051185D01*
X86001742Y-72052398D01*
X86086340Y-72108925D01*
X86086346Y-72108928D01*
X86086347Y-72108929D01*
X86218380Y-72163619D01*
X86218384Y-72163619D01*
X86218385Y-72163620D01*
X86358542Y-72191500D01*
X86358545Y-72191500D01*
X86501457Y-72191500D01*
X86595751Y-72172742D01*
X86641620Y-72163619D01*
X86773653Y-72108929D01*
X86892479Y-72029532D01*
X86993532Y-71928479D01*
X87041690Y-71856405D01*
X122251600Y-71856405D01*
X122251600Y-72038394D01*
X122280070Y-72218145D01*
X122280070Y-72218148D01*
X122336306Y-72391224D01*
X122355835Y-72429551D01*
X122418929Y-72553381D01*
X122525900Y-72700614D01*
X122654586Y-72829300D01*
X122801819Y-72936271D01*
X122963973Y-73018892D01*
X122963975Y-73018893D01*
X123125415Y-73071347D01*
X123137056Y-73075130D01*
X123316805Y-73103600D01*
X123316806Y-73103600D01*
X123498794Y-73103600D01*
X123498795Y-73103600D01*
X123678544Y-73075130D01*
X123678547Y-73075129D01*
X123678548Y-73075129D01*
X123851624Y-73018893D01*
X123851624Y-73018892D01*
X123851627Y-73018892D01*
X124013781Y-72936271D01*
X124161014Y-72829300D01*
X124289700Y-72700614D01*
X124396671Y-72553381D01*
X124479292Y-72391227D01*
X124479293Y-72391224D01*
X124535529Y-72218148D01*
X124535529Y-72218147D01*
X124535530Y-72218144D01*
X124564000Y-72038395D01*
X124564000Y-71856405D01*
X124535530Y-71676656D01*
X124535529Y-71676652D01*
X124535529Y-71676651D01*
X124479293Y-71503575D01*
X124449517Y-71445136D01*
X124423316Y-71393713D01*
X127159500Y-71393713D01*
X127159500Y-71606286D01*
X127191709Y-71809650D01*
X127192754Y-71816243D01*
X127250173Y-71992961D01*
X127258444Y-72018414D01*
X127354951Y-72207820D01*
X127479890Y-72379786D01*
X127630213Y-72530109D01*
X127802179Y-72655048D01*
X127802181Y-72655049D01*
X127802184Y-72655051D01*
X127991588Y-72751557D01*
X128193757Y-72817246D01*
X128403713Y-72850500D01*
X128403714Y-72850500D01*
X128616286Y-72850500D01*
X128616287Y-72850500D01*
X128826243Y-72817246D01*
X129028412Y-72751557D01*
X129217816Y-72655051D01*
X129304478Y-72592088D01*
X129389784Y-72530110D01*
X129389784Y-72530109D01*
X129389792Y-72530104D01*
X129503717Y-72416178D01*
X129565036Y-72382696D01*
X129634728Y-72387680D01*
X129690662Y-72429551D01*
X129707577Y-72460528D01*
X129756646Y-72592088D01*
X129756649Y-72592093D01*
X129842809Y-72707187D01*
X129842812Y-72707190D01*
X129957906Y-72793350D01*
X129957913Y-72793354D01*
X130092620Y-72843596D01*
X130092627Y-72843598D01*
X130152155Y-72849999D01*
X130152172Y-72850000D01*
X130800000Y-72850000D01*
X130800000Y-71933012D01*
X130857007Y-71965925D01*
X130984174Y-72000000D01*
X131115826Y-72000000D01*
X131242993Y-71965925D01*
X131300000Y-71933012D01*
X131300000Y-72850000D01*
X131947828Y-72850000D01*
X131947844Y-72849999D01*
X132007372Y-72843598D01*
X132007379Y-72843596D01*
X132142086Y-72793354D01*
X132142093Y-72793350D01*
X132257187Y-72707190D01*
X132257190Y-72707187D01*
X132343350Y-72592093D01*
X132343354Y-72592086D01*
X132393596Y-72457379D01*
X132393598Y-72457372D01*
X132399999Y-72397844D01*
X132400000Y-72397827D01*
X132400000Y-71750000D01*
X131483012Y-71750000D01*
X131515925Y-71692993D01*
X131550000Y-71565826D01*
X131550000Y-71434174D01*
X131515925Y-71307007D01*
X131483012Y-71250000D01*
X132400000Y-71250000D01*
X132400000Y-70602172D01*
X132399999Y-70602155D01*
X132393598Y-70542627D01*
X132393596Y-70542620D01*
X132343354Y-70407913D01*
X132343350Y-70407906D01*
X132257190Y-70292812D01*
X132257187Y-70292809D01*
X132142093Y-70206649D01*
X132142086Y-70206645D01*
X132007379Y-70156403D01*
X132007372Y-70156401D01*
X131947844Y-70150000D01*
X131300000Y-70150000D01*
X131300000Y-71066988D01*
X131242993Y-71034075D01*
X131115826Y-71000000D01*
X130984174Y-71000000D01*
X130857007Y-71034075D01*
X130800000Y-71066988D01*
X130800000Y-70150000D01*
X130152155Y-70150000D01*
X130092627Y-70156401D01*
X130092620Y-70156403D01*
X129957913Y-70206645D01*
X129957906Y-70206649D01*
X129842812Y-70292809D01*
X129842809Y-70292812D01*
X129756649Y-70407906D01*
X129756646Y-70407912D01*
X129707577Y-70539471D01*
X129665705Y-70595404D01*
X129600241Y-70619821D01*
X129531968Y-70604969D01*
X129503714Y-70583818D01*
X129389786Y-70469890D01*
X129217820Y-70344951D01*
X129028414Y-70248444D01*
X129028413Y-70248443D01*
X129028412Y-70248443D01*
X128826243Y-70182754D01*
X128826241Y-70182753D01*
X128826240Y-70182753D01*
X128664957Y-70157208D01*
X128616287Y-70149500D01*
X128403713Y-70149500D01*
X128355042Y-70157208D01*
X128193760Y-70182753D01*
X127991585Y-70248444D01*
X127802179Y-70344951D01*
X127630213Y-70469890D01*
X127479890Y-70620213D01*
X127354951Y-70792179D01*
X127258444Y-70981585D01*
X127192753Y-71183760D01*
X127159500Y-71393713D01*
X124423316Y-71393713D01*
X124396671Y-71341419D01*
X124289700Y-71194186D01*
X124161014Y-71065500D01*
X124013781Y-70958529D01*
X123925463Y-70913529D01*
X123851624Y-70875906D01*
X123678546Y-70819670D01*
X123558711Y-70800690D01*
X123498795Y-70791200D01*
X123316805Y-70791200D01*
X123256888Y-70800690D01*
X123137054Y-70819670D01*
X123137051Y-70819670D01*
X122963975Y-70875906D01*
X122801818Y-70958529D01*
X122754477Y-70992925D01*
X122654586Y-71065500D01*
X122654584Y-71065502D01*
X122654583Y-71065502D01*
X122525902Y-71194183D01*
X122525902Y-71194184D01*
X122525900Y-71194186D01*
X122485349Y-71250000D01*
X122418929Y-71341418D01*
X122336306Y-71503575D01*
X122280070Y-71676651D01*
X122280070Y-71676654D01*
X122251600Y-71856405D01*
X87041690Y-71856405D01*
X87072929Y-71809653D01*
X87075239Y-71804077D01*
X87075240Y-71804075D01*
X87127617Y-71677624D01*
X87127619Y-71677620D01*
X87141808Y-71606287D01*
X87155500Y-71537457D01*
X87155500Y-71394542D01*
X87127620Y-71254385D01*
X87127619Y-71254384D01*
X87127619Y-71254380D01*
X87072929Y-71122347D01*
X87072928Y-71122346D01*
X87072925Y-71122340D01*
X86993532Y-71003521D01*
X86993529Y-71003517D01*
X86892482Y-70902470D01*
X86892478Y-70902467D01*
X86773659Y-70823074D01*
X86773650Y-70823069D01*
X86641620Y-70768381D01*
X86641614Y-70768379D01*
X86501457Y-70740500D01*
X86501455Y-70740500D01*
X86358545Y-70740500D01*
X86358543Y-70740500D01*
X86218385Y-70768379D01*
X86218379Y-70768381D01*
X86086349Y-70823069D01*
X86086340Y-70823074D01*
X86001742Y-70879602D01*
X85935065Y-70900480D01*
X85932851Y-70900500D01*
X82341600Y-70900500D01*
X82274561Y-70880815D01*
X82253919Y-70864181D01*
X81691405Y-70301667D01*
X81657920Y-70240344D01*
X81657498Y-70238323D01*
X81637619Y-70138380D01*
X81582929Y-70006347D01*
X81582928Y-70006346D01*
X81582925Y-70006340D01*
X81503532Y-69887521D01*
X81503529Y-69887517D01*
X81402482Y-69786470D01*
X81402478Y-69786467D01*
X81283659Y-69707074D01*
X81283650Y-69707069D01*
X81151620Y-69652381D01*
X81151614Y-69652379D01*
X81011457Y-69624500D01*
X81011455Y-69624500D01*
X80868545Y-69624500D01*
X80868543Y-69624500D01*
X80728385Y-69652379D01*
X80728379Y-69652381D01*
X80596349Y-69707069D01*
X80596340Y-69707074D01*
X80477521Y-69786467D01*
X80477517Y-69786470D01*
X80376470Y-69887517D01*
X80376467Y-69887521D01*
X80297074Y-70006340D01*
X80297069Y-70006349D01*
X80242381Y-70138379D01*
X80242379Y-70138385D01*
X80214500Y-70278542D01*
X80214500Y-70278545D01*
X80214500Y-70421455D01*
X80214500Y-70421457D01*
X80214499Y-70421457D01*
X66982602Y-70421457D01*
X67008166Y-70395893D01*
X67221789Y-70128018D01*
X67404076Y-69837910D01*
X67552736Y-69529215D01*
X67665897Y-69205817D01*
X67742139Y-68871783D01*
X67744993Y-68846457D01*
X67762785Y-68688542D01*
X67780500Y-68531312D01*
X67780500Y-68188688D01*
X67744196Y-67866470D01*
X67742141Y-67848231D01*
X67742140Y-67848226D01*
X67742139Y-67848217D01*
X67665897Y-67514183D01*
X67552736Y-67190785D01*
X67451297Y-66980146D01*
X67404077Y-66882092D01*
X67388826Y-66857820D01*
X67221789Y-66591982D01*
X67008166Y-66324107D01*
X66765893Y-66081834D01*
X66498018Y-65868211D01*
X66207910Y-65685924D01*
X66207907Y-65685922D01*
X65899216Y-65537264D01*
X65575818Y-65424103D01*
X65575816Y-65424102D01*
X65318024Y-65365262D01*
X65241783Y-65347861D01*
X65241780Y-65347860D01*
X65241768Y-65347858D01*
X64901318Y-65309500D01*
X64901312Y-65309500D01*
X64558688Y-65309500D01*
X64558681Y-65309500D01*
X64218231Y-65347858D01*
X64218217Y-65347861D01*
X63884183Y-65424102D01*
X63884181Y-65424103D01*
X63560783Y-65537264D01*
X63252092Y-65685922D01*
X62961983Y-65868210D01*
X62694107Y-66081833D01*
X62451833Y-66324107D01*
X62238210Y-66591983D01*
X62055922Y-66882092D01*
X61907264Y-67190783D01*
X61794103Y-67514181D01*
X61794102Y-67514183D01*
X61717861Y-67848217D01*
X61717858Y-67848231D01*
X61679500Y-68188681D01*
X60680500Y-68188681D01*
X60680500Y-56705550D01*
X66304500Y-56705550D01*
X66304500Y-60215550D01*
X66304500Y-60364450D01*
X66314985Y-60403579D01*
X66343038Y-60508276D01*
X66343039Y-60508277D01*
X66417484Y-60637221D01*
X66417486Y-60637224D01*
X66417487Y-60637225D01*
X74557487Y-68777225D01*
X74662775Y-68882513D01*
X74662776Y-68882514D01*
X74662778Y-68882515D01*
X74680042Y-68892482D01*
X74791725Y-68956962D01*
X74935550Y-68995500D01*
X82142851Y-68995500D01*
X82209890Y-69015185D01*
X82211742Y-69016398D01*
X82296340Y-69072925D01*
X82296346Y-69072928D01*
X82296347Y-69072929D01*
X82428380Y-69127619D01*
X82428384Y-69127619D01*
X82428385Y-69127620D01*
X82568542Y-69155500D01*
X82568545Y-69155500D01*
X82711457Y-69155500D01*
X82805751Y-69136742D01*
X82851620Y-69127619D01*
X82983653Y-69072929D01*
X83102479Y-68993532D01*
X83203532Y-68892479D01*
X83244306Y-68831457D01*
X90614499Y-68831457D01*
X90642379Y-68971614D01*
X90642381Y-68971620D01*
X90697069Y-69103650D01*
X90697074Y-69103659D01*
X90776467Y-69222478D01*
X90776470Y-69222482D01*
X90877517Y-69323529D01*
X90877521Y-69323532D01*
X90996340Y-69402925D01*
X90996346Y-69402928D01*
X90996347Y-69402929D01*
X91128380Y-69457619D01*
X91128384Y-69457619D01*
X91128385Y-69457620D01*
X91268542Y-69485500D01*
X91268545Y-69485500D01*
X91411457Y-69485500D01*
X91505751Y-69466742D01*
X91551620Y-69457619D01*
X91576940Y-69447130D01*
X91646407Y-69439661D01*
X91671837Y-69447127D01*
X91733380Y-69472619D01*
X91733384Y-69472619D01*
X91733385Y-69472620D01*
X91873542Y-69500500D01*
X91873545Y-69500500D01*
X92016457Y-69500500D01*
X92110751Y-69481742D01*
X92156620Y-69472619D01*
X92288653Y-69417929D01*
X92407479Y-69338532D01*
X92508532Y-69237479D01*
X92587929Y-69118653D01*
X92642619Y-68986620D01*
X92661345Y-68892479D01*
X92670500Y-68846457D01*
X92670500Y-68703542D01*
X92642620Y-68563385D01*
X92642619Y-68563384D01*
X92642619Y-68563380D01*
X92587929Y-68431347D01*
X92587928Y-68431346D01*
X92587925Y-68431340D01*
X92531398Y-68346741D01*
X92525747Y-68328694D01*
X92515523Y-68312785D01*
X92511071Y-68281823D01*
X92510520Y-68280063D01*
X92510500Y-68277850D01*
X92510500Y-68188681D01*
X109679500Y-68188681D01*
X109679500Y-68531318D01*
X109717858Y-68871768D01*
X109717860Y-68871780D01*
X109717861Y-68871783D01*
X109735262Y-68948024D01*
X109794102Y-69205816D01*
X109794103Y-69205818D01*
X109907264Y-69529216D01*
X110055922Y-69837907D01*
X110055924Y-69837910D01*
X110238211Y-70128018D01*
X110355481Y-70275070D01*
X110411207Y-70344949D01*
X110451834Y-70395893D01*
X110694107Y-70638166D01*
X110961982Y-70851789D01*
X111252090Y-71034076D01*
X111560785Y-71182736D01*
X111884183Y-71295897D01*
X112218217Y-71372139D01*
X112218226Y-71372140D01*
X112218231Y-71372141D01*
X112417080Y-71394545D01*
X112558682Y-71410499D01*
X112558685Y-71410500D01*
X112558688Y-71410500D01*
X112901315Y-71410500D01*
X112901316Y-71410499D01*
X113075311Y-71390895D01*
X113241768Y-71372141D01*
X113241771Y-71372140D01*
X113241783Y-71372139D01*
X113575817Y-71295897D01*
X113899215Y-71182736D01*
X114207910Y-71034076D01*
X114498018Y-70851789D01*
X114765893Y-70638166D01*
X115008166Y-70395893D01*
X115221789Y-70128018D01*
X115404076Y-69837910D01*
X115552736Y-69529215D01*
X115665897Y-69205817D01*
X115742139Y-68871783D01*
X115744993Y-68846457D01*
X115762785Y-68688542D01*
X115780500Y-68531312D01*
X115780500Y-68188688D01*
X115744196Y-67866470D01*
X115742141Y-67848231D01*
X115742140Y-67848226D01*
X115742139Y-67848217D01*
X115665897Y-67514183D01*
X115552736Y-67190785D01*
X115451297Y-66980146D01*
X115404077Y-66882092D01*
X115388826Y-66857820D01*
X115221789Y-66591982D01*
X115008166Y-66324107D01*
X114765893Y-66081834D01*
X114498018Y-65868211D01*
X114207910Y-65685924D01*
X114207907Y-65685922D01*
X113899216Y-65537264D01*
X113575818Y-65424103D01*
X113575816Y-65424102D01*
X113318024Y-65365262D01*
X113241783Y-65347861D01*
X113241780Y-65347860D01*
X113241768Y-65347858D01*
X112901318Y-65309500D01*
X112901312Y-65309500D01*
X112558688Y-65309500D01*
X112558681Y-65309500D01*
X112218231Y-65347858D01*
X112218217Y-65347861D01*
X111884183Y-65424102D01*
X111884181Y-65424103D01*
X111560783Y-65537264D01*
X111252092Y-65685922D01*
X110961983Y-65868210D01*
X110694107Y-66081833D01*
X110451833Y-66324107D01*
X110238210Y-66591983D01*
X110055922Y-66882092D01*
X109907264Y-67190783D01*
X109794103Y-67514181D01*
X109794102Y-67514183D01*
X109717861Y-67848217D01*
X109717858Y-67848231D01*
X109679500Y-68188681D01*
X92510500Y-68188681D01*
X92510500Y-67275936D01*
X92510500Y-67275934D01*
X92471962Y-67132109D01*
X92433899Y-67066181D01*
X92393450Y-66996121D01*
X92396009Y-66994643D01*
X92375928Y-66942675D01*
X92375500Y-66932378D01*
X92375500Y-65909500D01*
X92395185Y-65842461D01*
X92447989Y-65796706D01*
X92499500Y-65785500D01*
X93424447Y-65785500D01*
X93424450Y-65785500D01*
X93568275Y-65746962D01*
X93697225Y-65672513D01*
X94218281Y-65151457D01*
X125064499Y-65151457D01*
X125092379Y-65291614D01*
X125092381Y-65291620D01*
X125147069Y-65423650D01*
X125147074Y-65423659D01*
X125226467Y-65542478D01*
X125226470Y-65542482D01*
X125327517Y-65643529D01*
X125327521Y-65643532D01*
X125446340Y-65722925D01*
X125446346Y-65722928D01*
X125446347Y-65722929D01*
X125578380Y-65777619D01*
X125578384Y-65777619D01*
X125578385Y-65777620D01*
X125718542Y-65805500D01*
X125718545Y-65805500D01*
X125861457Y-65805500D01*
X125962000Y-65785500D01*
X126001620Y-65777619D01*
X126133653Y-65722929D01*
X126252479Y-65643532D01*
X126353532Y-65542479D01*
X126432929Y-65423653D01*
X126487619Y-65291620D01*
X126495470Y-65252155D01*
X127630000Y-65252155D01*
X127630000Y-65900000D01*
X128546988Y-65900000D01*
X128514075Y-65957007D01*
X128480000Y-66084174D01*
X128480000Y-66215826D01*
X128514075Y-66342993D01*
X128546988Y-66400000D01*
X127630000Y-66400000D01*
X127630000Y-67047844D01*
X127636401Y-67107372D01*
X127636403Y-67107379D01*
X127686645Y-67242086D01*
X127686649Y-67242093D01*
X127772809Y-67357187D01*
X127772812Y-67357190D01*
X127887906Y-67443350D01*
X127887913Y-67443354D01*
X128022620Y-67493596D01*
X128022627Y-67493598D01*
X128082155Y-67499999D01*
X128082172Y-67500000D01*
X128730000Y-67500000D01*
X128730000Y-66583012D01*
X128787007Y-66615925D01*
X128914174Y-66650000D01*
X129045826Y-66650000D01*
X129172993Y-66615925D01*
X129230000Y-66583012D01*
X129230000Y-67500000D01*
X129877828Y-67500000D01*
X129877844Y-67499999D01*
X129937372Y-67493598D01*
X129937379Y-67493596D01*
X130072086Y-67443354D01*
X130072093Y-67443350D01*
X130187187Y-67357190D01*
X130187190Y-67357187D01*
X130273350Y-67242093D01*
X130273354Y-67242086D01*
X130322422Y-67110529D01*
X130364293Y-67054595D01*
X130429757Y-67030178D01*
X130498030Y-67045030D01*
X130526285Y-67066181D01*
X130640213Y-67180109D01*
X130812179Y-67305048D01*
X130812181Y-67305049D01*
X130812184Y-67305051D01*
X131001588Y-67401557D01*
X131203757Y-67467246D01*
X131413713Y-67500500D01*
X131413714Y-67500500D01*
X131626286Y-67500500D01*
X131626287Y-67500500D01*
X131836243Y-67467246D01*
X132038412Y-67401557D01*
X132227816Y-67305051D01*
X132267890Y-67275936D01*
X132399786Y-67180109D01*
X132399788Y-67180106D01*
X132399792Y-67180104D01*
X132550104Y-67029792D01*
X132550106Y-67029788D01*
X132550109Y-67029786D01*
X132675048Y-66857820D01*
X132675047Y-66857820D01*
X132675051Y-66857816D01*
X132771557Y-66668412D01*
X132837246Y-66466243D01*
X132870500Y-66256287D01*
X132870500Y-66043713D01*
X132837246Y-65833757D01*
X132771557Y-65631588D01*
X132675051Y-65442184D01*
X132675049Y-65442181D01*
X132675048Y-65442179D01*
X132550109Y-65270213D01*
X132399786Y-65119890D01*
X132227820Y-64994951D01*
X132038414Y-64898444D01*
X132038413Y-64898443D01*
X132038412Y-64898443D01*
X131836243Y-64832754D01*
X131836241Y-64832753D01*
X131836240Y-64832753D01*
X131674957Y-64807208D01*
X131626287Y-64799500D01*
X131413713Y-64799500D01*
X131365042Y-64807208D01*
X131203760Y-64832753D01*
X131001585Y-64898444D01*
X130812179Y-64994951D01*
X130640215Y-65119889D01*
X130526285Y-65233819D01*
X130464962Y-65267303D01*
X130395270Y-65262319D01*
X130339337Y-65220447D01*
X130322422Y-65189470D01*
X130273354Y-65057913D01*
X130273350Y-65057906D01*
X130187190Y-64942812D01*
X130187187Y-64942809D01*
X130072093Y-64856649D01*
X130072086Y-64856645D01*
X129937379Y-64806403D01*
X129937372Y-64806401D01*
X129877844Y-64800000D01*
X129230000Y-64800000D01*
X129230000Y-65716988D01*
X129172993Y-65684075D01*
X129045826Y-65650000D01*
X128914174Y-65650000D01*
X128787007Y-65684075D01*
X128730000Y-65716988D01*
X128730000Y-64800000D01*
X128082155Y-64800000D01*
X128022627Y-64806401D01*
X128022620Y-64806403D01*
X127887913Y-64856645D01*
X127887906Y-64856649D01*
X127772812Y-64942809D01*
X127772809Y-64942812D01*
X127686649Y-65057906D01*
X127686645Y-65057913D01*
X127636403Y-65192620D01*
X127636401Y-65192627D01*
X127630000Y-65252155D01*
X126495470Y-65252155D01*
X126501777Y-65220447D01*
X126515500Y-65151457D01*
X126515500Y-65008542D01*
X126487620Y-64868385D01*
X126487619Y-64868384D01*
X126487619Y-64868380D01*
X126432929Y-64736347D01*
X126432928Y-64736346D01*
X126432925Y-64736340D01*
X126353532Y-64617521D01*
X126353529Y-64617517D01*
X126252482Y-64516470D01*
X126252478Y-64516467D01*
X126133659Y-64437074D01*
X126133650Y-64437069D01*
X126001620Y-64382381D01*
X126001614Y-64382379D01*
X125861457Y-64354500D01*
X125861455Y-64354500D01*
X125718545Y-64354500D01*
X125718543Y-64354500D01*
X125578385Y-64382379D01*
X125578379Y-64382381D01*
X125446349Y-64437069D01*
X125446340Y-64437074D01*
X125327521Y-64516467D01*
X125327517Y-64516470D01*
X125226470Y-64617517D01*
X125226467Y-64617521D01*
X125147074Y-64736340D01*
X125147069Y-64736349D01*
X125092381Y-64868379D01*
X125092379Y-64868385D01*
X125064500Y-65008542D01*
X125064500Y-65008545D01*
X125064500Y-65151455D01*
X125064500Y-65151457D01*
X125064499Y-65151457D01*
X94218281Y-65151457D01*
X96198280Y-63171457D01*
X124054499Y-63171457D01*
X124082379Y-63311614D01*
X124082381Y-63311620D01*
X124137069Y-63443650D01*
X124137074Y-63443659D01*
X124216467Y-63562478D01*
X124216470Y-63562482D01*
X124317517Y-63663529D01*
X124317521Y-63663532D01*
X124436340Y-63742925D01*
X124436346Y-63742928D01*
X124436347Y-63742929D01*
X124568380Y-63797619D01*
X124568384Y-63797619D01*
X124568385Y-63797620D01*
X124708542Y-63825500D01*
X124708545Y-63825500D01*
X124851457Y-63825500D01*
X124945751Y-63806742D01*
X124991620Y-63797619D01*
X125123653Y-63742929D01*
X125242479Y-63663532D01*
X125343532Y-63562479D01*
X125422929Y-63443653D01*
X125477619Y-63311620D01*
X125505500Y-63171455D01*
X125505500Y-63028545D01*
X125505500Y-63028542D01*
X125477620Y-62888385D01*
X125477619Y-62888384D01*
X125477619Y-62888380D01*
X125430046Y-62773529D01*
X125422930Y-62756349D01*
X125422925Y-62756340D01*
X125343532Y-62637521D01*
X125343529Y-62637517D01*
X125242482Y-62536470D01*
X125242478Y-62536467D01*
X125123659Y-62457074D01*
X125123650Y-62457069D01*
X124991620Y-62402381D01*
X124991614Y-62402379D01*
X124851457Y-62374500D01*
X124851455Y-62374500D01*
X124708545Y-62374500D01*
X124708543Y-62374500D01*
X124568385Y-62402379D01*
X124568379Y-62402381D01*
X124436349Y-62457069D01*
X124436340Y-62457074D01*
X124317521Y-62536467D01*
X124317517Y-62536470D01*
X124216470Y-62637517D01*
X124216467Y-62637521D01*
X124137074Y-62756340D01*
X124137069Y-62756349D01*
X124082381Y-62888379D01*
X124082379Y-62888385D01*
X124054500Y-63028542D01*
X124054500Y-63028545D01*
X124054500Y-63171455D01*
X124054500Y-63171457D01*
X124054499Y-63171457D01*
X96198280Y-63171457D01*
X97088279Y-62281457D01*
X120694499Y-62281457D01*
X120722379Y-62421614D01*
X120722381Y-62421620D01*
X120777069Y-62553650D01*
X120777074Y-62553659D01*
X120856467Y-62672478D01*
X120856470Y-62672482D01*
X120957517Y-62773529D01*
X120957521Y-62773532D01*
X121076340Y-62852925D01*
X121076346Y-62852928D01*
X121076347Y-62852929D01*
X121208380Y-62907619D01*
X121208384Y-62907619D01*
X121208385Y-62907620D01*
X121348542Y-62935500D01*
X121348545Y-62935500D01*
X121491457Y-62935500D01*
X121585751Y-62916742D01*
X121631620Y-62907619D01*
X121763653Y-62852929D01*
X121882479Y-62773532D01*
X121983532Y-62672479D01*
X122062929Y-62553653D01*
X122117619Y-62421620D01*
X122145500Y-62281455D01*
X122145500Y-62138545D01*
X122145500Y-62138542D01*
X122117620Y-61998385D01*
X122117619Y-61998384D01*
X122117619Y-61998380D01*
X122062929Y-61866347D01*
X122062928Y-61866346D01*
X122062925Y-61866340D01*
X121983532Y-61747521D01*
X121983529Y-61747517D01*
X121882482Y-61646470D01*
X121882478Y-61646467D01*
X121763659Y-61567074D01*
X121763650Y-61567069D01*
X121631620Y-61512381D01*
X121631614Y-61512379D01*
X121491457Y-61484500D01*
X121491455Y-61484500D01*
X121348545Y-61484500D01*
X121348543Y-61484500D01*
X121208385Y-61512379D01*
X121208379Y-61512381D01*
X121076349Y-61567069D01*
X121076340Y-61567074D01*
X120957521Y-61646467D01*
X120957517Y-61646470D01*
X120856470Y-61747517D01*
X120856467Y-61747521D01*
X120777074Y-61866340D01*
X120777069Y-61866349D01*
X120722381Y-61998379D01*
X120722379Y-61998385D01*
X120694500Y-62138542D01*
X120694500Y-62138545D01*
X120694500Y-62281455D01*
X120694500Y-62281457D01*
X120694499Y-62281457D01*
X97088279Y-62281457D01*
X98168333Y-61201403D01*
X98229654Y-61167920D01*
X98231667Y-61167500D01*
X98331620Y-61147619D01*
X98463653Y-61092929D01*
X98582479Y-61013532D01*
X98592054Y-61003957D01*
X104304499Y-61003957D01*
X104332379Y-61144114D01*
X104332381Y-61144120D01*
X104387069Y-61276150D01*
X104387074Y-61276159D01*
X104466467Y-61394978D01*
X104466470Y-61394982D01*
X104567517Y-61496029D01*
X104567521Y-61496032D01*
X104686340Y-61575425D01*
X104686346Y-61575428D01*
X104686347Y-61575429D01*
X104818380Y-61630119D01*
X104818384Y-61630119D01*
X104818385Y-61630120D01*
X104958542Y-61658000D01*
X104958545Y-61658000D01*
X105101457Y-61658000D01*
X105195751Y-61639242D01*
X105241620Y-61630119D01*
X105262532Y-61621457D01*
X116974499Y-61621457D01*
X117002379Y-61761614D01*
X117002381Y-61761620D01*
X117057069Y-61893650D01*
X117057074Y-61893659D01*
X117136467Y-62012478D01*
X117136470Y-62012482D01*
X117237517Y-62113529D01*
X117237521Y-62113532D01*
X117356340Y-62192925D01*
X117356346Y-62192928D01*
X117356347Y-62192929D01*
X117488380Y-62247619D01*
X117488384Y-62247619D01*
X117488385Y-62247620D01*
X117628542Y-62275500D01*
X117628545Y-62275500D01*
X117771457Y-62275500D01*
X117865751Y-62256742D01*
X117911620Y-62247619D01*
X118043653Y-62192929D01*
X118162479Y-62113532D01*
X118162482Y-62113529D01*
X118231240Y-62044772D01*
X118263529Y-62012482D01*
X118263532Y-62012479D01*
X118342929Y-61893653D01*
X118397619Y-61761620D01*
X118418231Y-61658000D01*
X118425500Y-61621457D01*
X118425500Y-61478542D01*
X118397620Y-61338385D01*
X118397619Y-61338384D01*
X118397619Y-61338380D01*
X118342929Y-61206347D01*
X118342928Y-61206346D01*
X118342925Y-61206340D01*
X118263532Y-61087521D01*
X118263529Y-61087517D01*
X118162482Y-60986470D01*
X118162478Y-60986467D01*
X118043659Y-60907074D01*
X118043650Y-60907069D01*
X117911620Y-60852381D01*
X117911614Y-60852379D01*
X117771457Y-60824500D01*
X117771455Y-60824500D01*
X117628545Y-60824500D01*
X117628543Y-60824500D01*
X117488385Y-60852379D01*
X117488379Y-60852381D01*
X117356349Y-60907069D01*
X117356340Y-60907074D01*
X117237521Y-60986467D01*
X117237517Y-60986470D01*
X117136470Y-61087517D01*
X117136467Y-61087521D01*
X117057074Y-61206340D01*
X117057069Y-61206349D01*
X117002381Y-61338379D01*
X117002379Y-61338385D01*
X116974500Y-61478542D01*
X116974500Y-61478545D01*
X116974500Y-61621455D01*
X116974500Y-61621457D01*
X116974499Y-61621457D01*
X105262532Y-61621457D01*
X105373653Y-61575429D01*
X105492479Y-61496032D01*
X105593532Y-61394979D01*
X105672929Y-61276153D01*
X105727619Y-61144120D01*
X105736742Y-61098251D01*
X105755500Y-61003957D01*
X105755500Y-60861042D01*
X105727620Y-60720885D01*
X105727619Y-60720884D01*
X105727619Y-60720880D01*
X105672929Y-60588847D01*
X105672928Y-60588846D01*
X105672925Y-60588840D01*
X105645434Y-60547697D01*
X105601626Y-60482135D01*
X126439500Y-60482135D01*
X126439500Y-62577870D01*
X126439501Y-62577876D01*
X126445908Y-62637483D01*
X126496202Y-62772328D01*
X126496206Y-62772335D01*
X126582452Y-62887544D01*
X126582455Y-62887547D01*
X126697664Y-62973793D01*
X126697671Y-62973797D01*
X126832517Y-63024091D01*
X126832516Y-63024091D01*
X126839444Y-63024835D01*
X126892127Y-63030500D01*
X130987872Y-63030499D01*
X131047483Y-63024091D01*
X131182331Y-62973796D01*
X131297546Y-62887546D01*
X131383796Y-62772331D01*
X131434091Y-62637483D01*
X131440500Y-62577873D01*
X131440499Y-60482128D01*
X131434091Y-60422517D01*
X131427029Y-60403584D01*
X131383797Y-60287671D01*
X131383793Y-60287664D01*
X131297547Y-60172455D01*
X131297544Y-60172452D01*
X131182335Y-60086206D01*
X131182328Y-60086202D01*
X131047482Y-60035908D01*
X131047483Y-60035908D01*
X130987883Y-60029501D01*
X130987881Y-60029500D01*
X130987873Y-60029500D01*
X130987864Y-60029500D01*
X126892129Y-60029500D01*
X126892123Y-60029501D01*
X126832516Y-60035908D01*
X126697671Y-60086202D01*
X126697664Y-60086206D01*
X126582455Y-60172452D01*
X126582452Y-60172455D01*
X126496206Y-60287664D01*
X126496202Y-60287671D01*
X126445908Y-60422517D01*
X126439501Y-60482116D01*
X126439501Y-60482123D01*
X126439500Y-60482135D01*
X105601626Y-60482135D01*
X105593532Y-60470021D01*
X105593529Y-60470017D01*
X105492482Y-60368970D01*
X105492478Y-60368967D01*
X105373659Y-60289574D01*
X105373650Y-60289569D01*
X105241620Y-60234881D01*
X105241614Y-60234879D01*
X105101457Y-60207000D01*
X105101455Y-60207000D01*
X104958545Y-60207000D01*
X104958543Y-60207000D01*
X104818385Y-60234879D01*
X104818379Y-60234881D01*
X104686349Y-60289569D01*
X104686340Y-60289574D01*
X104567521Y-60368967D01*
X104567517Y-60368970D01*
X104466470Y-60470017D01*
X104466467Y-60470021D01*
X104387074Y-60588840D01*
X104387069Y-60588849D01*
X104332381Y-60720879D01*
X104332379Y-60720885D01*
X104304500Y-60861042D01*
X104304500Y-60861045D01*
X104304500Y-61003955D01*
X104304500Y-61003957D01*
X104304499Y-61003957D01*
X98592054Y-61003957D01*
X98683532Y-60912479D01*
X98762929Y-60793653D01*
X98817619Y-60661620D01*
X98832096Y-60588840D01*
X98845500Y-60521457D01*
X98845500Y-60378542D01*
X98817620Y-60238385D01*
X98817619Y-60238384D01*
X98817619Y-60238380D01*
X98762929Y-60106347D01*
X98762928Y-60106346D01*
X98762925Y-60106340D01*
X98683532Y-59987521D01*
X98683529Y-59987517D01*
X98582482Y-59886470D01*
X98582478Y-59886467D01*
X98463659Y-59807074D01*
X98463650Y-59807069D01*
X98331620Y-59752381D01*
X98331614Y-59752379D01*
X98191457Y-59724500D01*
X98191455Y-59724500D01*
X98048545Y-59724500D01*
X98048543Y-59724500D01*
X97908385Y-59752379D01*
X97908379Y-59752381D01*
X97776349Y-59807069D01*
X97776340Y-59807074D01*
X97657521Y-59886467D01*
X97657517Y-59886470D01*
X97556470Y-59987517D01*
X97556467Y-59987521D01*
X97477074Y-60106340D01*
X97477069Y-60106349D01*
X97422381Y-60238379D01*
X97422379Y-60238385D01*
X97402529Y-60338178D01*
X97370144Y-60400089D01*
X97368593Y-60401667D01*
X96237181Y-61533080D01*
X96175858Y-61566565D01*
X96106166Y-61561581D01*
X96050233Y-61519709D01*
X96025816Y-61454245D01*
X96025500Y-61445399D01*
X96025500Y-60637081D01*
X96045185Y-60570042D01*
X96046398Y-60568190D01*
X96122925Y-60453659D01*
X96122925Y-60453658D01*
X96122929Y-60453653D01*
X96177619Y-60321620D01*
X96187579Y-60271548D01*
X96205500Y-60181457D01*
X96205500Y-60038542D01*
X96177620Y-59898385D01*
X96177619Y-59898384D01*
X96177619Y-59898380D01*
X96122929Y-59766347D01*
X96122928Y-59766346D01*
X96122925Y-59766340D01*
X96043532Y-59647521D01*
X96043529Y-59647517D01*
X95942482Y-59546470D01*
X95942478Y-59546467D01*
X95823659Y-59467074D01*
X95823650Y-59467069D01*
X95691620Y-59412381D01*
X95691614Y-59412379D01*
X95551457Y-59384500D01*
X95551455Y-59384500D01*
X95408545Y-59384500D01*
X95408543Y-59384500D01*
X95268385Y-59412379D01*
X95268379Y-59412381D01*
X95136349Y-59467069D01*
X95136340Y-59467074D01*
X95017521Y-59546467D01*
X95017517Y-59546470D01*
X94916470Y-59647517D01*
X94916467Y-59647521D01*
X94837074Y-59766340D01*
X94837069Y-59766349D01*
X94782381Y-59898379D01*
X94782379Y-59898385D01*
X94754500Y-60038542D01*
X94754500Y-60038545D01*
X94754500Y-60181455D01*
X94754500Y-60181457D01*
X94754499Y-60181457D01*
X94782379Y-60321614D01*
X94782381Y-60321620D01*
X94837068Y-60453648D01*
X94837070Y-60453651D01*
X94837071Y-60453653D01*
X94873603Y-60508327D01*
X94894480Y-60575001D01*
X94894500Y-60577215D01*
X94894500Y-61114400D01*
X94874815Y-61181439D01*
X94858181Y-61202081D01*
X90887488Y-65172773D01*
X90887484Y-65172778D01*
X90813039Y-65301722D01*
X90813038Y-65301723D01*
X90800676Y-65347861D01*
X90774500Y-65445550D01*
X90774500Y-65445552D01*
X90774500Y-68262850D01*
X90754815Y-68329889D01*
X90753602Y-68331741D01*
X90697074Y-68416340D01*
X90697069Y-68416349D01*
X90642381Y-68548379D01*
X90642379Y-68548385D01*
X90614500Y-68688542D01*
X90614500Y-68688545D01*
X90614500Y-68831455D01*
X90614500Y-68831457D01*
X90614499Y-68831457D01*
X83244306Y-68831457D01*
X83282929Y-68773653D01*
X83337619Y-68641620D01*
X83365500Y-68501455D01*
X83365500Y-68358545D01*
X83365500Y-68358542D01*
X83337620Y-68218385D01*
X83337619Y-68218384D01*
X83337619Y-68218380D01*
X83282929Y-68086347D01*
X83282928Y-68086346D01*
X83282925Y-68086340D01*
X83203532Y-67967521D01*
X83203529Y-67967517D01*
X83102482Y-67866470D01*
X83102478Y-67866467D01*
X82983659Y-67787074D01*
X82983650Y-67787069D01*
X82851620Y-67732381D01*
X82851614Y-67732379D01*
X82711457Y-67704500D01*
X82711455Y-67704500D01*
X82568545Y-67704500D01*
X82568543Y-67704500D01*
X82428385Y-67732379D01*
X82428379Y-67732381D01*
X82296349Y-67787069D01*
X82296340Y-67787074D01*
X82211742Y-67843602D01*
X82145065Y-67864480D01*
X82142851Y-67864500D01*
X75295600Y-67864500D01*
X75228561Y-67844815D01*
X75207919Y-67828181D01*
X67871195Y-60491457D01*
X69187899Y-60491457D01*
X69215779Y-60631614D01*
X69215781Y-60631620D01*
X69270469Y-60763650D01*
X69270474Y-60763659D01*
X69349867Y-60882478D01*
X69349870Y-60882482D01*
X69450917Y-60983529D01*
X69450921Y-60983532D01*
X69569740Y-61062925D01*
X69569746Y-61062928D01*
X69569747Y-61062929D01*
X69701780Y-61117619D01*
X69776687Y-61132518D01*
X69838596Y-61164901D01*
X69840176Y-61166454D01*
X70260017Y-61586295D01*
X70380212Y-61655689D01*
X70392182Y-61662600D01*
X70539593Y-61702099D01*
X70539594Y-61702099D01*
X70692205Y-61702099D01*
X73276327Y-61702099D01*
X73343366Y-61721784D01*
X73364003Y-61738413D01*
X73457518Y-61831928D01*
X73457522Y-61831932D01*
X73576340Y-61911324D01*
X73576346Y-61911327D01*
X73576347Y-61911328D01*
X73708380Y-61966018D01*
X73708384Y-61966018D01*
X73708385Y-61966019D01*
X73848542Y-61993899D01*
X73848545Y-61993899D01*
X73991457Y-61993899D01*
X74085751Y-61975141D01*
X74131620Y-61966018D01*
X74263653Y-61911328D01*
X74382479Y-61831931D01*
X74483532Y-61730878D01*
X74562929Y-61612052D01*
X74617619Y-61480019D01*
X74645500Y-61339854D01*
X74645500Y-61196944D01*
X74645500Y-61196941D01*
X74617620Y-61056784D01*
X74617617Y-61056773D01*
X74589648Y-60989253D01*
X74582178Y-60919784D01*
X74589648Y-60894345D01*
X74594564Y-60882479D01*
X74617619Y-60826819D01*
X74645500Y-60686654D01*
X74645500Y-60543744D01*
X74645500Y-60543741D01*
X74617620Y-60403584D01*
X74617619Y-60403583D01*
X74617619Y-60403579D01*
X74575318Y-60301457D01*
X74562930Y-60271548D01*
X74562925Y-60271539D01*
X74483532Y-60152720D01*
X74483529Y-60152716D01*
X74382482Y-60051669D01*
X74382478Y-60051666D01*
X74263659Y-59972273D01*
X74263650Y-59972268D01*
X74131620Y-59917580D01*
X74131614Y-59917578D01*
X73991457Y-59889699D01*
X73991455Y-59889699D01*
X73848545Y-59889699D01*
X73848543Y-59889699D01*
X73708385Y-59917578D01*
X73708379Y-59917580D01*
X73576349Y-59972268D01*
X73576340Y-59972273D01*
X73457522Y-60051665D01*
X73432848Y-60076340D01*
X73364006Y-60145181D01*
X73302686Y-60178665D01*
X73276327Y-60181499D01*
X71335938Y-60181499D01*
X71268899Y-60161814D01*
X71223144Y-60109010D01*
X71221389Y-60104980D01*
X71209529Y-60076347D01*
X71209525Y-60076340D01*
X71130132Y-59957521D01*
X71130129Y-59957517D01*
X71029082Y-59856470D01*
X71029078Y-59856467D01*
X70910259Y-59777074D01*
X70910250Y-59777069D01*
X70778220Y-59722381D01*
X70778214Y-59722379D01*
X70638057Y-59694500D01*
X70638055Y-59694500D01*
X70495145Y-59694500D01*
X70495143Y-59694500D01*
X70354985Y-59722379D01*
X70354984Y-59722379D01*
X70287452Y-59750352D01*
X70217982Y-59757820D01*
X70192548Y-59750352D01*
X70125015Y-59722379D01*
X69984857Y-59694500D01*
X69984855Y-59694500D01*
X69841945Y-59694500D01*
X69841943Y-59694500D01*
X69701785Y-59722379D01*
X69701779Y-59722381D01*
X69569749Y-59777069D01*
X69569740Y-59777074D01*
X69450921Y-59856467D01*
X69450917Y-59856470D01*
X69349870Y-59957517D01*
X69349867Y-59957521D01*
X69270474Y-60076340D01*
X69270469Y-60076349D01*
X69215781Y-60208379D01*
X69215779Y-60208385D01*
X69187900Y-60348542D01*
X69187900Y-60348545D01*
X69187900Y-60491455D01*
X69187900Y-60491457D01*
X69187899Y-60491457D01*
X67871195Y-60491457D01*
X67471819Y-60092081D01*
X67438334Y-60030758D01*
X67435500Y-60004400D01*
X67435500Y-57619638D01*
X85151750Y-57619638D01*
X85151750Y-57855361D01*
X85188622Y-58088166D01*
X85261463Y-58312345D01*
X85368475Y-58522364D01*
X85428378Y-58604815D01*
X85428380Y-58604816D01*
X86036727Y-57996469D01*
X86059934Y-58052496D01*
X86132711Y-58161413D01*
X86225337Y-58254039D01*
X86334254Y-58326816D01*
X86390279Y-58350022D01*
X85781932Y-58958368D01*
X85864388Y-59018276D01*
X86074404Y-59125286D01*
X86298583Y-59198127D01*
X86531389Y-59235000D01*
X86767111Y-59235000D01*
X86999916Y-59198127D01*
X87224095Y-59125286D01*
X87434103Y-59018280D01*
X87434109Y-59018276D01*
X87516565Y-58958368D01*
X87516566Y-58958368D01*
X86908219Y-58350022D01*
X86964246Y-58326816D01*
X87073163Y-58254039D01*
X87165789Y-58161413D01*
X87238566Y-58052496D01*
X87261772Y-57996470D01*
X87870118Y-58604816D01*
X87870118Y-58604815D01*
X87930026Y-58522359D01*
X87930030Y-58522353D01*
X88037036Y-58312345D01*
X88109877Y-58088166D01*
X88146750Y-57855361D01*
X88146750Y-57619638D01*
X99651750Y-57619638D01*
X99651750Y-57855361D01*
X99688622Y-58088166D01*
X99761463Y-58312345D01*
X99868475Y-58522364D01*
X99928378Y-58604815D01*
X99928380Y-58604816D01*
X100536727Y-57996469D01*
X100559934Y-58052496D01*
X100632711Y-58161413D01*
X100725337Y-58254039D01*
X100834254Y-58326816D01*
X100890279Y-58350022D01*
X100281932Y-58958368D01*
X100364388Y-59018276D01*
X100574404Y-59125286D01*
X100798583Y-59198127D01*
X101031389Y-59235000D01*
X101267111Y-59235000D01*
X101415754Y-59211457D01*
X114234499Y-59211457D01*
X114262379Y-59351614D01*
X114262381Y-59351620D01*
X114317069Y-59483650D01*
X114317074Y-59483659D01*
X114396467Y-59602478D01*
X114396470Y-59602482D01*
X114497517Y-59703529D01*
X114497521Y-59703532D01*
X114616340Y-59782925D01*
X114616346Y-59782928D01*
X114616347Y-59782929D01*
X114748380Y-59837619D01*
X114748384Y-59837619D01*
X114748385Y-59837620D01*
X114888542Y-59865500D01*
X114888545Y-59865500D01*
X115031457Y-59865500D01*
X115125751Y-59846742D01*
X115171620Y-59837619D01*
X115303653Y-59782929D01*
X115422479Y-59703532D01*
X115523532Y-59602479D01*
X115602929Y-59483653D01*
X115657619Y-59351620D01*
X115685500Y-59211455D01*
X115685500Y-59068545D01*
X115685500Y-59068542D01*
X115657620Y-58928385D01*
X115657619Y-58928384D01*
X115657619Y-58928380D01*
X115602929Y-58796347D01*
X115602928Y-58796346D01*
X115602925Y-58796340D01*
X115523532Y-58677521D01*
X115523529Y-58677517D01*
X115422482Y-58576470D01*
X115422478Y-58576467D01*
X115303659Y-58497074D01*
X115303650Y-58497069D01*
X115171620Y-58442381D01*
X115171614Y-58442379D01*
X115031457Y-58414500D01*
X115031455Y-58414500D01*
X114888545Y-58414500D01*
X114888543Y-58414500D01*
X114748385Y-58442379D01*
X114748379Y-58442381D01*
X114616349Y-58497069D01*
X114616340Y-58497074D01*
X114497521Y-58576467D01*
X114497517Y-58576470D01*
X114396470Y-58677517D01*
X114396467Y-58677521D01*
X114317074Y-58796340D01*
X114317069Y-58796349D01*
X114262381Y-58928379D01*
X114262379Y-58928385D01*
X114234500Y-59068542D01*
X114234500Y-59068545D01*
X114234500Y-59211455D01*
X114234500Y-59211457D01*
X114234499Y-59211457D01*
X101415754Y-59211457D01*
X101499916Y-59198127D01*
X101724095Y-59125286D01*
X101934103Y-59018280D01*
X101934109Y-59018276D01*
X102011382Y-58962135D01*
X102016565Y-58958368D01*
X102016566Y-58958368D01*
X101408219Y-58350022D01*
X101464246Y-58326816D01*
X101573163Y-58254039D01*
X101665789Y-58161413D01*
X101738566Y-58052496D01*
X101761772Y-57996470D01*
X102370118Y-58604816D01*
X102370118Y-58604815D01*
X102430026Y-58522359D01*
X102430030Y-58522353D01*
X102537036Y-58312345D01*
X102609877Y-58088166D01*
X102645784Y-57861457D01*
X110654499Y-57861457D01*
X110682379Y-58001614D01*
X110682381Y-58001620D01*
X110737069Y-58133650D01*
X110737074Y-58133659D01*
X110816467Y-58252478D01*
X110816470Y-58252482D01*
X110917517Y-58353529D01*
X110917521Y-58353532D01*
X111036340Y-58432925D01*
X111036346Y-58432928D01*
X111036347Y-58432929D01*
X111168380Y-58487619D01*
X111168384Y-58487619D01*
X111168385Y-58487620D01*
X111308542Y-58515500D01*
X111308545Y-58515500D01*
X111451457Y-58515500D01*
X111545751Y-58496742D01*
X111591620Y-58487619D01*
X111723653Y-58432929D01*
X111842479Y-58353532D01*
X111943532Y-58252479D01*
X112022929Y-58133653D01*
X112077619Y-58001620D01*
X112105500Y-57861455D01*
X112105500Y-57718545D01*
X112105500Y-57718542D01*
X112077620Y-57578385D01*
X112077619Y-57578384D01*
X112077619Y-57578380D01*
X112022929Y-57446347D01*
X112022928Y-57446346D01*
X112022925Y-57446340D01*
X111943532Y-57327521D01*
X111943529Y-57327517D01*
X111842482Y-57226470D01*
X111842478Y-57226467D01*
X111723659Y-57147074D01*
X111723650Y-57147069D01*
X111591620Y-57092381D01*
X111591614Y-57092379D01*
X111451457Y-57064500D01*
X111451455Y-57064500D01*
X111308545Y-57064500D01*
X111308543Y-57064500D01*
X111168385Y-57092379D01*
X111168379Y-57092381D01*
X111036349Y-57147069D01*
X111036340Y-57147074D01*
X110917521Y-57226467D01*
X110917517Y-57226470D01*
X110816470Y-57327517D01*
X110816467Y-57327521D01*
X110737074Y-57446340D01*
X110737069Y-57446349D01*
X110682381Y-57578379D01*
X110682379Y-57578385D01*
X110654500Y-57718542D01*
X110654500Y-57718545D01*
X110654500Y-57861455D01*
X110654500Y-57861457D01*
X110654499Y-57861457D01*
X102645784Y-57861457D01*
X102646750Y-57855361D01*
X102646750Y-57619638D01*
X102609877Y-57386833D01*
X102537036Y-57162654D01*
X102430026Y-56952638D01*
X102370118Y-56870183D01*
X102370118Y-56870182D01*
X101761772Y-57478529D01*
X101738566Y-57422504D01*
X101665789Y-57313587D01*
X101573163Y-57220961D01*
X101464246Y-57148184D01*
X101408218Y-57124976D01*
X102016566Y-56516630D01*
X102016565Y-56516628D01*
X101934114Y-56456725D01*
X101724095Y-56349713D01*
X101499916Y-56276872D01*
X101267111Y-56240000D01*
X101031389Y-56240000D01*
X100798583Y-56276872D01*
X100574404Y-56349713D01*
X100364392Y-56456721D01*
X100281933Y-56516630D01*
X100281933Y-56516631D01*
X100890280Y-57124977D01*
X100834254Y-57148184D01*
X100725337Y-57220961D01*
X100632711Y-57313587D01*
X100559934Y-57422504D01*
X100536727Y-57478530D01*
X99928381Y-56870183D01*
X99928380Y-56870183D01*
X99868471Y-56952642D01*
X99761463Y-57162654D01*
X99688622Y-57386833D01*
X99651750Y-57619638D01*
X88146750Y-57619638D01*
X88109877Y-57386833D01*
X88037036Y-57162654D01*
X87930026Y-56952638D01*
X87870118Y-56870183D01*
X87870118Y-56870182D01*
X87261772Y-57478529D01*
X87238566Y-57422504D01*
X87165789Y-57313587D01*
X87073163Y-57220961D01*
X86964246Y-57148184D01*
X86908218Y-57124976D01*
X87516566Y-56516630D01*
X87516565Y-56516628D01*
X87434114Y-56456725D01*
X87224095Y-56349713D01*
X86999916Y-56276872D01*
X86767111Y-56240000D01*
X86531389Y-56240000D01*
X86298583Y-56276872D01*
X86074404Y-56349713D01*
X85864392Y-56456721D01*
X85781933Y-56516630D01*
X85781933Y-56516631D01*
X86390280Y-57124977D01*
X86334254Y-57148184D01*
X86225337Y-57220961D01*
X86132711Y-57313587D01*
X86059934Y-57422504D01*
X86036727Y-57478530D01*
X85428381Y-56870183D01*
X85428380Y-56870183D01*
X85368471Y-56952642D01*
X85261463Y-57162654D01*
X85188622Y-57386833D01*
X85151750Y-57619638D01*
X67435500Y-57619638D01*
X67435500Y-57065600D01*
X67455185Y-56998561D01*
X67471819Y-56977919D01*
X68648881Y-55800857D01*
X111413899Y-55800857D01*
X111441779Y-55941014D01*
X111441781Y-55941020D01*
X111496469Y-56073050D01*
X111496474Y-56073059D01*
X111575867Y-56191878D01*
X111575870Y-56191882D01*
X111676917Y-56292929D01*
X111676921Y-56292932D01*
X111795740Y-56372325D01*
X111795746Y-56372328D01*
X111795747Y-56372329D01*
X111927780Y-56427019D01*
X111927784Y-56427019D01*
X111927785Y-56427020D01*
X112067942Y-56454900D01*
X112067945Y-56454900D01*
X112210857Y-56454900D01*
X112322093Y-56432773D01*
X112351020Y-56427019D01*
X112483053Y-56372329D01*
X112601879Y-56292932D01*
X112702932Y-56191879D01*
X112782329Y-56073053D01*
X112837019Y-55941020D01*
X112853932Y-55855996D01*
X112864900Y-55800857D01*
X112864900Y-55657942D01*
X112837020Y-55517785D01*
X112837019Y-55517784D01*
X112837019Y-55517780D01*
X112787444Y-55398095D01*
X112782330Y-55385749D01*
X112782325Y-55385740D01*
X112702932Y-55266921D01*
X112702929Y-55266917D01*
X112601882Y-55165870D01*
X112601878Y-55165867D01*
X112483059Y-55086474D01*
X112483050Y-55086469D01*
X112351020Y-55031781D01*
X112351014Y-55031779D01*
X112210857Y-55003900D01*
X112210855Y-55003900D01*
X112067945Y-55003900D01*
X112067943Y-55003900D01*
X111927785Y-55031779D01*
X111927779Y-55031781D01*
X111795749Y-55086469D01*
X111795740Y-55086474D01*
X111676921Y-55165867D01*
X111676917Y-55165870D01*
X111575870Y-55266917D01*
X111575867Y-55266921D01*
X111496474Y-55385740D01*
X111496469Y-55385749D01*
X111441781Y-55517779D01*
X111441779Y-55517785D01*
X111413900Y-55657942D01*
X111413900Y-55657945D01*
X111413900Y-55800855D01*
X111413900Y-55800857D01*
X111413899Y-55800857D01*
X68648881Y-55800857D01*
X68885566Y-55564172D01*
X69497413Y-54952325D01*
X70192513Y-54257225D01*
X70266962Y-54128275D01*
X70305500Y-53984450D01*
X70305500Y-53835550D01*
X70305500Y-53042525D01*
X82189500Y-53042525D01*
X82189500Y-53187475D01*
X82219581Y-53299737D01*
X82227017Y-53327488D01*
X82299488Y-53453011D01*
X82299490Y-53453013D01*
X82299491Y-53453015D01*
X82401985Y-53555509D01*
X82401986Y-53555510D01*
X82401988Y-53555511D01*
X82527511Y-53627982D01*
X82527512Y-53627982D01*
X82527515Y-53627984D01*
X82667525Y-53665500D01*
X82667528Y-53665500D01*
X82812472Y-53665500D01*
X82812475Y-53665500D01*
X82952485Y-53627984D01*
X83078015Y-53555509D01*
X83180509Y-53453015D01*
X83252984Y-53327485D01*
X83290500Y-53187475D01*
X83290500Y-53042525D01*
X83252984Y-52902515D01*
X83221876Y-52848635D01*
X83180511Y-52776988D01*
X83180506Y-52776982D01*
X83078017Y-52674493D01*
X83078011Y-52674488D01*
X83069611Y-52669638D01*
X84551750Y-52669638D01*
X84551750Y-52905361D01*
X84588622Y-53138166D01*
X84661463Y-53362345D01*
X84768475Y-53572364D01*
X84828378Y-53654815D01*
X84828380Y-53654816D01*
X85436727Y-53046469D01*
X85459934Y-53102496D01*
X85532711Y-53211413D01*
X85625337Y-53304039D01*
X85734254Y-53376816D01*
X85790279Y-53400022D01*
X85181932Y-54008368D01*
X85264388Y-54068276D01*
X85474404Y-54175286D01*
X85698583Y-54248127D01*
X85931389Y-54285000D01*
X86167111Y-54285000D01*
X86399916Y-54248127D01*
X86624095Y-54175286D01*
X86834103Y-54068280D01*
X86834109Y-54068276D01*
X86916565Y-54008368D01*
X86916566Y-54008368D01*
X86308219Y-53400022D01*
X86364246Y-53376816D01*
X86473163Y-53304039D01*
X86565789Y-53211413D01*
X86638566Y-53102496D01*
X86661772Y-53046470D01*
X87270118Y-53654816D01*
X87270118Y-53654815D01*
X87330026Y-53572359D01*
X87330030Y-53572353D01*
X87437036Y-53362345D01*
X87509877Y-53138166D01*
X87546750Y-52905361D01*
X87546750Y-52669638D01*
X100251750Y-52669638D01*
X100251750Y-52905361D01*
X100288622Y-53138166D01*
X100361463Y-53362345D01*
X100468475Y-53572364D01*
X100528378Y-53654815D01*
X100528380Y-53654816D01*
X101136727Y-53046469D01*
X101159934Y-53102496D01*
X101232711Y-53211413D01*
X101325337Y-53304039D01*
X101434254Y-53376816D01*
X101490279Y-53400022D01*
X100881932Y-54008368D01*
X100964388Y-54068276D01*
X101174404Y-54175286D01*
X101398583Y-54248127D01*
X101631389Y-54285000D01*
X101867111Y-54285000D01*
X102099916Y-54248127D01*
X102324095Y-54175286D01*
X102534103Y-54068280D01*
X102534109Y-54068276D01*
X102616565Y-54008368D01*
X102616566Y-54008368D01*
X102008219Y-53400022D01*
X102064246Y-53376816D01*
X102173163Y-53304039D01*
X102265789Y-53211413D01*
X102338566Y-53102496D01*
X102361772Y-53046470D01*
X102970118Y-53654816D01*
X102970118Y-53654815D01*
X103030026Y-53572359D01*
X103030030Y-53572353D01*
X103137036Y-53362345D01*
X103209877Y-53138166D01*
X103246750Y-52905361D01*
X103246750Y-52669638D01*
X103209877Y-52436833D01*
X103137036Y-52212654D01*
X103030026Y-52002638D01*
X102970118Y-51920183D01*
X102970118Y-51920182D01*
X102361772Y-52528529D01*
X102338566Y-52472504D01*
X102265789Y-52363587D01*
X102173163Y-52270961D01*
X102064246Y-52198184D01*
X102008218Y-52174976D01*
X102616566Y-51566630D01*
X102616565Y-51566628D01*
X102534114Y-51506725D01*
X102324095Y-51399713D01*
X102099916Y-51326872D01*
X101867111Y-51290000D01*
X101631389Y-51290000D01*
X101398583Y-51326872D01*
X101174404Y-51399713D01*
X100964392Y-51506721D01*
X100881933Y-51566630D01*
X100881933Y-51566631D01*
X101490280Y-52174977D01*
X101434254Y-52198184D01*
X101325337Y-52270961D01*
X101232711Y-52363587D01*
X101159934Y-52472504D01*
X101136727Y-52528530D01*
X100528381Y-51920183D01*
X100528380Y-51920183D01*
X100468471Y-52002642D01*
X100361463Y-52212654D01*
X100288622Y-52436833D01*
X100251750Y-52669638D01*
X87546750Y-52669638D01*
X87509877Y-52436833D01*
X87437036Y-52212654D01*
X87330026Y-52002638D01*
X87270118Y-51920183D01*
X87270118Y-51920182D01*
X86661772Y-52528529D01*
X86638566Y-52472504D01*
X86565789Y-52363587D01*
X86473163Y-52270961D01*
X86364246Y-52198184D01*
X86308218Y-52174976D01*
X86916566Y-51566630D01*
X86916565Y-51566628D01*
X86834114Y-51506725D01*
X86624095Y-51399713D01*
X86399916Y-51326872D01*
X86167111Y-51290000D01*
X85931389Y-51290000D01*
X85698583Y-51326872D01*
X85474404Y-51399713D01*
X85264392Y-51506721D01*
X85181933Y-51566630D01*
X85181933Y-51566631D01*
X85790280Y-52174977D01*
X85734254Y-52198184D01*
X85625337Y-52270961D01*
X85532711Y-52363587D01*
X85459934Y-52472504D01*
X85436727Y-52528530D01*
X84828381Y-51920183D01*
X84828380Y-51920183D01*
X84768471Y-52002642D01*
X84661463Y-52212654D01*
X84588622Y-52436833D01*
X84551750Y-52669638D01*
X83069611Y-52669638D01*
X82952488Y-52602017D01*
X82952489Y-52602017D01*
X82920804Y-52593527D01*
X82812475Y-52564500D01*
X82667525Y-52564500D01*
X82559196Y-52593527D01*
X82527511Y-52602017D01*
X82401988Y-52674488D01*
X82401982Y-52674493D01*
X82299493Y-52776982D01*
X82299488Y-52776988D01*
X82227017Y-52902511D01*
X82227016Y-52902515D01*
X82189500Y-53042525D01*
X70305500Y-53042525D01*
X70305500Y-52527147D01*
X70325185Y-52460108D01*
X70326360Y-52458312D01*
X70382929Y-52373653D01*
X70437619Y-52241620D01*
X70455386Y-52152300D01*
X70465500Y-52101457D01*
X70465500Y-51958542D01*
X70437620Y-51818385D01*
X70437619Y-51818384D01*
X70437619Y-51818380D01*
X70382929Y-51686347D01*
X70382926Y-51686342D01*
X70380546Y-51682780D01*
X70380545Y-51682779D01*
X70303532Y-51567521D01*
X70303529Y-51567517D01*
X70202482Y-51466470D01*
X70202478Y-51466467D01*
X70083659Y-51387074D01*
X70083650Y-51387069D01*
X69951620Y-51332381D01*
X69951614Y-51332379D01*
X69811457Y-51304500D01*
X69811455Y-51304500D01*
X69668545Y-51304500D01*
X69668543Y-51304500D01*
X69528385Y-51332379D01*
X69528379Y-51332381D01*
X69396349Y-51387069D01*
X69396340Y-51387074D01*
X69277521Y-51466467D01*
X69277517Y-51466470D01*
X69176470Y-51567517D01*
X69176467Y-51567521D01*
X69097074Y-51686340D01*
X69097069Y-51686349D01*
X69042381Y-51818379D01*
X69042379Y-51818385D01*
X69014500Y-51958542D01*
X69014500Y-51958545D01*
X69014500Y-52101455D01*
X69014500Y-52101457D01*
X69014499Y-52101457D01*
X69042379Y-52241614D01*
X69042381Y-52241620D01*
X69097069Y-52373650D01*
X69097070Y-52373652D01*
X69097071Y-52373653D01*
X69153602Y-52458258D01*
X69174480Y-52524933D01*
X69174500Y-52527147D01*
X69174500Y-53624400D01*
X69154815Y-53691439D01*
X69138181Y-53712081D01*
X66417488Y-56432773D01*
X66417484Y-56432778D01*
X66343039Y-56561722D01*
X66343038Y-56561723D01*
X66342604Y-56563343D01*
X66304500Y-56705550D01*
X60680500Y-56705550D01*
X60680500Y-53036153D01*
X61939500Y-53036153D01*
X61939500Y-53193846D01*
X61970261Y-53348489D01*
X61970264Y-53348501D01*
X62030602Y-53494172D01*
X62030609Y-53494185D01*
X62118210Y-53625288D01*
X62118213Y-53625292D01*
X62229707Y-53736786D01*
X62229711Y-53736789D01*
X62360814Y-53824390D01*
X62360827Y-53824397D01*
X62415206Y-53846921D01*
X62506503Y-53884737D01*
X62661153Y-53915499D01*
X62661156Y-53915500D01*
X62661158Y-53915500D01*
X62818844Y-53915500D01*
X62818845Y-53915499D01*
X62973497Y-53884737D01*
X63119179Y-53824394D01*
X63250289Y-53736789D01*
X63361789Y-53625289D01*
X63449394Y-53494179D01*
X63509737Y-53348497D01*
X63540500Y-53193842D01*
X63540500Y-53036158D01*
X63540500Y-53036155D01*
X63540499Y-53036153D01*
X63515242Y-52909179D01*
X63509737Y-52881503D01*
X63496125Y-52848640D01*
X63449397Y-52735827D01*
X63449390Y-52735814D01*
X63361789Y-52604711D01*
X63361786Y-52604707D01*
X63250292Y-52493213D01*
X63250288Y-52493210D01*
X63119185Y-52405609D01*
X63119172Y-52405602D01*
X62973501Y-52345264D01*
X62973489Y-52345261D01*
X62818845Y-52314500D01*
X62818842Y-52314500D01*
X62661158Y-52314500D01*
X62661155Y-52314500D01*
X62506510Y-52345261D01*
X62506498Y-52345264D01*
X62360827Y-52405602D01*
X62360814Y-52405609D01*
X62229711Y-52493210D01*
X62229707Y-52493213D01*
X62118213Y-52604707D01*
X62118210Y-52604711D01*
X62030609Y-52735814D01*
X62030602Y-52735827D01*
X61970264Y-52881498D01*
X61970261Y-52881510D01*
X61939500Y-53036153D01*
X60680500Y-53036153D01*
X60680500Y-49134500D01*
X60700185Y-49067461D01*
X60752989Y-49021706D01*
X60804500Y-49010500D01*
X63827761Y-49010500D01*
X63894800Y-49030185D01*
G37*
%TD.AperFunction*%
%TD*%
M02*
