%TF.GenerationSoftware,KiCad,Pcbnew,9.0.7*%
%TF.CreationDate,2026-03-28T20:56:22+01:00*%
%TF.ProjectId,ANE21_PCB,414e4532-315f-4504-9342-2e6b69636164,rev?*%
%TF.SameCoordinates,Original*%
%TF.FileFunction,Paste,Bot*%
%TF.FilePolarity,Positive*%
%FSLAX46Y46*%
G04 Gerber Fmt 4.6, Leading zero omitted, Abs format (unit mm)*
G04 Created by KiCad (PCBNEW 9.0.7) date 2026-03-28 20:56:22*
%MOMM*%
%LPD*%
G01*
G04 APERTURE LIST*
G04 Aperture macros list*
%AMRoundRect*
0 Rectangle with rounded corners*
0 $1 Rounding radius*
0 $2 $3 $4 $5 $6 $7 $8 $9 X,Y pos of 4 corners*
0 Add a 4 corners polygon primitive as box body*
4,1,4,$2,$3,$4,$5,$6,$7,$8,$9,$2,$3,0*
0 Add four circle primitives for the rounded corners*
1,1,$1+$1,$2,$3*
1,1,$1+$1,$4,$5*
1,1,$1+$1,$6,$7*
1,1,$1+$1,$8,$9*
0 Add four rect primitives between the rounded corners*
20,1,$1+$1,$2,$3,$4,$5,0*
20,1,$1+$1,$4,$5,$6,$7,0*
20,1,$1+$1,$6,$7,$8,$9,0*
20,1,$1+$1,$8,$9,$2,$3,0*%
G04 Aperture macros list end*
%ADD10R,1.150000X0.600000*%
%ADD11R,1.150000X0.300000*%
%ADD12RoundRect,0.155000X0.212500X0.155000X-0.212500X0.155000X-0.212500X-0.155000X0.212500X-0.155000X0*%
%ADD13RoundRect,0.160000X0.197500X0.160000X-0.197500X0.160000X-0.197500X-0.160000X0.197500X-0.160000X0*%
%ADD14RoundRect,0.072500X-0.637500X-0.217500X0.637500X-0.217500X0.637500X0.217500X-0.637500X0.217500X0*%
%ADD15RoundRect,0.155000X0.155000X-0.212500X0.155000X0.212500X-0.155000X0.212500X-0.155000X-0.212500X0*%
%ADD16RoundRect,0.155000X-0.212500X-0.155000X0.212500X-0.155000X0.212500X0.155000X-0.212500X0.155000X0*%
%ADD17RoundRect,0.182500X0.182500X0.322500X-0.182500X0.322500X-0.182500X-0.322500X0.182500X-0.322500X0*%
%ADD18RoundRect,0.062500X0.312500X0.062500X-0.312500X0.062500X-0.312500X-0.062500X0.312500X-0.062500X0*%
%ADD19R,1.600000X5.700000*%
%ADD20RoundRect,0.100000X-0.225000X-0.100000X0.225000X-0.100000X0.225000X0.100000X-0.225000X0.100000X0*%
%ADD21R,5.700000X1.600000*%
%ADD22RoundRect,0.160000X0.160000X-0.197500X0.160000X0.197500X-0.160000X0.197500X-0.160000X-0.197500X0*%
%ADD23R,0.590000X1.340000*%
%ADD24RoundRect,0.250000X0.750000X-0.275000X0.750000X0.275000X-0.750000X0.275000X-0.750000X-0.275000X0*%
%ADD25RoundRect,0.160000X-0.160000X0.197500X-0.160000X-0.197500X0.160000X-0.197500X0.160000X0.197500X0*%
%ADD26R,1.340000X0.590000*%
%ADD27RoundRect,0.243800X-0.816200X0.846200X-0.816200X-0.846200X0.816200X-0.846200X0.816200X0.846200X0*%
%ADD28RoundRect,0.160000X-0.197500X-0.160000X0.197500X-0.160000X0.197500X0.160000X-0.197500X0.160000X0*%
%ADD29RoundRect,0.155000X-0.155000X0.212500X-0.155000X-0.212500X0.155000X-0.212500X0.155000X0.212500X0*%
%ADD30RoundRect,0.020000X0.217500X-0.080000X0.217500X0.080000X-0.217500X0.080000X-0.217500X-0.080000X0*%
G04 APERTURE END LIST*
D10*
%TO.C,U11*%
X112880000Y-84400000D03*
X112880000Y-85200000D03*
D11*
X112880000Y-86350000D03*
X112880000Y-87350000D03*
X112880000Y-87850000D03*
X112880000Y-88850000D03*
D10*
X112880000Y-90800000D03*
X112880000Y-90000000D03*
D11*
X112880000Y-89350000D03*
X112880000Y-88350000D03*
X112880000Y-86850000D03*
X112880000Y-85850000D03*
%TD*%
D12*
%TO.C,C13*%
X103010000Y-85392500D03*
X101875000Y-85392500D03*
%TD*%
D13*
%TO.C,R10*%
X98780000Y-79100000D03*
X97585000Y-79100000D03*
%TD*%
D14*
%TO.C,U5*%
X108410000Y-54570000D03*
X108410000Y-53620000D03*
X108410000Y-52670000D03*
X110700000Y-52670000D03*
X110700000Y-54570000D03*
%TD*%
D15*
%TO.C,C8*%
X101130000Y-78870000D03*
X101130000Y-77735000D03*
%TD*%
D16*
%TO.C,C2*%
X107945000Y-55910000D03*
X109080000Y-55910000D03*
%TD*%
D17*
%TO.C,U6*%
X109710000Y-87880000D03*
X109710000Y-86630000D03*
X108810000Y-87880000D03*
X108810000Y-86630000D03*
D18*
X110735000Y-86255000D03*
X110735000Y-86755000D03*
X110735000Y-87255000D03*
X110735000Y-87755000D03*
X110735000Y-88255000D03*
X107785000Y-88255000D03*
X107785000Y-87755000D03*
X107785000Y-87255000D03*
X107785000Y-86755000D03*
X107785000Y-86255000D03*
%TD*%
D19*
%TO.C,L1*%
X97730000Y-83510000D03*
X93030000Y-83510000D03*
%TD*%
D16*
%TO.C,C9*%
X97635000Y-78090000D03*
X98770000Y-78090000D03*
%TD*%
D20*
%TO.C,U9*%
X103810000Y-101260000D03*
X103810000Y-100610000D03*
X103810000Y-99960000D03*
X105710000Y-99960000D03*
X105710000Y-101260000D03*
%TD*%
D21*
%TO.C,L2*%
X108850000Y-75600000D03*
X108850000Y-70900000D03*
%TD*%
D13*
%TO.C,R6*%
X109155000Y-51300000D03*
X107960000Y-51300000D03*
%TD*%
D15*
%TO.C,C12*%
X99960000Y-81460000D03*
X99960000Y-80325000D03*
%TD*%
D22*
%TO.C,R4*%
X81170000Y-95455000D03*
X81170000Y-94260000D03*
%TD*%
D16*
%TO.C,C7*%
X103860000Y-76250000D03*
X104995000Y-76250000D03*
%TD*%
%TO.C,C3*%
X109355000Y-84940000D03*
X110490000Y-84940000D03*
%TD*%
D23*
%TO.C,U8*%
X101210000Y-81422500D03*
X102160000Y-81422500D03*
X103110000Y-81422500D03*
X103110000Y-83802500D03*
X102160000Y-83802500D03*
X101210000Y-83802500D03*
%TD*%
D24*
%TO.C,SW3*%
X106480000Y-107570000D03*
X106480000Y-103120000D03*
%TD*%
D25*
%TO.C,R7*%
X106570000Y-87285000D03*
X106570000Y-88480000D03*
%TD*%
D10*
%TO.C,J2*%
X112565000Y-52540000D03*
X112565000Y-53340000D03*
D11*
X112565000Y-54490000D03*
X112565000Y-55490000D03*
X112565000Y-55990000D03*
X112565000Y-56990000D03*
D10*
X112565000Y-58940000D03*
X112565000Y-58140000D03*
D11*
X112565000Y-57490000D03*
X112565000Y-56490000D03*
X112565000Y-54990000D03*
X112565000Y-53990000D03*
%TD*%
D16*
%TO.C,C10*%
X97635000Y-77050000D03*
X98770000Y-77050000D03*
%TD*%
D15*
%TO.C,C15*%
X101840000Y-88787500D03*
X101840000Y-87652500D03*
%TD*%
D25*
%TO.C,R12*%
X102990000Y-87615000D03*
X102990000Y-88810000D03*
%TD*%
D26*
%TO.C,U7*%
X105050000Y-77570000D03*
X105050000Y-78520000D03*
X105050000Y-79470000D03*
X102670000Y-79470000D03*
X102670000Y-78520000D03*
X102670000Y-77570000D03*
%TD*%
D27*
%TO.C,D2*%
X109870000Y-78640000D03*
X109870000Y-83070000D03*
%TD*%
D28*
%TO.C,R11*%
X101870000Y-86432500D03*
X103065000Y-86432500D03*
%TD*%
D29*
%TO.C,C11*%
X105500000Y-81017500D03*
X105500000Y-82152500D03*
%TD*%
D30*
%TO.C,U4*%
X107370000Y-65340000D03*
X107370000Y-64840000D03*
X107370000Y-64340000D03*
X107370000Y-63840000D03*
X107370000Y-63340000D03*
X106595000Y-63340000D03*
X106595000Y-63840000D03*
X106595000Y-64340000D03*
X106595000Y-64840000D03*
X106595000Y-65340000D03*
%TD*%
D15*
%TO.C,C1*%
X110260000Y-51230000D03*
X110260000Y-50095000D03*
%TD*%
D29*
%TO.C,C6*%
X104490000Y-81027500D03*
X104490000Y-82162500D03*
%TD*%
D24*
%TO.C,SW2*%
X110682500Y-107500000D03*
X110682500Y-103050000D03*
%TD*%
D25*
%TO.C,R5*%
X74250000Y-94380000D03*
X74250000Y-95575000D03*
%TD*%
D20*
%TO.C,U10*%
X103840000Y-98272500D03*
X103840000Y-97622500D03*
X103840000Y-96972500D03*
X105740000Y-96972500D03*
X105740000Y-98272500D03*
%TD*%
D25*
%TO.C,R9*%
X100030000Y-77685000D03*
X100030000Y-78880000D03*
%TD*%
D15*
%TO.C,C14*%
X100730000Y-88780000D03*
X100730000Y-87645000D03*
%TD*%
D24*
%TO.C,SW1*%
X115280000Y-107500000D03*
X115280000Y-103050000D03*
%TD*%
M02*
