%TF.GenerationSoftware,KiCad,Pcbnew,9.0.7*%
%TF.CreationDate,2026-03-28T20:56:22+01:00*%
%TF.ProjectId,ANE21_PCB,414e4532-315f-4504-9342-2e6b69636164,rev?*%
%TF.SameCoordinates,Original*%
%TF.FileFunction,Soldermask,Top*%
%TF.FilePolarity,Negative*%
%FSLAX46Y46*%
G04 Gerber Fmt 4.6, Leading zero omitted, Abs format (unit mm)*
G04 Created by KiCad (PCBNEW 9.0.7) date 2026-03-28 20:56:22*
%MOMM*%
%LPD*%
G01*
G04 APERTURE LIST*
G04 Aperture macros list*
%AMRoundRect*
0 Rectangle with rounded corners*
0 $1 Rounding radius*
0 $2 $3 $4 $5 $6 $7 $8 $9 X,Y pos of 4 corners*
0 Add a 4 corners polygon primitive as box body*
4,1,4,$2,$3,$4,$5,$6,$7,$8,$9,$2,$3,0*
0 Add four circle primitives for the rounded corners*
1,1,$1+$1,$2,$3*
1,1,$1+$1,$4,$5*
1,1,$1+$1,$6,$7*
1,1,$1+$1,$8,$9*
0 Add four rect primitives between the rounded corners*
20,1,$1+$1,$2,$3,$4,$5,0*
20,1,$1+$1,$4,$5,$6,$7,0*
20,1,$1+$1,$6,$7,$8,$9,0*
20,1,$1+$1,$8,$9,$2,$3,0*%
G04 Aperture macros list end*
%ADD10C,0.010000*%
%ADD11RoundRect,0.160000X0.197500X0.160000X-0.197500X0.160000X-0.197500X-0.160000X0.197500X-0.160000X0*%
%ADD12RoundRect,0.218750X0.218750X0.256250X-0.218750X0.256250X-0.218750X-0.256250X0.218750X-0.256250X0*%
%ADD13RoundRect,0.030000X-0.120000X-0.257500X0.120000X-0.257500X0.120000X0.257500X-0.120000X0.257500X0*%
%ADD14C,1.100000*%
%ADD15C,1.600000*%
%ADD16RoundRect,0.102000X0.150000X0.775000X-0.150000X0.775000X-0.150000X-0.775000X0.150000X-0.775000X0*%
%ADD17RoundRect,0.102000X0.600000X1.375000X-0.600000X1.375000X-0.600000X-1.375000X0.600000X-1.375000X0*%
%ADD18R,2.000000X2.000000*%
%ADD19C,2.199000*%
%ADD20C,6.100000*%
%ADD21R,0.200000X0.700000*%
%ADD22RoundRect,0.160000X-0.197500X-0.160000X0.197500X-0.160000X0.197500X0.160000X-0.197500X0.160000X0*%
%ADD23C,0.650000*%
%ADD24O,2.304000X1.204000*%
%ADD25O,2.004000X1.204000*%
%ADD26R,1.700000X1.700000*%
%ADD27C,1.700000*%
%ADD28C,2.311400*%
%ADD29C,1.422400*%
%ADD30C,3.249000*%
%ADD31C,3.250000*%
%ADD32RoundRect,0.102000X-0.699000X-0.699000X0.699000X-0.699000X0.699000X0.699000X-0.699000X0.699000X0*%
%ADD33C,1.602000*%
%ADD34C,1.734000*%
%ADD35C,2.559000*%
%ADD36RoundRect,0.250000X-1.050000X1.050000X-1.050000X-1.050000X1.050000X-1.050000X1.050000X1.050000X0*%
%ADD37C,2.600000*%
G04 APERTURE END LIST*
D10*
%TO.C,J4*%
X93699250Y-58447500D02*
X93299250Y-58447500D01*
X93299250Y-56447500D01*
X93699250Y-56447500D01*
X93699250Y-58447500D01*
G36*
X93699250Y-58447500D02*
G01*
X93299250Y-58447500D01*
X93299250Y-56447500D01*
X93699250Y-56447500D01*
X93699250Y-58447500D01*
G37*
X94199250Y-58447500D02*
X93799250Y-58447500D01*
X93799250Y-56447500D01*
X94199250Y-56447500D01*
X94199250Y-58447500D01*
G36*
X94199250Y-58447500D02*
G01*
X93799250Y-58447500D01*
X93799250Y-56447500D01*
X94199250Y-56447500D01*
X94199250Y-58447500D01*
G37*
X94699250Y-58447500D02*
X94299250Y-58447500D01*
X94299250Y-56447500D01*
X94699250Y-56447500D01*
X94699250Y-58447500D01*
G36*
X94699250Y-58447500D02*
G01*
X94299250Y-58447500D01*
X94299250Y-56447500D01*
X94699250Y-56447500D01*
X94699250Y-58447500D01*
G37*
X95199250Y-58447500D02*
X94799250Y-58447500D01*
X94799250Y-56447500D01*
X95199250Y-56447500D01*
X95199250Y-58447500D01*
G36*
X95199250Y-58447500D02*
G01*
X94799250Y-58447500D01*
X94799250Y-56447500D01*
X95199250Y-56447500D01*
X95199250Y-58447500D01*
G37*
X95699250Y-58447500D02*
X95299250Y-58447500D01*
X95299250Y-56447500D01*
X95699250Y-56447500D01*
X95699250Y-58447500D01*
G36*
X95699250Y-58447500D02*
G01*
X95299250Y-58447500D01*
X95299250Y-56447500D01*
X95699250Y-56447500D01*
X95699250Y-58447500D01*
G37*
X96199250Y-58447500D02*
X95799250Y-58447500D01*
X95799250Y-56447500D01*
X96199250Y-56447500D01*
X96199250Y-58447500D01*
G36*
X96199250Y-58447500D02*
G01*
X95799250Y-58447500D01*
X95799250Y-56447500D01*
X96199250Y-56447500D01*
X96199250Y-58447500D01*
G37*
X96699250Y-58447500D02*
X96299250Y-58447500D01*
X96299250Y-56447500D01*
X96699250Y-56447500D01*
X96699250Y-58447500D01*
G36*
X96699250Y-58447500D02*
G01*
X96299250Y-58447500D01*
X96299250Y-56447500D01*
X96699250Y-56447500D01*
X96699250Y-58447500D01*
G37*
X97199250Y-58447500D02*
X96799250Y-58447500D01*
X96799250Y-56447500D01*
X97199250Y-56447500D01*
X97199250Y-58447500D01*
G36*
X97199250Y-58447500D02*
G01*
X96799250Y-58447500D01*
X96799250Y-56447500D01*
X97199250Y-56447500D01*
X97199250Y-58447500D01*
G37*
X97699250Y-58447500D02*
X97299250Y-58447500D01*
X97299250Y-56447500D01*
X97699250Y-56447500D01*
X97699250Y-58447500D01*
G36*
X97699250Y-58447500D02*
G01*
X97299250Y-58447500D01*
X97299250Y-56447500D01*
X97699250Y-56447500D01*
X97699250Y-58447500D01*
G37*
X98199250Y-58447500D02*
X97799250Y-58447500D01*
X97799250Y-56447500D01*
X98199250Y-56447500D01*
X98199250Y-58447500D01*
G36*
X98199250Y-58447500D02*
G01*
X97799250Y-58447500D01*
X97799250Y-56447500D01*
X98199250Y-56447500D01*
X98199250Y-58447500D01*
G37*
X98699250Y-58447500D02*
X98299250Y-58447500D01*
X98299250Y-56447500D01*
X98699250Y-56447500D01*
X98699250Y-58447500D01*
G36*
X98699250Y-58447500D02*
G01*
X98299250Y-58447500D01*
X98299250Y-56447500D01*
X98699250Y-56447500D01*
X98699250Y-58447500D01*
G37*
X99199250Y-58447500D02*
X98799250Y-58447500D01*
X98799250Y-56447500D01*
X99199250Y-56447500D01*
X99199250Y-58447500D01*
G36*
X99199250Y-58447500D02*
G01*
X98799250Y-58447500D01*
X98799250Y-56447500D01*
X99199250Y-56447500D01*
X99199250Y-58447500D01*
G37*
X99699250Y-58447500D02*
X99299250Y-58447500D01*
X99299250Y-56447500D01*
X99699250Y-56447500D01*
X99699250Y-58447500D01*
G36*
X99699250Y-58447500D02*
G01*
X99299250Y-58447500D01*
X99299250Y-56447500D01*
X99699250Y-56447500D01*
X99699250Y-58447500D01*
G37*
X100199250Y-58447500D02*
X99799250Y-58447500D01*
X99799250Y-56447500D01*
X100199250Y-56447500D01*
X100199250Y-58447500D01*
G36*
X100199250Y-58447500D02*
G01*
X99799250Y-58447500D01*
X99799250Y-56447500D01*
X100199250Y-56447500D01*
X100199250Y-58447500D01*
G37*
X100699250Y-58447500D02*
X100299250Y-58447500D01*
X100299250Y-56447500D01*
X100699250Y-56447500D01*
X100699250Y-58447500D01*
G36*
X100699250Y-58447500D02*
G01*
X100299250Y-58447500D01*
X100299250Y-56447500D01*
X100699250Y-56447500D01*
X100699250Y-58447500D01*
G37*
X101199250Y-58447500D02*
X100799250Y-58447500D01*
X100799250Y-56447500D01*
X101199250Y-56447500D01*
X101199250Y-58447500D01*
G36*
X101199250Y-58447500D02*
G01*
X100799250Y-58447500D01*
X100799250Y-56447500D01*
X101199250Y-56447500D01*
X101199250Y-58447500D01*
G37*
X101699250Y-58447500D02*
X101299250Y-58447500D01*
X101299250Y-56447500D01*
X101699250Y-56447500D01*
X101699250Y-58447500D01*
G36*
X101699250Y-58447500D02*
G01*
X101299250Y-58447500D01*
X101299250Y-56447500D01*
X101699250Y-56447500D01*
X101699250Y-58447500D01*
G37*
X102199250Y-58447500D02*
X101799250Y-58447500D01*
X101799250Y-56447500D01*
X102199250Y-56447500D01*
X102199250Y-58447500D01*
G36*
X102199250Y-58447500D02*
G01*
X101799250Y-58447500D01*
X101799250Y-56447500D01*
X102199250Y-56447500D01*
X102199250Y-58447500D01*
G37*
X102699250Y-58447500D02*
X102299250Y-58447500D01*
X102299250Y-56447500D01*
X102699250Y-56447500D01*
X102699250Y-58447500D01*
G36*
X102699250Y-58447500D02*
G01*
X102299250Y-58447500D01*
X102299250Y-56447500D01*
X102699250Y-56447500D01*
X102699250Y-58447500D01*
G37*
%TD*%
D11*
%TO.C,R13*%
X111280000Y-107500000D03*
X110085000Y-107500000D03*
%TD*%
D12*
%TO.C,D4*%
X111070000Y-106120000D03*
X109495000Y-106120000D03*
%TD*%
D13*
%TO.C,U2*%
X84290000Y-94070000D03*
X84790000Y-94070000D03*
X85290000Y-94070000D03*
X85790000Y-94070000D03*
X86290000Y-94070000D03*
X86290000Y-94845000D03*
X85790000Y-94845000D03*
X85290000Y-94845000D03*
X84790000Y-94845000D03*
X84290000Y-94845000D03*
%TD*%
D14*
%TO.C,J1*%
X86310000Y-52855000D03*
D15*
X66310000Y-52855000D03*
D16*
X85560000Y-58130000D03*
X85310000Y-50580000D03*
X85060000Y-58130000D03*
X84810000Y-50580000D03*
X84560000Y-58130000D03*
X84310000Y-50580000D03*
X84060000Y-58130000D03*
X83810000Y-50580000D03*
X83560000Y-58130000D03*
X83310000Y-50580000D03*
X83060000Y-58130000D03*
X82810000Y-50580000D03*
X82560000Y-58130000D03*
X82310000Y-50580000D03*
X82060000Y-58130000D03*
X81810000Y-50580000D03*
X81560000Y-58130000D03*
X81310000Y-50580000D03*
X81060000Y-58130000D03*
X80810000Y-50580000D03*
X80560000Y-58130000D03*
X80310000Y-50580000D03*
X80060000Y-58130000D03*
X79810000Y-50580000D03*
X79560000Y-58130000D03*
X79310000Y-50580000D03*
X79060000Y-58130000D03*
X78810000Y-50580000D03*
X78560000Y-58130000D03*
X78310000Y-50580000D03*
X78060000Y-58130000D03*
X77810000Y-50580000D03*
X77560000Y-58130000D03*
X77310000Y-50580000D03*
X77060000Y-58130000D03*
X76810000Y-50580000D03*
X76560000Y-58130000D03*
X76310000Y-50580000D03*
X76060000Y-58130000D03*
X75810000Y-50580000D03*
X75560000Y-58130000D03*
X75310000Y-50580000D03*
X75060000Y-58130000D03*
X74810000Y-50580000D03*
X74560000Y-58130000D03*
X74310000Y-50580000D03*
X74060000Y-58130000D03*
X73810000Y-50580000D03*
X73560000Y-58130000D03*
X73310000Y-50580000D03*
X73060000Y-58130000D03*
X72810000Y-50580000D03*
X72560000Y-58130000D03*
X72310000Y-50580000D03*
X72060000Y-58130000D03*
X71810000Y-50580000D03*
X71560000Y-58130000D03*
X71310000Y-50580000D03*
X69060000Y-58130000D03*
X68810000Y-50580000D03*
X68560000Y-58130000D03*
X68310000Y-50580000D03*
X68060000Y-58130000D03*
X67810000Y-50580000D03*
X67560000Y-58130000D03*
X67310000Y-50580000D03*
X67060000Y-58130000D03*
D17*
X86660000Y-57355000D03*
X65960000Y-57355000D03*
%TD*%
D12*
%TO.C,D3*%
X67200000Y-103210000D03*
X65625000Y-103210000D03*
%TD*%
D11*
%TO.C,R3*%
X68425000Y-104550000D03*
X67230000Y-104550000D03*
%TD*%
D18*
%TO.C,TP6*%
X113460000Y-106960000D03*
%TD*%
D19*
%TO.C,J4*%
X105499250Y-56547500D03*
X90999250Y-56547500D03*
X106099250Y-51597500D03*
X90399250Y-51597500D03*
%TD*%
D20*
%TO.C,Module1*%
X64920000Y-98740000D03*
X112920000Y-98740000D03*
X64920000Y-65740000D03*
X112920000Y-65740000D03*
D21*
X81620000Y-100740000D03*
X81620000Y-97660000D03*
X82020000Y-100740000D03*
X82020000Y-97660000D03*
X82420000Y-100740000D03*
X82420000Y-97660000D03*
X82820000Y-100740000D03*
X82820000Y-97660000D03*
X83220000Y-100740000D03*
X83220000Y-97660000D03*
X83620000Y-100740000D03*
X83620000Y-97660000D03*
X84020000Y-100740000D03*
X84020000Y-97660000D03*
X84420000Y-100740000D03*
X84420000Y-97660000D03*
X84820000Y-100740000D03*
X84820000Y-97660000D03*
X85220000Y-100740000D03*
X85220000Y-97660000D03*
X85620000Y-100740000D03*
X85620000Y-97660000D03*
X86020000Y-100740000D03*
X86020000Y-97660000D03*
X86420000Y-100740000D03*
X86420000Y-97660000D03*
X86820000Y-100740000D03*
X86820000Y-97660000D03*
X87220000Y-100740000D03*
X87220000Y-97660000D03*
X87620000Y-100740000D03*
X87620000Y-97660000D03*
X88020000Y-100740000D03*
X88020000Y-97660000D03*
X88420000Y-100740000D03*
X88420000Y-97660000D03*
X88820000Y-100740000D03*
X88820000Y-97660000D03*
X89220000Y-100740000D03*
X89220000Y-97660000D03*
X89620000Y-100740000D03*
X89620000Y-97660000D03*
X90020000Y-100740000D03*
X90020000Y-97660000D03*
X90420000Y-100740000D03*
X90420000Y-97660000D03*
X90820000Y-100740000D03*
X90820000Y-97660000D03*
X91220000Y-100740000D03*
X91220000Y-97660000D03*
X91620000Y-100740000D03*
X91620000Y-97660000D03*
X92020000Y-100740000D03*
X92020000Y-97660000D03*
X92420000Y-100740000D03*
X92420000Y-97660000D03*
X92820000Y-100740000D03*
X92820000Y-97660000D03*
X93220000Y-100740000D03*
X93220000Y-97660000D03*
X93620000Y-100740000D03*
X93620000Y-97660000D03*
X94020000Y-100740000D03*
X94020000Y-97660000D03*
X94420000Y-100740000D03*
X94420000Y-97660000D03*
X94820000Y-100740000D03*
X94820000Y-97660000D03*
X95220000Y-100740000D03*
X95220000Y-97660000D03*
X95620000Y-100740000D03*
X95620000Y-97660000D03*
X96020000Y-100740000D03*
X96020000Y-97660000D03*
X96420000Y-100740000D03*
X96420000Y-97660000D03*
X96820000Y-100740000D03*
X96820000Y-97660000D03*
X97220000Y-100740000D03*
X97220000Y-97660000D03*
X97620000Y-100740000D03*
X97620000Y-97660000D03*
X98020000Y-100740000D03*
X98020000Y-97660000D03*
X98420000Y-100740000D03*
X98420000Y-97660000D03*
X98820000Y-100740000D03*
X98820000Y-97660000D03*
X99220000Y-100740000D03*
X99220000Y-97660000D03*
X99620000Y-100740000D03*
X99620000Y-97660000D03*
X100020000Y-100740000D03*
X100020000Y-97660000D03*
X100420000Y-100740000D03*
X100420000Y-97660000D03*
X100820000Y-100740000D03*
X100820000Y-97660000D03*
X101220000Y-100740000D03*
X101220000Y-97660000D03*
X81620000Y-66820000D03*
X81620000Y-63740000D03*
X82020000Y-66820000D03*
X82020000Y-63740000D03*
X82420000Y-66820000D03*
X82420000Y-63740000D03*
X82820000Y-66820000D03*
X82820000Y-63740000D03*
X83220000Y-66820000D03*
X83220000Y-63740000D03*
X83620000Y-66820000D03*
X83620000Y-63740000D03*
X84020000Y-66820000D03*
X84020000Y-63740000D03*
X84420000Y-66820000D03*
X84420000Y-63740000D03*
X84820000Y-66820000D03*
X84820000Y-63740000D03*
X85220000Y-66820000D03*
X85220000Y-63740000D03*
X85620000Y-66820000D03*
X85620000Y-63740000D03*
X86020000Y-66820000D03*
X86020000Y-63740000D03*
X86420000Y-66820000D03*
X86420000Y-63740000D03*
X86820000Y-66820000D03*
X86820000Y-63740000D03*
X87220000Y-66820000D03*
X87220000Y-63740000D03*
X87620000Y-66820000D03*
X87620000Y-63740000D03*
X88020000Y-66820000D03*
X88020000Y-63740000D03*
X88420000Y-66820000D03*
X88420000Y-63740000D03*
X88820000Y-66820000D03*
X88820000Y-63740000D03*
X89220000Y-66820000D03*
X89220000Y-63740000D03*
X89620000Y-66820000D03*
X89620000Y-63740000D03*
X90020000Y-66820000D03*
X90020000Y-63740000D03*
X90420000Y-66820000D03*
X90420000Y-63740000D03*
X90820000Y-66820000D03*
X90820000Y-63740000D03*
X91220000Y-66820000D03*
X91220000Y-63740000D03*
X91620000Y-66820000D03*
X91620000Y-63740000D03*
X92020000Y-66820000D03*
X92020000Y-63740000D03*
X92420000Y-66820000D03*
X92420000Y-63740000D03*
X92820000Y-66820000D03*
X92820000Y-63740000D03*
X93220000Y-66820000D03*
X93220000Y-63740000D03*
X93620000Y-66820000D03*
X93620000Y-63740000D03*
X94020000Y-66820000D03*
X94020000Y-63740000D03*
X94420000Y-66820000D03*
X94420000Y-63740000D03*
X94820000Y-66820000D03*
X94820000Y-63740000D03*
X95220000Y-66820000D03*
X95220000Y-63740000D03*
X95620000Y-66820000D03*
X95620000Y-63740000D03*
X96020000Y-66820000D03*
X96020000Y-63740000D03*
X96420000Y-66820000D03*
X96420000Y-63740000D03*
X96820000Y-66820000D03*
X96820000Y-63740000D03*
X97220000Y-66820000D03*
X97220000Y-63740000D03*
X97620000Y-66820000D03*
X97620000Y-63740000D03*
X98020000Y-66820000D03*
X98020000Y-63740000D03*
X98420000Y-66820000D03*
X98420000Y-63740000D03*
X98820000Y-66820000D03*
X98820000Y-63740000D03*
X99220000Y-66820000D03*
X99220000Y-63740000D03*
X99620000Y-66820000D03*
X99620000Y-63740000D03*
X100020000Y-66820000D03*
X100020000Y-63740000D03*
X100420000Y-66820000D03*
X100420000Y-63740000D03*
X100820000Y-66820000D03*
X100820000Y-63740000D03*
X101220000Y-66820000D03*
X101220000Y-63740000D03*
%TD*%
D18*
%TO.C,TP1*%
X113470000Y-103890000D03*
%TD*%
D22*
%TO.C,R2*%
X110085000Y-103120000D03*
X111280000Y-103120000D03*
%TD*%
D12*
%TO.C,D1*%
X111080000Y-104460000D03*
X109505000Y-104460000D03*
%TD*%
D18*
%TO.C,TP2*%
X65140000Y-105580000D03*
%TD*%
D13*
%TO.C,U3*%
X77280000Y-97265000D03*
X77780000Y-97265000D03*
X78280000Y-97265000D03*
X78780000Y-97265000D03*
X79280000Y-97265000D03*
X79280000Y-98040000D03*
X78780000Y-98040000D03*
X78280000Y-98040000D03*
X77780000Y-98040000D03*
X77280000Y-98040000D03*
%TD*%
D23*
%TO.C,U11*%
X113955000Y-84710000D03*
X113955000Y-90490000D03*
D24*
X113455000Y-83280000D03*
X113455000Y-91920000D03*
D25*
X117635000Y-83280000D03*
X117635000Y-91920000D03*
%TD*%
D26*
%TO.C,J8*%
X90120000Y-104400000D03*
D27*
X90120000Y-106940000D03*
X92660000Y-104400000D03*
X92660000Y-106940000D03*
X95200000Y-104400000D03*
X95200000Y-106940000D03*
X97740000Y-104400000D03*
X97740000Y-106940000D03*
X100280000Y-104400000D03*
X100280000Y-106940000D03*
X102820000Y-104400000D03*
X102820000Y-106940000D03*
%TD*%
D28*
%TO.C,J3*%
X103970700Y-72317800D03*
X90838900Y-72317800D03*
D29*
X100910000Y-69600000D03*
X98408100Y-69600000D03*
X96401500Y-69600000D03*
X93899600Y-69600000D03*
%TD*%
D30*
%TO.C,U1*%
X71405000Y-78730000D03*
D31*
X82835000Y-78730000D03*
D32*
X82835000Y-85080000D03*
D33*
X81565000Y-87620000D03*
X80295000Y-85080000D03*
X79025000Y-87620000D03*
X77755000Y-85080000D03*
X76485000Y-87620000D03*
X75215000Y-85080000D03*
X73945000Y-87620000D03*
X72675000Y-85080000D03*
X71405000Y-87620000D03*
D34*
X82585000Y-92450000D03*
X80045000Y-92450000D03*
X74195000Y-92450000D03*
X71655000Y-92450000D03*
D35*
X69375000Y-81780000D03*
X84865000Y-81780000D03*
%TD*%
D26*
%TO.C,J5*%
X76180000Y-104410000D03*
D27*
X76180000Y-106950000D03*
X78720000Y-104410000D03*
X78720000Y-106950000D03*
X81260000Y-104410000D03*
X81260000Y-106950000D03*
X83800000Y-104410000D03*
X83800000Y-106950000D03*
X86340000Y-104410000D03*
X86340000Y-106950000D03*
%TD*%
D23*
%TO.C,J2*%
X113640000Y-52850000D03*
X113640000Y-58630000D03*
D24*
X113140000Y-51420000D03*
X113140000Y-60060000D03*
D25*
X117320000Y-51420000D03*
X117320000Y-60060000D03*
%TD*%
D36*
%TO.C,J6*%
X117968483Y-71929163D03*
D37*
X117968483Y-77009163D03*
%TD*%
M02*
