M48
; DRILL file {KiCad 9.0.7} date 2026-03-28T20:47:33+0100
; FORMAT={-:-/ absolute / metric / decimal}
; #@! TF.CreationDate,2026-03-28T20:47:33+01:00
; #@! TF.GenerationSoftware,Kicad,Pcbnew,9.0.7
; #@! TF.FileFunction,Plated,1,4,PTH
FMAT,2
METRIC
; #@! TA.AperFunction,Plated,PTH,ViaDrill
T1C0.250
; #@! TA.AperFunction,Plated,PTH,ComponentDrill
T2C0.600
; #@! TA.AperFunction,Plated,PTH,ComponentDrill
T3C0.890
; #@! TA.AperFunction,Plated,PTH,ComponentDrill
T4C0.914
; #@! TA.AperFunction,Plated,PTH,ComponentDrill
T5C1.000
; #@! TA.AperFunction,Plated,PTH,ComponentDrill
T6C1.020
; #@! TA.AperFunction,Plated,PTH,ComponentDrill
T7C1.300
; #@! TA.AperFunction,Plated,PTH,ComponentDrill
T8C1.330
; #@! TA.AperFunction,Plated,PTH,ComponentDrill
T9C1.570
%
G90
G05
T1
X65.94Y-59.61
X71.64Y-59.77
X71.73Y-98.34
X72.18Y-52.82
X72.2Y-51.92
X72.81Y-52.33
X73.12Y-59.75
X73.293Y-51.957
X73.3Y-52.82
X73.74Y-52.36
X74.27Y-51.95
X74.28Y-52.86
X74.51Y-97.31
X75.22Y-99.33
X76.31Y-56.67
X77.54Y-56.79
X78.28Y-96.47
X79.06Y-56.84
X80.467Y-63.695
X80.56Y-56.83
X81.05Y-100.52
X81.088Y-62.944
X81.17Y-96.38
X81.61Y-96.87
X82.06Y-56.83
X82.378Y-62.944
X82.41Y-65.92
X82.58Y-52.24
X82.643Y-101.661
X83.017Y-53.56
X83.05Y-65.92
X83.56Y-56.83
X83.578Y-101.661
X83.66Y-65.91
X84.03Y-98.41
X84.61Y-63.0
X84.67Y-99.325
X85.06Y-56.83
X85.21Y-66.14
X85.25Y-64.79
X85.27Y-95.55
X85.34Y-99.325
X85.44Y-98.52
X86.02Y-100.08
X86.41Y-66.18
X86.42Y-64.65
X86.57Y-59.57
X86.79Y-99.57
X87.095Y-101.965
X87.31Y-98.82
X87.41Y-102.53
X87.62Y-66.23
X87.62Y-98.31
X87.63Y-64.49
X88.11Y-67.77
X88.15Y-101.456
X88.386Y-99.214
X88.39Y-62.93
X88.55Y-102.46
X88.78Y-99.8
X88.92Y-82.24
X88.95Y-88.75
X89.45Y-99.78
X89.62Y-98.67
X89.99Y-101.59
X90.01Y-64.58
X90.03Y-99.52
X90.13Y-81.27
X90.27Y-82.43
X90.95Y-66.06
X90.97Y-99.87
X90.99Y-64.56
X91.02Y-101.56
X91.06Y-81.81
X91.46Y-65.4
X91.48Y-98.55
X91.53Y-66.05
X91.66Y-81.39
X91.68Y-82.32
X91.95Y-78.67
X92.1Y-99.67
X92.135Y-66.05
X92.42Y-64.48
X92.67Y-99.325
X92.74Y-65.85
X92.87Y-77.93
X93.0Y-88.0
X93.03Y-79.74
X93.06Y-78.81
X93.43Y-98.39
X93.62Y-66.01
X93.63Y-64.78
X93.72Y-99.325
X94.0Y-55.93
X94.01Y-78.78
X94.31Y-99.01
X94.42Y-100.04
X94.82Y-64.59
X94.82Y-66.05
X95.48Y-55.93
X95.62Y-100.02
X95.86Y-64.49
X96.02Y-66.11
X96.05Y-98.48
X96.24Y-96.4
X97.0Y-55.93
X97.21Y-64.61
X97.22Y-66.14
X97.75Y-100.34
X98.24Y-96.93
X98.39Y-64.62
X98.43Y-66.09
X98.5Y-55.96
X99.17Y-59.36
X99.4Y-101.88
X99.59Y-64.55
X99.62Y-66.09
X99.783Y-59.438
X99.979Y-59.984
X100.02Y-101.65
X100.06Y-82.55
X100.079Y-58.939
X100.172Y-98.893
X100.74Y-101.83
X100.82Y-64.6
X100.82Y-66.07
X100.903Y-98.456
X101.13Y-99.13
X101.49Y-55.91
X101.75Y-99.52
X102.04Y-58.97
X102.05Y-59.71
X102.51Y-59.34
X102.71Y-96.86
X102.99Y-58.97
X103.0Y-59.78
X103.28Y-56.1
X106.27Y-82.16
X106.32Y-77.57
X106.69Y-53.61
X107.04Y-99.54
X107.06Y-101.28
X107.128Y-100.502
X107.615Y-105.24
X107.62Y-99.08
X107.82Y-84.87
X108.14Y-64.23
X108.26Y-99.54
X108.26Y-100.47
X108.69Y-107.47
X108.89Y-99.55
X108.938Y-70.872
X109.06Y-101.27
X109.36Y-101.89
X109.47Y-78.565
X110.6Y-55.88
X113.33Y-81.74
X113.81Y-93.07
X114.17Y-89.74
X114.34Y-85.84
X114.84Y-89.98
X114.94Y-85.45
T3
X71.405Y-87.62
X72.675Y-85.08
X73.945Y-87.62
X75.215Y-85.08
X76.485Y-87.62
X77.755Y-85.08
X79.025Y-87.62
X80.295Y-85.08
X81.565Y-87.62
X82.835Y-85.08
T4
X93.9Y-69.6
X96.401Y-69.6
X98.408Y-69.6
X100.91Y-69.6
T5
X76.18Y-104.41
X76.18Y-106.95
X78.72Y-104.41
X78.72Y-106.95
X81.26Y-104.41
X81.26Y-106.95
X83.8Y-104.41
X83.8Y-106.95
X86.34Y-104.41
X86.34Y-106.95
X90.12Y-104.4
X90.12Y-106.94
X92.66Y-104.4
X92.66Y-106.94
X95.2Y-104.4
X95.2Y-106.94
X97.74Y-104.4
X97.74Y-106.94
X100.28Y-104.4
X100.28Y-106.94
X102.82Y-104.4
X102.82Y-106.94
T6
X71.655Y-92.45
X74.195Y-92.45
X80.045Y-92.45
X82.585Y-92.45
T7
X117.968Y-71.929
X117.968Y-77.009
T8
X90.399Y-51.597
X90.999Y-56.547
X105.499Y-56.547
X106.099Y-51.597
T9
X69.375Y-81.78
X84.865Y-81.78
T2
G00X113.69Y-51.42
M15
G01X112.59Y-51.42
M16
G05
G00X113.69Y-60.06
M15
G01X112.59Y-60.06
M16
G05
G00X114.005Y-83.28
M15
G01X112.905Y-83.28
M16
G05
G00X114.005Y-91.92
M15
G01X112.905Y-91.92
M16
G05
G00X117.72Y-51.42
M15
G01X116.92Y-51.42
M16
G05
G00X117.72Y-60.06
M15
G01X116.92Y-60.06
M16
G05
G00X118.035Y-83.28
M15
G01X117.235Y-83.28
M16
G05
G00X118.035Y-91.92
M15
G01X117.235Y-91.92
M16
G05
M30
